<?xml version="1.0" encoding="utf-8"?>
<!-- Generator: Adobe Illustrator 27.2.0, SVG Export Plug-In . SVG Version: 6.00 Build 0)  -->
<svg version="1.1" id="Calque_1" xmlns="http://www.w3.org/2000/svg" xmlns:xlink="http://www.w3.org/1999/xlink" x="0px" y="0px"
	 viewBox="0 0 17 17" style="enable-background:new 0 0 17 17;" xml:space="preserve">
<style type="text/css">
	.st0{fill:#FFFFFF;}
</style>
<path class="st0" d="M12.4,5.4c0-0.7-0.6-1.3-1.3-1.3h-0.7V2.5c0-0.2-0.2-0.4-0.4-0.4S9.7,2.3,9.7,2.5v1.6H7.2V2.5
	c0-0.2-0.2-0.4-0.4-0.4S6.5,2.3,6.5,2.5v1.6H5.8c-0.7,0-1.3,0.6-1.3,1.3c0,0.5,0.3,1,0.8,1.2v0.3c0,1.6,1.2,2.9,2.7,3.1v2.6
	c-0.1,0-0.1-0.1-0.2-0.1c-0.8-0.6-1.9-0.3-2-0.3l-0.3,0.1v0.3c0,0,0,1.2,0.8,1.8c0.3,0.3,0.8,0.4,1.1,0.5c0.1,0,0.1,0,0.2,0
	c0.2,0,0.5-0.1,0.6-0.2c0.2,0.1,0.4,0.2,0.6,0.2c0.1,0,0.1,0,0.2,0c0.4,0,0.8-0.2,1.1-0.5c0.8-0.6,0.8-1.7,0.8-1.8v-0.3l-0.3-0.1
	c-0.1,0-1.2-0.3-1.9,0.3c-0.1,0-0.1,0.1-0.1,0.1V10c1.6-0.2,2.8-1.5,2.8-3.1V6.6C12,6.4,12.3,5.9,12.4,5.4L12.4,5.4z M8.5,9.3
	c-1.3,0-2.4-1.1-2.4-2.4V6.7h4.8v0.2C10.9,8.2,9.8,9.3,8.5,9.3z"/>
</svg>
