<?xml version="1.0" encoding="utf-8"?>
<!-- Generator: Adobe Illustrator 27.2.0, SVG Export Plug-In . SVG Version: 6.00 Build 0)  -->
<svg version="1.1" id="Calque_1" xmlns="http://www.w3.org/2000/svg" xmlns:xlink="http://www.w3.org/1999/xlink" x="0px" y="0px"
	 viewBox="0 0 17 17" style="enable-background:new 0 0 17 17;" xml:space="preserve">
<style type="text/css">
	.st0{fill:#FFFFFF;}
</style>
<path class="st0" d="M8.5,2C5.9,2,3.8,4.1,3.8,6.7c0,1.5,1,2.6,2,3.5c0.2,0.2,0.4,0.4,0.6,0.7v2.4c0,0.9,0.7,1.6,1.6,1.6h1
	c0.9,0,1.6-0.7,1.6-1.6v-2.4c0.2-0.3,0.5-0.6,0.8-0.9c0.9-0.9,1.8-1.8,1.8-3.3C13.2,4.1,11.1,2,8.5,2L8.5,2z M9.3,13.4H7.7v-0.8h1.6
	V13.4z M9.3,12.3H7.7v-0.8h1.6V12.3z M10.9,9.5c-0.3,0.3-0.5,0.6-0.8,0.8H8.9V8.7c0,0,0,0,0,0c0.5,0,1.1-0.3,1.5-0.7
	c0.8-0.7,0.9-1.7,0.9-1.8l0-0.3l-0.3,0c0,0-1.1-0.1-1.9,0.6C8.9,6.6,8.7,6.9,8.6,7.1C8.4,6.9,8.2,6.6,8,6.5C7.2,5.8,6.1,5.9,6.1,5.9
	l-0.3,0l0,0.3c0,0,0.1,1.1,0.9,1.8c0.5,0.4,1,0.7,1.5,0.7v1.6H6.9c-0.2-0.2-0.4-0.4-0.6-0.6c-0.9-0.9-1.8-1.8-1.8-3c0-2.2,1.8-4,4-4
	s4,1.8,4,4C12.5,7.8,11.7,8.6,10.9,9.5L10.9,9.5z"/>
</svg>
