<?xml version="1.0" encoding="utf-8"?>
<!-- Generator: Adobe Illustrator 27.2.0, SVG Export Plug-In . SVG Version: 6.00 Build 0)  -->
<svg version="1.1" id="Calque_1" xmlns="http://www.w3.org/2000/svg" xmlns:xlink="http://www.w3.org/1999/xlink" x="0px" y="0px"
	 viewBox="0 0 17 17" style="enable-background:new 0 0 17 17;" xml:space="preserve">
<style type="text/css">
	.st0{fill:#FFFFFF;}
</style>
<path class="st0" d="M5.4,8.5c0-0.9-0.7-1.7-1.7-1.7S2.1,7.6,2.1,8.5c0,0.8,0.5,1.4,1.3,1.6v1.5c-0.7,0.2-1.3,0.8-1.3,1.6
	c0,0.9,0.7,1.7,1.7,1.7s1.7-0.7,1.7-1.7c0-0.8-0.6-1.4-1.3-1.6v-1.5C4.9,9.9,5.4,9.3,5.4,8.5z"/>
<path class="st0" d="M3.8,5.4c0.3,0,0.6-0.1,0.9-0.2l2.4,2.4C6.9,7.9,6.8,8.2,6.8,8.5c0,0.9,0.7,1.7,1.7,1.7s1.7-0.7,1.7-1.7
	S9.4,6.8,8.5,6.8c-0.3,0-0.6,0.1-0.9,0.2L5.2,4.7c0.2-0.2,0.2-0.6,0.2-0.9c0-0.9-0.7-1.7-1.7-1.7S2.1,2.9,2.1,3.8S2.9,5.4,3.8,5.4z"
	/>
<path class="st0" d="M8.5,5.4c0.8,0,1.4-0.6,1.6-1.3h1.5c0.2,0.7,0.8,1.3,1.6,1.3c0.9,0,1.7-0.7,1.7-1.7s-0.7-1.7-1.7-1.7
	c-0.8,0-1.4,0.5-1.6,1.3h-1.5C9.9,2.7,9.3,2.1,8.5,2.1c-0.9,0-1.7,0.7-1.7,1.7S7.6,5.4,8.5,5.4z"/>
<circle class="st0" cx="13.2" cy="13.2" r="1.7"/>
<path class="st0" d="M13.2,6.8c-0.9,0-1.7,0.7-1.7,1.7c0,0.3,0.1,0.7,0.3,0.9l-2.4,2.4c-0.3-0.2-0.6-0.3-0.9-0.3
	c-0.9,0-1.7,0.7-1.7,1.7s0.7,1.7,1.7,1.7s1.7-0.7,1.7-1.7c0-0.3-0.1-0.6-0.2-0.9l2.5-2.4c0.2,0.1,0.5,0.2,0.8,0.2
	c0.9,0,1.7-0.7,1.7-1.7S14.2,6.8,13.2,6.8L13.2,6.8z"/>
</svg>
