<?xml version="1.0" encoding="utf-8"?>
<!-- Generator: Adobe Illustrator 27.2.0, SVG Export Plug-In . SVG Version: 6.00 Build 0)  -->
<svg version="1.1" id="Calque_1" xmlns="http://www.w3.org/2000/svg" xmlns:xlink="http://www.w3.org/1999/xlink" x="0px" y="0px"
	 viewBox="0 0 17 17" style="enable-background:new 0 0 17 17;" xml:space="preserve">
<style type="text/css">
	.st0{fill:#FFFFFF;}
</style>
<path class="st0" d="M14.9,9.4V7.6H13c0-0.2-0.1-0.4-0.2-0.6l1.6-0.9l-0.9-1.5L12,5.5c-0.1-0.2-0.3-0.3-0.5-0.5l0.9-1.6l-1.5-0.9
	L10,4.1C9.8,4.1,9.6,4,9.4,4V2.1H7.6V4C7.4,4,7.2,4.1,7,4.1L6.1,2.5L4.5,3.4L5.5,5C5.3,5.2,5.1,5.3,5,5.5L3.4,4.6L2.5,6.1L4.1,7
	C4,7.2,4,7.4,3.9,7.6H2.1v1.8h1.8C4,9.6,4,9.8,4.1,10l-1.6,0.9l0.9,1.5L5,11.5c0.1,0.2,0.3,0.3,0.5,0.5l-0.9,1.6l1.5,0.9L7,12.9
	C7.2,12.9,7.4,13,7.6,13v1.8h1.8V13c0.2,0,0.4-0.1,0.6-0.2l0.9,1.6l1.5-0.9L11.5,12c0.2-0.1,0.3-0.3,0.5-0.5l1.6,0.9l0.9-1.5
	L12.9,10C12.9,9.8,13,9.6,13,9.4L14.9,9.4L14.9,9.4z M12.4,8.5c0,2.1-1.7,3.9-3.9,3.9s-3.9-1.7-3.9-3.9s1.7-3.9,3.9-3.9
	S12.4,6.4,12.4,8.5z"/>
<circle class="st0" cx="8.5" cy="8.5" r="2"/>
</svg>
