<?xml version="1.0" encoding="utf-8"?>
<!-- Generator: Adobe Illustrator 27.2.0, SVG Export Plug-In . SVG Version: 6.00 Build 0)  -->
<svg version="1.1" id="Calque_1" xmlns="http://www.w3.org/2000/svg" xmlns:xlink="http://www.w3.org/1999/xlink" x="0px" y="0px"
	 viewBox="0 0 17 17" style="enable-background:new 0 0 17 17;" xml:space="preserve">
<style type="text/css">
	.st0{fill:#FFFFFF;}
</style>
<path class="st0" d="M14.2,11.1c-0.2-0.2-0.2-0.6-0.2-1c0-0.6,0-1.3-0.5-1.8l-1.5-1.5V6.3c0-0.8-0.5-1.2-0.9-1.7
	c-0.3-0.3-0.6-0.6-0.6-0.9V2.2H6.4v1.6c0,0.1-0.2,0.2-0.3,0.3C5.8,4.4,5.3,4.9,5.3,5.7v0.9L3.7,8.3c-0.5,0.5-0.5,1.2-0.5,1.8
	c0,0.4,0,0.8-0.2,1l-1.1,1.1l3,3l1.1-1.1c0,0,0.3-0.1,0.4-0.1c0.4,0,1.1,0,1.7-0.6l0.6-0.6c0,0,0,0,0,0l0.6,0.6
	c0.6,0.6,1.3,0.6,1.7,0.6c0.1,0,0.4,0,0.4,0.1l1.1,1.1l3-3L14.2,11.1L14.2,11.1z M7.9,12.5l-0.4,0.4c-0.4,0.4-0.8,0.4-1.2,0.4
	c-0.3,0-0.7,0-0.9,0.3l-0.6,0.6l-1.9-1.9l0.6-0.6c0.4-0.4,0.4-1,0.4-1.6c0-0.5,0-1,0.3-1.3l1.1-1.1v0.5l0,0l0,0v2.5c0,0.5,0.4,1,1,1
	c0.1,0,0.2,0,0.3-0.1c0.1,0.4,0.5,0.7,0.9,0.7c0.1,0,0.2,0,0.3-0.1c0,0,0.1,0,0.1,0L8,12.4L7.9,12.5L7.9,12.5z M9.7,7.5H9V12
	c0,0.1-0.1,0.2-0.2,0.2c-0.1,0-0.2-0.1-0.2-0.2V7.5H7.8v3.8c0,0.3-0.5,0.3-0.5,0V7.5H6.5v3.2c0,0.3-0.5,0.3-0.5,0v-5
	c0-0.5,0.3-0.8,0.6-1.1c0.2-0.2,0.5-0.5,0.5-0.9V2.9h2.7v0.8c0,0.6,0.4,1,0.8,1.4c0.3,0.3,0.6,0.7,0.7,1.1c0,0,0,0.1,0,0.1v2.4l0,0
	c0,0.4-0.1,0.7-0.4,0.8v-2h-0.8v4.1c0,0.1-0.1,0.2-0.2,0.2s-0.3-0.1-0.3-0.2L9.7,7.5L9.7,7.5z M11.8,13.6c-0.3-0.3-0.6-0.3-0.9-0.3
	c-0.4,0-0.8,0-1.2-0.4l-0.3-0.3c0.1-0.1,0.1-0.1,0.1-0.2c0.1,0.1,0.3,0.1,0.4,0.1c0.5,0,1-0.4,1-1v-1.3c0.1,0,0.2-0.1,0.4-0.1
	C11.8,10,12,9.4,12,8.7V7.9L13,8.8c0.3,0.3,0.3,0.8,0.3,1.3c0,0.5,0,1.1,0.4,1.6l0.6,0.6l-1.9,1.9L11.8,13.6L11.8,13.6z"/>
</svg>
