<?xml version="1.0" encoding="utf-8"?>
<!-- Generator: Adobe Illustrator 27.2.0, SVG Export Plug-In . SVG Version: 6.00 Build 0)  -->
<svg version="1.1" id="Calque_1" xmlns="http://www.w3.org/2000/svg" xmlns:xlink="http://www.w3.org/1999/xlink" x="0px" y="0px"
	 viewBox="0 0 17 17" style="enable-background:new 0 0 17 17;" xml:space="preserve">
<style type="text/css">
	.st0{fill:#FFFFFF;}
</style>
<path class="st0" d="M14.9,8.5c0-3.5-2.9-6.3-6.4-6.3S2.2,5,2.1,8.4v0.1l0,0V11h12.8L14.9,8.5L14.9,8.5L14.9,8.5z M13.1,8
	c-0.1-0.5-0.2-1-0.4-1.4l0.9-0.5c0.3,0.6,0.5,1.2,0.5,1.8L13.1,8L13.1,8z M3.9,8l-1-0.1c0.1-0.7,0.3-1.4,0.6-2l0.9,0.5
	C4.2,6.9,4,7.4,3.9,8z M4.6,8.5c0-2.1,1.7-3.9,3.9-3.9s3.9,1.7,3.9,3.9H4.6L4.6,8.5L4.6,8.5z M8.9,3.9v-1c0.8,0,1.5,0.3,2.2,0.6
	l-0.5,0.8C10.1,4.1,9.5,3.9,8.9,3.9L8.9,3.9z M8.1,3.9C7.6,4,7.1,4.1,6.6,4.3L6.1,3.5C6.7,3.2,7.4,3,8.1,2.9
	C8.1,2.9,8.1,3.9,8.1,3.9z M13.2,5.4l-0.8,0.5c-0.3-0.4-0.7-0.8-1.1-1.1l0.5-0.8C12.3,4.3,12.8,4.8,13.2,5.4L13.2,5.4z M5.4,3.8
	l0.5,0.8C5.5,5,5.1,5.3,4.8,5.8L3.9,5.3C4.3,4.7,4.8,4.2,5.4,3.8z M2.9,10.2V8.6l1,0.1v0.5h9.2V8.7l1-0.1v1.6
	C14.1,10.2,2.8,10.2,2.9,10.2z"/>
<polygon class="st0" points="13.1,11.7 13.1,12.1 13.1,12.5 13.1,12.9 12.4,12.9 12.4,12.5 12.4,12.1 12.4,11.7 11,11.7 11,12.1 
	11,12.5 11,12.9 10.2,12.9 10.2,12.5 10.2,12.1 10.2,11.7 8.9,11.7 8.9,12.1 8.9,12.5 8.9,12.9 8.1,12.9 8.1,12.5 8.1,12.1 
	8.1,11.7 6.8,11.7 6.8,12.1 6.8,12.5 6.8,12.9 6,12.9 6,12.5 6,12.1 6,11.7 4.6,11.7 4.6,12.1 4.6,12.5 4.6,12.9 3.9,12.9 3.9,12.5 
	3.9,12.1 3.9,11.7 2.1,11.7 2.1,14.9 14.9,14.9 14.9,11.7 "/>
</svg>
