<svg width="48" height="48" viewBox="0 0 48 48" fill="none" xmlns="http://www.w3.org/2000/svg">
<path d="M16.3389 16.3636H1.01664L7.62481 9.67273L0 2.03636L2.03328 0L9.65809 7.63636L16.3389 1.01818V16.3636ZM48 2.03636L40.3752 9.67273L47.1286 16.3636H31.7337V1.01818L38.4871 7.63636L46.112 0L48 2.03636ZM31.7337 25.3091H16.3389V22.6182H31.7337V25.3091ZM0 45.9636L7.62481 38.3273L1.01664 31.6364H16.3389V46.9818L9.65809 40.3636L2.03328 48L0 45.9636ZM31.7337 31.6364H47.1286L40.3752 38.3273L48 45.9636L46.112 48L38.4871 40.3636L31.7337 46.9818V31.6364Z" fill="white"/>
</svg>
