<svg width="48" height="48" viewBox="0 0 48 48" fill="none" xmlns="http://www.w3.org/2000/svg">
<path d="M47.441 17.4882C48.9537 20.6055 47.2897 24.5593 43.7348 26.4601C40.9363 27.9048 37.8352 27.7527 35.8687 26.156C34.5072 27.4486 31.5574 30.9461 31.3305 34.5957C33.2214 39.5379 34.129 44.252 34.129 47.8256H31.3305C31.3305 44.6322 30.4985 40.3743 28.9101 35.8883C26.1872 35.204 20.8171 35.5842 17.3378 38.4734C18.1698 41.0586 17.0352 44.252 14.2367 46.3809C10.9843 48.738 6.67308 48.5099 4.70654 45.7727C2.66437 42.9594 3.64764 38.7776 6.97563 36.3445C9.8498 34.1395 13.6316 34.1395 15.8251 36.1164C19.3043 33.4552 24.145 32.4668 27.7756 32.923C26.4141 29.8056 24.9014 26.6882 23.0105 23.7989C20.4389 23.1146 16.7327 22.8865 14.388 23.7229C14.9174 26.3841 13.2534 29.5015 10.1523 31.1742C6.52181 32.999 2.36182 32.0866 0.77346 29.0453C-0.890536 26.0039 0.77346 21.9741 4.47963 20.0733C7.58072 18.4006 11.2113 18.9328 13.1022 21.1378C15.2956 20.3774 18.1698 20.1493 20.7414 20.4535C18.2454 17.184 15.5225 14.1427 12.3458 11.7096C10.0767 13.9906 6.06799 13.9906 3.04255 11.4815C-0.134174 8.89635 -0.966173 4.63847 1.22728 1.9773C3.34509 -0.60785 7.65635 -0.683883 10.8331 1.90126C13.2534 3.8021 14.2367 6.76741 13.6316 9.20049C17.4891 12.0898 20.7414 15.6633 23.54 19.5411C23.7669 16.0435 24.4476 12.622 25.8847 10.7972L25.809 10.6451C24.2207 7.52775 25.8847 3.49797 29.5152 1.67316C33.0701 -0.227683 37.3057 0.760755 38.8941 3.72607C40.4825 6.84344 38.8941 10.7972 35.1879 12.698C32.6919 13.9906 29.8934 13.9906 27.9269 12.698C27.1705 13.8385 26.3385 16.5757 26.1116 22.9626V23.4948C27.473 25.6998 28.6832 27.9048 29.5909 30.1858C31.0279 27.2205 33.2214 24.8634 34.129 23.875C32.9188 20.9097 34.5072 17.184 38.0621 15.4352C41.617 13.5344 45.8526 14.5228 47.441 17.4882Z" fill="white"/>
</svg>
