<svg width="48" height="48" viewBox="0 0 48 48" fill="none" xmlns="http://www.w3.org/2000/svg">
<path d="M21.8049 14.6182L13.9024 19.0545L0 17.9636V8.94546L16.9024 0L33.0732 1.45455C35.3415 1.67273 37.0244 3.49091 37.0244 5.67273C37.0244 6.98182 36.5854 8 35.7805 8.8C34.9756 9.67273 33.8049 10.0364 32.6341 10.0364L24.5854 9.81818C24.5854 12.1455 24.0732 13.2364 21.8049 14.6182ZM2.78049 10.5455V15.3455L13.2439 16.2909L20.3415 12.1455C21.5122 11.4182 21.878 10.4727 21.2927 9.52728C20.6341 8.58182 19.3902 8.58182 18.3659 9.23637L12.8049 12.6545L11.3415 10.2545L16.9024 6.83637C18.8049 5.67273 21 5.81818 22.6098 7.05454L32.6341 7.27273C33.0732 7.27273 33.5122 7.12728 33.8049 6.83637C34.0976 6.54546 34.2439 6.10909 34.2439 5.67273C34.2439 4.94546 33.6585 4.36364 32.8537 4.21818L17.4878 2.76364L2.78049 10.5455ZM24.0732 22.6182H31.8293L20.122 33.0909L22.3902 25.7455H16.2439L22.6098 17.2364H30.0732L24.0732 22.6182ZM26.2683 33.3818L34.2439 28.8L48 30.2545V39.4182L31.0976 48L14.9268 46.5455C12.5854 46.3273 10.9756 44.5091 10.9756 42.1818C10.9756 41.0182 11.3415 40 12.2195 39.2C13.0244 38.3273 14.1951 37.9636 15.3659 37.9636L23.4878 38.0364C22.9756 35.8545 24.8049 34.1818 26.2683 33.3818ZM30.439 45.2364L45.1463 37.7455V32.7273L34.8293 31.7091L27.6585 35.7818C26.561 36.3636 25.9756 37.6 26.7073 38.5455C27.5122 39.4182 28.6829 39.2727 29.6341 38.7636L35.122 35.3455L36.5854 37.7455L31.0976 41.1636C29.3415 42.3273 27 42.1091 25.3171 40.9455L15.3659 40.7273C14.7805 40.7273 14.4146 40.9455 14.1951 41.1636C13.9024 41.4545 13.7561 41.7455 13.7561 42.1818C13.7561 43.0545 14.4146 43.6364 15.1463 43.7818L30.439 45.2364Z" fill="white"/>
</svg>
