<svg width="740" height="280" viewBox="0 0 740 280" fill="none" xmlns="http://www.w3.org/2000/svg">
<g clip-path="url(#clip0_2_4)">
<path d="M156.32 228.146C161.346 234.069 164.677 240.42 168.131 247.325L166.34 250.647L168.222 248.147L168.842 248.454C172.418 255.199 176.101 261.044 181.318 266.603C174.087 271.969 166.362 276.624 157.97 280C155.327 279.212 142.028 254.445 141.301 250.021L143.794 251.27V249.399L140.675 250.028C139.645 243.783 131.835 240.651 131.901 233.762C125.268 236.205 118.865 233.574 112.151 235.695L110.632 234.397L108.932 237.26C108.844 245.238 108.907 253.488 108.772 261.616C108.722 264.642 107.779 267.576 108.096 270.996C108.318 273.399 109.433 275.169 109.37 277.532C100.605 275.091 92.6578 281.373 83.9837 277.572L83.0881 159.363C84.5818 158.784 86.7206 160.048 87.7352 159.995C88.1141 159.976 88.0295 158.859 88.5149 158.737C93.926 157.395 98.8799 159.939 103.483 160.552C111.312 161.597 120.499 158.665 127.846 159.351C132.746 159.807 140.719 163.158 146.155 164.197C150.044 164.938 154.688 164.491 158.853 165.893C163.018 167.294 165.466 178.348 167.054 182.086C169.14 186.995 172.446 190.64 174.523 195.295L165.103 220.963C162.658 224.924 161.27 227.267 156.323 228.143L156.32 228.146ZM99.3653 163.111L100.608 162.163L99.669 160.611L99.3653 163.108V163.111ZM98.1002 164.982V163.737H97.4864V164.982H98.1002ZM131.278 164.366H129.405V165.611H131.278V164.366ZM118.755 171.236V169.991H118.141V171.236H118.755ZM99.9822 174.987V172.491L98.1096 173.12C97.9092 174.299 98.8423 175.194 99.9822 174.987ZM116.886 176.862C116.51 175.451 114.928 175.529 113.76 175.623C112.987 175.986 116.018 177.181 116.886 176.862ZM131.901 176.865V175.619H131.287V176.865H131.901ZM103.11 178.119H101.861L102.804 179.364L103.11 178.119ZM111.252 179.987L110.006 178.742V179.99H111.252V179.987ZM94.3487 180H92.4761V180.613H94.3487V180ZM143.02 206.099L147.952 196.25L141.896 186.585C135.085 185.497 129.189 181.232 122.272 181.936C117.819 182.39 112.84 184.37 108.121 183.741L109.314 202.257C109.301 203.968 107.57 210.232 108.722 210.97C120.59 210.588 132.345 212.203 143.024 206.095L143.02 206.099ZM157.569 184.377H155.693V185.619H156.62L157.569 184.377ZM98.7265 194.995V193.75H98.1127V194.995H98.7265ZM92.4699 204.381H91.2236V205.626H92.4699V204.381ZM99.3559 208.752V207.503L98.1096 208.445L99.3559 208.752ZM156.316 211.89L154.447 211.258V213.132H156.316V211.893V211.89ZM135.652 219.383C136.257 217.29 137.544 216.123 135.348 214.396C133.789 215.644 132.59 219.248 135.652 219.383ZM96.2276 218.766H94.9813V219.38H96.2276V218.766ZM152.559 220.64H151.312V221.254H152.559V220.64ZM95.5982 223.134V221.889H94.9844V223.134H95.5982ZM143.18 223.763L144.414 222.824L143.484 221.889L143.18 223.763ZM87.4596 230.636V229.391H86.8458V230.636H87.4596ZM100.158 233.637C99.6221 232.858 100.396 231.634 99.6753 231.268C98.1534 231.872 98.9081 235.57 100.289 235.01L101.232 233.778C100.918 233.796 100.298 233.84 100.161 233.637H100.158ZM127.52 233.136V231.265H126.906V233.136H127.52ZM138.16 234.391C138.373 233.249 137.475 232.32 136.291 232.52V233.759L138.16 234.391ZM117.509 233.146H116.262V233.759H117.509V233.146ZM87.4627 242.522H85.5901V243.767H87.4627V242.522ZM148.178 245.019V244.093L147.232 243.148L145.679 244.086L148.178 245.019ZM88.089 249.402C86.9429 249.255 86.2634 249.371 85.5995 250.337L86.5233 251.26L88.0859 250.644V249.402H88.089ZM155.073 251.273C155.311 251.576 156.73 250.181 156.313 249.399C156.075 249.095 154.657 250.491 155.073 251.273ZM155.684 255.647V253.776H155.07V255.647H155.684ZM96.2276 261.907H94.9781L95.9207 263.152L96.2276 261.907ZM160.697 262.536L158.825 261.904C158.618 262.821 159.088 263.209 159.758 263.766L160.697 262.533V262.536ZM175.728 265.029L176.962 264.091L176.032 263.155L175.728 265.029ZM95.6013 264.407L92.4793 265.036V265.646L95.5982 266.278V264.407H95.6013ZM164.461 266.281L165.695 265.342L164.765 264.407L164.461 266.281ZM171.338 270.038H170.092V270.652H171.338V270.038ZM94.665 271.919L93.7381 272.845L94.665 273.771L95.5919 272.845L94.665 271.919ZM103.114 275.654L101.867 274.409V275.657H103.114V275.654Z" fill="#2F2F2F"/>
<path d="M308.419 13.0495L307.796 16.7976L309.393 13.6502L324.54 18.8281C325.275 22.7796 329.628 26.731 331.097 30.0912C331.657 31.3739 331.463 32.8631 332.067 34.124C333.267 36.6238 338.377 45.8657 338.277 47.6522C336.414 55.0702 334.338 62.1847 331.059 69.1208C330.373 70.5694 329.086 71.8177 328.332 73.2725C327.627 74.6303 327.233 77.5087 326.634 78.3159C326.177 78.9353 321.646 79.1731 321.587 81.4602C325.056 86.0123 327.37 91.4217 330.671 96.171C331.498 97.3598 332.947 97.801 334.1 99.625C338.061 105.895 338.756 114.733 345.335 119.654C339.27 126.519 328.977 126.306 321.862 131.781C319.006 126.584 315.859 121.469 313.097 116.229C311.6 113.388 310.655 110.115 309.286 107.531C305.281 99.9785 299.231 93.7995 295.903 85.8621C288.462 86.0092 280.684 86.9634 273.372 85.5774C273.084 89.1409 274.064 92.3478 274.02 95.9238C273.948 102.165 274.033 104.812 274.549 110.966C275.094 117.449 275.22 122.952 273.992 129.35C270.576 128.696 266.824 130.079 263.668 130.023C259.381 129.948 254.129 127.129 249.583 128.724C249.583 127.542 249.057 126.45 248.96 125.277C247.688 110.309 246.429 99.7345 248.324 84.6388C248.546 82.8774 247.391 79.6424 249.573 79.9428L248.293 78.9791C248.847 74.7649 250.262 69.4149 250.262 65.257C250.262 60.7862 249.655 55.7272 249.57 50.8684C249.423 42.5024 247.322 34.1021 247.312 26.3837C247.306 21.5625 249.129 16.2407 248.321 11.1661C252.579 11.3069 256.888 10.9815 261.15 11.1755C263.546 11.285 267.018 12.4301 269.301 12.4238C271.393 12.4175 272.79 11.0222 274.446 10.6905C278.273 9.93028 285.675 11.6291 289.925 11.8168C296.435 12.1078 302.175 10.581 308.419 13.0464V13.0495ZM302.156 19.9169C303.421 18.2305 297.647 16.9103 299.67 20.5489L302.156 19.9169ZM294.644 24.297C295.28 23.6681 293.423 21.7878 292.771 22.426C292.12 23.0643 293.993 24.9352 294.644 24.297ZM257.715 23.0518C256.722 22.06 254.85 23.9309 255.842 24.9227C256.835 25.9145 258.708 24.0435 257.715 23.0518ZM265.224 26.1804H263.978V27.4256H265.224V26.1804ZM272.736 28.6802H271.49V30.5511L272.73 29.6031V28.677L272.736 28.6802ZM329.068 29.9347H327.821V30.548H329.068V29.9347ZM299.648 31.7994V30.5542H299.034V31.7994H299.648ZM307.16 30.5573L305.288 30.8639L306.233 31.7994H307.16V30.5573ZM306.405 36.3078C295.69 33.9988 284.764 35.4286 273.992 34.3023C274.687 37.8908 272.627 41.2041 272.686 44.6205C272.78 49.8954 274.565 55.7366 274.017 61.1616C276.231 60.9895 278.489 62.4287 280.559 62.4381C281.742 62.4443 282.961 61.7842 284.291 61.7842C289.562 61.7936 304.154 61.5996 308.137 58.0987C308.741 57.5668 311.885 49.7577 311.91 48.9975C311.932 48.328 310.072 42.4367 309.637 41.6827C308.854 40.328 306.477 39.0766 306.402 36.3046L306.405 36.3078ZM258.341 43.0656H257.092V44.3108L258.338 43.0656H258.341ZM320.312 48.0558C323.055 47.8774 322.282 45.8626 319.683 46.1911L320.312 48.0558ZM261.47 48.0652C259.491 47.4613 258.373 49.4167 259.907 50.5493L261.466 48.9881V48.062L261.47 48.0652ZM253.96 51.1938L252.213 50.7339L251.991 51.6725L250.209 51.4973C251.067 54.1722 252.911 53.2086 253.96 51.1938ZM258.964 56.8097C259.168 55.6709 258.275 54.7416 257.095 54.9419L256.466 56.8097H258.968H258.964ZM320.303 56.1871V54.9419H319.689V56.1871H320.303ZM265.221 58.69L264.917 56.8159L263.987 57.7514L265.221 58.69ZM329.697 60.5734L327.828 59.9414C327.621 60.8612 328.094 61.2523 328.77 61.8124H329.697V60.5765V60.5734ZM268.356 63.0701C268.042 62.7635 266.16 63.9805 265.487 64.2715C264.914 64.5186 263.784 63.8303 263.981 64.9347C265.709 64.9535 268.449 65.5323 268.356 63.0701ZM325.939 69.9468H324.69L325.632 71.192L325.939 69.9468ZM324.687 73.6949L324.38 71.824L323.444 72.7688V73.6949H324.687ZM309.665 72.4497H308.419L309.052 74.9432H309.662V72.4497H309.665ZM319.063 76.8235L320.296 75.8849L319.366 74.9495L319.063 76.8235ZM294.647 77.443L293.401 76.1978V77.4461H294.647V77.443ZM263.342 84.9486V83.7034H262.728V84.9486H263.342ZM292.139 84.3322H290.892V84.9454H292.139V84.3322ZM268.356 86.832H267.109V89.3287C268.352 88.9939 268.512 87.9959 268.352 86.832H268.356ZM303.406 88.7092H302.159V89.3224H303.406V88.7092ZM309.039 93.0861H307.166V93.6993H309.039V93.0861ZM266.48 95.5859H265.23V96.8311L266.477 95.5859H266.48ZM250.2 105.582V104.337H249.586V105.582H250.2ZM315.299 104.966H314.052V105.579H315.299V104.966ZM332.205 113.084C333.145 114.107 334.714 111.132 334.075 109.962C333.004 110.084 331.601 112.427 332.205 113.084ZM253.334 116.21L252.088 114.965V116.213H253.334V116.21ZM336.577 118.713V117.468H335.963V118.713H336.577ZM322.805 121.213V119.967H322.191V121.213H322.805ZM265.227 121.835L264.288 120.602L263.352 121.532L265.227 121.835Z" fill="#2F2F2F"/>
<path d="M294.641 198.121C295.157 198.571 296.015 197.191 297.59 200.486C299.065 203.571 304.73 216.486 304.473 218.992C304.101 222.602 300.343 228.556 299.015 232.188C295.38 242.144 294.556 253.619 288.372 262.824C282.553 265.189 277.693 269.594 271.719 271.825C269.151 272.782 266.605 272.892 264.257 273.749C258.407 275.883 255.846 279.718 247.97 278.839L246.458 277.538L246.129 279.421C242.772 279.218 239.512 277.328 236.449 276.584C233.418 275.845 229.053 275.645 226.398 274.744C221.055 272.932 216.399 267.354 211.824 264.917C209.657 263.762 206.535 263.362 204.944 262.411C202.727 261.084 198.187 249.267 197.325 246.261C196.514 243.426 195.387 240.263 196.37 237.516L195.165 238.13C195.472 237.641 191.639 231.794 194.307 233.646C195.45 234.441 195.425 235.336 196.367 235.639L196.436 232.883C195.638 231.875 193.345 233.405 192.037 231.534C191.535 230.818 188.808 220.384 188.811 219.073C188.817 216.933 191.435 208.842 192.318 206.268C194.282 200.542 198.111 194.294 199.818 188.747C200.444 186.714 202.257 175.122 203.344 174.452C208.614 175.325 211.345 171.64 215.356 169.81C216.887 169.112 217.263 168.893 218.657 168.198C219.844 167.607 227.299 163.965 227.669 164.363L227.728 166.155L230.171 166.237L228.925 163.121C234.934 162.651 239.334 156.272 245.108 155.95C249.116 155.728 253.76 159.557 257.543 161.096C260.68 162.373 264.964 163.024 267.977 164.428C270.316 165.517 272.038 167.742 274.628 169.04C277.759 170.61 287.335 172.635 289.001 174.065C291.725 176.405 291.5 185.243 292.317 188.885C292.843 191.225 294.954 194.61 295.17 196.084C295.289 196.891 294.562 198.052 294.641 198.121ZM252.705 161.237H251.458V162.482H252.705V161.237ZM244.572 166.23L243.326 164.985V166.234H244.572V166.23ZM216.402 174.987V174.061L215.159 173.113V174.987H216.402ZM243.943 173.117L242.697 173.423L243.94 174.365V173.117H243.943ZM247.694 174.362V173.117H247.081V174.362H247.694ZM228.918 176.239V174.994H228.305V176.239H228.918ZM257.082 174.994C254.8 174.49 256.428 176.815 255.68 178.01C255.47 178.348 254.317 177.719 254.593 178.739L257.718 178.113L257.082 174.994ZM210.769 176.248H209.522V176.862H210.769V176.248ZM262.722 177.487V176.239L261.476 177.181L262.722 177.487ZM265.85 178.739C266.486 178.11 264.629 176.23 263.978 176.868C263.326 177.506 265.199 179.377 265.85 178.739ZM240.188 178.122H238.942V178.736H240.188V178.122ZM267.05 189.97C266.364 190.408 254.126 184.195 252.288 183.228C250.381 182.224 248.365 179.946 246.201 180.018C243.408 180.112 240.11 183.253 237.489 184.489C233.108 186.554 230.002 186.814 226.379 189.651C225.518 190.327 224.362 190.424 223.608 191.253C223.063 196.753 219.283 202.069 218.434 207.344C218.084 209.531 218.45 211.696 218.121 213.908C217.83 215.882 216.07 218.726 216.033 219.689C216.001 220.453 219.311 227.211 219.844 229.394C220.852 233.521 221.3 242.05 224.378 245.047C226.078 246.702 243.232 254.962 245.515 255.068C247.391 255.156 251.847 253.938 253.76 253.263C256.453 252.318 261.936 249.756 264.541 248.401C265.497 247.903 268.443 246.029 268.919 245.269C271.324 241.427 269.649 229.617 276.494 230.636C276.904 228.243 274.647 230.477 274.587 228.456C274.487 225.077 276.895 221.895 276.45 218.535C275.974 214.937 273.726 211.211 272.777 207.782C271.252 202.266 270.457 196.469 268.982 191.044C268.813 190.421 267.823 190.678 267.767 190.599C266.618 189.066 269.658 189.924 268.982 188.128C267.341 187.624 267.372 189.767 267.053 189.974L267.05 189.97ZM228.295 181.251H227.049V181.864H228.295V181.251ZM212.648 190.002L211.401 190.308L212.644 191.25V190.002H212.648ZM201.381 193.13H200.134V193.744H201.381V193.13ZM208.893 205.632H207.02V206.878H208.893V205.632ZM285.879 211.251C286.079 210.069 285.146 209.174 284.003 209.384L284.636 211.251H285.876H285.879ZM212.021 218.757C212.222 217.574 211.289 216.68 210.146 216.889L210.778 218.757H212.018H212.021ZM299.648 222.508V221.263H299.034V222.508H299.648ZM217.655 224.392H216.408V225.318L217.345 226.263L217.652 224.392H217.655ZM207.017 237.523H205.768V238.768L207.014 237.523H207.017ZM217.025 242.516V241.271H216.412V242.516H217.025ZM212.648 250.028H210.775C210.784 252.321 212.635 252.321 212.648 250.028ZM285.256 255.644L284.623 253.779H284.013V255.647H285.262L285.256 255.644ZM273.986 254.408H272.74V255.021H273.986V254.408ZM257.089 255.03H255.216V255.644H257.089V255.03ZM262.093 258.15V256.904H261.479V258.15H262.093ZM214.526 260.659C213.343 260.452 212.444 261.388 212.654 262.53L214.526 260.659ZM223.93 264.398L225.158 263.468L222.671 261.907L222.681 263.143L223.933 264.398H223.93ZM272.107 266.278V265.033H271.493V266.278H272.107ZM262.096 270.029V268.781L260.85 269.722L262.096 270.029ZM267.726 270.045L263.352 268.787C263.846 271.174 265.478 270.642 267.413 271.29L267.726 270.042V270.045Z" fill="#2F2F2F"/>
<path d="M646.284 160.765C646.484 160.887 646.328 161.976 646.716 161.863C648.135 160.774 649.5 159.667 651.419 159.986C651.858 160.424 650.508 168.327 648.921 169.056L650.179 169.766L651.419 184.37C641.997 183.26 632.396 183.679 622.917 183.773C615.8 183.842 608.895 185.152 601.667 185.046C598.326 184.996 595.364 182.837 591.96 183.116C591.362 190.628 589.799 198.239 591.966 205.632L594.377 205.051L596.031 207.5L596.66 205.601C599.447 206.505 601.655 205.651 604.141 205.598C612.205 205.423 620.108 206.368 627.981 206.283C630.786 206.252 633.968 204.368 636.091 206.878C637.29 204.24 641.339 205.166 643.913 205C644.446 213.054 643.027 221.185 643.917 229.069C643.876 229.469 637.748 228.734 636.717 228.769C634.397 228.85 631.084 229.232 628.638 229.451C622.019 230.045 615.414 229.939 608.531 229.385C606.959 229.26 607.98 229.116 608.234 228.14L606.928 229.926C601.824 231.165 597.042 230.173 591.96 229.388L590.707 254.395C590.914 254.63 594.637 253.247 595.486 253.181C607.62 252.215 619.053 255.265 630.442 254.392C632.534 254.233 634.431 253.288 636.683 253.128C641.399 252.79 646.231 254.279 651.019 253.86C652.537 254.373 653.89 260.746 651.41 260.965L652.706 261.626C651.648 266.588 653.117 271.756 652.039 276.909C647.242 275.842 642.26 276.555 637.397 276.975C626.853 277.882 621.229 277.056 611.071 276.884C600.615 276.709 590.26 278.971 579.835 277.553L579.428 276.293L577.919 277.591L566.289 276.915L566.273 231.616C566.364 230.884 566.899 229.989 567.551 229.667C568.69 229.103 570.294 231.012 570.053 229.085L566.292 228.769L566.298 221.266L567.554 222.515L568.787 221.576C565.418 218.957 567.679 215.788 567.569 212.85C567.037 198.59 564.936 184.045 565.005 169.656C565.02 166.697 565.969 163.581 565.944 160.577L572.865 159.354C592.699 158.888 612.825 158.931 632.847 159.598C636.05 159.704 639.755 161.197 642.373 161.262C643.597 161.293 645.545 160.317 646.281 160.765H646.284ZM580.064 163.114C577.768 163.124 577.768 164.973 580.064 164.985V163.114ZM586.317 165.608V164.363H585.703V165.608H586.317ZM608.228 165.614H606.981V166.859H608.228V165.614ZM572.555 168.73L571.615 167.498L570.679 168.427L572.555 168.73ZM615.12 172.488C616.698 172.644 617.234 171.49 616.989 169.991L615.123 171.562V172.488H615.12ZM600.095 174.359L598.849 173.113V174.362H600.095V174.359ZM632.637 176.865V174.994H632.023V176.865H632.637ZM638.277 176.248L636.401 176.552L637.337 177.481L638.277 176.248ZM591.954 178.113V176.865L590.084 177.497V178.107H591.954V178.113ZM572.548 179.377L570.056 178.119L570.419 180.685L573.178 181.242L571.305 180.616L572.548 179.38V179.377ZM606.352 181.251H605.106V181.864H606.352V181.251ZM585.068 183.745C584.091 184.248 582.788 183.688 582.572 184.987L585.071 185.615V183.745H585.068ZM582.566 205.636H581.319V206.249H582.566V205.636ZM631.388 210.003C632.03 209.355 630.145 207.497 629.515 208.132C628.886 208.767 630.758 210.638 631.388 210.003ZM611.359 208.758C611.008 208.382 609.806 209.108 609.496 209.693L610.116 211.258C611.178 211.245 611.779 209.212 611.359 208.761V208.758ZM639.529 215.009C639.58 214.73 640.272 213.833 640.159 213.764C638.646 213.704 637.976 213.363 638.28 215.009C638.69 215.062 639.122 214.965 639.529 215.009C639.457 215.403 639.548 215.857 639.536 216.26L640.779 215.319C640.823 214.746 639.927 215.053 639.529 215.009ZM580.061 217.506V216.26H579.447V217.506H580.061ZM616.363 221.257V220.012H615.749V221.257H616.363ZM637.644 222.511C637.917 220.002 633.764 219.217 635.443 221.279C635.675 221.563 637.566 222.608 637.644 222.511ZM628.886 221.266H627.636V222.511L628.883 221.266H628.886ZM572.555 228.769H571.305V230.014L572.551 228.769H572.555ZM586.943 231.262V230.017H586.33V231.262H586.943ZM572.551 237.513L571.308 234.397L570.062 236.581L572.551 237.513ZM588.196 239.39V238.145H587.582V239.39H588.196ZM580.064 244.402H578.191V245.016H580.064V244.402ZM583.618 248.87C582.932 249.052 582.469 249.881 581.958 250.334C583.223 252.093 584.548 251.157 585.688 249.709C585.021 248.873 584.705 248.582 583.618 248.87ZM573.804 252.527H572.558V254.398L573.798 253.45V252.524L573.804 252.527ZM611.362 258.769L609.74 256.942L608.237 257.843L611.362 258.772V258.769ZM590.701 258.772V257.527H590.087V258.772H590.701ZM638.271 258.772V257.527H637.657V258.772H638.271ZM598.843 263.146L598.21 261.281H597.6V263.149H598.849L598.843 263.146ZM592.58 261.907C591.951 261.272 590.069 263.127 590.707 263.778C591.346 264.429 593.219 262.558 592.58 261.907ZM636.288 265.546C636.492 265.233 636.871 262.949 635.778 263.155L634.525 266.278C634.923 266.027 636.235 265.624 636.285 265.546H636.288ZM600.719 264.413L598.849 263.781V265.655H600.719V264.416V264.413ZM611.359 267.535H610.113V268.149H611.359V267.535ZM596.338 272.535C595.029 272.454 593.992 272.297 593.225 273.471L594.143 274.39L596.344 273.78L596.338 272.538V272.535ZM648.911 273.78V272.535H648.297V273.78H648.911ZM637.647 273.161C635.668 272.557 634.55 274.512 636.085 275.645L637.644 274.084V273.158L637.647 273.161Z" fill="#2F2F2F"/>
<path d="M91.4584 44.7363C91.5148 44.8833 93.7381 45.434 91.8499 47.1234L69.717 54.2661C69.3662 54.1503 66.4321 48.7378 66.0657 47.8681C64.8821 45.0523 63.3414 36.5831 61.7913 35.2565C60.7955 34.4024 57.0879 33.6672 55.5786 33.3324C51.9806 32.5346 48.1102 32.0841 44.5748 32.3094C43.2377 32.3938 42.6865 30.817 42.079 33.0602L40.5258 31.8088L40.4507 33.5952C36.1982 32.6973 30.236 39.9338 29.8414 43.3566C29.2402 48.5939 33.9467 51.8352 38.4904 52.9051C47.2052 54.9575 57.2508 57.06 65.7307 60.0822C73.8379 62.9699 80.4953 67.7036 88.0233 71.5768C89.3322 76.8298 98.2098 90.5082 97.7933 95.0353C97.643 96.6841 94.6368 101.552 93.6003 103.27C89.6641 109.787 88.3802 112.18 85.2645 119.329C82.1487 126.478 81.8857 123.45 76.199 125.28C68.7212 127.686 67.0365 127.16 59.8906 128.374C56.8593 128.887 52.7008 131.69 50.2427 131.744C47.3179 131.806 43.0059 130.852 39.8401 130.946C37.836 130.336 38.7096 126.841 35.5156 127.476L36.765 129.037C34.1878 129.263 31.0721 126.412 28.5826 125.333C27.0983 124.692 23.7352 123.246 22.3699 122.786C20.7196 122.229 14.9108 121.497 14.3659 121.094C14.106 120.903 12.5153 116.332 11.8514 115.159C8.60412 109.418 7.57701 106.68 5.15016 100.595C4.1074 97.9825 1.32356 93.5555 0.731723 91.2309C0.531312 90.4456 0.202512 90.236 1.09497 89.6478C2.76089 88.5465 8.6417 87.7456 10.8274 86.8633C12.4213 86.2219 13.6394 84.8078 15.0611 84.2165C17.6759 83.1277 20.6319 83.1215 22.6861 81.2161C23.3187 81.2161 26.9511 91.7471 26.7601 93.0799L27.997 91.8378C29.7162 94.3126 30.0794 101.017 31.3007 102.923C33.8465 106.893 47.3805 105.463 50.227 109.962L49.2907 108.097C52.2186 107.6 55.2686 105.194 58.0117 104.612C59.734 104.249 62.6431 104.665 63.6921 104.033C64.2213 103.714 68.0667 96.1929 68.1074 95.2637C68.3391 90.0889 66.4446 87.8645 62.6368 85.0643C61.3905 84.1477 59.211 84.2415 59.2925 82.4644L58.0963 82.5176L57.1537 83.7316C49.8043 81.2756 42.6364 77.8998 34.8924 76.8204L36.7619 74.9526C35.5406 74.7993 35.1054 75.9475 33.9311 76.1853C28.9083 77.2021 26.5628 72.6906 22.5734 70.682C16.8398 67.7943 17.2124 68.2667 12.0487 64.3121C10.9308 63.458 9.13333 63.5049 8.30977 62.4193C6.48415 60.0196 6.59375 54.8793 5.95494 52.2638C4.71176 47.161 0.609597 45.9877 6.20545 40.3562C8.57594 32.4908 11.4255 24.9978 15.8252 18.024C20.7196 16.5317 25.5639 13.8098 30.6274 12.2329C41.9287 8.71636 50.3992 7.55564 61.9417 11.3444C64.9979 12.3487 67.4216 14.0507 70.7128 15.0863C73.3901 15.9279 77.486 16.1688 79.5215 16.9165C81.1498 17.5141 83.1915 26.997 84.4096 29.5405C87.1966 35.3629 89.0222 38.3695 91.4522 44.7394L91.4584 44.7363ZM35.5124 12.4238H33.6367L34.2693 14.2947H35.5093V12.4238H35.5124ZM30.5053 16.1781H28.6327V16.7914H30.5053V16.1781ZM54.5358 18.3932C54.1663 18.0804 54.6016 17.1856 53.6747 17.4265L53.8125 19.7886C55.5692 22.279 58.4689 19.7479 58.6724 19.9231C58.8916 20.1171 58.1808 21.4311 59.2925 21.1652L60.5419 19.9106L60.235 18.6654C57.852 18.4933 58.1558 21.4436 54.539 18.3932H54.5358ZM43.6479 18.0522C43.2878 17.6924 41.7847 18.5715 41.7847 18.9877C41.7847 20.7178 44.5936 18.997 43.6479 18.0522ZM26.1244 24.9321H24.8781V25.5453H26.1244V24.9321ZM69.9362 26.8061H68.6899V28.0513H69.9362V26.8061ZM74.317 33.6766V32.4314H73.7033V33.6766H74.317ZM71.815 41.1884H70.5687V41.8016H71.815V41.1884ZM14.2282 44.9303V43.0593H13.6144V44.9303H14.2282ZM18.6121 56.1965H17.3658V56.8097H18.6121V56.1965ZM43.0185 58.6869V57.4417H42.4047V58.6869H43.0185ZM53.659 60.564V59.3188H53.0453V60.564H53.659ZM59.2925 60.564V59.3188H58.6787V60.564H59.2925ZM22.3667 67.4501H20.4941V68.0634H22.3667V67.4501ZM58.6724 68.0759L56.803 67.4439V69.3179H58.6724V68.079V68.0759ZM70.5625 68.0728H69.6356L68.6867 69.3148H70.5625V68.0728ZM41.7722 72.4528H40.5258V73.066H41.7722V72.4528ZM54.2978 78.6976C55.7195 78.3221 55.6005 76.7359 55.5379 75.5721L53.6684 76.2103L54.2978 78.6976ZM47.4087 76.2041H46.1593V77.4493L47.4056 76.2041H47.4087ZM79.9567 80.581H78.7073V81.8262L79.9536 80.581H79.9567ZM83.7082 89.9513L83.4013 88.0803L82.465 89.0252V89.9513H83.7082ZM25.4981 95.5859H24.2518V96.8311H25.4981V95.5859ZM77.4485 96.8374H76.2021V97.4506H77.4485V96.8374ZM69.9393 99.3403C68.4362 99.0963 67.2776 99.6313 67.4404 101.208L69.9393 99.3403ZM78.7073 109.959C79.0674 110.319 80.5705 109.44 80.5705 109.023C80.5705 107.293 77.7616 109.014 78.7073 109.959ZM43.0216 109.959V108.711L41.7753 109.652L43.0216 109.959ZM35.5124 112.468C34.883 111.833 33.001 113.688 33.6398 114.339C34.2787 114.99 36.1512 113.119 35.5124 112.468ZM46.7762 115.587V114.342H46.1624V115.587H46.7762ZM84.3313 116.219C82.3366 115.409 81.6602 115.781 81.8356 118.087L84.3345 117.455V116.219H84.3313ZM70.5625 118.719H69.3161V121.213H69.9268L70.5593 118.719H70.5625ZM83.085 118.722H81.8356V119.967L83.0819 118.722H83.085ZM54.2885 126.85H53.0421V127.464H54.2885V126.85Z" fill="#2F2F2F"/>
<path d="M121.886 77.4461L124.401 77.1301C123.853 74.7962 123.239 75.9413 121.896 76.8235C121.814 71.6175 123.634 66.8244 123.073 61.5683C121.783 49.4668 120.192 37.4216 123.139 25.2387L121.89 11.1755C126.067 11.9357 130.47 12.0233 134.741 11.82C136.895 11.7167 141.436 9.7457 143.014 11.335C143.496 11.82 143.114 13.5313 144.414 13.6721C144.373 11.6886 145.435 10.2338 147.548 10.5498C147.135 15.0863 148.253 19.5039 148.2 24.0185C148.165 27.0032 146.9 31.6461 147.242 34.6214C148.109 42.1802 147.617 45.24 147.527 52.7268C147.429 60.7017 148.197 74.0766 149.261 81.6854C149.888 86.175 151.309 96.2836 153.204 100.097C153.767 101.23 156.614 103.942 156.601 101.214C159.723 101.809 160.926 104.446 162.564 105.203C163.115 105.457 164.136 105.084 164.922 105.382C166.381 105.926 169.099 107.434 170.42 107.409C171.886 107.381 176.477 104.171 178.227 103.404C180.172 102.55 184.161 102.278 185.72 100.886C188.376 98.5143 188.341 87.6642 190.44 84.2791L191.99 84.3354C190.446 81.188 192.018 78.0281 191.993 75.2686C191.918 66.1831 191.276 56.8566 191.345 47.7273C191.354 46.3256 191.802 38.5541 191.993 37.8471C192.131 37.3277 193.358 37.4841 193.252 37.14C190.584 31.6367 190.956 24.9352 190.75 18.9877C190.665 16.5943 190.793 14.1884 190.74 11.8012L214.689 10.0836L217.398 11.1598C217.348 14.739 216.311 17.8207 216.38 21.5219C216.474 26.6841 218.306 33.6609 218.278 38.3758C218.265 40.5783 217.151 43.4473 217.007 45.8563C216.393 56.087 218.322 66.8964 217.047 77.1614C216.69 80.0398 214.661 83.9693 214.069 87.3201C213.477 90.6708 213.7 94.5065 213.208 97.7165C212.2 104.315 209.284 110.694 207.634 117.158C200.247 121.206 190.487 122.915 183.24 126.556C180.187 128.089 174.848 132.854 171.541 132.951C170.843 132.973 164.552 130.602 163.4 130.095C157.838 127.648 153.605 124.21 147.527 122.192C143.189 120.749 136.015 120.08 132.546 117.148C129.815 114.843 128.976 103.101 127.99 99.1901C127.241 96.2242 120.922 78.3972 121.883 77.4586L121.886 77.4461ZM203.883 14.9204L202.64 14.9267V18.046L204.23 17.4265L203.883 14.9204ZM214.53 19.9169L212.657 18.046V19.92H214.53V19.9169ZM200.131 21.1683L198.566 19.3099C196.853 20.4925 198.334 21.4092 200.131 21.1683ZM139.995 23.7307L137.547 23.0518L138.477 25.564L140.039 25.5484L139.992 23.7307H139.995ZM126.267 28.677C126.474 27.4944 125.538 26.5965 124.395 26.8061L126.267 28.677ZM202.633 26.8092H201.387V27.4225H202.633V26.8092ZM140.039 34.9374H138.793V35.5506H140.039V34.9374ZM141.921 36.799L140.675 35.5538V36.8021H141.921V36.799ZM135.658 39.305L135.352 38.0598L134.409 39.3019H135.658V39.305ZM207.014 39.3144H205.768V39.9276H207.014V39.3144ZM212.648 40.5627H211.401V41.1759H212.648V40.5627ZM145.05 44.3014L143.803 43.0562V44.3045H145.05V44.3014ZM212.021 48.0652H210.775V49.3104H212.021V48.0652ZM146.299 51.1938C144.486 50.202 142.278 51.7476 144.11 53.0491L146.299 51.8039V51.1938ZM196.374 56.184C196.195 53.4433 194.178 54.216 194.504 56.8128L196.374 56.184ZM212.651 59.322L209.526 59.6255L212.021 61.8186L212.654 59.322H212.651ZM127.523 64.3215H126.277V65.5667H127.523V64.3215ZM195.744 69.3179V68.0728H195.13V69.3179H195.744ZM148.178 68.6985H146.932V69.9437H148.178V68.6985ZM208.267 75.5689L207.96 74.3238L207.017 75.5658H208.267V75.5689ZM139.344 81.1348C140.165 79.6643 139.745 78.7038 138.173 78.075L136.914 81.1942L139.344 81.1379V81.1348ZM199.502 83.0777H198.256C198.105 84.229 198.231 84.8985 199.195 85.5712L199.502 83.0777ZM132.53 85.5743L132.223 84.3291L131.281 85.5712H132.53V85.5743ZM147.548 86.2V84.9548H146.935V86.2H147.548ZM127.523 88.7061H125.647L126.28 90.577L127.52 89.629V88.7029L127.523 88.7061ZM208.89 99.3309V98.0857H208.276V99.3309H208.89ZM151.932 100.592L149.437 99.9629V101.208L151.932 101.205V100.592ZM188.235 106.843H186.989V107.456H188.235V106.843ZM143.797 107.468H142.551V108.082H143.797V107.468ZM188.861 109.959L187.928 108.1C186.218 108.933 185.539 109.033 187.302 110.575L188.864 109.959H188.861ZM135.658 111.22H134.412V111.833H135.658V111.22ZM178.844 117.464L178.54 115.59L177.61 116.526L178.844 117.464ZM163.196 118.713V117.468H162.582V118.713H163.196ZM195.747 119.974C194.529 119.389 192.509 119.802 191.999 121.213L195.747 119.974ZM148.801 121.213V119.967H148.187V121.213H148.801ZM155.073 122.467C155.311 122.771 156.73 121.375 156.313 120.593C156.075 120.29 154.657 121.685 155.073 122.467ZM171.341 128.102H170.092V129.347L171.338 128.102H171.341Z" fill="#2F2F2F"/>
<path d="M356.605 158.734C355.465 166.506 356.292 174.377 356.01 182.208C355.816 187.608 354.971 193.625 354.708 199.04C354.564 201.975 355.256 206.53 354.751 209.086C354.451 210.598 353.646 210.203 352.851 210.945L354.729 210.632C355.133 215.588 353.54 220.171 354.272 225.161C354.808 228.809 357.206 232.595 358.312 236.133C359.53 240.035 359.671 244.493 361.594 248.326L376.433 256.135C382.217 253.788 387.14 249.859 393.578 249.117C393.91 248.883 395.617 242.306 395.773 241.302C397.492 230.458 400.389 219.78 400.483 208.439C400.508 205.248 399.903 201.481 399.831 197.836C399.606 186.529 399.023 177.196 399.797 165.914C399.96 163.534 399.697 161.106 399.803 158.728C400.661 157.877 410.726 160.962 412.689 161.181C414.23 161.353 417.086 160.28 419.209 161.225L418.573 159.986L424.213 159.976C424.131 162.151 424.332 164.359 424.203 166.54C424.034 169.444 422.844 173.805 422.926 176.533C422.995 178.867 424.67 181.755 424.858 184.655C425.24 190.612 424.786 199.516 424.833 205.945C424.949 222.636 422.703 237.573 418.905 253.782L413.212 266.853C405.859 270.361 398.043 272.563 390.425 275.354C383.504 277.888 380.532 281.417 372.096 279.262C361.926 276.662 353.652 272.435 344.925 267.013C343.362 266.04 340.657 265.799 339.426 264.379C337.547 262.211 337.81 256.05 336.761 252.659C336.007 250.222 334.375 248.144 333.733 245.679C332.678 241.637 332.925 236.246 332.061 232.342C331.657 230.524 330.029 228.431 329.741 226.532C327.211 209.818 330.448 185.947 330.267 168.489C330.242 166.096 327.818 159.857 330.643 159.357C331.82 159.147 336.31 158.797 337.594 158.794C340.685 158.784 345.157 160.045 348.169 160.036C350.496 160.029 354.219 159.175 356.611 158.734H356.605ZM332.822 163.108V161.863H332.208V163.108H332.822ZM349.099 164.988L344.101 164.359C343.86 167.372 345.316 166.815 347.574 166.249C348.626 165.986 349.406 166.875 349.099 164.988ZM406.054 166.859V165.614H405.44V166.859H406.054ZM337.832 169.368H336.586V169.982H337.832V169.368ZM348.47 173.736V172.491H347.856V173.736H348.47ZM352.227 173.12H350.981V173.733H352.227V173.12ZM406.68 179.99V178.745H406.066V179.99H406.68ZM419.826 181.238V180.312L417.956 178.742V181.242H419.826V181.238ZM355.356 181.864C355.512 180.287 354.357 179.752 352.854 179.996L353.561 181.78L355.353 181.864H355.356ZM418.576 186.251H416.704V187.496L418.57 186.864V186.254L418.576 186.251ZM344.725 193.121L345.949 192.151V190.965L345.031 189.999L344.728 193.121H344.725ZM340.958 194.995V193.75H340.344V194.995H340.958ZM345.341 197.507H344.095V198.121H345.341V197.507ZM346.594 203.755H345.348V205H346.594V203.755ZM341.587 206.884H340.341V208.755H341.587V206.884ZM331.569 209.377V208.132H330.956V209.377H331.569ZM402.844 211.965L401.059 211.258C400.905 212.409 401.018 213.094 402.001 213.751H402.928L402.844 211.965ZM345.341 220.64H344.095V221.254H345.341V220.64ZM333.451 221.892C331.018 221.379 330.865 222.881 332.512 224.373L333.451 221.892ZM337.203 228.137V226.266H336.589V228.137H337.203ZM344.715 229.391L342.843 229.698L343.788 230.633H344.715V229.391ZM345.971 236.887L344.725 235.642V236.891H345.971V236.887ZM357.232 247.522C357.476 246.02 356.937 244.862 355.359 245.028L357.232 247.522ZM414.822 246.89L413.873 245.651H412.946V246.893H414.822V246.89ZM337.832 246.273H336.586V247.519H337.832V246.273ZM356.608 253.773L356.301 251.902L355.365 252.847V253.773H356.608ZM403.555 253.156L401.056 252.527V253.77L402.622 254.383L403.555 253.156ZM386.025 256.898V255.653H385.411V256.898H386.025ZM366.623 256.904H365.373L366.316 258.15L366.623 256.904ZM358.487 261.907H356.615C356.624 264.2 358.475 264.2 358.487 261.907ZM410.441 262.536H408.565V263.778H409.492L410.441 262.536ZM374.135 265.036H372.889V265.649H374.135V265.036ZM383.523 268.784H382.277V270.029H383.523V268.784ZM404.178 268.787H402.305V269.4H404.178V268.787Z" fill="#2F2F2F"/>
<path d="M715.297 132.46C712.77 126.656 712.228 120.233 709.93 114.351C709.091 112.208 705.74 107.109 705.518 105.607C705.352 104.481 707.732 103.777 704.942 103.076L665.915 103.811C664.124 104.931 661.669 117.048 660.259 118.972C659.702 119.736 658.481 119.248 657.676 119.342C656.871 121.003 658.963 121.366 658.966 121.538C658.979 122.117 654.2 131.725 653.621 131.762L630.774 123.074C629.985 121.929 635.217 113.554 635.956 111.833C641.922 97.9606 645.658 82.6334 651.917 68.8768C653.439 65.5292 656.308 62.7572 657.792 59.7381C660.347 54.5383 659.859 49.2666 663.394 43.4317C663.848 42.6808 665.004 42.4868 665.082 42.346C665.204 42.1208 664.54 41.129 664.697 40.4094C666.807 30.7576 669.334 20.9806 674.395 12.4082C677.57 13.2685 680.921 11.1817 683.657 11.1692C684.847 11.163 686.062 11.8356 687.39 11.8231C690.731 11.7856 694.113 11.6604 697.426 11.7511C700.041 17.4515 701.29 23.6337 703.523 29.4686C708.615 42.7715 714.865 55.7585 719.365 69.2898C724.613 85.0737 731.909 97.7791 737.487 113.091C738.019 114.555 739.91 123.046 739.425 123.74C736.278 125.69 732.432 125.336 729.054 126.55C727.115 127.245 716.575 133.395 715.304 132.463L715.297 132.46ZM688.345 12.4269H687.099V13.0401H688.345V12.4269ZM693.979 24.297V23.0486L692.732 23.9903L693.979 24.297ZM683.338 28.0576H682.092V28.6708H683.338V28.0576ZM677.705 34.9343H676.458V36.1795H677.705V34.9343ZM702.747 35.56C701.604 35.3473 700.674 36.2452 700.871 37.4278H702.111L702.743 35.56H702.747ZM679.583 44.3139H677.711V44.9271H679.583V44.3139ZM696.49 79.9459C693.149 69.7841 690.954 58.6274 684.603 49.9392L673.956 79.3233C681.55 78.4911 689.028 81.3632 696.49 79.949V79.9459ZM692.723 53.6904H691.483V55.5614H693.359L692.726 53.6904H692.723ZM708.374 56.8097V55.5645H707.76V56.8097H708.374ZM677.081 56.1933H675.835V58.0643L677.075 57.1163V56.1902L677.081 56.1933ZM668.313 59.3188H667.073C666.992 60.6266 666.835 61.6622 668.01 62.4318L668.952 61.4932L668.317 59.3188H668.313ZM668.946 63.0732H667.07V64.3153H667.997L668.946 63.0732ZM698.363 68.6922C698.723 68.3324 697.843 66.8307 697.426 66.8307C695.695 66.8307 697.417 69.6371 698.363 68.6922ZM702.117 67.447C701.488 66.8119 699.606 68.6672 700.245 69.3179C700.883 69.9687 702.756 68.0978 702.117 67.447ZM705.245 69.3179C705.449 68.1791 704.557 67.2499 703.373 67.447V69.3179H705.245ZM710.253 67.447H709.006V68.6922H710.253V67.447ZM656.423 68.6985H655.177V69.9437H656.423V68.6985ZM714.01 76.2009H712.764V77.4461H714.01V76.2009ZM705.245 79.3296H703.999V79.9428H705.245V79.3296ZM670.195 83.0777L668.949 83.3843L670.192 84.326V83.0777H670.195ZM665.188 83.7034L663.942 84.01L665.185 84.9517V83.7034H665.188ZM667.064 84.3322H665.818V84.9455H667.064V84.3322ZM679.583 88.7092C678.115 88.8875 676.339 87.4828 675.832 89.3224H679.583V88.7092ZM653.292 93.0799C653.445 91.9286 653.333 91.2434 652.349 90.5864H651.423L651.507 92.3728L653.292 93.0799ZM665.818 98.7146L662.689 99.3434C662.022 102.303 666.262 99.0524 665.818 98.7146ZM650.787 100.579V99.334H650.173V100.579H650.787ZM656.423 99.3403H655.177V99.9535H656.423V99.3403ZM725.9 108.707C726.26 108.348 725.38 106.846 724.964 106.846C723.232 106.846 724.955 109.652 725.9 108.707ZM713.381 114.965C713.594 113.826 712.695 112.887 711.508 113.094L713.381 114.965ZM732.786 116.219H730.914V117.464H732.786V116.219ZM649.541 119.974H647.668V120.587H649.541V119.974ZM724.35 119.97C721.901 120.509 725.268 124.538 725.9 122.148C726.138 121.25 725.512 119.714 724.35 119.97ZM636.392 123.715V122.47H635.778V123.715H636.392ZM648.288 125.599H647.042V126.844H648.288V125.599Z" fill="#2F2F2F"/>
<path d="M416.309 7.19585L417.499 8.20953C420.94 15.5274 422.919 23.0956 426.605 30.3509C431.509 40.0089 436.911 49.8798 442.253 59.1124C445.71 65.0881 448.835 70.6946 450.507 77.443L451.744 72.7501C451.284 64.431 451.547 56.3122 453.034 48.0933C461.167 48.3342 469.493 47.1328 477.4 49.3291L472.402 107.459L469.906 106.837C469.427 108.645 471.14 107.841 471.66 109.124C473.467 113.579 471.002 120.412 471.065 125.192C466.089 127.614 462.094 131.797 456.357 132.454C454.575 132.463 451.397 128.812 449.446 127.579C443.772 124 437.208 121.119 431.756 117.114C430.213 115.981 428.174 114.398 429.211 112.468L428.221 113.76L426.079 113.081L426.712 111.217C423.136 112.168 418.82 108.244 415.46 106.508C408.9 103.12 404.901 99.6876 399.265 96.4244C396.559 94.8601 393.002 94.7381 391.129 92.0569C394.849 84.7671 400.517 78.6162 402.941 70.5694L405.396 71.5487C412.304 77.8779 420.167 82.7836 428.59 86.8227C427.018 80.2275 422.826 74.8588 419.92 68.9175C414.79 58.4303 410.378 47.6584 405.546 37.0055C404.81 35.3817 402.111 31.5992 401.951 30.5761C401.792 29.5531 403.273 29.2527 402.928 28.0513L400.455 28.6739C399.966 26.7216 398.892 24.9884 398.034 23.1894C396.781 20.5645 395.783 18.0585 394.057 15.3459C393.453 14.398 390.541 11.1661 390.465 10.7656C390.234 9.48913 395.629 6.67962 396.875 6.05703C398.726 5.12782 409.752 0.131398 410.92 0.0125095C413.835 -0.281582 415.392 4.95262 416.309 7.19585ZM405.434 8.03745L404.187 6.79225V8.04058H405.434V8.03745ZM398.544 13.6752H396.672V14.9204H398.544V13.6752ZM410.434 41.8048V40.5596H409.821V41.8048H410.434ZM426.712 43.6819L426.405 42.4368L425.462 43.6788H426.712V43.6819ZM424.83 44.3046V43.0594H424.216V44.3046H424.83ZM414.818 46.8168H413.572V47.4301H414.818V46.8168ZM419.826 48.0683H418.579V48.6815H419.826V48.0683ZM466.775 51.1938L464.968 51.2658L464.273 53.0553L466.08 52.9834L466.775 51.1938ZM460.512 54.9419H458.64V56.1871H460.512V54.9419ZM422.96 59.322L419.832 59.9508C419.165 62.9105 423.405 59.6599 422.96 59.322ZM467.398 65.5636C467.595 64.6532 467.138 64.2621 466.468 63.7083L464.902 64.3247V64.9347L467.398 65.5636ZM437.975 66.1893V64.9441H437.362V66.1893H437.975ZM474.904 69.9406V68.6954H474.29V69.9406H474.904ZM425.456 73.0692V71.1983H424.842V73.0692H425.456ZM445.488 73.0692V71.824H444.874V73.0692H445.488ZM405.434 75.5784C404.291 75.3656 403.354 76.2635 403.561 77.4493L405.434 75.5784ZM411.067 79.9459C410.86 77.0394 408.17 77.759 408.568 80.5748L411.067 79.9459ZM441.104 80.5716V79.3265H440.49V80.5716H441.104ZM434.224 82.4457V81.5196L432.981 80.5716V82.4457H434.224ZM434.85 83.0777H433.604V84.3229H434.85V83.0777ZM400.426 88.071L402.932 87.1261L401.363 84.3291L400.426 88.071ZM443.615 84.3323H442.366V85.5775L443.612 84.3323H443.615ZM426.63 91.306C425.775 90.9337 425.033 91.6408 424.836 92.4448L427.961 93.7025C428.378 93.3271 426.752 91.3592 426.627 91.306H426.63ZM454.879 93.083H453.632V94.3282H454.879V93.083ZM411.064 95.5891C410.923 95.4452 409.057 94.8945 408.565 94.9634C408.872 96.1647 409.949 96.3712 411.064 96.2023C411.029 95.9989 411.148 95.6798 411.064 95.5922V95.5891ZM466.155 99.9566L468.021 95.5797L466.124 96.6278L466.155 99.9566ZM446.737 102.46C446.903 101.293 446.743 100.295 445.497 99.9598C445.331 101.127 445.491 102.125 446.737 102.46ZM463.014 101.214H461.768V101.828H463.014V101.214ZM417.953 103.717H416.077V104.959H417.004L417.953 103.717ZM442.986 114.968H442.059L441.11 116.21H442.986V114.968ZM439.234 116.845C438.451 116.429 437.052 117.846 437.355 118.084C438.138 118.5 439.538 117.083 439.234 116.845ZM471.153 118.087V116.839L469.906 117.78L471.153 118.087ZM463.64 124.347L462.394 124.654L463.637 125.596V124.347H463.64Z" fill="#2F2F2F"/>
<path d="M543.113 160.008L545.014 174.678L544.391 183.113L508.708 184.37C508.58 188.832 508.899 193.343 508.702 197.808C507.665 221.266 509.002 245.801 506.444 269.209C506.156 271.853 507.725 274.256 507.465 276.915C499.323 278.886 491.028 274.5 483.062 277.544L482.423 183.754L467.671 184.43L466.465 183.116L465.776 184.43C459.407 182.822 453.2 183.034 446.743 183.754C447.611 179.956 445.472 175.61 445.5 172.181C445.528 168.871 447.783 163.712 447.373 159.989C450.598 160.139 453.817 161.034 457.093 160.633C459.272 160.367 461.298 158.634 463.302 158.759C468.266 159.063 473.714 160.305 479.006 160.017C482.398 159.832 486.584 158.159 489.625 158.124C495.406 158.059 502.119 160.952 507.139 161.131C509.76 161.225 513.793 160.045 516.511 159.97C525.458 159.726 534.27 161.125 543.113 160.017V160.008ZM540.551 165.542L540.323 163.74C539.565 164.55 538.507 165.045 538.76 166.237L540.551 165.542ZM490.558 165.605L489.609 164.366H488.682V165.608H490.558V165.605ZM502.445 166.234V164.988H501.831V166.234H502.445ZM510.577 171.865C510.703 170.323 512.857 169.431 510.897 168.117C509.87 169.512 507.95 170.517 510.577 171.865ZM523.106 168.12H521.857V169.365L523.103 168.12H523.106ZM483.669 170.611V168.737L481.793 169.369L482.742 170.607H483.669V170.611ZM489.926 177.49L489.622 174.994L488.682 176.546L489.926 177.494V177.49ZM526.235 178.113L525.928 175.62C524.963 176.292 524.838 176.962 524.988 178.113H526.235ZM484.922 179.996H483.049V181.867L484.919 181.235V179.996H484.922ZM500.572 180L496.83 181.558L498.972 182.524L500.576 180H500.572ZM504.33 181.251H503.081V182.496L504.327 181.251H504.33ZM491.184 186.238L489.938 184.993V186.241H491.184V186.238ZM499.32 187.502H498.074V188.115H499.32V187.502ZM498.694 196.253H493.07C492.81 197.874 493.395 198.95 495.224 198.781L496.17 197.154L498.393 197.489L498.69 196.253H498.694ZM506.826 198.746V197.501H506.212V198.746H506.826ZM506.203 209.387H504.956V210H506.203V209.387ZM494.936 211.261H493.69V212.506H494.936V211.261ZM494.936 215.638H493.69V216.883H494.936V215.638ZM489.929 216.886H488.682V218.131H489.929V216.886ZM507.458 219.38L506.212 218.135V219.383H507.458V219.38ZM498.077 221.26L499.311 220.321L498.38 219.386L498.077 221.26ZM503.078 225.643H501.828V226.888L503.074 225.643H503.078ZM484.925 232.523H483.049V233.446L483.985 234.391L484.922 232.523H484.925ZM497.438 241.89V240.645H496.824V241.89H497.438ZM487.427 255.656H486.18V256.269H487.427V255.656ZM506.832 275.041H505.583V276.286L506.829 275.041H506.832Z" fill="#2F2F2F"/>
<path d="M558.783 11.1723C557.464 18.2399 558.513 25.5609 558.15 32.7318C558.028 35.1314 557.007 37.5467 556.882 40.2154C556.631 45.5404 558.26 49.3198 558.72 54.069C559.741 64.6532 558.332 72.6218 558.134 82.7398C557.99 90.0514 559.719 97.3099 558.206 104.571C558.466 105.335 559.021 105.454 559.728 105.585C564.065 106.38 572.959 105.544 577.903 105.563C587.31 105.598 596.682 104.903 606.014 104.934C610.316 104.947 614.672 104.665 618.878 105.591L617.622 116.216L615.129 114.968L614.491 117.768L616.989 117.468C617.071 121.466 616.479 125.605 618.248 129.341H613.238L613.874 128.102C608.459 129.35 603.759 126.929 598.066 127.633C595.142 127.992 591.916 129.885 589.161 130.026C581.742 130.401 570.817 128.058 562.86 128.049C557.129 128.042 549.316 129.992 543.464 130.023C539.847 130.042 536.127 128.734 532.494 128.721C532.651 125.73 533.794 123.396 533.784 120.283C533.775 117.352 532.663 115.744 532.494 113.407C531.987 106.408 532.983 99.4217 533.13 92.4511L534.379 92.7671L532.457 90.8649C531.74 85.9248 533.709 80.5341 533.772 75.8568C533.897 66.8339 532.028 57.0663 532.504 47.7554C532.886 40.3156 532.861 37.7032 532.469 30.2664C532.134 23.8871 533.997 17.633 533.121 11.1661C541.604 13.0089 550.181 11.7511 558.779 11.1723H558.783ZM548.142 15.5399L546.269 13.669C546.056 14.8078 546.955 15.7464 548.142 15.5399ZM551.897 28.0576H550.65V28.6708H551.897V28.0576ZM555.651 42.4399H554.405V43.0531H555.651V42.4399ZM546.266 45.5529C547.45 45.7594 548.349 44.8239 548.139 43.682L546.266 45.5529ZM548.765 79.3265L546.974 79.411L546.266 81.1943H548.768V79.3265H548.765ZM548.139 96.2086H547.212L546.263 97.4507H548.139V96.2086ZM537.498 99.3372L534.386 100.895C535.259 102.722 536.932 99.8941 537.498 99.3372ZM553.785 103.098L554.715 104.321C555.682 103.658 555.801 102.982 555.648 101.837L553.785 103.098ZM591.954 109.959V108.711L590.707 109.652L591.954 109.959ZM540.003 109.343H538.757V109.956H540.003V109.343ZM600.092 109.339H599.165L598.22 110.284L599.159 111.836L600.092 109.343V109.339ZM593.209 111.833L591.963 110.588V111.836H593.209V111.833ZM583.821 111.22C583.039 110.804 581.639 112.221 581.943 112.459C582.725 112.875 584.125 111.458 583.821 111.22ZM556.907 113.081L555.661 111.836V113.084H556.907V113.081ZM573.804 113.71C574.008 112.571 573.115 111.642 571.931 111.839V113.71H573.804ZM551.267 116.213V114.968H550.653V116.213H551.267ZM585.074 115.597H583.825V116.842L585.071 115.597H585.074ZM563.787 116.845C560.699 115.575 560.555 118.337 563.787 118.087V116.845ZM606.352 116.219H605.106V117.465H606.352V116.219ZM608.225 117.461V116.216H607.611V117.461H608.225ZM539.377 120.596H538.131V121.522L539.067 122.467L539.374 120.596H539.377ZM555.025 121.222H553.779V122.467H555.025V121.222ZM584.445 123.722L581.949 124.351V124.961H584.445V123.716V123.722ZM591.957 128.089C590.701 126.475 592.101 125.252 591.647 123.722L590.081 128.092H591.957V128.089ZM598.84 124.348L597.593 124.654L598.837 125.596V124.348H598.84Z" fill="#2F2F2F"/>
</g>
<defs>
<clipPath id="clip0_2_4">
<rect width="739" height="280" fill="white" transform="translate(0.5)"/>
</clipPath>
</defs>
</svg>
