<svg width="1378" height="136" viewBox="0 0 1378 136" fill="none" xmlns="http://www.w3.org/2000/svg">
<path d="M742.101 131.063C739.574 125.26 739.032 118.837 736.733 112.955C735.894 110.812 732.544 105.712 732.321 104.21C732.155 103.084 734.535 102.38 731.745 101.679L692.718 102.415C690.927 103.535 688.472 115.652 687.063 117.576C686.505 118.339 685.284 117.851 684.479 117.945C683.675 119.606 685.766 119.969 685.77 120.141C685.782 120.72 681.004 130.328 680.424 130.366L657.577 121.678C656.788 120.533 662.021 112.157 662.76 110.436C668.725 96.5641 672.461 81.2369 678.721 67.4803C680.243 64.1327 683.111 61.3607 684.595 58.3416C687.151 53.1418 686.662 47.8701 690.197 42.0352C690.651 41.2843 691.807 41.0903 691.885 40.9496C692.007 40.7243 691.344 39.7325 691.5 39.0129C693.611 29.3611 696.138 19.5841 701.198 11.0117C704.373 11.8721 707.724 9.78526 710.461 9.77275C711.651 9.76649 712.866 10.4391 714.194 10.4266C717.535 10.3891 720.917 10.2639 724.23 10.3547C726.844 16.055 728.094 22.2372 730.327 28.0721C735.418 41.375 741.669 54.362 746.168 67.8933C751.417 83.6773 758.713 96.3826 764.29 111.694C764.822 113.158 766.714 121.649 766.228 122.344C763.081 124.293 759.236 123.94 755.857 125.154C753.919 125.848 743.378 131.999 742.107 131.067L742.101 131.063ZM715.149 11.0305H713.902V11.6437H715.149V11.0305ZM720.782 22.9005V21.6522L719.536 22.5939L720.782 22.9005ZM710.141 26.6611H708.895V27.2743H710.141V26.6611ZM704.508 33.5378H703.262V34.783H704.508V33.5378ZM729.55 34.1636C728.407 33.9508 727.477 34.8487 727.674 36.0313H728.914L729.547 34.1636H729.55ZM706.387 42.9175H704.514V43.5307H706.387V42.9175ZM723.293 78.5494C719.952 68.3876 717.757 57.2309 711.407 48.5427L700.76 77.9268C708.353 77.0946 715.831 79.9667 723.293 78.5526V78.5494ZM719.526 52.294H718.286V54.1649H720.162L719.529 52.294H719.526ZM735.177 55.4132V54.168H734.563V55.4132H735.177ZM703.885 54.7969H702.639V56.6678L703.879 55.7198V54.7937L703.885 54.7969ZM695.117 57.9224H693.877C693.795 59.2301 693.639 60.2657 694.813 61.0354L695.756 60.0968L695.12 57.9224H695.117ZM695.749 61.6767H693.874V62.9188H694.801L695.749 61.6767ZM725.166 67.2957C725.526 66.936 724.646 65.4342 724.23 65.4342C722.498 65.4342 724.22 68.2406 725.166 67.2957ZM728.921 66.0506C728.291 65.4154 726.409 67.2707 727.048 67.9215C727.687 68.5722 729.559 66.7013 728.921 66.0506ZM732.049 67.9215C732.252 66.7827 731.36 65.8535 730.176 66.0506V67.9215H732.049ZM737.056 66.0506H735.81V67.2957H737.056V66.0506ZM683.227 67.302H681.981V68.5472H683.227V67.302ZM740.814 74.8045H739.567V76.0497H740.814V74.8045ZM732.049 77.9331H730.803V78.5463H732.049V77.9331ZM696.999 81.6812L695.753 81.9878L696.996 82.9295V81.6812H696.999ZM691.992 82.3069L690.745 82.6135L691.989 83.5552V82.3069H691.992ZM693.867 82.9358H692.621V83.549H693.867V82.9358ZM706.387 87.3127C704.918 87.4911 703.143 86.0863 702.635 87.9259H706.387V87.3127ZM680.095 91.6834C680.249 90.5321 680.136 89.8469 679.153 89.1899H678.226L678.311 90.9764L680.095 91.6834ZM692.621 97.3181L689.493 97.9469C688.826 100.907 693.066 97.656 692.621 97.3181ZM677.59 99.1828V97.9376H676.977V99.1828H677.59ZM683.227 97.9438H681.981V98.557H683.227V97.9438ZM752.704 107.311C753.064 106.951 752.184 105.449 751.767 105.449C750.036 105.449 751.758 108.256 752.704 107.311ZM740.184 113.568C740.397 112.429 739.499 111.491 738.312 111.697L740.184 113.568ZM759.59 114.823H757.717V116.068H759.59V114.823ZM676.344 118.577H674.471V119.19H676.344V118.577ZM751.154 118.574C748.705 119.112 752.071 123.142 752.704 120.752C752.942 119.854 752.315 118.317 751.154 118.574ZM663.195 122.319V121.074H662.581V122.319H663.195ZM675.091 124.202H673.845V125.448H675.091V124.202Z" fill="#2F2F2F"/>
<path d="M581.979 9.77896C580.661 16.8465 581.71 24.1675 581.347 31.3384C581.225 33.738 580.204 36.1533 580.079 38.8221C579.828 44.147 581.456 47.9264 581.917 52.6756C582.938 63.2598 581.528 71.2284 581.331 81.3464C581.187 88.658 582.916 95.9165 581.403 103.178C581.663 103.941 582.217 104.06 582.925 104.192C587.262 104.986 596.155 104.151 601.1 104.17C610.507 104.204 619.879 103.51 629.211 103.541C633.513 103.553 637.869 103.272 642.075 104.198L640.819 114.823L638.326 113.574L637.687 116.375L640.186 116.074C640.268 120.073 639.676 124.212 641.445 127.947H636.435L637.071 126.708C631.656 127.957 626.956 125.535 621.263 126.239C618.338 126.599 615.113 128.492 612.357 128.633C604.939 129.008 594.013 126.665 586.056 126.655C580.326 126.649 572.513 128.598 566.66 128.629C563.044 128.648 559.324 127.34 555.691 127.328C555.848 124.337 556.991 122.003 556.981 118.89C556.972 115.958 555.86 114.35 555.691 112.013C555.184 105.015 556.18 98.0283 556.327 91.0577L557.576 91.3737L555.654 89.4715C554.936 84.5314 556.906 79.1407 556.969 74.4634C557.094 65.4405 555.225 55.6729 555.7 46.3621C556.083 38.9222 556.057 36.3098 555.666 28.873C555.331 22.4937 557.194 16.2396 556.317 9.77271C564.8 11.6155 573.377 10.3578 581.976 9.77896H581.979ZM571.339 14.1465L569.466 12.2756C569.253 13.4144 570.152 14.353 571.339 14.1465ZM575.093 26.6642H573.847V27.2774H575.093V26.6642ZM578.848 41.0465H577.602V41.6597H578.848V41.0465ZM569.463 44.1595C570.647 44.366 571.545 43.4305 571.336 42.2886L569.463 44.1595ZM571.962 77.9331L570.171 78.0176L569.463 79.8009H571.965V77.9331H571.962ZM571.336 94.8152H570.409L569.46 96.0573H571.336V94.8152ZM560.695 97.9438L557.582 99.5019C558.456 101.329 560.128 98.5007 560.695 97.9438ZM576.982 101.704L577.912 102.928C578.879 102.264 578.998 101.589 578.845 100.444L576.982 101.704ZM615.151 108.566V107.317L613.904 108.259L615.151 108.566ZM563.2 107.949H561.954V108.562H563.2V107.949ZM623.289 107.946H622.362L621.417 108.891L622.356 110.443L623.289 107.949V107.946ZM616.406 110.44L615.16 109.194V110.443H616.406V110.44ZM607.018 109.826C606.235 109.41 604.836 110.828 605.139 111.065C605.922 111.481 607.322 110.064 607.018 109.826ZM580.104 111.688L578.857 110.443V111.691H580.104V111.688ZM597.001 112.317C597.204 111.178 596.312 110.249 595.128 110.446V112.317H597.001ZM574.464 114.82V113.574H573.85V114.82H574.464ZM608.271 114.203H607.021V115.449L608.268 114.203H608.271ZM586.983 115.452C583.896 114.181 583.752 116.944 586.983 116.694V115.452ZM629.549 114.826H628.303V116.071H629.549V114.826ZM631.421 116.068V114.823H630.808V116.068H631.421ZM562.574 119.203H561.328V120.129L562.264 121.074L562.571 119.203H562.574ZM578.222 119.829H576.975V121.074H578.222V119.829ZM607.641 122.328L605.146 122.957V123.567H607.641V122.322V122.328ZM615.154 126.696C613.898 125.082 615.298 123.858 614.844 122.328L613.278 126.699H615.154V126.696ZM622.037 122.954L620.79 123.261L622.033 124.202V122.954H622.037Z" fill="#2F2F2F"/>
<path d="M389.644 57.9591L391.077 57.334C399.163 57.4488 406.833 58.9877 414.969 58.8555C425.8 58.6818 437.039 58.1539 447.68 57.3996C454.566 56.912 460.975 56.5609 467.774 58.0162L464.098 54.8472C456.419 51.6142 449.237 47.8187 442.502 42.8789C446.284 35.6752 448.854 27.6648 454.294 21.521L504.35 51.4954L502.696 53.4656C504.112 54.689 504.14 52.797 505.521 52.8921C510.317 53.2211 515.378 58.4315 519.702 60.4709C519.697 66.0047 521.705 71.4297 519.781 76.8739C519.008 78.4794 514.334 79.7356 512.37 80.9487C506.666 84.4795 501.199 89.1156 495.21 92.2601C493.515 93.1512 491.199 94.2894 489.918 92.5116L490.646 93.9674L489.096 95.5949L487.698 94.209C486.985 97.8401 481.567 99.9986 478.533 102.257C472.612 106.668 467.774 108.758 462.371 112.394C459.779 114.14 458.11 117.283 454.879 117.791C449.958 111.252 446.914 103.461 440.744 97.7554L442.7 95.9781C451.417 92.5438 459.273 87.6271 466.596 81.8267C459.979 80.3485 453.316 81.7636 446.702 81.771C435.028 81.7838 423.412 81.0274 411.719 80.7002C409.937 80.6498 405.354 81.4178 404.364 81.1128C403.375 80.8079 403.754 79.345 402.523 79.1279L401.999 81.6243C400.03 81.2076 398.001 81.4131 396.008 81.3957C393.1 81.3708 390.409 81.17 387.215 81.5317C386.098 81.6594 381.917 82.8601 381.524 82.7521C380.275 82.4008 380.115 76.3198 380.102 74.9267C380.078 72.856 380.42 60.7558 380.825 59.6539C381.839 56.9047 387.226 57.8004 389.644 57.9591ZM385.633 68.1028L383.968 68.6771L385.09 69.2244L385.636 68.1042L385.633 68.1028ZM387.68 76.7662L386.86 78.4492L387.979 78.9951L388.8 77.312L387.68 76.7662ZM418.175 78.4107L417.056 77.8648L416.787 78.4164L417.906 78.9623L418.175 78.4107ZM426.998 64.6038L425.744 64.3337L426.447 65.7254L426.995 64.6024L426.998 64.6038ZM426.733 66.5682L425.613 66.0224L425.344 66.574L426.463 67.1199L426.733 66.5682ZM424.602 76.6675L424.056 77.7877L424.607 78.0565L425.153 76.9363L424.602 76.6675ZM427.922 72.7157L427.375 73.8359L427.927 74.1047L428.473 72.9845L427.922 72.7157ZM451.312 31.888L450.585 33.5435L451.889 34.9528L452.616 33.2973L451.312 31.888ZM451.936 39.16L451.115 40.8431L452.234 41.389L453.055 39.7059L451.936 39.16ZM439.411 74.8317L438.604 77.9191C440.972 79.816 439.909 74.5802 439.411 74.8317ZM464.501 37.6272C463.769 37.0508 463.217 37.2902 462.426 37.6498L462.293 39.3272L462.842 39.5947L464.501 37.6272ZM452.165 64.3466L451.046 63.8007L450.777 64.3524L451.896 64.8982L452.165 64.3466ZM471.725 32.7996L470.606 32.2537L470.337 32.8053L471.456 33.3512L471.725 32.7996ZM452.861 78.6149L451.179 77.7948L450.91 78.3464L452.592 79.1666L452.861 78.6149ZM461.642 60.6105L460.523 60.0647L460.254 60.6163L461.373 61.1622L461.642 60.6105ZM446.339 97.7108C445.646 98.6448 446.043 99.88 447.199 100.214L446.339 97.7108ZM452.734 94.5621C450.031 93.4738 449.498 96.2068 452.203 97.0838L452.734 94.5621ZM466.463 67.8397L465.344 67.2938L465.075 67.8455L466.194 68.3913L466.463 67.8397ZM465.132 74.8447L464.299 74.4387L462.902 75.1405L464.587 75.9621L465.132 74.8447ZM465.974 74.5589L465.428 75.679L466.547 76.2249L467.093 75.1047L465.974 74.5589ZM455.372 107.688L455.621 105.022L452.419 105.206L455.372 107.688ZM470.944 67.231L470.396 68.354L471.516 68.8999L470.943 67.2338L470.944 67.231ZM469.766 85.554C469.057 86.1591 469.367 87.1361 470.003 87.6659L472.504 85.4084C472.349 84.8695 469.868 85.4675 469.765 85.5568L469.766 85.554ZM483.747 60.9433L483.201 62.0635L484.32 62.6093L484.866 61.4892L483.747 60.9433ZM466.792 101.422C466.601 101.486 465.288 102.922 465.134 103.394C466.349 103.645 467.007 102.767 467.343 101.691C467.146 101.633 466.911 101.386 466.795 101.424L466.792 101.422ZM494.868 53.8215L491.752 50.2253L491.862 52.3904L494.868 53.8215ZM488.606 72.3714C487.629 71.7107 486.662 71.4167 485.815 72.3902C486.791 73.0509 487.758 73.3448 488.606 72.3714ZM494.622 57.1958L494.075 58.3159L494.627 58.5848L495.173 57.4646L494.622 57.1958ZM477.118 98.7937L476.296 100.48L477.412 101.024L477.818 100.191L477.118 98.7937ZM498.203 81.2265L497.797 82.0596L498.497 83.4568L499.32 81.7709L498.203 81.2265ZM498.246 85.4212C497.529 85.9424 498.189 87.8217 498.536 87.653C499.253 87.1318 498.593 85.2524 498.246 85.4212ZM513.355 57.2774L512.233 56.7302L512.533 58.2631L513.355 57.2774ZM515.688 66.7738L515.417 68.0283L516.809 67.3238L515.687 66.7766L515.688 66.7738Z" fill="#2F2F2F"/>
<path d="M307.915 12.8223L307.292 16.5704L308.889 13.423L324.036 18.6009C324.772 22.5524 329.125 26.5038 330.593 29.864C331.154 31.1467 330.96 32.636 331.564 33.8968C332.763 36.3966 337.874 45.6385 337.774 47.425C335.91 54.843 333.834 61.9575 330.556 68.8936C329.87 70.3422 328.583 71.5905 327.828 73.0453C327.124 74.4032 326.729 77.2815 326.131 78.0887C325.674 78.7082 321.143 78.9459 321.083 81.233C324.553 85.7851 326.867 91.1945 330.167 95.9438C330.994 97.1327 332.444 97.5738 333.596 99.3978C337.557 105.668 338.253 114.506 344.832 119.427C338.766 126.291 328.473 126.079 321.359 131.554C318.503 126.357 315.356 121.242 312.594 116.001C311.097 113.161 310.151 109.888 308.783 107.304C304.778 99.7513 298.728 93.5723 295.399 85.6349C287.959 85.782 280.18 86.7362 272.869 85.3502C272.58 88.9137 273.561 92.1206 273.517 95.6966C273.445 101.938 273.529 104.585 274.046 110.739C274.591 117.222 274.716 122.725 273.489 129.123C270.072 128.469 266.321 129.852 263.164 129.796C258.877 129.72 253.626 126.902 249.079 128.497C249.079 127.315 248.553 126.223 248.456 125.049C247.185 110.082 245.926 99.5073 247.82 84.4117C248.043 82.6502 246.887 79.4152 249.07 79.7156L247.789 78.752C248.343 74.5377 249.759 69.1877 249.759 65.0298C249.759 60.559 249.151 55.5 249.067 50.6412C248.919 42.2753 246.818 33.8749 246.809 26.1566C246.803 21.3353 248.625 16.0135 247.817 10.9389C252.076 11.0797 256.385 10.7543 260.647 10.9483C263.042 11.0578 266.515 12.2029 268.798 12.1966C270.889 12.1904 272.286 10.795 273.943 10.4634C277.769 9.70309 285.172 11.4019 289.421 11.5897C295.931 11.8806 301.671 10.3538 307.915 12.8192V12.8223ZM301.653 19.6897C302.918 18.0033 297.143 16.6831 299.166 20.3217L301.653 19.6897ZM294.14 24.0698C294.776 23.4409 292.919 21.5606 292.268 22.1988C291.616 22.8371 293.489 24.708 294.14 24.0698ZM257.211 22.8246C256.219 21.8328 254.346 23.7037 255.339 24.6955C256.332 25.6873 258.204 23.8163 257.211 22.8246ZM264.721 25.9532H263.474V27.1984H264.721V25.9532ZM272.233 28.453H270.987V30.3239L272.227 29.3759V28.4498L272.233 28.453ZM328.564 29.7076H327.318V30.3208H328.564V29.7076ZM299.144 31.5722V30.327H298.531V31.5722H299.144ZM306.657 30.3302L304.784 30.6368L305.73 31.5722H306.657V30.3302ZM305.902 36.0806C295.186 33.7716 284.261 35.2014 273.489 34.0751C274.184 37.6637 272.123 40.9769 272.183 44.3933C272.277 49.6682 274.062 55.5094 273.514 60.9344C275.728 60.7623 277.985 62.2015 280.055 62.2109C281.239 62.2172 282.457 61.557 283.788 61.557C289.058 61.5664 303.65 61.3724 307.634 57.8715C308.238 57.3396 311.382 49.5306 311.407 48.7703C311.429 48.1008 309.569 42.2096 309.134 41.4556C308.351 40.1009 305.974 38.8494 305.899 36.0774L305.902 36.0806ZM257.838 42.8384H256.588V44.0836L257.835 42.8384H257.838ZM319.809 47.8286C322.552 47.6502 321.778 45.6354 319.179 45.9639L319.809 47.8286ZM260.966 47.838C258.987 47.2341 257.869 49.1895 259.403 50.3221L260.963 48.7609V47.8348L260.966 47.838ZM253.457 50.9666L251.71 50.5067L251.487 51.4453L249.705 51.2701C250.563 53.9451 252.408 52.9814 253.457 50.9666ZM258.461 56.5825C258.664 55.4437 257.772 54.5145 256.591 54.7147L255.962 56.5825H258.464H258.461ZM319.799 55.9599V54.7147H319.185V55.9599H319.799ZM264.717 58.4628L264.414 56.5887L263.484 57.5242L264.717 58.4628ZM329.193 60.3462L327.324 59.7142C327.117 60.6341 327.59 61.0251 328.267 61.5852H329.193V60.3494V60.3462ZM267.852 62.8429C267.539 62.5363 265.657 63.7533 264.984 64.0443C264.411 64.2914 263.28 63.6031 263.477 64.7075C265.206 64.7263 267.946 65.3051 267.852 62.8429ZM325.436 69.7196H324.186L325.129 70.9648L325.436 69.7196ZM324.183 73.4677L323.876 71.5968L322.94 72.5416V73.4677H324.183ZM309.162 72.2225H307.915L308.548 74.716H309.159V72.2225H309.162ZM318.559 76.5963L319.793 75.6577L318.863 74.7223L318.559 76.5963ZM294.143 77.2158L292.897 75.9706V77.2189H294.143V77.2158ZM262.839 84.7214V83.4762H262.225V84.7214H262.839ZM291.635 84.105H290.389V84.7183H291.635V84.105ZM267.852 86.6048H266.606V89.1015C267.849 88.7667 268.009 87.7687 267.849 86.6048H267.852ZM302.902 88.482H301.656V89.0952H302.902V88.482ZM308.535 92.8589H306.663V93.4722H308.535V92.8589ZM265.976 95.3587H264.727V96.6039L265.973 95.3587H265.976ZM249.696 105.355V104.109H249.082V105.355H249.696ZM314.795 104.738H313.549V105.352H314.795V104.738ZM331.702 112.857C332.641 113.88 334.21 110.905 333.571 109.735C332.5 109.857 331.097 112.2 331.702 112.857ZM252.831 115.983L251.584 114.737V115.986H252.831V115.983ZM336.073 118.486V117.24H335.459V118.486H336.073ZM322.301 120.985V119.74H321.687V120.985H322.301ZM264.724 121.608L263.784 120.375L262.848 121.304L264.724 121.608Z" fill="#2F2F2F"/>
<path d="M90.955 44.5091C91.0114 44.6561 93.2347 45.2068 91.3465 46.8962L69.2136 54.0389C68.8628 53.9231 65.9287 48.5106 65.5623 47.6408C64.3786 44.8251 62.838 36.3559 61.2879 35.0293C60.2921 34.1752 56.5845 33.44 55.0752 33.1052C51.4772 32.3074 47.6067 31.8569 44.0714 32.0821C42.7342 32.1666 42.1831 30.5898 41.5756 32.833L40.0224 31.5816L39.9473 33.368C35.6948 32.4701 29.7326 39.7066 29.338 43.1293C28.7368 48.3667 33.4433 51.6079 37.987 52.6779C46.7018 54.7303 56.7474 56.8327 65.2272 59.855C73.3345 62.7427 79.9919 67.4764 87.5199 71.3496C88.8288 76.6026 97.7064 90.281 97.2899 94.8081C97.1396 96.4569 94.1334 101.325 93.0969 103.043C89.1607 109.56 87.8768 111.953 84.7611 119.102C81.6453 126.251 81.3823 123.222 75.6956 125.053C68.2178 127.458 66.5331 126.933 59.3871 128.147C56.3559 128.66 52.1974 131.463 49.7392 131.516C46.8145 131.579 42.5025 130.625 39.3366 130.719C37.3325 130.108 38.2062 126.614 35.0121 127.249L36.2616 128.81C33.6844 129.035 30.5687 126.185 28.0792 125.106C26.5949 124.464 23.2317 123.019 21.8664 122.559C20.2162 122.002 14.4074 121.27 13.8625 120.866C13.6026 120.676 12.0119 116.105 11.348 114.931C8.1007 109.19 7.0736 106.453 4.64674 100.368C3.60398 97.7552 0.820144 93.3282 0.228305 91.0037C0.0278938 90.2184 -0.300906 90.0088 0.59155 89.4206C2.25747 88.3193 8.13828 87.5184 10.324 86.6361C11.9179 85.9947 13.136 84.5806 14.5577 83.9893C17.1724 82.9005 20.1285 82.8942 22.1827 80.9889C22.8153 80.9889 26.4477 91.5199 26.2567 92.8527L27.4936 91.6106C29.2128 94.0854 29.576 100.79 30.7973 102.695C33.3431 106.666 46.8771 105.236 49.7236 109.735L48.7873 107.87C51.7152 107.373 54.7652 104.967 57.5083 104.385C59.2306 104.022 62.1397 104.438 63.1887 103.806C63.7179 103.487 67.5633 95.9657 67.604 95.0365C67.8357 89.8617 65.9412 87.6373 62.1334 84.8371C60.8871 83.9204 58.7076 84.0143 58.789 82.2372L57.5928 82.2904L56.6503 83.5043C49.3008 81.0484 42.133 77.6726 34.389 76.5932L36.2585 74.7254C35.0372 74.5721 34.6019 75.7203 33.4277 75.9581C28.4048 76.9749 26.0594 72.4634 22.07 70.4548C16.3363 67.5671 16.709 68.0395 11.5453 64.0849C10.4274 63.2308 8.62991 63.2777 7.80635 62.1921C5.98073 59.7924 6.09033 54.6521 5.45152 52.0366C4.20834 46.9338 0.106179 45.7605 5.70203 40.129C8.07252 32.2636 10.9221 24.7705 15.3218 17.7968C20.2162 16.3045 25.0605 13.5826 30.124 12.0057C41.4253 8.48914 49.8958 7.32842 61.4382 11.1172C64.4945 12.1215 66.9182 13.8235 70.2093 14.859C72.8867 15.7006 76.9826 15.9415 79.018 16.6893C80.6464 17.2869 82.6881 26.7697 83.9062 29.3133C86.6932 35.1357 88.5188 38.1423 90.9488 44.5122L90.955 44.5091ZM35.009 12.1966H33.1333L33.7658 14.0675H35.0059V12.1966H35.009ZM30.0019 15.9509H28.1293V16.5641H30.0019V15.9509ZM54.0324 18.166C53.6629 17.8531 54.0982 16.9583 53.1713 17.1993L53.3091 19.5614C55.0658 22.0518 57.9655 19.5207 58.169 19.6959C58.3882 19.8899 57.6774 21.2039 58.789 20.938L60.0385 19.6834L59.7316 18.4382C57.3486 18.2661 57.6523 21.2164 54.0355 18.166H54.0324ZM43.1445 17.825C42.7843 17.4652 41.2813 18.3443 41.2813 18.7604C41.2813 20.4906 44.0901 18.7698 43.1445 17.825ZM25.621 24.7048H24.3747V25.318H25.621V24.7048ZM69.4328 26.5789H68.1864V27.8241H69.4328V26.5789ZM73.8136 33.4494V32.2042H73.1999V33.4494H73.8136ZM71.3116 40.9612H70.0653V41.5744H71.3116V40.9612ZM13.7247 44.703V42.8321H13.111V44.703H13.7247ZM18.1087 55.9692H16.8624V56.5825H18.1087V55.9692ZM42.515 58.4596V57.2144H41.9013V58.4596H42.515ZM53.1556 60.3368V59.0916H52.5419V60.3368H53.1556ZM58.789 60.3368V59.0916H58.1753V60.3368H58.789ZM21.8633 67.2229H19.9907V67.8361H21.8633V67.2229ZM58.169 67.8487L56.2996 67.2167V69.0907H58.169V67.8518V67.8487ZM70.059 67.8455H69.1321L68.1833 69.0876H70.059V67.8455ZM41.2687 72.2256H40.0224V72.8388H41.2687V72.2256ZM53.7944 78.4704C55.2161 78.0949 55.0971 76.5087 55.0345 75.3449L53.165 75.9831L53.7944 78.4704ZM46.9053 75.9768H45.6559V77.222L46.9022 75.9768H46.9053ZM79.4533 80.3538H78.2039V81.599L79.4502 80.3538H79.4533ZM83.2048 89.7241L82.8979 87.8531L81.9616 88.798V89.7241H83.2048ZM24.9947 95.3587H23.7484V96.6039H24.9947V95.3587ZM76.945 96.6102H75.6987V97.2234H76.945V96.6102ZM69.4359 99.1131C67.9328 98.869 66.7742 99.404 66.937 100.981L69.4359 99.1131ZM78.2039 109.732C78.564 110.091 80.0671 109.212 80.0671 108.796C80.0671 107.066 77.2582 108.787 78.2039 109.732ZM42.5182 109.732V108.483L41.2719 109.425L42.5182 109.732ZM35.009 112.241C34.3796 111.606 32.4976 113.461 33.1364 114.112C33.7752 114.762 35.6478 112.892 35.009 112.241ZM46.2727 115.36V114.115H45.659V115.36H46.2727ZM83.8279 115.992C81.8332 115.182 81.1568 115.554 81.3322 117.86L83.831 117.228V115.992H83.8279ZM70.059 118.492H68.8127V120.985H69.4234L70.0559 118.492H70.059ZM82.5816 118.495H81.3322V119.74L82.5785 118.495H82.5816ZM53.785 126.623H52.5387V127.236H53.785V126.623Z" fill="#2F2F2F"/>
<path d="M121.383 77.2189L123.898 76.9029C123.35 74.5689 122.736 75.714 121.392 76.5963C121.311 71.3902 123.13 66.5972 122.57 61.3411C121.28 49.2395 119.689 37.1943 122.636 25.0114L121.386 10.9482C125.564 11.7085 129.966 11.7961 134.238 11.5927C136.392 11.4895 140.933 9.51843 142.511 11.1078C142.993 11.5927 142.611 13.3041 143.911 13.4449C143.87 11.4613 144.931 10.0065 147.045 10.3225C146.632 14.859 147.75 19.2766 147.696 23.7912C147.662 26.776 146.397 31.4188 146.738 34.3942C147.606 41.9529 147.114 45.0127 147.023 52.4996C146.926 60.4744 147.693 73.8493 148.758 81.4582C149.384 85.9477 150.806 96.0563 152.7 99.8701C153.264 101.003 156.111 103.715 156.098 100.987C159.22 101.582 160.423 104.219 162.06 104.976C162.611 105.229 163.632 104.857 164.418 105.154C165.877 105.699 168.596 107.207 169.917 107.182C171.382 107.154 175.973 103.944 177.724 103.177C179.668 102.323 183.658 102.051 185.217 100.659C187.873 98.287 187.838 87.437 189.936 84.0518L191.486 84.1081C189.942 80.9607 191.514 77.8008 191.489 75.0413C191.414 65.9558 190.772 56.6293 190.841 47.5C190.851 46.0984 191.298 38.3269 191.489 37.6198C191.627 37.1004 192.855 37.2569 192.748 36.9127C190.08 31.4095 190.453 24.7079 190.246 18.7604C190.162 16.367 190.29 13.9611 190.237 11.5739L214.186 9.85632L216.895 10.9326C216.844 14.5117 215.808 17.5934 215.877 21.2946C215.971 26.4568 217.803 33.4337 217.775 38.1485C217.762 40.3511 216.647 43.22 216.503 45.6291C215.889 55.8597 217.818 66.6691 216.544 76.9342C216.187 79.8125 214.158 83.7421 213.566 87.0928C212.974 90.4436 213.196 94.2793 212.705 97.4893C211.696 104.088 208.781 110.467 207.131 116.931C199.744 120.979 189.983 122.687 182.737 126.329C179.684 127.862 174.345 132.627 171.038 132.724C170.34 132.746 164.049 130.374 162.896 129.867C157.335 127.421 153.101 123.982 147.023 121.965C142.686 120.522 135.512 119.853 132.042 116.921C129.312 114.615 128.473 102.874 127.486 98.9628C126.738 95.9969 120.419 78.17 121.38 77.2314L121.383 77.2189ZM203.379 14.6932L202.136 14.6994V17.8187L203.727 17.1992L203.379 14.6932ZM214.026 19.6896L212.154 17.8187V19.6927H214.026V19.6896ZM199.628 20.9411L198.062 19.0827C196.349 20.2653 197.83 21.182 199.628 20.9411ZM139.492 23.5034L137.043 22.8245L137.973 25.3368L139.536 25.3211L139.489 23.5034H139.492ZM125.764 28.4498C125.971 27.2672 125.034 26.3692 123.891 26.5789L125.764 28.4498ZM202.13 26.582H200.884V27.1952H202.13V26.582ZM139.536 34.7102H138.29V35.3234H139.536V34.7102ZM141.418 36.5717L140.172 35.3265V36.5748H141.418V36.5717ZM135.155 39.0777L134.848 37.8325L133.906 39.0746H135.155V39.0777ZM206.511 39.0871H205.264V39.7003H206.511V39.0871ZM212.144 40.3354H210.898V40.9487H212.144V40.3354ZM144.546 44.0742L143.3 42.829V44.0773H144.546V44.0742ZM211.518 47.8379H210.272V49.0831H211.518V47.8379ZM145.796 50.9665C143.983 49.9748 141.775 51.5203 143.607 52.8218L145.796 51.5766V50.9665ZM195.87 55.9567C195.692 53.216 193.675 53.9888 194.001 56.5855L195.87 55.9567ZM212.147 59.0947L209.022 59.3982L211.518 61.5914L212.15 59.0947H212.147ZM127.02 64.0943H125.773V65.3395H127.02V64.0943ZM195.241 69.0907V67.8455H194.627V69.0907H195.241ZM147.675 68.4712H146.428V69.7164H147.675V68.4712ZM207.763 75.3417L207.456 74.0965L206.514 75.3386H207.763V75.3417ZM138.841 80.9075C139.661 79.4371 139.242 78.4766 137.67 77.8477L136.411 80.967L138.841 80.9106V80.9075ZM198.999 82.8504H197.752C197.602 84.0017 197.727 84.6713 198.692 85.3439L198.999 82.8504ZM132.027 85.347L131.72 84.1019L130.777 85.3439H132.027V85.347ZM147.045 85.9728V84.7276H146.431V85.9728H147.045ZM127.02 88.4788H125.144L125.776 90.3497L127.017 89.4017V88.4757L127.02 88.4788ZM208.387 99.1036V97.8584H207.773V99.1036H208.387ZM151.429 100.364L148.933 99.7356V100.981L151.429 100.978V100.364ZM187.732 106.615H186.485V107.229H187.732V106.615ZM143.294 107.241H142.047V107.854H143.294V107.241ZM188.358 109.732L187.425 107.873C185.715 108.705 185.035 108.806 186.798 110.348L188.361 109.732H188.358ZM135.155 110.992H133.909V111.606H135.155V110.992ZM178.341 117.237L178.037 115.363L177.107 116.299L178.341 117.237ZM162.693 118.485V117.24H162.079V118.485H162.693ZM195.244 119.746C194.026 119.161 192.006 119.574 191.496 120.985L195.244 119.746ZM148.298 120.985V119.74H147.684V120.985H148.298ZM154.57 122.24C154.808 122.543 156.226 121.148 155.81 120.366C155.572 120.062 154.153 121.458 154.57 122.24ZM170.838 127.875H169.588V129.12L170.834 127.875H170.838Z" fill="#2F2F2F"/>
<path d="M881.539 78.1758C886.565 84.0983 889.896 90.4494 893.35 97.3543L891.559 100.677L893.441 98.1772L894.061 98.4838C897.637 105.229 901.32 111.073 906.537 116.633C899.306 121.999 891.581 126.654 883.189 130.03C880.546 129.241 867.247 104.475 866.52 100.051L869.013 101.3V99.4286L865.894 100.057C864.864 93.8127 857.054 90.681 857.12 83.7917C850.488 86.2352 844.084 83.604 837.37 85.7252L835.851 84.4268L834.151 87.2895C834.063 95.2675 834.126 103.518 833.991 111.646C833.941 114.671 832.999 117.606 833.315 121.026C833.537 123.428 834.652 125.199 834.589 127.561C825.824 125.121 817.877 131.403 809.203 127.602L808.307 9.39286C809.801 8.81406 811.94 10.078 812.954 10.0248C813.333 10.0061 813.249 8.88915 813.734 8.76713C819.145 7.42495 824.099 9.96852 828.702 10.5817C836.531 11.6267 845.718 8.69517 853.065 9.38034C857.965 9.83712 865.938 13.1879 871.374 14.2266C875.263 14.9681 879.907 14.5207 884.072 15.9223C888.237 17.3239 890.686 28.3774 892.273 32.1161C894.359 37.0249 897.666 40.6698 899.742 45.3252L890.322 70.9925C887.877 74.9533 886.489 77.2967 881.542 78.1727L881.539 78.1758ZM824.584 13.141L825.828 12.193L824.888 10.6412L824.584 13.1378V13.141ZM823.319 15.0119V13.7667H822.706V15.0119H823.319ZM856.497 14.3955H854.624V15.6407H856.497V14.3955ZM843.974 21.266V20.0208H843.36V21.266H843.974ZM825.201 25.0172V22.5206L823.329 23.1495C823.128 24.329 824.061 25.2237 825.201 25.0172ZM842.105 26.8913C841.729 25.4803 840.148 25.5585 838.98 25.6524C838.206 26.0153 841.237 27.2104 842.105 26.8913ZM857.12 26.8944V25.6492H856.506V26.8944H857.12ZM828.33 28.149H827.08L828.023 29.3942L828.33 28.149ZM836.471 30.0168L835.225 28.7716V30.0199H836.471V30.0168ZM819.568 30.0293H817.695V30.6425H819.568V30.0293ZM868.24 56.1284L873.172 46.2794L867.115 36.6151C860.305 35.5263 854.408 31.262 847.491 31.9659C843.038 32.4196 838.059 34.4 833.34 33.7711L834.533 52.2864C834.52 53.9977 832.789 60.2613 833.941 60.9996C845.809 60.6179 857.565 62.2323 868.243 56.1252L868.24 56.1284ZM882.788 34.4063H880.912V35.6483H881.839L882.788 34.4063ZM823.946 45.0248V43.7797H823.332V45.0248H823.946ZM817.689 54.4107H816.443V55.6559H817.689V54.4107ZM824.575 58.7814V57.5331L823.329 58.4748L824.575 58.7814ZM881.536 61.9195L879.666 61.2875V63.1615H881.536V61.9226V61.9195ZM860.871 69.4125C861.476 67.3195 862.763 66.1525 860.568 64.4255C859.008 65.6738 857.809 69.278 860.871 69.4125ZM821.447 68.7962H820.2V69.4094H821.447V68.7962ZM877.778 70.6702H876.532V71.2834H877.778V70.6702ZM820.817 73.1638V71.9185H820.204V73.1638H820.817ZM868.399 73.7926L869.633 72.854L868.703 71.9185L868.399 73.7926ZM812.679 80.6662V79.421H812.065V80.6662H812.679ZM825.377 83.6666C824.841 82.8875 825.615 81.6642 824.894 81.2982C823.373 81.902 824.127 85.6001 825.508 85.04L826.451 83.8073C826.138 83.8261 825.518 83.8699 825.38 83.6666H825.377ZM852.739 83.166V81.2951H852.125V83.166H852.739ZM863.38 84.4206C863.593 83.2786 862.694 82.3494 861.51 82.5496V83.7886L863.38 84.4206ZM842.728 83.1754H841.482V83.7886H842.728V83.1754ZM812.682 92.5519H810.809V93.7971H812.682V92.5519ZM873.397 95.0485V94.1225L872.451 93.1776L870.898 94.1162L873.397 95.0485ZM813.308 99.4317C812.162 99.2847 811.483 99.4005 810.819 100.367L811.742 101.29L813.305 100.674V99.4317H813.308ZM880.292 101.303C880.53 101.606 881.949 100.211 881.532 99.4286C881.294 99.1251 879.876 100.521 880.292 101.303ZM880.903 105.676V103.806H880.289V105.676H880.903ZM821.447 111.937H820.197L821.14 113.182L821.447 111.937ZM885.916 112.566L884.044 111.934C883.837 112.85 884.307 113.238 884.977 113.795L885.916 112.563V112.566ZM900.947 115.059L902.181 114.121L901.251 113.185L900.947 115.059ZM820.82 114.437L817.698 115.066V115.676L820.817 116.308V114.437H820.82ZM889.68 116.311L890.914 115.372L889.984 114.437L889.68 116.311ZM896.557 120.068H895.311V120.681H896.557V120.068ZM819.884 121.948L818.957 122.875L819.884 123.801L820.811 122.875L819.884 121.948ZM828.333 125.684L827.086 124.439V125.687H828.333V125.684Z" fill="#2F2F2F"/>
<path d="M1019.86 48.1503C1020.38 48.6008 1021.23 47.2211 1022.81 50.5156C1024.28 53.6004 1029.95 66.5154 1029.69 69.0214C1029.32 72.6319 1025.56 78.5857 1024.23 82.218C1020.6 92.1733 1019.78 103.649 1013.59 112.854C1007.77 115.219 1002.91 119.624 996.938 121.855C994.37 122.812 991.824 122.922 989.476 123.779C983.626 125.912 981.065 129.748 973.189 128.869L971.677 127.568L971.348 129.451C967.991 129.248 964.731 127.358 961.669 126.613C958.638 125.875 954.272 125.675 951.617 124.774C946.275 122.962 941.618 117.384 937.043 114.947C934.876 113.792 931.754 113.392 930.163 112.441C927.946 111.114 923.406 99.2972 922.545 96.2906C921.734 93.456 920.606 90.293 921.59 87.5461L920.384 88.1593C920.691 87.6712 916.858 81.8238 919.526 83.6759C920.669 84.4706 920.644 85.3654 921.587 85.6689L921.655 82.9126C920.857 81.9051 918.565 83.435 917.256 81.5641C916.755 80.8477 914.027 70.4137 914.03 69.1028C914.037 66.9628 916.655 58.8721 917.538 56.2973C919.501 50.5719 923.331 44.324 925.037 38.7769C925.664 36.7433 927.477 25.1517 928.563 24.4822C933.834 25.3551 936.564 21.6696 940.575 19.8393C942.107 19.1416 942.482 18.9226 943.876 18.2281C945.063 17.6368 952.519 13.995 952.888 14.3924L952.948 16.1851L955.39 16.2664L954.144 13.1503C960.153 12.681 964.553 6.30173 970.327 5.97948C974.335 5.75735 978.979 9.58679 982.762 11.1261C985.9 12.4026 990.183 13.0533 993.196 14.4581C995.535 15.5468 997.257 17.7713 999.847 19.0697C1002.98 20.6403 1012.55 22.6645 1014.22 24.0943C1016.94 26.4345 1016.72 35.2729 1017.54 38.9146C1018.06 41.2548 1020.17 44.64 1020.39 46.1136C1020.51 46.9208 1019.78 48.0815 1019.86 48.1503ZM977.924 11.2669H976.678V12.5121H977.924V11.2669ZM969.792 16.2602L968.545 15.015V16.2633H969.792V16.2602ZM941.621 25.0172V24.0911L940.378 23.1432V25.0172H941.621ZM969.162 23.1463L967.916 23.4529L969.159 24.3946V23.1463H969.162ZM972.914 24.3915V23.1463H972.3V24.3915H972.914ZM954.138 26.2687V25.0235H953.524V26.2687H954.138ZM982.302 25.0235C980.019 24.5198 981.647 26.8443 980.899 28.0395C980.689 28.3774 979.537 27.7485 979.812 28.7684L982.937 28.1427L982.302 25.0235ZM935.988 26.2781H934.742V26.8913H935.988V26.2781ZM987.941 27.517V26.2687L986.695 27.2104L987.941 27.517ZM991.07 28.7684C991.705 28.1396 989.848 26.2593 989.197 26.8975C988.546 27.5358 990.418 29.4067 991.07 28.7684ZM965.408 28.1521H964.161V28.7653H965.408V28.1521ZM992.269 40.0002C991.583 40.4382 979.346 34.2248 977.507 33.258C975.6 32.2537 973.584 29.9761 971.42 30.0481C968.627 30.1419 965.329 33.2831 962.708 34.5189C958.327 36.5838 955.221 36.8434 951.598 39.6811C950.737 40.3569 949.581 40.4539 948.827 41.283C948.282 46.7831 944.502 52.0987 943.654 57.3735C943.303 59.5604 943.669 61.7255 943.341 63.9374C943.049 65.9116 941.289 68.7555 941.252 69.7191C941.221 70.4825 944.53 77.2404 945.063 79.4241C946.071 83.5508 946.519 92.0794 949.597 95.0767C951.297 96.7317 968.451 104.991 970.734 105.098C972.61 105.185 977.066 103.968 978.979 103.292C981.672 102.348 987.155 99.7853 989.761 98.4306C990.716 97.9331 993.662 96.0591 994.138 95.2988C996.543 91.4569 994.868 79.6463 1001.71 80.6662C1002.12 78.2728 999.866 80.5066 999.806 78.4855C999.706 75.1066 1002.11 71.9248 1001.67 68.5646C1001.19 64.9667 998.945 61.2405 997.996 57.8115C996.471 52.2958 995.676 46.4984 994.201 41.0734C994.032 40.4508 993.042 40.7073 992.986 40.6291C991.837 39.0961 994.877 39.9533 994.201 38.1575C992.56 37.6538 992.592 39.7969 992.272 40.0034L992.269 40.0002ZM953.515 31.2807H952.268V31.8939H953.515V31.2807ZM937.867 40.0315L936.62 40.3381L937.864 41.2798V40.0315H937.867ZM926.6 43.1601H925.354V43.7734H926.6V43.1601ZM934.112 55.6622H932.24V56.9074H934.112V55.6622ZM1011.1 61.2812C1011.3 60.0986 1010.37 59.2038 1009.22 59.4134L1009.86 61.2812H1011.1H1011.1ZM937.24 68.7868C937.441 67.6042 936.508 66.7094 935.365 66.919L935.997 68.7868H937.237H937.24ZM1024.87 72.538V71.2928H1024.25V72.538H1024.87ZM942.874 74.4214H941.628V75.3475L942.564 76.2924L942.871 74.4214H942.874ZM932.236 87.5523H930.987V88.7975L932.233 87.5523H932.236ZM942.245 92.5456V91.3004H941.631V92.5456H942.245ZM937.867 100.057H935.994C936.004 102.351 937.854 102.351 937.867 100.057ZM1010.48 105.673L1009.84 103.809H1009.23V105.676H1010.48L1010.48 105.673ZM999.205 104.438H997.959V105.051H999.205V104.438ZM982.308 105.06H980.435V105.673H982.308V105.06ZM987.312 108.179V106.934H986.698V108.179H987.312ZM939.746 110.689C938.562 110.482 937.663 111.418 937.873 112.559L939.746 110.689ZM949.149 114.427L950.377 113.498L947.89 111.937L947.9 113.173L949.152 114.427H949.149ZM997.326 116.308V115.062H996.712V116.308H997.326ZM987.315 120.059V118.81L986.069 119.752L987.315 120.059ZM992.945 120.074L988.571 118.817C989.066 121.204 990.697 120.672 992.632 121.32L992.945 120.071V120.074Z" fill="#2F2F2F"/>
<path d="M1371.5 10.7946C1371.7 10.9166 1371.55 12.0053 1371.94 11.8927C1373.35 10.804 1374.72 9.69642 1376.64 10.0155C1377.08 10.4535 1375.73 18.3565 1374.14 19.0854L1375.4 19.7956L1376.64 34.4001C1367.22 33.2894 1357.62 33.7087 1348.14 33.8025C1341.02 33.8713 1334.11 35.1822 1326.89 35.0759C1323.55 35.0258 1320.58 32.867 1317.18 33.1455C1316.58 40.6573 1315.02 48.2693 1317.19 55.6623L1319.6 55.0803L1321.25 57.53L1321.88 55.631C1324.67 56.5351 1326.87 55.681 1329.36 55.6278C1337.42 55.4526 1345.33 56.3975 1353.2 56.313C1356.01 56.2817 1359.19 54.3983 1361.31 56.9074C1362.51 54.27 1366.56 55.1961 1369.13 55.0303C1369.66 63.0834 1368.25 71.2147 1369.14 79.0988C1369.09 79.4993 1362.97 78.7641 1361.94 78.7985C1359.62 78.8798 1356.3 79.2615 1353.86 79.4805C1347.24 80.075 1340.63 79.9686 1333.75 79.4148C1332.18 79.2897 1333.2 79.1457 1333.45 78.1696L1332.15 79.956C1327.04 81.195 1322.26 80.2032 1317.18 79.4179L1315.93 104.425C1316.13 104.66 1319.86 103.277 1320.7 103.211C1332.84 102.244 1344.27 105.295 1355.66 104.422C1357.75 104.262 1359.65 103.318 1361.9 103.158C1366.62 102.82 1371.45 104.309 1376.24 103.89C1377.76 104.403 1379.11 110.776 1376.63 110.995L1377.93 111.655C1376.87 116.617 1378.34 121.786 1377.26 126.939C1372.46 125.872 1367.48 126.585 1362.62 127.004C1352.07 127.912 1346.45 127.086 1336.29 126.914C1325.83 126.738 1315.48 129 1305.05 127.583L1304.65 126.322L1303.14 127.621L1291.51 126.945L1291.49 81.6455C1291.58 80.9134 1292.12 80.0186 1292.77 79.6964C1293.91 79.1332 1295.51 81.0417 1295.27 79.1144L1291.51 78.7985L1291.52 71.296L1292.77 72.5443L1294.01 71.6057C1290.64 68.9871 1292.9 65.8178 1292.79 62.88C1292.26 48.6197 1290.15 34.0747 1290.22 19.6861C1290.24 16.7265 1291.19 13.6103 1291.16 10.6069L1298.08 9.38356C1317.92 8.91739 1338.04 8.96119 1358.07 9.62759C1361.27 9.73396 1364.97 11.2263 1367.59 11.292C1368.82 11.3233 1370.76 10.3472 1371.5 10.7946H1371.5ZM1305.28 13.1442C1302.99 13.1536 1302.99 15.0026 1305.28 15.0151V13.1442ZM1311.54 15.6377V14.3925H1310.92V15.6377H1311.54ZM1333.45 15.6439H1332.2V16.8891H1333.45V15.6439ZM1297.77 18.7601L1296.83 17.5274L1295.9 18.4566L1297.77 18.7601ZM1340.34 22.5175C1341.92 22.674 1342.45 21.5195 1342.21 20.0209L1340.34 21.5915V22.5175H1340.34ZM1325.31 24.3885L1324.07 23.1433V24.3916H1325.31V24.3885ZM1357.86 26.8945V25.0236H1357.24V26.8945H1357.86ZM1363.5 26.2782L1361.62 26.5816L1362.56 27.5108L1363.5 26.2782ZM1317.17 28.1428V26.8945L1315.3 27.5265V28.1366H1317.17V28.1428ZM1297.77 29.4068L1295.27 28.1491L1295.64 30.7146L1298.4 31.2714L1296.52 30.6457L1297.77 29.4099V29.4068ZM1331.57 31.2808H1330.32V31.894H1331.57V31.2808ZM1310.29 33.7744C1309.31 34.2781 1308.01 33.718 1307.79 35.0164L1310.29 35.6453V33.7744H1310.29ZM1307.78 55.6654H1306.54V56.2786H1307.78V55.6654ZM1356.61 60.0329C1357.25 59.3853 1355.36 57.5269 1354.73 58.162C1354.1 58.7971 1355.98 60.668 1356.61 60.0329ZM1336.58 58.7878C1336.23 58.4123 1335.02 59.1382 1334.71 59.7232L1335.33 61.2875C1336.4 61.275 1337 59.2414 1336.58 58.7909V58.7878ZM1364.75 65.0387C1364.8 64.7603 1365.49 63.8624 1365.38 63.7936C1363.87 63.7341 1363.2 63.3931 1363.5 65.0387C1363.91 65.0919 1364.34 64.9949 1364.75 65.0387C1364.68 65.433 1364.77 65.8866 1364.75 66.2902L1366 65.3485C1366.04 64.7759 1365.15 65.0825 1364.75 65.0387ZM1305.28 67.5354V66.2902H1304.67V67.5354H1305.28ZM1341.58 71.2866V70.0414H1340.97V71.2866H1341.58ZM1362.86 72.5412C1363.14 70.0321 1358.98 69.2468 1360.66 71.3085C1360.89 71.5932 1362.79 72.6382 1362.86 72.5412ZM1354.1 71.296H1352.86V72.5412L1354.1 71.296H1354.1ZM1297.77 78.7985H1296.52V80.0437L1297.77 78.7985H1297.77ZM1312.16 81.292V80.0468H1311.55V81.292H1312.16ZM1297.77 87.543L1296.53 84.4269L1295.28 86.6106L1297.77 87.543ZM1313.42 89.4202V88.175H1312.8V89.4202H1313.42ZM1305.28 94.4322H1303.41V95.0454H1305.28V94.4322ZM1308.84 98.8999C1308.15 99.0814 1307.69 99.9105 1307.18 100.364C1308.44 102.122 1309.77 101.187 1310.91 99.7384C1310.24 98.903 1309.92 98.6121 1308.84 98.8999ZM1299.02 102.557H1297.78V104.428L1299.02 103.48V102.554L1299.02 102.557ZM1336.58 108.799L1334.96 106.972L1333.46 107.873L1336.58 108.802V108.799ZM1315.92 108.802V107.557H1315.31V108.802H1315.92ZM1363.49 108.802V107.557H1362.88V108.802H1363.49ZM1324.06 113.176L1323.43 111.311H1322.82V113.179H1324.07L1324.06 113.176ZM1317.8 111.937C1317.17 111.302 1315.29 113.157 1315.93 113.808C1316.57 114.459 1318.44 112.588 1317.8 111.937ZM1361.51 115.576C1361.71 115.263 1362.09 112.979 1361 113.185L1359.74 116.308C1360.14 116.057 1361.45 115.654 1361.5 115.576H1361.51ZM1325.94 114.443L1324.07 113.811V115.685H1325.94V114.446V114.443ZM1336.58 117.565H1335.33V118.179H1336.58V117.565ZM1321.56 122.565C1320.25 122.484 1319.21 122.327 1318.44 123.5L1319.36 124.42L1321.56 123.81L1321.56 122.568V122.565ZM1374.13 123.81V122.565H1373.52V123.81H1374.13ZM1362.87 123.191C1360.89 122.587 1359.77 124.542 1361.3 125.675L1362.86 124.114V123.187L1362.87 123.191Z" fill="#2F2F2F"/>
<path d="M1081.82 8.76396C1080.68 16.5355 1081.51 24.4071 1081.23 32.2381C1081.04 37.6381 1080.19 43.6545 1079.93 49.0701C1079.78 52.0048 1080.47 56.5601 1079.97 59.1161C1079.67 60.6273 1078.87 60.2331 1078.07 60.9746L1079.95 60.6617C1080.35 65.6174 1078.76 70.2009 1079.49 75.1911C1080.03 78.839 1082.43 82.6247 1083.53 86.1632C1084.75 90.0646 1084.89 94.5229 1086.81 98.3554L1101.65 106.164C1107.44 103.818 1112.36 99.8885 1118.8 99.147C1119.13 98.9123 1120.84 92.336 1120.99 91.3317C1122.71 80.4878 1125.61 69.8098 1125.7 58.4685C1125.73 55.2773 1125.12 51.5105 1125.05 47.8656C1124.83 36.5587 1124.24 27.226 1125.02 15.9442C1125.18 13.5633 1124.92 11.1355 1125.02 8.75771C1125.88 7.90672 1135.94 10.9915 1137.91 11.2106C1139.45 11.3826 1142.3 10.3095 1144.43 11.2544L1143.79 10.0154L1149.43 10.006C1149.35 12.1804 1149.55 14.3892 1149.42 16.5699C1149.25 19.4733 1148.06 23.8346 1148.14 26.5627C1148.21 28.8967 1149.89 31.7844 1150.08 34.6847C1150.46 40.6416 1150 49.5457 1150.05 55.975C1150.17 72.6663 1147.92 87.6023 1144.12 103.812L1138.43 116.883C1131.08 120.39 1123.26 122.593 1115.64 125.384C1108.72 127.918 1105.75 131.447 1097.32 129.291C1087.14 126.691 1078.87 122.465 1070.14 117.043C1068.58 116.07 1065.88 115.829 1064.65 114.408C1062.77 112.24 1063.03 106.08 1061.98 102.689C1061.23 100.251 1059.59 98.174 1058.95 95.7086C1057.9 91.6664 1058.14 86.2758 1057.28 82.3713C1056.88 80.5535 1055.25 78.4605 1054.96 76.5614C1052.43 59.8482 1055.67 35.9768 1055.49 18.519C1055.46 16.1256 1053.04 9.88714 1055.86 9.38656C1057.04 9.17694 1061.53 8.82653 1062.81 8.8234C1065.9 8.81402 1070.38 10.0749 1073.39 10.0655C1075.71 10.0592 1079.44 9.2051 1081.83 8.76396H1081.82ZM1058.04 13.1378V11.8926H1057.43V13.1378H1058.04ZM1074.32 15.0181L1069.32 14.3893C1069.08 17.4021 1070.54 16.8452 1072.79 16.2789C1073.85 16.0161 1074.63 16.9047 1074.32 15.0181ZM1131.27 16.889V15.6438H1130.66V16.889H1131.27ZM1063.05 19.3982H1061.81V20.0114H1063.05V19.3982ZM1073.69 23.7657V22.5206H1073.08V23.7657H1073.69ZM1077.45 23.1494H1076.2V23.7626H1077.45V23.1494ZM1131.9 30.0199V28.7747H1131.29V30.0199H1131.9ZM1145.04 31.2682V30.3421L1143.18 28.7716V31.2713H1145.04V31.2682ZM1080.57 31.8939C1080.73 30.3171 1079.58 29.7821 1078.07 30.0261L1078.78 31.8095L1080.57 31.8939H1080.57ZM1143.8 36.2803H1141.92V37.5255L1143.79 36.8935V36.2834L1143.8 36.2803ZM1069.94 43.1508L1071.17 42.1809V40.9951L1070.25 40.0284L1069.95 43.1508H1069.94ZM1066.18 45.0248V43.7796H1065.56V45.0248H1066.18ZM1070.56 47.5371H1069.31V48.1503H1070.56V47.5371ZM1071.81 53.785H1070.57V55.0302H1071.81V53.785ZM1066.81 56.9136H1065.56V58.7845H1066.81V56.9136ZM1056.79 59.4071V58.1619H1056.17V59.4071H1056.79ZM1128.06 61.9945L1126.28 61.2874C1126.12 62.4388 1126.24 63.1239 1127.22 63.7809H1128.15L1128.06 61.9945ZM1070.56 70.6702H1069.31V71.2834H1070.56V70.6702ZM1058.67 71.9216C1056.24 71.4085 1056.08 72.9103 1057.73 74.4026L1058.67 71.9216ZM1062.42 78.1664V76.2955H1061.81V78.1664H1062.42ZM1069.93 79.421L1068.06 79.7276L1069.01 80.663H1069.93V79.421ZM1071.19 86.9172L1069.94 85.672V86.9203H1071.19V86.9172ZM1082.45 97.5514C1082.69 96.0496 1082.16 94.892 1080.58 95.0579L1082.45 97.5514ZM1140.04 96.9194L1139.09 95.6805H1138.16V96.9225H1140.04V96.9194ZM1063.05 96.303H1061.81V97.5483H1063.05V96.303ZM1081.83 103.802L1081.52 101.931L1080.58 102.876V103.802H1081.83ZM1128.77 103.186L1126.27 102.557V103.799L1127.84 104.412L1128.77 103.186ZM1111.24 106.928V105.683H1110.63V106.928H1111.24ZM1091.84 106.934H1090.59L1091.53 108.179L1091.84 106.934ZM1083.71 111.937H1081.83C1081.84 114.23 1083.69 114.23 1083.71 111.937ZM1135.66 112.566H1133.78V113.808H1134.71L1135.66 112.566ZM1099.35 115.065H1098.11V115.679H1099.35V115.065ZM1108.74 118.814H1107.5V120.059H1108.74V118.814ZM1129.4 118.817H1127.52V119.43H1129.4V118.817Z" fill="#2F2F2F"/>
<path d="M1268.33 10.0374L1270.23 24.7075L1269.61 33.1423L1233.93 34.4C1233.8 38.8615 1234.12 43.373 1233.92 47.8375C1232.88 71.296 1234.22 95.8307 1231.66 119.239C1231.37 121.883 1232.94 124.286 1232.68 126.945C1224.54 128.916 1216.25 124.53 1208.28 127.574L1207.64 33.7837L1192.89 34.4595L1191.68 33.1454L1191 34.4595C1184.63 32.8514 1178.42 33.0641 1171.96 33.7837C1172.83 29.9855 1170.69 25.6399 1170.72 22.2109C1170.75 18.9008 1173 13.7417 1172.59 10.0186C1175.82 10.1688 1179.04 11.0636 1182.31 10.6631C1184.49 10.3972 1186.52 8.6639 1188.52 8.78905C1193.48 9.09252 1198.93 10.3346 1204.23 10.0468C1207.62 9.86216 1211.8 8.18835 1214.84 8.15393C1220.62 8.08823 1227.34 10.9822 1232.36 11.1606C1234.98 11.2544 1239.01 10.0749 1241.73 9.99983C1250.68 9.75579 1259.49 11.1543 1268.33 10.0468V10.0374ZM1265.77 15.5719L1265.54 13.7698C1264.78 14.5801 1263.73 15.0745 1263.98 16.2665L1265.77 15.5719ZM1215.78 15.6345L1214.83 14.3956H1213.9V15.6376H1215.78V15.6345ZM1227.66 16.2634V15.0181H1227.05V16.2634H1227.66ZM1235.8 21.8949C1235.92 20.3525 1238.08 19.4608 1236.12 18.1468C1235.09 19.5421 1233.17 20.5465 1235.8 21.8949ZM1248.33 18.1499H1247.08V19.3951L1248.32 18.1499H1248.33ZM1208.89 20.6403V18.7663L1207.01 19.3982L1207.96 20.6372H1208.89V20.6403ZM1215.14 27.5202L1214.84 25.0235L1213.9 26.5753L1215.14 27.5233V27.5202ZM1251.45 28.1428L1251.15 25.6493C1250.18 26.3219 1250.06 26.9914 1250.21 28.1428H1251.45ZM1210.14 30.0262H1208.27V31.8971L1210.14 31.2652V30.0262H1210.14ZM1225.79 30.0293L1222.05 31.5874L1224.19 32.5541L1225.79 30.0293H1225.79ZM1229.55 31.2808H1228.3V32.526L1229.55 31.2808H1229.55ZM1216.4 36.2678L1215.16 35.0226V36.271H1216.4V36.2678ZM1224.54 37.5318H1223.29V38.145H1224.54V37.5318ZM1223.91 46.2826H1218.29C1218.03 47.9032 1218.61 48.9795 1220.44 48.8105L1221.39 47.1836L1223.61 47.5184L1223.91 46.2826H1223.91ZM1232.04 48.7761V47.5309H1231.43V48.7761H1232.04ZM1231.42 59.4166H1230.18V60.0298H1231.42V59.4166ZM1220.15 61.2906H1218.91V62.5358H1220.15V61.2906ZM1220.15 65.6676H1218.91V66.9128H1220.15V65.6676ZM1215.15 66.9159H1213.9V68.1611H1215.15V66.9159ZM1232.68 69.4094L1231.43 68.1642V69.4126H1232.68V69.4094ZM1223.3 71.2898L1224.53 70.3512L1223.6 69.4157L1223.3 71.2898ZM1228.3 75.673H1227.05V76.9182L1228.29 75.673H1228.3ZM1210.14 82.5528H1208.27V83.4758L1209.2 84.4206L1210.14 82.5528H1210.14ZM1222.66 91.92V90.6747H1222.04V91.92H1222.66ZM1212.65 105.686H1211.4V106.299H1212.65V105.686ZM1232.05 125.071H1230.8V126.316L1232.05 125.071H1232.05Z" fill="#2F2F2F"/>
</svg>
