<svg width="209" height="123" viewBox="0 0 209 123" fill="none" xmlns="http://www.w3.org/2000/svg">
<path d="M44.0671 64.4656C45.4885 66.139 46.4308 67.9336 47.4076 69.8847L46.901 70.8236L47.4333 70.1172L47.6086 70.2038C48.62 72.1098 49.6615 73.7612 51.1369 75.3321C49.092 76.8483 46.9072 78.1637 44.5338 79.1176C43.7863 78.8948 40.0251 71.8968 39.8197 70.6467L40.5246 70.9995V70.4708L39.6426 70.6485C39.3512 68.884 37.1425 67.999 37.1611 66.0524C35.2854 66.7428 33.4743 65.9994 31.5755 66.5987L31.146 66.2319L30.6651 67.0408C30.6403 69.2951 30.658 71.6263 30.62 73.923C30.6058 74.7778 30.3392 75.6071 30.4287 76.5733C30.4915 77.2523 30.8068 77.7526 30.7891 78.4201C28.3103 77.7305 26.0626 79.5057 23.6094 78.4316L23.3562 45.03C23.7786 44.8665 24.3835 45.2236 24.6704 45.2086C24.7776 45.2033 24.7537 44.8877 24.8909 44.8532C26.4213 44.4739 27.8223 45.1927 29.1242 45.3659C31.3382 45.6612 33.9366 44.8329 36.0142 45.0265C37.4002 45.1555 39.655 46.1023 41.1924 46.3958C42.2923 46.6054 43.6057 46.4789 44.7835 46.875C45.9614 47.271 46.654 50.3943 47.103 51.4508C47.6928 52.8378 48.628 53.8677 49.2151 55.1832L46.5512 62.4358C45.8596 63.555 45.4672 64.2171 44.068 64.4647L44.0671 64.4656ZM27.9596 46.0891L28.3112 45.8212L28.0455 45.3827L27.9596 46.0882V46.0891ZM27.6018 46.6177V46.2659H27.4282V46.6177H27.6018ZM36.9848 46.4436H36.4552V46.7954H36.9848V46.4436ZM33.4433 48.3849V48.0331H33.2697V48.3849H33.4433ZM28.134 49.4449V48.7394L27.6044 48.9171C27.5478 49.2504 27.8117 49.5032 28.134 49.4449ZM32.9146 49.9744C32.8083 49.5757 32.3611 49.5978 32.0307 49.6243C31.812 49.7269 32.6693 50.0646 32.9146 49.9744ZM37.1611 49.9753V49.6235H36.9875V49.9753H37.1611ZM29.0188 50.3298H28.6654L28.932 50.6817L29.0188 50.3298ZM31.3214 50.8576L30.9689 50.5057V50.8585H31.3214V50.8576ZM26.5408 50.8611H26.0112V51.0344H26.5408V50.8611ZM40.3059 58.2357L41.7007 55.4528L39.988 52.722C38.0617 52.4144 36.3941 51.2094 34.4378 51.4083C33.1785 51.5365 31.7704 52.0961 30.4357 51.9184L30.7732 57.1502C30.7696 57.6337 30.2799 59.4036 30.6058 59.6122C33.9622 59.5043 37.2868 59.9605 40.3068 58.2349L40.3059 58.2357ZM44.4204 52.0979H43.89V52.4488H44.1521L44.4204 52.0979ZM27.7789 55.0983V54.7465H27.6053V55.0983H27.7789ZM26.0095 57.7504H25.657V58.1023H26.0095V57.7504ZM27.9569 58.9854V58.6327L27.6044 58.8988L27.9569 58.9854ZM44.0662 59.8721L43.5375 59.6935V60.2231H44.0662V59.8721ZM38.222 61.9894C38.393 61.398 38.757 61.0682 38.1361 60.5802C37.6951 60.9329 37.3559 61.9514 38.222 61.9894ZM27.0722 61.8152H26.7197V61.9885H27.0722V61.8152ZM43.0035 62.3447H42.651V62.518H43.0035V62.3447ZM26.8942 63.0493V62.6975H26.7206V63.0493H26.8942ZM40.3511 63.227L40.7 62.9618L40.437 62.6975L40.3511 63.227ZM24.5925 65.1693V64.8174H24.4189V65.1693H24.5925ZM28.1836 66.017C28.0322 65.7969 28.2509 65.4513 28.0472 65.3478C27.6168 65.5184 27.8303 66.5634 28.2208 66.4051L28.4874 66.0568C28.3988 66.0621 28.2235 66.0745 28.1845 66.017H28.1836ZM35.9221 65.8756V65.3469H35.7485V65.8756H35.9221ZM38.9314 66.2301C38.9916 65.9074 38.7375 65.6449 38.4027 65.7014V66.0515L38.9314 66.2301ZM33.0908 65.8782H32.7383V66.0515H33.0908V65.8782ZM24.5934 68.5277H24.0638V68.8796H24.5934V68.5277ZM41.7645 69.2332V68.9715L41.497 68.7045L41.0578 68.9697L41.7645 69.2332ZM24.7705 70.4717C24.4464 70.4301 24.2542 70.4629 24.0664 70.736L24.3277 70.9968L24.7696 70.8227V70.4717H24.7705ZM43.7146 71.0004C43.7819 71.0861 44.1831 70.6918 44.0653 70.4708C43.998 70.3851 43.5968 70.7794 43.7146 71.0004ZM43.8873 72.2362V71.7076H43.7137V72.2362H43.8873ZM27.0722 74.0052H26.7188L26.9854 74.357L27.0722 74.0052ZM45.3052 74.1829L44.7756 74.0043C44.7171 74.2633 44.85 74.373 45.0395 74.5303L45.3052 74.182V74.1829ZM49.5561 74.8875L49.905 74.6223L49.642 74.3579L49.5561 74.8875ZM26.8951 74.7115L26.0121 74.8892V75.0616L26.8942 75.2402V74.7115H26.8951ZM46.3697 75.2411L46.7186 74.9759L46.4556 74.7115L46.3697 75.2411ZM48.3145 76.3028H47.962V76.4761H48.3145V76.3028ZM26.6303 76.8341L26.3681 77.0958L26.6303 77.3575L26.8924 77.0958L26.6303 76.8341ZM29.0196 77.8897L28.6672 77.5378V77.8905H29.0196V77.8897Z" fill="white"/>
<path d="M87.083 3.68714L86.9067 4.74622L87.3584 3.85688L91.6421 5.31996C91.8502 6.4365 93.0812 7.55303 93.4966 8.50249C93.6551 8.86494 93.6002 9.28574 93.7711 9.64201C94.1103 10.3484 95.5556 12.9598 95.5273 13.4646C95.0004 15.5606 94.4132 17.5709 93.486 19.5308C93.292 19.9401 92.928 20.2929 92.7146 20.704C92.5153 21.0876 92.4037 21.9009 92.2346 22.129C92.1053 22.3041 90.8238 22.3713 90.807 23.0175C91.7882 24.3038 92.4427 25.8323 93.3761 27.1742C93.6099 27.5102 94.02 27.6348 94.3459 28.1502C95.4662 29.9218 95.6628 32.4192 97.5235 33.8098C95.808 35.7494 92.897 35.6893 90.8849 37.2363C90.0772 35.7679 89.1872 34.3225 88.4061 32.8418C87.9828 32.0391 87.7153 31.1144 87.3283 30.3842C86.1956 28.2501 84.4846 26.5041 83.5432 24.2613C81.439 24.3029 79.2391 24.5725 77.1712 24.1809C77.0897 25.1878 77.3669 26.0939 77.3545 27.1044C77.3342 28.868 77.3581 29.6159 77.5042 31.3548C77.6583 33.1865 77.6937 34.7416 77.3466 36.5494C76.3804 36.3647 75.3194 36.7554 74.4267 36.7395C73.2143 36.7183 71.7291 35.9218 70.4432 36.3726C70.4432 36.0384 70.2944 35.7299 70.267 35.3984C69.9074 31.1692 69.5514 28.1811 70.0872 23.9157C70.1501 23.4179 69.8233 22.5039 70.4406 22.5887L70.0784 22.3164C70.2351 21.1256 70.6354 19.6139 70.6354 18.4391C70.6354 17.1758 70.4636 15.7463 70.4397 14.3734C70.3981 12.0095 69.8038 9.63582 69.8012 7.45491C69.7994 6.09261 70.3148 4.58886 70.0863 3.15495C71.2908 3.19473 72.5094 3.1028 73.7147 3.15761C74.3922 3.18855 75.3743 3.5121 76.0199 3.51034C76.6115 3.50857 77.0065 3.11429 77.475 3.02058C78.5572 2.80576 80.6508 3.28579 81.8526 3.33883C83.6937 3.42105 85.3171 2.98964 87.083 3.68626V3.68714ZM85.3118 5.6276C85.6695 5.15111 84.0365 4.77804 84.6086 5.80618L85.3118 5.6276ZM83.1872 6.86525C83.367 6.68756 82.8418 6.15626 82.6576 6.3366C82.4734 6.51694 83.003 7.0456 83.1872 6.86525ZM72.7432 6.51341C72.4624 6.23317 71.9328 6.76182 72.2136 7.04206C72.4943 7.3223 73.0239 6.79365 72.7432 6.51341ZM74.8669 7.39744H74.5144V7.74929H74.8669V7.39744ZM76.9914 8.10379H76.639V8.63244L76.9897 8.36458V8.1029L76.9914 8.10379ZM92.9227 8.45829H92.5702V8.63156H92.9227V8.45829ZM84.6024 8.98517V8.63333H84.4288V8.98517H84.6024ZM86.727 8.63421L86.1974 8.72085L86.4648 8.98517H86.727V8.63421ZM86.5135 10.2591C83.483 9.60665 80.3931 10.0107 77.3466 9.6924C77.5432 10.7064 76.9604 11.6426 76.9773 12.608C77.0038 14.0984 77.5086 15.7489 77.3537 17.2819C77.9798 17.2332 78.6183 17.6399 79.2037 17.6425C79.5385 17.6443 79.883 17.4578 80.2593 17.4578C81.7498 17.4604 85.8768 17.4056 87.0033 16.4164C87.1742 16.2661 88.0633 14.0595 88.0704 13.8447C88.0766 13.6555 87.5506 11.9909 87.4275 11.7778C87.2061 11.3951 86.5339 11.0414 86.5126 10.2582L86.5135 10.2591ZM72.9203 12.1686H72.5669V12.5204L72.9194 12.1686H72.9203ZM90.4465 13.5786C91.2223 13.5282 91.0036 12.9589 90.2685 13.0517L90.4465 13.5786ZM73.805 13.5813C73.2453 13.4107 72.9291 13.9632 73.3631 14.2832L73.8041 13.8421V13.5804L73.805 13.5813ZM71.6813 14.4653L71.1871 14.3354L71.1243 14.6006L70.6203 14.5511C70.863 15.3069 71.3846 15.0346 71.6813 14.4653ZM73.0965 16.0522C73.1541 15.7304 72.9017 15.4678 72.5678 15.5244L72.3898 16.0522H73.0974H73.0965ZM90.4439 15.8762V15.5244H90.2703V15.8762H90.4439ZM74.866 16.5835L74.7801 16.0539L74.517 16.3183L74.866 16.5835ZM93.1007 17.1157L92.572 16.9371C92.5136 17.197 92.6473 17.3075 92.8386 17.4657H93.1007V17.1157ZM75.7525 17.8211C75.6639 17.7345 75.1317 18.0784 74.9412 18.1606C74.7792 18.2304 74.4595 18.0359 74.5153 18.348C75.0041 18.3533 75.779 18.5169 75.7525 17.8211ZM92.038 19.7642H91.6846L91.9512 20.1161L92.038 19.7642ZM91.6837 20.8233L91.5969 20.2946L91.3321 20.5616V20.8233H91.6837ZM87.4355 20.4715H87.083L87.2619 21.176H87.4346V20.4715H87.4355ZM90.0932 21.7073L90.4421 21.4421L90.1791 21.1778L90.0932 21.7073ZM83.1881 21.8824L82.8356 21.5305V21.8833H83.1881V21.8824ZM74.3346 24.0032V23.6513H74.161V24.0032H74.3346ZM82.4787 23.829H82.1262V24.0023H82.4787V23.829ZM75.7525 24.5354H75.4V25.2408C75.7516 25.1462 75.7967 24.8642 75.7516 24.5354H75.7525ZM85.6651 25.0658H85.3126V25.2391H85.6651V25.0658ZM87.2583 26.3026H86.7287V26.4758H87.2583V26.3026ZM75.222 27.0089H74.8686V27.3608L75.2211 27.0089H75.222ZM70.6177 29.8334V29.4816H70.4441V29.8334H70.6177ZM89.0287 29.6592H88.6762V29.8325H89.0287V29.6592ZM93.8101 31.9533C94.0758 32.2424 94.5195 31.4017 94.3388 31.0711C94.0359 31.1055 93.6392 31.7677 93.8101 31.9533ZM71.5042 32.8365L71.1517 32.4846V32.8374H71.5042V32.8365ZM95.0464 33.5437V33.1919H94.8728V33.5437H95.0464ZM91.1515 34.25V33.8982H90.9779V34.25H91.1515ZM74.8677 34.426L74.6021 34.0777L74.3373 34.3402L74.8677 34.426Z" fill="white"/>
<path d="M83.1863 55.9814C83.3324 56.1087 83.5751 55.7189 84.0206 56.6498C84.4377 57.5214 86.0397 61.1707 85.9671 61.8789C85.8617 62.899 84.799 64.5814 84.4235 65.6077C83.3953 68.4207 83.1624 71.6634 81.4133 74.2642C79.7678 74.9326 78.3934 76.1773 76.7036 76.8076C75.9774 77.0781 75.2574 77.109 74.5932 77.3513C72.9389 77.9542 72.2145 79.038 69.9872 78.7896L69.5594 78.4219L69.4664 78.954C68.517 78.8966 67.5951 78.3626 66.729 78.1522C65.8717 77.9436 64.6372 77.887 63.8862 77.6324C62.3753 77.1205 61.0584 75.5443 59.7645 74.8556C59.1517 74.5294 58.2687 74.4163 57.8188 74.1475C57.1918 73.7727 55.9077 70.4337 55.6642 69.5841C55.4348 68.7832 55.116 67.8894 55.394 67.1132L55.0531 67.2865C55.1399 67.1486 54.0559 65.4963 54.8104 66.0197C55.1337 66.2442 55.1266 66.4971 55.3932 66.5828L55.4126 65.804C55.1868 65.5193 54.5385 65.9516 54.1684 65.423C54.0267 65.2205 53.2553 62.2723 53.2562 61.9018C53.2579 61.2972 53.9983 59.011 54.2481 58.2835C54.8033 56.6657 55.8864 54.9003 56.3691 53.3329C56.5462 52.7582 57.059 49.4829 57.3663 49.2937C58.8568 49.5404 59.629 48.499 60.7635 47.9818C61.1966 47.7847 61.3028 47.7228 61.6969 47.5265C62.0326 47.3594 64.1412 46.3304 64.2457 46.4427L64.2626 46.9492L64.9533 46.9722L64.6009 46.0917C66.3004 45.9591 67.5446 44.1566 69.1777 44.0655C70.3113 44.0027 71.6246 45.0848 72.6945 45.5198C73.5818 45.8804 74.7934 46.0643 75.6453 46.4613C76.3069 46.7689 76.794 47.3974 77.5264 47.7643C78.412 48.2081 81.1202 48.7801 81.5913 49.1841C82.3618 49.8453 82.298 52.3428 82.5292 53.3718C82.678 54.033 83.2749 54.9896 83.336 55.4059C83.3696 55.634 83.1642 55.962 83.1863 55.9814ZM71.3262 45.5595H70.9737V45.9114H71.3262V45.5595ZM69.0263 46.9705L68.6738 46.6186V46.9713H69.0263V46.9705ZM61.0593 49.4449V49.1832L60.7077 48.9153V49.4449H61.0593ZM68.8483 48.9162L68.4958 49.0029L68.8474 49.269V48.9162H68.8483ZM69.9092 49.2681V48.9162H69.7356V49.2681H69.9092ZM64.5991 49.7985V49.4467H64.4255V49.7985H64.5991ZM72.5643 49.4467C71.9187 49.3043 72.3792 49.9612 72.1675 50.2989C72.1082 50.3943 71.7823 50.2166 71.8602 50.5048L72.7441 50.328L72.5643 49.4467ZM59.4661 49.8012H59.1136V49.9744H59.4661V49.8012ZM74.1593 50.1512V49.7985L73.8068 50.0646L74.1593 50.1512ZM75.044 50.5048C75.2238 50.3271 74.6986 49.7958 74.5144 49.9762C74.3302 50.1565 74.8598 50.6852 75.044 50.5048ZM67.7864 50.3307H67.4339V50.504H67.7864V50.3307ZM75.3832 53.6785C75.1892 53.8023 71.7283 52.0466 71.2084 51.7734C70.6691 51.4897 70.0987 50.8461 69.4868 50.8664C68.6968 50.8929 67.7643 51.7805 67.023 52.1297C65.784 52.7132 64.9055 52.7865 63.8809 53.5884C63.6373 53.7793 63.3105 53.8067 63.0971 54.041C62.943 55.5951 61.8741 57.0971 61.6341 58.5876C61.5349 59.2055 61.6385 59.8173 61.5455 60.4423C61.4631 61.0001 60.9654 61.8037 60.9548 62.076C60.9459 62.2917 61.882 64.2012 62.0326 64.8183C62.3178 65.9843 62.4444 68.3942 63.3149 69.2411C63.7958 69.7088 68.6472 72.0426 69.2928 72.0727C69.8233 72.0975 71.0835 71.7536 71.6246 71.5626C72.3863 71.2956 73.937 70.5716 74.6738 70.1888C74.9439 70.0482 75.7773 69.5187 75.9119 69.3039C76.592 68.2183 76.1182 64.8811 78.0542 65.1693C78.1702 64.493 77.5317 65.1242 77.5149 64.5531C77.4865 63.5983 78.1675 62.6992 78.0418 61.7498C77.9072 60.7332 77.2713 59.6803 77.003 58.7114C76.5717 57.1528 76.3467 55.5147 75.9296 53.9818C75.8818 53.8058 75.6019 53.8783 75.586 53.8562C75.261 53.423 76.1209 53.6653 75.9296 53.1578C75.4655 53.0155 75.4744 53.6211 75.3841 53.6794L75.3832 53.6785ZM64.4229 51.2147H64.0704V51.388H64.4229V51.2147ZM59.9974 53.6874L59.645 53.774L59.9966 54.0401V53.6874H59.9974ZM56.811 54.5714H56.4585V54.7447H56.811V54.5714ZM58.9356 58.104H58.406V58.4559H58.9356V58.104ZM80.7084 59.6918C80.765 59.3576 80.5011 59.1048 80.1779 59.164L80.3568 59.6918H80.7084ZM59.8203 61.8126C59.877 61.4784 59.6131 61.2256 59.2898 61.2848L59.4687 61.8126H59.8203ZM84.6024 62.8725V62.5207H84.4288V62.8725H84.6024ZM61.4135 63.4047H61.0611V63.6664L61.3259 63.9334L61.4127 63.4047H61.4135ZM58.4051 67.115H58.0518V67.4669L58.4042 67.115H58.4051ZM61.2355 68.5259V68.1741H61.062V68.5259H61.2355ZM59.9974 70.6485H59.4679C59.4705 71.2965 59.9939 71.2965 59.9974 70.6485ZM80.5321 72.2354L80.3532 71.7085H80.1805V72.2362H80.5339L80.5321 72.2354ZM77.3448 71.8862H76.9923V72.0594H77.3448V71.8862ZM72.5661 72.0621H72.0365V72.2354H72.5661V72.0621ZM73.9813 72.9435V72.5916H73.8077V72.9435H73.9813ZM60.5288 73.6525C60.194 73.5941 59.9399 73.8585 59.9992 74.1811L60.5288 73.6525ZM63.1883 74.7089L63.5355 74.4463L62.8323 74.0052L62.8349 74.3544L63.1892 74.7089H63.1883ZM76.8134 75.2402V74.8884H76.6399V75.2402H76.8134ZM73.9821 76.3002V75.9474L73.6297 76.2135L73.9821 76.3002ZM75.5745 76.3046L74.3373 75.9492C74.4772 76.6237 74.9386 76.4734 75.4859 76.6564L75.5745 76.3037V76.3046Z" fill="white"/>
<path d="M182.636 45.4261C182.693 45.4605 182.648 45.7682 182.758 45.7364C183.159 45.4287 183.546 45.1158 184.088 45.2059C184.212 45.3297 183.831 47.5628 183.382 47.7688L183.738 47.9694L184.088 52.0961C181.424 51.7823 178.708 51.9007 176.028 51.9273C174.015 51.9467 172.062 52.3171 170.018 52.2871C169.073 52.2729 168.235 51.6629 167.273 51.7416C167.103 53.8642 166.661 56.0151 167.274 58.104L167.956 57.9396L168.424 58.6318L168.602 58.0952C169.39 58.3507 170.014 58.1093 170.718 58.0943C172.998 58.0448 175.233 58.3118 177.46 58.2879C178.253 58.2791 179.153 57.7469 179.753 58.4559C180.093 57.7106 181.238 57.9723 181.966 57.9255C182.116 60.201 181.715 62.4986 181.967 64.7263C181.955 64.8395 180.222 64.6318 179.931 64.6415C179.274 64.6645 178.337 64.7723 177.646 64.8342C175.773 65.0022 173.906 64.9721 171.959 64.8156C171.515 64.7803 171.803 64.7396 171.875 64.4638L171.506 64.9686C170.062 65.3186 168.71 65.0384 167.273 64.8165L166.918 71.8826C166.977 71.9489 168.03 71.5582 168.27 71.5396C171.701 71.2664 174.935 72.1284 178.156 71.8817C178.747 71.8366 179.284 71.5697 179.921 71.5246C181.255 71.4291 182.621 71.8499 183.975 71.7314C184.405 71.8764 184.787 73.6772 184.086 73.7391L184.452 73.9256C184.153 75.3277 184.568 76.7881 184.264 78.2441C182.907 77.9427 181.498 78.1442 180.123 78.2627C177.141 78.5191 175.55 78.2857 172.677 78.2371C169.72 78.1876 166.792 78.8267 163.843 78.4263L163.728 78.07L163.301 78.4369L160.012 78.2459L160.008 65.446C160.034 65.2391 160.185 64.9863 160.369 64.8952C160.692 64.7361 161.145 65.2753 161.077 64.7308L160.013 64.6415L160.015 62.5216L160.37 62.8743L160.719 62.6091C159.766 61.8691 160.405 60.9736 160.374 60.1435C160.224 56.1141 159.63 52.0042 159.649 47.9385C159.654 47.1022 159.922 46.2217 159.915 45.373L161.872 45.0274C167.482 44.8956 173.173 44.908 178.836 45.0963C179.742 45.1264 180.79 45.5481 181.53 45.5666C181.876 45.5755 182.427 45.2996 182.635 45.4261H182.636ZM163.908 46.09C163.259 46.0926 163.259 46.6151 163.908 46.6186V46.09ZM165.677 46.7946V46.4427H165.503V46.7946H165.677ZM171.873 46.7963H171.521V47.1482H171.873V46.7963ZM161.784 47.6768L161.519 47.3285L161.254 47.5911L161.784 47.6768ZM173.822 48.7386C174.269 48.7828 174.42 48.4565 174.351 48.0331L173.823 48.4769V48.7386H173.822ZM169.573 49.2672L169.221 48.9154V49.2681H169.573V49.2672ZM178.777 49.9753V49.4467H178.603V49.9753H178.777ZM180.372 49.8012L179.841 49.8869L180.106 50.1495L180.372 49.8012ZM167.271 50.328V49.9753L166.742 50.1539V50.3263H167.271V50.328ZM161.783 50.6852L161.078 50.3298L161.18 51.0547L161.961 51.2121L161.431 51.0353L161.783 50.6861V50.6852ZM171.343 51.2147H170.99V51.388H171.343V51.2147ZM165.323 51.9193C165.047 52.0616 164.679 51.9034 164.617 52.2703L165.324 52.448V51.9193H165.323ZM164.616 58.1049H164.263V58.2782H164.616V58.1049ZM178.423 59.339C178.605 59.156 178.072 58.6309 177.894 58.8104C177.716 58.9898 178.245 59.5185 178.423 59.339ZM172.759 58.9872C172.66 58.8811 172.32 59.0862 172.232 59.2515L172.407 59.6935C172.707 59.69 172.878 59.1154 172.759 58.9881V58.9872ZM180.726 60.7535C180.74 60.6748 180.936 60.4211 180.904 60.4016C180.476 60.3848 180.287 60.2885 180.372 60.7535C180.488 60.7685 180.611 60.7411 180.726 60.7535C180.705 60.8649 180.731 60.9931 180.728 61.1071L181.079 60.841C181.092 60.6792 180.838 60.7659 180.726 60.7535ZM163.907 61.459V61.1071H163.734V61.459H163.907ZM174.174 62.5189V62.1671H174V62.5189H174.174ZM180.193 62.8734C180.27 62.1644 179.095 61.9425 179.57 62.5251C179.636 62.6055 180.171 62.9008 180.193 62.8734ZM177.716 62.5216H177.362V62.8734L177.715 62.5216H177.716ZM161.784 64.6415H161.431V64.9933L161.783 64.6415H161.784ZM165.854 65.3461V64.9942H165.68V65.3461H165.854ZM161.783 67.1124L161.432 66.2319L161.079 66.8489L161.783 67.1124ZM166.208 67.6428V67.2909H166.034V67.6428H166.208ZM163.908 69.059H163.378V69.2323H163.908V69.059ZM164.913 70.3214C164.719 70.3727 164.588 70.607 164.444 70.7351C164.802 71.232 165.176 70.9676 165.499 70.5583C165.31 70.3223 165.221 70.2401 164.913 70.3214ZM162.138 71.3549H161.785V71.8835L162.136 71.6156V71.354L162.138 71.3549ZM172.76 73.1185L172.301 72.6022L171.876 72.8568L172.76 73.1194V73.1185ZM166.916 73.1194V72.7675H166.743V73.1194H166.916ZM180.37 73.1194V72.7675H180.196V73.1194H180.37ZM169.219 74.3553L169.04 73.8284H168.867V74.3562H169.221L169.219 74.3553ZM167.448 74.0052C167.27 73.8257 166.738 74.35 166.918 74.5338C167.099 74.7177 167.629 74.1891 167.448 74.0052ZM179.809 75.0333C179.867 74.9449 179.974 74.2996 179.665 74.3579L179.311 75.2402C179.423 75.1695 179.794 75.0554 179.808 75.0333H179.809ZM169.75 74.7133L169.221 74.5347V75.0643H169.75V74.7133ZM172.759 75.5956H172.406V75.7688H172.759V75.5956ZM168.511 77.0083C168.14 76.9853 167.847 76.9411 167.63 77.2726L167.89 77.5325L168.512 77.3601L168.511 77.0091V77.0083ZM183.379 77.3601V77.0083H183.206V77.3601H183.379ZM180.194 77.1851C179.634 77.0145 179.318 77.567 179.752 77.887L180.193 77.4459V77.1842L180.194 77.1851Z" fill="white"/>
<path d="M25.7234 12.6407C25.7393 12.6822 26.3681 12.8378 25.8341 13.3152L19.5746 15.3334C19.4754 15.3007 18.6456 13.7713 18.542 13.5256C18.2072 12.73 17.7715 10.3369 17.3331 9.96204C17.0515 9.72069 16.0029 9.51295 15.5761 9.41835C14.5585 9.19292 13.4639 9.06562 12.464 9.12927C12.0859 9.15314 11.93 8.70759 11.7582 9.34144L11.3189 8.98783L11.2977 9.49261C10.095 9.23889 8.4088 11.2837 8.29722 12.2508C8.12718 13.7307 9.45825 14.6465 10.7433 14.9489C13.2079 15.5288 16.049 16.1229 18.4472 16.9769C20.7401 17.7928 22.6229 19.1304 24.7519 20.2248C25.1221 21.7091 27.6328 25.5741 27.515 26.8533C27.4725 27.3192 26.6223 28.6948 26.3292 29.1801C25.2159 31.0216 24.8528 31.6978 23.9717 33.7179C23.0905 35.7379 23.0161 34.8821 21.4078 35.3993C19.293 36.0791 18.8165 35.9306 16.7955 36.2736C15.9383 36.4186 14.7622 37.2107 14.067 37.2257C13.2398 37.2434 12.0203 36.9738 11.125 37.0003C10.5582 36.8279 10.8053 35.8404 9.90195 36.0199L10.2553 36.461C9.52644 36.5247 8.64526 35.7193 7.9412 35.4143C7.52142 35.2331 6.57027 34.8247 6.18415 34.6947C5.71743 34.5374 4.07462 34.3305 3.92052 34.2165C3.84702 34.1625 3.39713 32.871 3.20938 32.5394C2.291 30.9172 2.00052 30.1437 1.31417 28.4243C1.01926 27.6861 0.231949 26.4352 0.0645679 25.7783C0.00788878 25.5564 -0.0851005 25.4972 0.167299 25.331C0.638444 25.0198 2.30162 24.7935 2.91978 24.5442C3.37056 24.363 3.71506 23.9634 4.11713 23.7963C4.85661 23.4887 5.69263 23.4869 6.27359 22.9485C6.45249 22.9485 7.4798 25.9242 7.42577 26.3008L7.77559 25.9498C8.26179 26.6491 8.36452 28.5436 8.70991 29.082C9.42991 30.2038 13.2575 29.7998 14.0625 31.0711L13.7978 30.5442C14.6258 30.4036 15.4884 29.7238 16.2642 29.5594C16.7513 29.4568 17.574 29.5744 17.8707 29.3958C18.0203 29.3056 19.1079 27.1804 19.1194 26.9179C19.1849 25.4557 18.6491 24.8271 17.5722 24.0359C17.2198 23.7769 16.6034 23.8034 16.6264 23.3013L16.2881 23.3163L16.0215 23.6593C13.943 22.9653 11.9158 22.0115 9.72571 21.7065L10.2544 21.1787C9.90903 21.1354 9.78593 21.4598 9.45382 21.527C8.0333 21.8143 7.36998 20.5395 6.24171 19.972C4.62015 19.156 4.72554 19.2895 3.26517 18.1721C2.94901 17.9307 2.44066 17.944 2.20775 17.6372C1.69144 16.9592 1.72243 15.5067 1.54177 14.7677C1.19018 13.3258 0.0300289 12.9943 1.61262 11.403C2.28303 9.18055 3.08893 7.06328 4.33322 5.09276C5.71743 4.67108 7.08747 3.90196 8.5195 3.45641C11.7157 2.46275 14.1113 2.13477 17.3756 3.20534C18.24 3.48912 18.9254 3.97004 19.8562 4.26265C20.6134 4.50046 21.7718 4.56853 22.3474 4.77981C22.808 4.94866 23.3854 7.62818 23.7299 8.3469C24.5181 9.99209 25.0344 10.8417 25.7216 12.6416L25.7234 12.6407ZM9.90106 3.51034H9.37058L9.54947 4.03899H9.90017V3.51034H9.90106ZM8.48497 4.57118H7.95537V4.74445H8.48497V4.57118ZM15.2812 5.19708C15.1766 5.10867 15.2997 4.85584 15.0376 4.92391L15.0766 5.59136C15.5734 6.29505 16.3935 5.57987 16.451 5.62937C16.513 5.68418 16.312 6.05548 16.6264 5.98033L16.9798 5.62584L16.893 5.27399C16.219 5.22537 16.3049 6.05901 15.282 5.19708H15.2812ZM12.2019 5.10072C12.1 4.99905 11.6749 5.24747 11.6749 5.36504C11.6749 5.85392 12.4693 5.3677 12.2019 5.10072ZM7.24599 7.04471H6.89352V7.21799H7.24599V7.04471ZM19.6366 7.57425H19.2841V7.9261H19.6366V7.57425ZM20.8756 9.5156V9.16375H20.702V9.5156H20.8756ZM20.168 11.6382H19.8155V11.8114H20.168V11.6382ZM3.88156 12.6955V12.1668H3.70798V12.6955H3.88156ZM5.12141 15.8789H4.76894V16.0522H5.12141V15.8789ZM12.0239 16.5826V16.2307H11.8503V16.5826H12.0239ZM15.0332 17.113V16.7612H14.8596V17.113H15.0332ZM16.6264 17.113V16.7612H16.4528V17.113H16.6264ZM6.18326 19.0588H5.65366V19.232H6.18326V19.0588ZM16.451 19.2356L15.9223 19.057V19.5865H16.451V19.2356ZM19.8137 19.2347H19.5516L19.2832 19.5857H19.8137V19.2347ZM11.6714 20.4723H11.3189V20.6456H11.6714V20.4723ZM15.2138 22.2369C15.6159 22.1308 15.5823 21.6826 15.5645 21.3537L15.0358 21.5341L15.2138 22.2369ZM13.2655 21.5323H12.9121V21.8842L13.2646 21.5323H13.2655ZM22.4705 22.7691H22.1172V23.1209L22.4697 22.7691H22.4705ZM23.5315 25.4168L23.4447 24.8881L23.1799 25.1551V25.4168H23.5315ZM7.06887 27.0089H6.7164V27.3608H7.06887V27.0089ZM21.7612 27.3625H21.4087V27.5358H21.7612V27.3625ZM19.6375 28.0698C19.2124 28.0008 18.8847 28.152 18.9308 28.5975L19.6375 28.0698ZM22.1172 31.0702C22.219 31.1718 22.6441 30.9234 22.6441 30.8059C22.6441 30.317 21.8497 30.8032 22.1172 31.0702ZM12.0248 31.0702V30.7175L11.6723 30.9835L12.0248 31.0702ZM9.90106 31.7792C9.72305 31.5997 9.1908 32.124 9.37146 32.3078C9.55213 32.4917 10.0817 31.9631 9.90106 31.7792ZM13.0866 32.6606V32.3087H12.913V32.6606H13.0866ZM23.7077 32.8391C23.1436 32.6102 22.9523 32.7154 23.0019 33.3669L23.7086 33.1883V32.8391H23.7077ZM19.8137 33.5455H19.4612V34.2501H19.6339L19.8128 33.5455H19.8137ZM23.3553 33.5464H23.0019V33.8982L23.3544 33.5464H23.3553ZM15.2112 35.8431H14.8587V36.0164H15.2112V35.8431Z" fill="white"/>
<path d="M34.3289 21.8833L35.04 21.794C34.885 21.1345 34.7115 21.458 34.3315 21.7073C34.3085 20.2363 34.823 18.882 34.6645 17.3968C34.2996 13.9773 33.8498 10.5738 34.6831 7.13135L34.3298 3.15761C35.5112 3.37243 36.7563 3.39718 37.9643 3.33972C38.5736 3.31054 39.8577 2.7536 40.3041 3.20269C40.4405 3.33972 40.3324 3.82329 40.7 3.86307C40.6885 3.30259 40.9887 2.89151 41.5865 2.9808C41.4696 4.26265 41.7857 5.51091 41.7707 6.78658C41.7609 7.62995 41.4031 8.94186 41.4997 9.78258C41.745 11.9184 41.6059 12.783 41.5803 14.8985C41.5528 17.1519 41.7698 20.9312 42.0709 23.0811C42.248 24.3497 42.6501 27.206 43.1859 28.2837C43.3453 28.6037 44.1503 29.3702 44.1468 28.5993C45.0297 28.7673 45.3698 29.5125 45.833 29.7264C45.9888 29.798 46.2775 29.6928 46.4998 29.7768C46.9125 29.9306 47.6812 30.3568 48.055 30.3497C48.4694 30.3417 49.7677 29.4347 50.2628 29.2181C50.8128 28.9768 51.941 28.8999 52.3821 28.5065C53.1331 27.8364 53.1233 24.7705 53.7167 23.814L54.1551 23.8299C53.7185 22.9406 54.163 22.0477 54.156 21.268C54.1347 18.7007 53.9531 16.0654 53.9726 13.4858C53.9753 13.0898 54.1019 10.8938 54.156 10.694C54.1949 10.5473 54.5421 10.5915 54.512 10.4942C53.7574 8.9392 53.8628 7.0456 53.8044 5.36504C53.7805 4.68876 53.8168 4.00893 53.8017 3.33441L60.5749 2.84908L61.3409 3.15319C61.3268 4.16452 61.0336 5.0353 61.0531 6.08111C61.0797 7.53977 61.5978 9.51118 61.5898 10.8434C61.5862 11.4658 61.271 12.2764 61.2302 12.9572C61.0566 15.8479 61.6022 18.9023 61.2417 21.8028C61.1408 22.6161 60.5669 23.7265 60.3995 24.6733C60.2321 25.6201 60.295 26.7039 60.156 27.6109C59.8708 29.4754 59.0463 31.2779 58.5796 33.1043C56.4904 34.2483 53.73 34.731 51.6807 35.76C50.8172 36.1932 49.3072 37.5396 48.372 37.567C48.1745 37.5731 46.3953 36.903 46.0694 36.7598C44.4966 36.0685 43.2992 35.097 41.5803 34.5268C40.3537 34.1192 38.3248 33.93 37.3435 33.1017C36.5712 32.4502 36.3339 29.1324 36.0549 28.0273C35.8433 27.1893 34.0561 22.152 34.328 21.8868L34.3289 21.8833ZM57.5186 4.2158L57.167 4.21757V5.09895L57.6169 4.92391L57.5186 4.2158ZM60.5297 5.6276L60.0001 5.09895V5.62849H60.5297V5.6276ZM56.4577 5.98122L56.0149 5.4561C55.5304 5.79027 55.9493 6.04929 56.4577 5.98122ZM39.4504 6.70524L38.7578 6.51341L39.0208 7.22329L39.4628 7.21887L39.4495 6.70524H39.4504ZM35.5678 8.10291C35.6263 7.76874 35.3615 7.51502 35.0382 7.57425L35.5678 8.10291ZM57.1653 7.57514H56.8128V7.74841H57.1653V7.57514ZM39.4628 9.87186H39.1103V10.0451H39.4628V9.87186ZM39.995 10.3979L39.6426 10.046V10.3987H39.995V10.3979ZM38.2238 11.106L38.137 10.7541L37.8704 11.1051H38.2238V11.106ZM58.4042 11.1086H58.0518V11.2819H58.4042V11.1086ZM59.9974 11.4614H59.645V11.6346H59.9974V11.4614ZM40.8797 12.5178L40.5273 12.1659V12.5187H40.8797V12.5178ZM59.8203 13.5813H59.4678V13.9331H59.8203V13.5813ZM41.2331 14.4653C40.7203 14.1851 40.096 14.6218 40.6141 14.9895L41.2331 14.6377V14.4653ZM55.3949 15.8754C55.3444 15.1009 54.7741 15.3193 54.8662 16.053L55.3949 15.8754ZM59.9983 16.762L59.1145 16.8478L59.8203 17.4675L59.9992 16.762H59.9983ZM35.923 18.1747H35.5705V18.5266H35.923V18.1747ZM55.2169 19.5865V19.2347H55.0433V19.5865H55.2169ZM41.7645 19.4115H41.412V19.7633H41.7645V19.4115ZM58.7585 21.3528L58.6717 21.001L58.4051 21.352H58.7585V21.3528ZM39.2662 22.9255C39.4982 22.51 39.3795 22.2386 38.9349 22.061L38.5789 22.9423L39.2662 22.9264V22.9255ZM56.2797 23.4745H55.9272C55.8847 23.7999 55.9201 23.989 56.1929 24.1791L56.2797 23.4745ZM37.3391 24.18L37.2523 23.8281L36.9857 24.1791H37.3391V24.18ZM41.5865 24.3568V24.005H41.4129V24.3568H41.5865ZM35.923 25.0649H35.3925L35.5714 25.5936L35.9221 25.3257V25.064L35.923 25.0649ZM58.9347 28.0671V27.7153H58.7611V28.0671H58.9347ZM42.8263 28.4234L42.1205 28.2457V28.5975L42.8263 28.5966V28.4234ZM53.0932 30.1897H52.7407V30.3629H53.0932V30.1897ZM40.5255 30.3665H40.173V30.5397H40.5255V30.3665ZM53.2703 31.0702L53.0064 30.5451C52.5229 30.7802 52.3307 30.8085 52.8293 31.2443L53.2712 31.0702H53.2703ZM38.2238 31.4264H37.8713V31.5997H38.2238V31.4264ZM50.4373 33.191L50.3514 32.6614L50.0883 32.9258L50.4373 33.191ZM46.0119 33.5437V33.1919H45.8383V33.5437H46.0119ZM55.2178 33.9C54.8733 33.7347 54.3021 33.8513 54.1577 34.25L55.2178 33.9ZM41.9407 34.25V33.8982H41.7671V34.25H41.9407ZM43.7146 34.6045C43.7819 34.6903 44.1831 34.296 44.0653 34.075C43.998 33.9893 43.5968 34.3835 43.7146 34.6045ZM48.3153 36.1967H47.962V36.5485L48.3145 36.1967H48.3153Z" fill="white"/>
<path d="M100.711 44.8523C100.388 47.0482 100.622 49.2725 100.543 51.4852C100.488 53.0111 100.248 54.7111 100.174 56.2413C100.133 57.0706 100.329 58.3577 100.186 59.08C100.101 59.507 99.8739 59.3956 99.6489 59.6051L100.18 59.5167C100.295 60.917 99.8438 62.2121 100.051 63.6222C100.202 64.653 100.881 65.7226 101.193 66.7225C101.538 67.8249 101.578 69.0846 102.122 70.1676L106.318 72.3741C107.954 71.7111 109.346 70.6008 111.167 70.3912C111.261 70.3249 111.744 68.4667 111.788 68.1829C112.274 65.1189 113.093 62.1016 113.12 58.897C113.127 57.9953 112.956 56.9309 112.936 55.901C112.872 52.7061 112.707 50.069 112.926 46.8812C112.972 46.2084 112.898 45.5224 112.928 44.8505C113.17 44.6101 116.017 45.4817 116.572 45.5436C117.008 45.5922 117.815 45.289 118.416 45.556L118.236 45.2059L119.831 45.2033C119.808 45.8177 119.865 46.4418 119.828 47.058C119.781 47.8784 119.444 49.1107 119.467 49.8816C119.487 50.5411 119.96 51.357 120.014 52.1765C120.122 53.8598 119.993 56.3757 120.006 58.1924C120.039 62.9088 119.404 67.1291 118.33 71.7093L116.72 75.4028C114.641 76.3939 112.43 77.0162 110.275 77.8048C108.318 78.5208 107.478 79.518 105.092 78.9089C102.215 78.1743 99.8756 76.98 97.4074 75.4479C96.9655 75.173 96.2004 75.1049 95.8523 74.7036C95.3209 74.0909 95.3953 72.3503 95.0986 71.392C94.8852 70.7033 94.4238 70.1163 94.2423 69.4197C93.9438 68.2775 94.0138 66.7543 93.7693 65.651C93.6551 65.1374 93.1946 64.546 93.1131 64.0094C92.3975 59.2869 93.3133 52.5417 93.2619 47.6087C93.2548 46.9324 92.5694 45.1697 93.3682 45.0282C93.7012 44.969 94.9711 44.87 95.3342 44.8691C96.2083 44.8664 97.473 45.2227 98.3249 45.2201C98.9829 45.2183 100.036 44.977 100.713 44.8523H100.711ZM93.9846 46.0882V45.7363H93.811V46.0882H93.9846ZM98.588 46.6195L97.1745 46.4418C97.1063 47.2931 97.5181 47.1358 98.1567 46.9758C98.4542 46.9015 98.6748 47.1526 98.588 46.6195ZM114.695 47.1481V46.7963H114.522V47.1481H114.695ZM95.4015 47.8571H95.0491V48.0304H95.4015V47.8571ZM98.41 49.0913V48.7394H98.2364V49.0913H98.41ZM99.4727 48.9171H99.1202V49.0904H99.4727V48.9171ZM114.873 50.8584V50.5066H114.699V50.8584H114.873ZM118.59 50.9495L118.062 50.5057V51.2121H118.59V50.9495ZM100.357 51.388C100.402 50.9424 100.075 50.7913 99.6498 50.8602L99.85 51.3641L100.357 51.388H100.357ZM118.237 52.6274H117.707V52.9793L118.235 52.8007V52.6283L118.237 52.6274ZM97.3508 54.5688L97.697 54.2947V53.9597L97.4376 53.6865L97.3517 54.5688H97.3508ZM96.2854 55.0983V54.7464H96.1118V55.0983H96.2854ZM97.5252 55.8082H97.1728V55.9814H97.5252V55.8082ZM97.8795 57.5736H97.527V57.9254H97.8795V57.5736ZM96.4634 58.4576H96.1109V58.9863H96.4634V58.4576ZM93.6303 59.1622V58.8104H93.4567V59.1622H93.6303ZM113.788 59.8933L113.283 59.6935C113.24 60.0188 113.271 60.2124 113.549 60.3981H113.812L113.788 59.8933ZM97.5252 62.3447H97.1728V62.518H97.5252V62.3447ZM94.1626 62.6984C93.4744 62.5534 93.431 62.9777 93.8969 63.3994L94.1626 62.6984ZM95.2235 64.4629V63.9342H95.0499V64.4629H95.2235ZM97.3481 64.8174L96.8185 64.904L97.086 65.1684H97.3481V64.8174ZM97.7032 66.9355L97.3508 66.5837V66.9364H97.7032V66.9355ZM100.888 69.9404C100.957 69.516 100.805 69.1889 100.358 69.2358L100.888 69.9404ZM117.175 69.7618L116.907 69.4117H116.645V69.7627H117.175V69.7618ZM95.4015 69.5876H95.0491V69.9395H95.4015V69.5876ZM100.712 71.7067L100.625 71.178L100.36 71.445V71.7067H100.712ZM113.989 71.5325L113.282 71.3548V71.7058L113.725 71.8791L113.989 71.5325ZM109.031 72.5898V72.238H108.858V72.5898H109.031ZM103.544 72.5916H103.19L103.457 72.9435L103.544 72.5916ZM101.243 74.0052H100.713C100.716 74.6532 101.239 74.6532 101.243 74.0052ZM115.936 74.1829H115.406V74.5338H115.668L115.936 74.1829ZM105.668 74.8892H105.316V75.0625H105.668V74.8892ZM108.323 75.9483H107.971V76.3001H108.323V75.9483ZM114.165 75.9492H113.635V76.1225H114.165V75.9492Z" fill="white"/>
<path d="M202.154 37.4282C201.439 35.7883 201.286 33.9734 200.636 32.3114C200.399 31.7058 199.451 30.2648 199.388 29.8405C199.341 29.5222 200.014 29.3233 199.225 29.1253L188.188 29.333C187.681 29.6495 186.987 33.0734 186.589 33.6171C186.431 33.8328 186.086 33.6949 185.858 33.7214C185.63 34.1908 186.222 34.2934 186.223 34.342C186.226 34.5055 184.875 37.2204 184.711 37.231L178.25 34.7761C178.026 34.4525 179.506 32.0859 179.715 31.5997C181.402 27.6799 182.459 23.349 184.229 19.4619C184.66 18.516 185.471 17.7327 185.891 16.8796C186.613 15.4104 186.475 13.9208 187.475 12.272C187.603 12.0599 187.93 12.005 187.952 11.9653C187.987 11.9016 187.799 11.6214 187.843 11.418C188.44 8.69079 189.155 5.92818 190.586 3.50592C191.484 3.74903 192.432 3.15937 193.206 3.15584C193.542 3.15407 193.886 3.34414 194.261 3.3406C195.206 3.32999 196.163 3.29463 197.1 3.32027C197.839 4.93098 198.193 6.67784 198.824 8.32657C200.264 12.0855 202.032 15.7551 203.304 19.5786C204.789 24.0385 206.852 27.6286 208.43 31.9551C208.58 32.3688 209.115 34.7681 208.978 34.9644C208.088 35.5151 207 35.4152 206.045 35.7582C205.496 35.9545 202.515 37.6925 202.156 37.4291L202.154 37.4282ZM194.532 3.51122H194.179V3.68449H194.532V3.51122ZM196.125 6.86525V6.51252L195.772 6.77862L196.125 6.86525ZM193.116 7.92787H192.763V8.10114H193.116V7.92787ZM191.522 9.87098H191.17V10.2228H191.522V9.87098ZM198.605 10.0478C198.281 9.98767 198.018 10.2414 198.074 10.5756H198.425L198.604 10.0478H198.605ZM192.054 12.5213H191.524V12.6946H192.054V12.5213ZM196.835 22.5896C195.89 19.7183 195.269 16.5658 193.473 14.1108L190.462 22.4137C192.61 22.1785 194.725 22.9901 196.835 22.5905V22.5896ZM195.419 15.1708V15.6994H195.949L195.771 15.1708H195.419ZM200.196 16.0522V15.7003H200.022V16.0522H200.196ZM191.346 15.878H190.994V16.4067L191.344 16.1388V15.8771L191.346 15.878ZM188.516 16.7612C188.493 17.1307 188.448 17.4233 188.78 17.6408L189.047 17.3756L188.867 16.7612H188.516ZM189.045 17.822H188.515V18.173H188.777L189.045 17.822ZM197.365 19.4097C197.467 19.3081 197.218 18.8837 197.1 18.8837C196.61 18.8837 197.097 19.6767 197.365 19.4097ZM198.427 19.0579C198.249 18.8784 197.716 19.4027 197.897 19.5865C198.078 19.7704 198.607 19.2418 198.427 19.0579ZM199.311 19.5865C199.369 19.2647 199.116 19.0022 198.782 19.0579V19.5865H199.311ZM200.727 19.0579H200.375V19.4097H200.727V19.0579ZM185.504 19.4115H185.151V19.7633H185.504V19.4115ZM201.79 21.5314H201.438V21.8833H201.79V21.5314ZM199.311 22.4155H198.959V22.5887H199.311V22.4155ZM189.399 23.4745L189.046 23.5612L189.398 23.8273V23.4745H189.399ZM187.982 23.6513L187.63 23.738L187.982 24.0041V23.6513H187.982ZM188.513 23.829H188.161V24.0023H188.513V23.829ZM192.054 25.0658C191.638 25.1162 191.136 24.7193 190.993 25.2391H192.054V25.0658ZM184.618 26.3008C184.661 25.9755 184.63 25.7819 184.351 25.5962H184.089L184.113 26.101L184.618 26.3008ZM188.161 27.8929L187.276 28.0706C187.087 28.9069 188.286 27.9884 188.161 27.8929ZM183.91 28.4198V28.068H183.736V28.4198H183.91ZM185.504 28.0698H185.151V28.243H185.504V28.0698ZM205.153 30.7166C205.255 30.6149 205.006 30.1906 204.888 30.1906C204.398 30.1906 204.885 30.9835 205.153 30.7166ZM201.612 32.4846C201.672 32.1628 201.418 31.8976 201.082 31.956L201.612 32.4846ZM207.1 32.8391H206.571V33.191H207.1V32.8391ZM183.557 33.9H183.027V34.0732H183.557V33.9ZM204.714 33.8991C204.022 34.0511 204.974 35.1898 205.153 34.5144C205.22 34.2607 205.043 33.8266 204.714 33.8991ZM179.838 34.9573V34.6054H179.665V34.9573H179.838ZM183.203 35.4895H182.85V35.8413H183.203V35.4895Z" fill="white"/>
<path d="M117.596 2.03311L117.932 2.31954C118.906 4.3873 119.465 6.52579 120.508 8.57587C121.895 11.3049 123.422 14.094 124.933 16.7028C125.911 18.3913 126.795 19.9755 127.268 21.8824L127.617 20.5563C127.487 18.2057 127.562 15.9116 127.982 13.5892C130.282 13.6573 132.637 13.3178 134.873 13.9384L133.46 30.3638L132.754 30.1879C132.618 30.6989 133.103 30.4717 133.25 30.8341C133.761 32.093 133.064 34.0238 133.082 35.3746C131.674 36.0588 130.544 37.2408 128.922 37.4264C128.418 37.4291 127.519 36.3974 126.967 36.0491C125.363 35.0377 123.506 34.2235 121.965 33.092C121.528 32.772 120.951 32.3246 121.245 31.7792L120.965 32.1443L120.359 31.9525L120.538 31.4256C119.526 31.6943 118.306 30.5857 117.356 30.0951C115.5 29.1377 114.37 28.1679 112.775 27.2458C112.01 26.8038 111.004 26.7693 110.475 26.0117C111.527 23.9519 113.13 22.2139 113.815 19.9402L114.509 20.2169C116.463 22.0053 118.687 23.3914 121.069 24.5327C120.625 22.6692 119.439 21.1522 118.617 19.4734C117.166 16.5101 115.919 13.4664 114.552 10.4562C114.344 9.9974 113.58 8.9286 113.535 8.63952C113.49 8.35044 113.909 8.26557 113.812 7.9261L113.112 8.10202C112.974 7.55038 112.67 7.06063 112.427 6.55231C112.073 5.8106 111.791 5.10249 111.303 4.33603C111.132 4.06816 110.308 3.15495 110.287 3.0418C110.221 2.68111 111.747 1.88724 112.1 1.71132C112.623 1.44876 115.741 0.0369557 116.072 0.00336227C116.896 -0.0797372 117.336 1.39926 117.596 2.03311ZM114.52 2.27092L114.168 1.91907V2.2718H114.52V2.27092ZM112.572 3.86395H112.042V4.2158H112.572V3.86395ZM115.934 11.8123V11.4605H115.761V11.8123H115.934ZM120.538 12.3427L120.451 11.9909L120.184 12.3419H120.538V12.3427ZM120.006 12.5187V12.1668H119.832V12.5187H120.006ZM117.174 13.2286H116.822V13.4018H117.174V13.2286ZM118.59 13.5822H118.238V13.7554H118.59V13.5822ZM131.868 14.4653L131.357 14.4857L131.161 14.9913L131.672 14.971L131.868 14.4653ZM130.097 15.5244H129.568V15.8762H130.097V15.5244ZM119.477 16.762L118.592 16.9397C118.404 17.776 119.603 16.8575 119.477 16.762ZM132.045 18.5257C132.1 18.2684 131.971 18.1579 131.782 18.0015L131.339 18.1756V18.348L132.045 18.5257ZM123.723 18.7025V18.3507H123.55V18.7025H123.723ZM134.167 19.7625V19.4106H133.994V19.7625H134.167ZM120.183 20.6465V20.1179H120.009V20.6465H120.183ZM125.848 20.6465V20.2947H125.674V20.6465H125.848ZM114.52 21.3555C114.197 21.2954 113.932 21.5491 113.991 21.8842L114.52 21.3555ZM116.113 22.5896C116.055 21.7683 115.294 21.9717 115.407 22.7673L116.113 22.5896ZM124.608 22.7664V22.4146H124.435V22.7664H124.608ZM122.662 23.296V23.0343L122.311 22.7664V23.296H122.662ZM122.84 23.4745H122.487V23.8264H122.84V23.4745ZM113.104 24.8855L113.813 24.6185L113.369 23.8282L113.104 24.8855ZM125.318 23.829H124.965V24.1809L125.318 23.829H125.318ZM120.515 25.7996C120.273 25.6944 120.063 25.8941 120.007 26.1213L120.891 26.4767C121.009 26.3706 120.549 25.8146 120.514 25.7996H120.515ZM128.504 26.3017H128.151V26.6535H128.504V26.3017ZM116.112 27.0098C116.073 26.9691 115.545 26.8135 115.406 26.833C115.493 27.1725 115.797 27.2308 116.112 27.1831C116.103 27.1256 116.136 27.0354 116.112 27.0107V27.0098ZM131.693 28.2439L132.221 27.0072L131.684 27.3033L131.693 28.2439ZM126.201 28.9511C126.248 28.6214 126.203 28.3394 125.851 28.2448C125.804 28.5745 125.849 28.8566 126.201 28.9511ZM130.805 28.5993H130.452V28.7726H130.805V28.5993ZM118.061 29.3065H117.53V29.6575H117.792L118.061 29.3065ZM125.14 32.4855H124.878L124.61 32.8365H125.14V32.4855ZM124.079 33.0159C123.858 32.8984 123.462 33.2988 123.548 33.366C123.769 33.4836 124.165 33.0831 124.079 33.0159ZM133.106 33.3669V33.0142L132.754 33.2803L133.106 33.3669ZM130.982 35.1359L130.629 35.2225L130.981 35.4886V35.1359H130.982Z" fill="white"/>
<path d="M153.458 45.2121L153.995 49.3574L153.819 51.7407L143.728 52.0961C143.691 53.3568 143.782 54.6315 143.726 55.8931C143.433 62.5216 143.811 69.4542 143.087 76.0686C143.006 76.8156 143.45 77.4945 143.376 78.2459C141.073 78.8029 138.727 77.5635 136.474 78.4236L136.294 51.922L132.122 52.1129L131.781 51.7416L131.586 52.1129C129.785 51.6585 128.029 51.7186 126.203 51.922C126.448 50.8488 125.844 49.6208 125.852 48.6519C125.859 47.7166 126.497 46.2588 126.381 45.2068C127.293 45.2493 128.204 45.5021 129.13 45.3889C129.746 45.3138 130.319 44.824 130.886 44.8594C132.29 44.9452 133.831 45.2961 135.328 45.2148C136.287 45.1626 137.471 44.6897 138.331 44.6799C139.965 44.6614 141.864 45.4791 143.284 45.5295C144.025 45.556 145.166 45.2227 145.935 45.2015C148.465 45.1326 150.957 45.5277 153.458 45.2148V45.2121ZM152.733 46.776L152.669 46.2668C152.454 46.4958 152.155 46.6354 152.227 46.9723L152.733 46.776ZM138.595 46.7937L138.326 46.4436H138.064V46.7946H138.595V46.7937ZM141.956 46.9714V46.6195H141.783V46.9714H141.956ZM144.256 48.5626C144.292 48.1268 144.901 47.8749 144.347 47.5036C144.056 47.8978 143.513 48.1816 144.256 48.5626ZM147.8 47.5044H147.446V47.8563L147.799 47.5044H147.8ZM136.646 48.2081V47.6786L136.116 47.8572L136.384 48.2072H136.646V48.2081ZM138.416 50.1521L138.33 49.4467L138.064 49.8852L138.416 50.153V50.1521ZM148.684 50.3281L148.598 49.6235C148.325 49.8135 148.289 50.0027 148.332 50.3281H148.684ZM137 50.8602H136.471V51.3889L137 51.2103V50.8602H137ZM141.427 50.8611L140.368 51.3014L140.974 51.5746L141.428 50.8611H141.427ZM142.49 51.2147H142.136V51.5666L142.489 51.2147H142.49ZM138.772 52.6239L138.419 52.2721V52.6248H138.772V52.6239ZM141.073 52.9811H140.72V53.1543H141.073V52.9811ZM140.895 55.4537H139.305C139.231 55.9116 139.397 56.2157 139.914 56.168L140.182 55.7083L140.81 55.8029L140.895 55.4537H140.895ZM143.195 56.1583V55.8064H143.022V56.1583H143.195ZM143.019 59.1649H142.667V59.3382H143.019V59.1649ZM139.833 59.6944H139.48V60.0463H139.833V59.6944ZM139.833 60.9312H139.48V61.283H139.833V60.9312ZM138.417 61.2839H138.064V61.6358H138.417V61.2839ZM143.374 61.9885L143.022 61.6367V61.9894H143.374V61.9885ZM140.721 62.5198L141.07 62.2546L140.807 61.9903L140.721 62.5198ZM142.135 63.7583H141.782V64.1102L142.134 63.7583H142.135ZM137.001 65.7023H136.471V65.9631L136.736 66.2301L137 65.7023H137.001ZM140.54 68.3492V67.9973H140.367V68.3492H140.54ZM137.709 72.2389H137.357V72.4122H137.709V72.2389ZM143.197 77.7164H142.844V78.0683L143.196 77.7164H143.197Z" fill="white"/>
<path d="M157.889 3.15672C157.517 5.15376 157.813 7.22241 157.711 9.24862C157.676 9.92668 157.387 10.6092 157.352 11.3632C157.281 12.8679 157.742 13.9358 157.872 15.2778C158.16 18.2685 157.762 20.5201 157.706 23.3791C157.665 25.4451 158.154 27.496 157.726 29.5479C157.8 29.7636 157.957 29.7972 158.157 29.8343C159.383 30.0589 161.899 29.8228 163.297 29.8281C165.957 29.8378 168.608 29.6416 171.247 29.6504C172.464 29.654 173.696 29.5744 174.885 29.8361L174.53 32.8383L173.825 32.4855L173.644 33.2768L174.351 33.1919C174.374 34.3217 174.207 35.4913 174.707 36.5468H173.29L173.47 36.1967C171.939 36.5495 170.609 35.8652 168.999 36.0641C168.172 36.1658 167.26 36.7006 166.481 36.7404C164.383 36.8465 161.293 36.1843 159.042 36.1817C157.422 36.1799 155.212 36.7307 153.557 36.7395C152.534 36.7448 151.482 36.3753 150.455 36.3718C150.499 35.5266 150.822 34.8671 150.82 33.9875C150.817 33.1592 150.503 32.7048 150.455 32.0444C150.311 30.0668 150.593 28.0928 150.634 26.1231L150.988 26.2124L150.444 25.6749C150.241 24.279 150.798 22.7558 150.816 21.4342C150.851 18.8846 150.323 16.1247 150.457 13.4938C150.565 11.3915 150.558 10.6534 150.448 8.552C150.353 6.74945 150.88 4.98226 150.632 3.15495C153.031 3.67565 155.457 3.32027 157.889 3.15672H157.889ZM154.88 4.39084L154.351 3.86218C154.29 4.18397 154.544 4.44918 154.88 4.39084ZM155.942 7.92787H155.589V8.10114H155.942V7.92787ZM157.004 11.9918H156.651V12.1651H157.004V11.9918ZM154.35 12.8714C154.684 12.9298 154.939 12.6654 154.879 12.3428L154.35 12.8714ZM155.056 22.4146L154.55 22.4385L154.35 22.9424H155.057V22.4146H155.056ZM154.879 27.1849H154.617L154.349 27.5358H154.879V27.1849ZM151.87 28.0689L150.99 28.5091C151.237 29.0254 151.71 28.2262 151.87 28.0689ZM156.476 29.1315L156.739 29.4772C157.013 29.2897 157.046 29.0988 157.003 28.7752L156.476 29.1315ZM167.271 31.0702V30.7175L166.918 30.9836L167.271 31.0702ZM152.578 30.896H152.226V31.0693H152.578V30.896ZM169.572 30.8952H169.31L169.043 31.1621L169.309 31.6006L169.572 30.896V30.8952ZM167.626 31.5997L167.273 31.2479V31.6006H167.626V31.5997ZM164.971 31.4265C164.749 31.3089 164.354 31.7094 164.439 31.7765C164.661 31.8941 165.057 31.4936 164.971 31.4265ZM157.359 31.9525L157.006 31.6006V31.9533H157.359V31.9525ZM162.138 32.1302C162.195 31.8084 161.943 31.5458 161.608 31.6015V32.1302H162.138ZM155.764 32.8374V32.4855H155.59V32.8374H155.764ZM165.325 32.6632H164.972V33.0151L165.324 32.6632H165.325ZM159.305 33.016C158.431 32.657 158.391 33.4376 159.305 33.3669V33.016ZM171.343 32.8392H170.99V33.191H171.343V32.8392ZM171.872 33.1901V32.8383H171.699V33.1901H171.872ZM152.401 34.0759H152.049V34.3376L152.314 34.6046L152.4 34.0759H152.401ZM156.827 34.2527H156.474V34.6046H156.827V34.2527ZM165.147 34.9591L164.441 35.1368V35.3092H165.147V34.9573V34.9591ZM167.272 36.1932C166.916 35.737 167.312 35.3914 167.184 34.9591L166.741 36.1941H167.272V36.1932ZM169.218 35.1359L168.866 35.2225L169.217 35.4886V35.1359H169.218Z" fill="white"/>
<path d="M24.0235 105.564H29.1374V106.576H22.9411V97.6684H24.0235V105.564Z" fill="white"/>
<path d="M32.0126 97.2635L31.6608 100.597H30.822V97.2635H32.0126Z" fill="white"/>
<path d="M39.666 102.217C39.666 101.713 39.5307 101.326 39.2601 101.056C38.9895 100.777 38.6062 100.638 38.1101 100.638C37.6411 100.638 37.2443 100.741 36.9196 100.948C36.5949 101.146 36.3559 101.47 36.2025 101.92L35.3231 101.38C35.5035 100.876 35.8372 100.471 36.3243 100.165C36.8113 99.8503 37.4156 99.6928 38.1372 99.6928C38.6242 99.6928 39.0662 99.7783 39.463 99.9493C39.8599 100.111 40.171 100.363 40.3965 100.705C40.631 101.038 40.7483 101.47 40.7483 102.001V105.267C40.7483 105.591 40.9196 105.753 41.2624 105.753C41.4338 105.753 41.6006 105.73 41.763 105.685L41.7088 106.536C41.5285 106.626 41.294 106.671 41.0053 106.671C40.7438 106.671 40.5093 106.621 40.3018 106.522C40.0944 106.423 39.932 106.275 39.8148 106.077C39.6975 105.87 39.6389 105.613 39.6389 105.307V105.172L39.9095 105.213C39.8012 105.564 39.6164 105.852 39.3548 106.077C39.0932 106.293 38.8001 106.455 38.4754 106.563C38.1507 106.662 37.8305 106.711 37.5148 106.711C37.118 106.711 36.7482 106.644 36.4055 106.509C36.0627 106.374 35.7876 106.171 35.5802 105.901C35.3818 105.622 35.2826 105.28 35.2826 104.876C35.2826 104.372 35.4494 103.958 35.7831 103.634C36.1259 103.301 36.5994 103.076 37.2037 102.959L39.8824 102.433V103.323L37.7043 103.769C37.2623 103.859 36.9331 103.985 36.7166 104.147C36.5002 104.309 36.3919 104.534 36.3919 104.822C36.3919 105.1 36.5002 105.33 36.7166 105.51C36.9421 105.681 37.2578 105.766 37.6637 105.766C37.9252 105.766 38.1733 105.735 38.4078 105.672C38.6513 105.6 38.8677 105.496 39.0572 105.361C39.2466 105.217 39.3954 105.042 39.5036 104.835C39.6118 104.619 39.666 104.367 39.666 104.079V102.217Z" fill="white"/>
<path d="M46.4694 97.9113V104.714C46.4694 105.046 46.5641 105.294 46.7535 105.456C46.9429 105.618 47.1864 105.699 47.484 105.699C47.7456 105.699 47.9711 105.654 48.1605 105.564C48.3499 105.474 48.5213 105.352 48.6746 105.199L49.0534 106.104C48.846 106.293 48.5979 106.441 48.3093 106.549C48.0297 106.657 47.705 106.711 47.3352 106.711C46.9925 106.711 46.6723 106.653 46.3747 106.536C46.077 106.41 45.838 106.216 45.6576 105.955C45.4863 105.685 45.3961 105.334 45.387 104.903V98.2082L46.4694 97.9113ZM48.9316 99.8278V100.759H44.0341V99.8278H48.9316Z" fill="white"/>
<path d="M53.3278 96.7236V104.862C53.3278 105.204 53.391 105.442 53.5172 105.577C53.6435 105.703 53.8464 105.766 54.126 105.766C54.3064 105.766 54.4552 105.753 54.5725 105.726C54.6898 105.699 54.8476 105.649 55.046 105.577L54.8701 106.522C54.7258 106.585 54.568 106.63 54.3966 106.657C54.2253 106.693 54.0494 106.711 53.869 106.711C53.3188 106.711 52.9084 106.563 52.6379 106.266C52.3763 105.969 52.2455 105.514 52.2455 104.903V96.7236H53.3278Z" fill="white"/>
<path d="M62.1442 102.217C62.1442 101.713 62.0089 101.326 61.7383 101.056C61.4678 100.777 61.0844 100.638 60.5884 100.638C60.1194 100.638 59.7225 100.741 59.3978 100.948C59.0731 101.146 58.8341 101.47 58.6808 101.92L57.8014 101.38C57.9818 100.876 58.3155 100.471 58.8025 100.165C59.2896 99.8503 59.8939 99.6928 60.6154 99.6928C61.1025 99.6928 61.5444 99.7783 61.9413 99.9493C62.3381 100.111 62.6493 100.363 62.8748 100.705C63.1093 101.038 63.2265 101.47 63.2265 102.001V105.267C63.2265 105.591 63.3979 105.753 63.7406 105.753C63.912 105.753 64.0788 105.73 64.2412 105.685L64.1871 106.536C64.0067 106.626 63.7722 106.671 63.4836 106.671C63.222 106.671 62.9875 106.621 62.7801 106.522C62.5726 106.423 62.4103 106.275 62.293 106.077C62.1758 105.87 62.1171 105.613 62.1171 105.307V105.172L62.3877 105.213C62.2795 105.564 62.0946 105.852 61.833 106.077C61.5715 106.293 61.2783 106.455 60.9536 106.563C60.6289 106.662 60.3088 106.711 59.9931 106.711C59.5962 106.711 59.2264 106.644 58.8837 106.509C58.541 106.374 58.2659 106.171 58.0584 105.901C57.86 105.622 57.7608 105.28 57.7608 104.876C57.7608 104.372 57.9277 103.958 58.2614 103.634C58.6041 103.301 59.0776 103.076 59.6819 102.959L62.3607 102.433V103.323L60.1825 103.769C59.7405 103.859 59.4113 103.985 59.1949 104.147C58.9784 104.309 58.8702 104.534 58.8702 104.822C58.8702 105.1 58.9784 105.33 59.1949 105.51C59.4204 105.681 59.736 105.766 60.1419 105.766C60.4035 105.766 60.6515 105.735 60.886 105.672C61.1295 105.6 61.346 105.496 61.5354 105.361C61.7248 105.217 61.8736 105.042 61.9819 104.835C62.0901 104.619 62.1442 104.367 62.1442 104.079V102.217Z" fill="white"/>
<path d="M70.0506 106.711C69.3922 106.711 68.7834 106.572 68.2242 106.293C67.674 106.014 67.2501 105.618 66.9525 105.105L67.8725 104.444C68.0709 104.858 68.3595 105.181 68.7383 105.415C69.1262 105.649 69.5907 105.766 70.1318 105.766C70.6098 105.766 70.9841 105.676 71.2547 105.496C71.5253 105.307 71.6606 105.064 71.6606 104.768C71.6606 104.579 71.5975 104.408 71.4712 104.255C71.3539 104.093 71.1239 103.976 70.7812 103.904L69.1577 103.566C68.4993 103.431 68.0258 103.206 67.7372 102.892C67.4576 102.577 67.3178 102.185 67.3178 101.717C67.3178 101.348 67.4215 101.011 67.629 100.705C67.8454 100.399 68.1476 100.156 68.5354 99.9763C68.9322 99.7873 69.3967 99.6928 69.9289 99.6928C70.5963 99.6928 71.16 99.8233 71.62 100.084C72.08 100.345 72.4227 100.714 72.6482 101.191L71.7418 101.785C71.5884 101.389 71.3404 101.101 70.9977 100.921C70.6549 100.732 70.2987 100.638 69.9289 100.638C69.6042 100.638 69.3246 100.683 69.0901 100.773C68.8646 100.863 68.6887 100.989 68.5624 101.15C68.4452 101.303 68.3866 101.479 68.3866 101.677C68.3866 101.875 68.4542 102.059 68.5895 102.23C68.7248 102.392 68.9773 102.509 69.3471 102.581L71.0383 102.932C71.6696 103.058 72.1116 103.265 72.3641 103.553C72.6166 103.841 72.7429 104.192 72.7429 104.606C72.7429 105.028 72.6302 105.402 72.4047 105.726C72.1792 106.041 71.8635 106.284 71.4577 106.455C71.0518 106.626 70.5828 106.711 70.0506 106.711Z" fill="white"/>
<path d="M85.5165 106.711C84.9573 106.711 84.4432 106.572 83.9742 106.293C83.5052 106.014 83.1309 105.613 82.8513 105.091C82.5717 104.561 82.4319 103.931 82.4319 103.202C82.4319 102.455 82.5807 101.821 82.8784 101.299C83.176 100.777 83.5683 100.381 84.0554 100.111C84.5424 99.8323 85.0656 99.6928 85.6248 99.6928C86.184 99.6928 86.6665 99.8368 87.0724 100.125C87.4872 100.413 87.7623 100.795 87.8976 101.272L87.7623 101.366V96.7236H88.8447V106.576H87.8976L87.8029 104.943L87.9517 104.862C87.8886 105.258 87.7353 105.595 87.4918 105.874C87.2573 106.144 86.9641 106.351 86.6124 106.495C86.2696 106.639 85.9044 106.711 85.5165 106.711ZM85.6248 105.766C86.0577 105.766 86.432 105.658 86.7477 105.442C87.0724 105.226 87.3204 104.921 87.4918 104.525C87.6721 104.12 87.7623 103.647 87.7623 103.107C87.7623 102.595 87.6721 102.154 87.4918 101.785C87.3204 101.416 87.0769 101.132 86.7612 100.935C86.4545 100.737 86.0938 100.638 85.6789 100.638C84.9934 100.638 84.4613 100.872 84.0824 101.339C83.7036 101.807 83.5142 102.428 83.5142 103.202C83.5142 103.976 83.6991 104.597 84.0689 105.064C84.4387 105.532 84.9573 105.766 85.6248 105.766Z" fill="white"/>
<path d="M95.9467 106.711C95.3064 106.711 94.7337 106.572 94.2286 106.293C93.7325 106.014 93.3447 105.613 93.0651 105.091C92.7855 104.561 92.6457 103.931 92.6457 103.202C92.6457 102.473 92.7855 101.848 93.0651 101.326C93.3447 100.795 93.728 100.39 94.215 100.111C94.7021 99.8323 95.2568 99.6928 95.8791 99.6928C96.5105 99.6928 97.0471 99.8278 97.4891 100.098C97.94 100.368 98.2828 100.737 98.5173 101.204C98.7518 101.663 98.869 102.181 98.869 102.757C98.869 102.91 98.8645 103.049 98.8555 103.175C98.8465 103.301 98.8329 103.413 98.8149 103.512H93.3492V102.554H98.3414L97.7867 102.662C97.7867 102.014 97.6063 101.515 97.2455 101.164C96.8938 100.813 96.4293 100.638 95.852 100.638C95.4101 100.638 95.0268 100.741 94.7021 100.948C94.3864 101.146 94.1384 101.438 93.958 101.825C93.7866 102.203 93.7009 102.662 93.7009 103.202C93.7009 103.733 93.7911 104.192 93.9715 104.579C94.1519 104.966 94.4044 105.262 94.7291 105.469C95.0629 105.667 95.4597 105.766 95.9197 105.766C96.4158 105.766 96.8171 105.672 97.1238 105.483C97.4395 105.294 97.692 105.037 97.8814 104.714L98.7337 105.213C98.5624 105.519 98.3414 105.784 98.0708 106.009C97.8092 106.234 97.4981 106.41 97.1373 106.536C96.7855 106.653 96.3887 106.711 95.9467 106.711Z" fill="white"/>
<path d="M105.121 106.711C104.463 106.711 103.854 106.572 103.295 106.293C102.745 106.014 102.321 105.618 102.023 105.105L102.943 104.444C103.142 104.858 103.43 105.181 103.809 105.415C104.197 105.649 104.661 105.766 105.203 105.766C105.681 105.766 106.055 105.676 106.326 105.496C106.596 105.307 106.731 105.064 106.731 104.768C106.731 104.579 106.668 104.408 106.542 104.255C106.425 104.093 106.195 103.976 105.852 103.904L104.229 103.566C103.57 103.431 103.097 103.206 102.808 102.892C102.528 102.577 102.389 102.185 102.389 101.717C102.389 101.348 102.492 101.011 102.7 100.705C102.916 100.399 103.218 100.156 103.606 99.9763C104.003 99.7873 104.468 99.6928 105 99.6928C105.667 99.6928 106.231 99.8233 106.691 100.084C107.151 100.345 107.494 100.714 107.719 101.191L106.813 101.785C106.659 101.389 106.411 101.101 106.068 100.921C105.726 100.732 105.369 100.638 105 100.638C104.675 100.638 104.395 100.683 104.161 100.773C103.935 100.863 103.76 100.989 103.633 101.15C103.516 101.303 103.457 101.479 103.457 101.677C103.457 101.875 103.525 102.059 103.66 102.23C103.796 102.392 104.048 102.509 104.418 102.581L106.109 102.932C106.74 103.058 107.182 103.265 107.435 103.553C107.687 103.841 107.814 104.192 107.814 104.606C107.814 105.028 107.701 105.402 107.475 105.726C107.25 106.041 106.934 106.284 106.528 106.455C106.123 106.626 105.654 106.711 105.121 106.711Z" fill="white"/>
<path d="M119.281 97.9113V104.714C119.281 105.046 119.376 105.294 119.565 105.456C119.755 105.618 119.998 105.699 120.296 105.699C120.558 105.699 120.783 105.654 120.972 105.564C121.162 105.474 121.333 105.352 121.487 105.199L121.865 106.104C121.658 106.293 121.41 106.441 121.121 106.549C120.842 106.657 120.517 106.711 120.147 106.711C119.804 106.711 119.484 106.653 119.187 106.536C118.889 106.41 118.65 106.216 118.47 105.955C118.298 105.685 118.208 105.334 118.199 104.903V98.2082L119.281 97.9113ZM121.744 99.8278V100.759H116.846V99.8278H121.744Z" fill="white"/>
<path d="M127.912 99.6928C128.552 99.6928 129.116 99.8323 129.603 100.111C130.099 100.39 130.487 100.795 130.767 101.326C131.046 101.848 131.186 102.473 131.186 103.202C131.186 103.931 131.046 104.561 130.767 105.091C130.487 105.613 130.099 106.014 129.603 106.293C129.116 106.572 128.552 106.711 127.912 106.711C127.281 106.711 126.717 106.572 126.221 106.293C125.725 106.014 125.337 105.613 125.057 105.091C124.778 104.561 124.638 103.931 124.638 103.202C124.638 102.473 124.778 101.848 125.057 101.326C125.337 100.795 125.725 100.39 126.221 100.111C126.717 99.8323 127.281 99.6928 127.912 99.6928ZM127.912 100.624C127.452 100.624 127.06 100.728 126.735 100.935C126.41 101.141 126.158 101.438 125.977 101.825C125.806 102.203 125.72 102.662 125.72 103.202C125.72 103.733 125.806 104.192 125.977 104.579C126.158 104.966 126.41 105.262 126.735 105.469C127.06 105.676 127.452 105.78 127.912 105.78C128.372 105.78 128.764 105.676 129.089 105.469C129.414 105.262 129.662 104.966 129.833 104.579C130.014 104.192 130.104 103.733 130.104 103.202C130.104 102.662 130.014 102.203 129.833 101.825C129.662 101.438 129.414 101.141 129.089 100.935C128.764 100.728 128.372 100.624 127.912 100.624Z" fill="white"/>
<path d="M137.431 106.711C136.998 106.711 136.588 106.63 136.2 106.468C135.821 106.306 135.51 106.045 135.267 105.685C135.032 105.316 134.915 104.84 134.915 104.255V99.8278H135.997V103.971C135.997 104.655 136.146 105.127 136.444 105.388C136.741 105.64 137.161 105.766 137.702 105.766C137.954 105.766 138.202 105.726 138.446 105.645C138.689 105.555 138.906 105.42 139.095 105.24C139.294 105.051 139.447 104.813 139.555 104.525C139.673 104.237 139.731 103.895 139.731 103.499V99.8278H140.813V106.576H139.866L139.799 105.55C139.564 105.955 139.244 106.252 138.838 106.441C138.441 106.621 137.972 106.711 137.431 106.711Z" fill="white"/>
<path d="M145.091 106.576V99.8278H145.971L146.119 100.935C146.309 100.521 146.584 100.21 146.945 100.003C147.314 99.7963 147.761 99.6928 148.284 99.6928C148.401 99.6928 148.528 99.7018 148.663 99.7198C148.807 99.7378 148.929 99.7738 149.028 99.8278L148.839 100.813C148.74 100.777 148.631 100.75 148.514 100.732C148.397 100.714 148.23 100.705 148.013 100.705C147.734 100.705 147.45 100.786 147.161 100.948C146.882 101.11 146.647 101.357 146.458 101.69C146.268 102.014 146.174 102.428 146.174 102.932V106.576H145.091Z" fill="white"/>
<path d="M152.373 106.576V99.8278H153.32L153.414 101.339L153.238 101.191C153.383 100.831 153.577 100.543 153.82 100.327C154.064 100.102 154.343 99.9403 154.659 99.8413C154.984 99.7423 155.317 99.6928 155.66 99.6928C156.147 99.6928 156.589 99.7873 156.986 99.9763C157.383 100.156 157.698 100.435 157.933 100.813C158.177 101.191 158.298 101.672 158.298 102.257V106.576H157.216V102.635C157.216 101.888 157.054 101.371 156.729 101.083C156.413 100.786 156.021 100.638 155.552 100.638C155.227 100.638 154.902 100.714 154.578 100.867C154.253 101.02 153.983 101.267 153.766 101.609C153.559 101.951 153.455 102.41 153.455 102.986V106.576H152.373Z" fill="white"/>
<path d="M165.335 106.711C164.695 106.711 164.122 106.572 163.617 106.293C163.121 106.014 162.733 105.613 162.454 105.091C162.174 104.561 162.034 103.931 162.034 103.202C162.034 102.473 162.174 101.848 162.454 101.326C162.733 100.795 163.117 100.39 163.604 100.111C164.091 99.8323 164.645 99.6928 165.268 99.6928C165.899 99.6928 166.436 99.8278 166.878 100.098C167.329 100.368 167.671 100.737 167.906 101.204C168.14 101.663 168.258 102.181 168.258 102.757C168.258 102.91 168.253 103.049 168.244 103.175C168.235 103.301 168.221 103.413 168.203 103.512H162.738V102.554H167.73L167.175 102.662C167.175 102.014 166.995 101.515 166.634 101.164C166.282 100.813 165.818 100.638 165.241 100.638C164.799 100.638 164.415 100.741 164.091 100.948C163.775 101.146 163.527 101.438 163.346 101.825C163.175 102.203 163.089 102.662 163.089 103.202C163.089 103.733 163.18 104.192 163.36 104.579C163.54 104.966 163.793 105.262 164.118 105.469C164.451 105.667 164.848 105.766 165.308 105.766C165.804 105.766 166.206 105.672 166.512 105.483C166.828 105.294 167.081 105.037 167.27 104.714L168.122 105.213C167.951 105.519 167.73 105.784 167.459 106.009C167.198 106.234 166.887 106.41 166.526 106.536C166.174 106.653 165.777 106.711 165.335 106.711ZM165.552 96.4537H166.729L165.403 98.7076H164.524L165.552 96.4537Z" fill="white"/>
<path d="M174.902 106.711C174.262 106.711 173.689 106.572 173.184 106.293C172.688 106.014 172.3 105.613 172.021 105.091C171.741 104.561 171.601 103.931 171.601 103.202C171.601 102.473 171.741 101.848 172.021 101.326C172.3 100.795 172.684 100.39 173.171 100.111C173.658 99.8323 174.212 99.6928 174.835 99.6928C175.466 99.6928 176.003 99.8278 176.445 100.098C176.896 100.368 177.238 100.737 177.473 101.204C177.707 101.663 177.825 102.181 177.825 102.757C177.825 102.91 177.82 103.049 177.811 103.175C177.802 103.301 177.788 103.413 177.77 103.512H172.305V102.554H177.297L176.742 102.662C176.742 102.014 176.562 101.515 176.201 101.164C175.849 100.813 175.385 100.638 174.808 100.638C174.366 100.638 173.982 100.741 173.658 100.948C173.342 101.146 173.094 101.438 172.914 101.825C172.742 102.203 172.656 102.662 172.656 103.202C172.656 103.733 172.747 104.192 172.927 104.579C173.107 104.966 173.36 105.262 173.685 105.469C174.018 105.667 174.415 105.766 174.875 105.766C175.371 105.766 175.773 105.672 176.079 105.483C176.395 105.294 176.648 105.037 176.837 104.714L177.689 105.213C177.518 105.519 177.297 105.784 177.026 106.009C176.765 106.234 176.454 106.41 176.093 106.536C175.741 106.653 175.344 106.711 174.902 106.711Z" fill="white"/>
<path d="M184.077 106.711C183.419 106.711 182.81 106.572 182.251 106.293C181.7 106.014 181.276 105.618 180.979 105.105L181.899 104.444C182.097 104.858 182.386 105.181 182.765 105.415C183.152 105.649 183.617 105.766 184.158 105.766C184.636 105.766 185.01 105.676 185.281 105.496C185.552 105.307 185.687 105.064 185.687 104.768C185.687 104.579 185.624 104.408 185.497 104.255C185.38 104.093 185.15 103.976 184.808 103.904L183.184 103.566C182.526 103.431 182.052 103.206 181.763 102.892C181.484 102.577 181.344 102.185 181.344 101.717C181.344 101.348 181.448 101.011 181.655 100.705C181.872 100.399 182.174 100.156 182.562 99.9763C182.959 99.7873 183.423 99.6928 183.955 99.6928C184.623 99.6928 185.186 99.8233 185.646 100.084C186.106 100.345 186.449 100.714 186.675 101.191L185.768 101.785C185.615 101.389 185.367 101.101 185.024 100.921C184.681 100.732 184.325 100.638 183.955 100.638C183.63 100.638 183.351 100.683 183.116 100.773C182.891 100.863 182.715 100.989 182.589 101.15C182.472 101.303 182.413 101.479 182.413 101.677C182.413 101.875 182.481 102.059 182.616 102.23C182.751 102.392 183.004 102.509 183.373 102.581L185.065 102.932C185.696 103.058 186.138 103.265 186.39 103.553C186.643 103.841 186.769 104.192 186.769 104.606C186.769 105.028 186.656 105.402 186.431 105.726C186.206 106.041 185.89 106.284 185.484 106.455C185.078 106.626 184.609 106.711 184.077 106.711Z" fill="white"/>
<path d="M53.4558 118.506C53.4558 118.002 53.3205 117.615 53.0499 117.345C52.7793 117.066 52.396 116.927 51.8999 116.927C51.4309 116.927 51.0341 117.03 50.7094 117.237C50.3847 117.435 50.1457 117.759 49.9923 118.209L49.113 117.669C49.2933 117.165 49.6271 116.76 50.1141 116.454C50.6012 116.139 51.2054 115.982 51.927 115.982C52.414 115.982 52.856 116.067 53.2528 116.238C53.6497 116.4 53.9609 116.652 54.1863 116.994C54.4208 117.327 54.5381 117.759 54.5381 118.29V121.556C54.5381 121.88 54.7095 122.042 55.0522 122.042C55.2236 122.042 55.3904 122.019 55.5528 121.974L55.4987 122.825C55.3183 122.915 55.0838 122.96 54.7951 122.96C54.5336 122.96 54.2991 122.91 54.0916 122.811C53.8842 122.712 53.7218 122.564 53.6046 122.366C53.4873 122.159 53.4287 121.902 53.4287 121.596V121.461L53.6993 121.502C53.5911 121.853 53.4062 122.141 53.1446 122.366C52.883 122.582 52.5899 122.744 52.2652 122.852C51.9405 122.951 51.6203 123 51.3047 123C50.9078 123 50.538 122.933 50.1953 122.798C49.8525 122.663 49.5775 122.46 49.37 122.19C49.1716 121.911 49.0724 121.569 49.0724 121.164C49.0724 120.661 49.2392 120.247 49.5729 119.923C49.9157 119.59 50.3892 119.365 50.9935 119.248L53.6722 118.722V119.612L51.4941 120.058C51.0521 120.148 50.7229 120.274 50.5064 120.436C50.29 120.598 50.1818 120.823 50.1818 121.11C50.1818 121.389 50.29 121.619 50.5064 121.799C50.7319 121.97 51.0476 122.055 51.4535 122.055C51.715 122.055 51.9631 122.024 52.1976 121.961C52.4411 121.889 52.6576 121.785 52.847 121.65C53.0364 121.506 53.1852 121.331 53.2934 121.124C53.4017 120.908 53.4558 120.656 53.4558 120.368V118.506ZM51.5211 112.743L52.5493 114.997H51.6699L50.3441 112.743H51.5211Z" fill="white"/>
<path d="M64.9796 122.865V116.117H65.9267L65.9943 117.169C66.2378 116.756 66.5535 116.454 66.9413 116.265C67.3382 116.076 67.7441 115.982 68.159 115.982C68.637 115.982 69.088 116.09 69.5119 116.306C69.9358 116.522 70.2605 116.855 70.4859 117.304C70.6303 116.999 70.8332 116.751 71.0947 116.562C71.3563 116.364 71.6404 116.22 71.9471 116.13C72.2628 116.031 72.5604 115.982 72.84 115.982C73.2729 115.982 73.6833 116.072 74.0711 116.252C74.468 116.432 74.7927 116.711 75.0452 117.089C75.2978 117.466 75.424 117.952 75.424 118.546V122.865H74.3417V118.654C74.3417 118.042 74.1884 117.601 73.8817 117.331C73.5751 117.062 73.1963 116.927 72.7453 116.927C72.3935 116.927 72.0643 117.012 71.7577 117.183C71.451 117.354 71.203 117.606 71.0136 117.939C70.8332 118.272 70.743 118.681 70.743 119.167V122.865H69.6607V118.654C69.6607 118.042 69.5073 117.601 69.2007 117.331C68.894 117.062 68.5152 116.927 68.0643 116.927C67.7666 116.927 67.46 117.008 67.1443 117.169C66.8376 117.322 66.5806 117.57 66.3731 117.912C66.1657 118.254 66.062 118.704 66.062 119.261V122.865H64.9796Z" fill="white"/>
<path d="M82.4338 115.982C83.0741 115.982 83.6378 116.121 84.1249 116.4C84.6209 116.679 85.0088 117.084 85.2884 117.615C85.568 118.137 85.7078 118.762 85.7078 119.491C85.7078 120.22 85.568 120.85 85.2884 121.38C85.0088 121.902 84.6209 122.303 84.1249 122.582C83.6378 122.861 83.0741 123 82.4338 123C81.8024 123 81.2387 122.861 80.7426 122.582C80.2466 122.303 79.8587 121.902 79.5791 121.38C79.2995 120.85 79.1597 120.22 79.1597 119.491C79.1597 118.762 79.2995 118.137 79.5791 117.615C79.8587 117.084 80.2466 116.679 80.7426 116.4C81.2387 116.121 81.8024 115.982 82.4338 115.982ZM82.4338 116.913C81.9738 116.913 81.5814 117.017 81.2567 117.223C80.932 117.43 80.6795 117.727 80.4991 118.114C80.3277 118.492 80.2421 118.951 80.2421 119.491C80.2421 120.022 80.3277 120.481 80.4991 120.868C80.6795 121.254 80.932 121.551 81.2567 121.758C81.5814 121.965 81.9738 122.069 82.4338 122.069C82.8937 122.069 83.2861 121.965 83.6108 121.758C83.9355 121.551 84.1835 121.254 84.3549 120.868C84.5353 120.481 84.6255 120.022 84.6255 119.491C84.6255 118.951 84.5353 118.492 84.3549 118.114C84.1835 117.727 83.9355 117.43 83.6108 117.223C83.2861 117.017 82.8937 116.913 82.4338 116.913Z" fill="white"/>
<path d="M92.1423 123C91.5831 123 91.069 122.861 90.6 122.582C90.131 122.303 89.7567 121.902 89.4771 121.38C89.1975 120.85 89.0577 120.22 89.0577 119.491C89.0577 118.744 89.2065 118.11 89.5042 117.588C89.8018 117.066 90.1941 116.67 90.6812 116.4C91.1682 116.121 91.6913 115.982 92.2505 115.982C92.8097 115.982 93.2923 116.126 93.6981 116.414C94.113 116.702 94.3881 117.084 94.5234 117.561L94.3881 117.655V113.013H95.4704V122.865H94.5234L94.4287 121.232L94.5775 121.151C94.5144 121.547 94.3611 121.884 94.1175 122.163C93.883 122.433 93.5899 122.64 93.2382 122.784C92.8954 122.928 92.5301 123 92.1423 123ZM92.2505 122.055C92.6835 122.055 93.0578 121.947 93.3734 121.731C93.6981 121.515 93.9462 121.209 94.1175 120.814C94.2979 120.409 94.3881 119.936 94.3881 119.396C94.3881 118.884 94.2979 118.443 94.1175 118.074C93.9462 117.705 93.7027 117.421 93.387 117.223C93.0803 117.026 92.7195 116.927 92.3046 116.927C91.6192 116.927 91.087 117.16 90.7082 117.628C90.3294 118.096 90.14 118.717 90.14 119.491C90.14 120.265 90.3249 120.886 90.6947 121.353C91.0645 121.821 91.5831 122.055 92.2505 122.055Z" fill="white"/>
<path d="M102.573 123C101.932 123 101.359 122.861 100.854 122.582C100.358 122.303 99.9705 121.902 99.6908 121.38C99.4112 120.85 99.2715 120.22 99.2715 119.491C99.2715 118.762 99.4112 118.137 99.6908 117.615C99.9705 117.084 100.354 116.679 100.841 116.4C101.328 116.121 101.883 115.982 102.505 115.982C103.136 115.982 103.673 116.117 104.115 116.387C104.566 116.657 104.909 117.026 105.143 117.493C105.378 117.952 105.495 118.47 105.495 119.046C105.495 119.198 105.49 119.338 105.481 119.464C105.472 119.59 105.459 119.702 105.441 119.801H99.975V118.843H104.967L104.412 118.951C104.412 118.303 104.232 117.804 103.871 117.453C103.52 117.102 103.055 116.927 102.478 116.927C102.036 116.927 101.653 117.03 101.328 117.237C101.012 117.435 100.764 117.727 100.584 118.114C100.412 118.492 100.327 118.951 100.327 119.491C100.327 120.022 100.417 120.481 100.597 120.868C100.778 121.254 101.03 121.551 101.355 121.758C101.689 121.956 102.085 122.055 102.545 122.055C103.042 122.055 103.443 121.961 103.75 121.772C104.065 121.583 104.318 121.326 104.507 121.003L105.36 121.502C105.188 121.808 104.967 122.073 104.697 122.298C104.435 122.523 104.124 122.699 103.763 122.825C103.411 122.942 103.014 123 102.573 123Z" fill="white"/>
<path d="M111.747 123C111.089 123 110.48 122.861 109.921 122.582C109.371 122.303 108.947 121.907 108.649 121.394L109.569 120.733C109.767 121.146 110.056 121.47 110.435 121.704C110.823 121.938 111.287 122.055 111.828 122.055C112.306 122.055 112.681 121.965 112.951 121.785C113.222 121.596 113.357 121.353 113.357 121.057C113.357 120.868 113.294 120.697 113.168 120.544C113.051 120.382 112.821 120.265 112.478 120.193L110.854 119.855C110.196 119.72 109.722 119.495 109.434 119.18C109.154 118.866 109.014 118.474 109.014 118.006C109.014 117.637 109.118 117.3 109.326 116.994C109.542 116.688 109.844 116.445 110.232 116.265C110.629 116.076 111.093 115.982 111.625 115.982C112.293 115.982 112.857 116.112 113.317 116.373C113.777 116.634 114.119 117.003 114.345 117.48L113.438 118.074C113.285 117.678 113.037 117.39 112.694 117.21C112.352 117.021 111.995 116.927 111.625 116.927C111.301 116.927 111.021 116.972 110.787 117.062C110.561 117.151 110.385 117.277 110.259 117.439C110.142 117.592 110.083 117.768 110.083 117.966C110.083 118.164 110.151 118.348 110.286 118.519C110.421 118.681 110.674 118.798 111.044 118.87L112.735 119.221C113.366 119.347 113.808 119.554 114.061 119.842C114.313 120.13 114.439 120.481 114.439 120.895C114.439 121.317 114.327 121.691 114.101 122.015C113.876 122.33 113.56 122.573 113.154 122.744C112.748 122.915 112.279 123 111.747 123Z" fill="white"/>
<path d="M127.213 123C126.654 123 126.14 122.861 125.671 122.582C125.202 122.303 124.827 121.902 124.548 121.38C124.268 120.85 124.128 120.22 124.128 119.491C124.128 118.744 124.277 118.11 124.575 117.588C124.873 117.066 125.265 116.67 125.752 116.4C126.239 116.121 126.762 115.982 127.321 115.982C127.881 115.982 128.363 116.126 128.769 116.414C129.184 116.702 129.459 117.084 129.594 117.561L129.459 117.655V113.013H130.541V122.865H129.594L129.499 121.232L129.648 121.151C129.585 121.547 129.432 121.884 129.188 122.163C128.954 122.433 128.661 122.64 128.309 122.784C127.966 122.928 127.601 123 127.213 123ZM127.321 122.055C127.754 122.055 128.129 121.947 128.444 121.731C128.769 121.515 129.017 121.209 129.188 120.814C129.369 120.409 129.459 119.936 129.459 119.396C129.459 118.884 129.369 118.443 129.188 118.074C129.017 117.705 128.773 117.421 128.458 117.223C128.151 117.026 127.79 116.927 127.375 116.927C126.69 116.927 126.158 117.16 125.779 117.628C125.4 118.096 125.211 118.717 125.211 119.491C125.211 120.265 125.396 120.886 125.765 121.353C126.135 121.821 126.654 122.055 127.321 122.055Z" fill="white"/>
<path d="M137.616 115.982C138.257 115.982 138.82 116.121 139.307 116.4C139.803 116.679 140.191 117.084 140.471 117.615C140.75 118.137 140.89 118.762 140.89 119.491C140.89 120.22 140.75 120.85 140.471 121.38C140.191 121.902 139.803 122.303 139.307 122.582C138.82 122.861 138.257 123 137.616 123C136.985 123 136.421 122.861 135.925 122.582C135.429 122.303 135.041 121.902 134.762 121.38C134.482 120.85 134.342 120.22 134.342 119.491C134.342 118.762 134.482 118.137 134.762 117.615C135.041 117.084 135.429 116.679 135.925 116.4C136.421 116.121 136.985 115.982 137.616 115.982ZM137.616 116.913C137.156 116.913 136.764 117.017 136.439 117.223C136.115 117.43 135.862 117.727 135.682 118.114C135.51 118.492 135.425 118.951 135.425 119.491C135.425 120.022 135.51 120.481 135.682 120.868C135.862 121.254 136.115 121.551 136.439 121.758C136.764 121.965 137.156 122.069 137.616 122.069C138.076 122.069 138.469 121.965 138.793 121.758C139.118 121.551 139.366 121.254 139.537 120.868C139.718 120.481 139.808 120.022 139.808 119.491C139.808 118.951 139.718 118.492 139.537 118.114C139.366 117.727 139.118 117.43 138.793 117.223C138.469 117.017 138.076 116.913 137.616 116.913Z" fill="white"/>
<path d="M147.135 123C146.702 123 146.292 122.919 145.904 122.757C145.525 122.595 145.214 122.334 144.971 121.974C144.736 121.605 144.619 121.128 144.619 120.544V116.117H145.701V120.26C145.701 120.944 145.85 121.416 146.148 121.677C146.445 121.929 146.865 122.055 147.406 122.055C147.659 122.055 147.907 122.015 148.15 121.934C148.394 121.844 148.61 121.709 148.799 121.529C148.998 121.34 149.151 121.101 149.259 120.814C149.377 120.526 149.435 120.184 149.435 119.788V116.117H150.518V122.865H149.571L149.503 121.839C149.268 122.244 148.948 122.541 148.542 122.73C148.146 122.91 147.677 123 147.135 123Z" fill="white"/>
<path d="M155.445 116.117L157.528 119.032L160.302 122.865H158.976L156.879 119.936L156.757 119.788L154.092 116.117H155.445ZM160.261 116.117L157.582 119.72H157.515L155.188 122.865H153.93L156.879 118.992H156.96L158.989 116.117H160.261Z" fill="white"/>
</svg>
