<?xml version="1.0" encoding="UTF-8"?>
<svg id="Calque_1" data-name="Calque 1" xmlns="http://www.w3.org/2000/svg" viewBox="0 0 120.2 120.2">
  <defs>
    <style>
      .cls-1 {
      fill: #e10337;
      stroke: #1d1d1b;
      stroke-miterlimit: 10;
      stroke-width: .2px;
      }

      .cls-2 {
      fill: #fff;
      stroke-width: 0px;
      }
    </style>
  </defs>
  <rect class="cls-1" x=".1" y=".1" width="120" height="120"/>
  <g id="BLASON">
    <path id="BLASON_EAUX_MELEES" class="cls-2" d="M95.48,57.67V18.89c0-1.16-.94-2.1-2.1-2.1H26.81c-1.15,0-2.09.94-2.09,2.09v38.76s-.05,1.12.08,2.91c.12,1.65.4,4.26,1.12,7.31.69,2.91,1.64,5.73,2.85,8.4.22.48.44.95.67,1.42.66,1.33,1.39,2.64,2.19,3.9,1.48,2.35,3.19,4.54,5.08,6.52.38.4.76.79,1.14,1.17,1.22,1.23,2.46,2.39,3.68,3.47,1.09.96,2.21,1.88,3.33,2.74.84.64,1.68,1.26,2.51,1.83,6.2,4.27,10.86,5.62,12.15,5.94l.59.12.6-.12c.9-.22,3.35-.92,6.8-2.71,2.4-1.25,4.83-2.79,7.24-4.6,2.98-2.23,5.92-4.86,8.74-7.83,2.91-3.06,5.36-6.56,7.27-10.42,1.52-3.08,2.7-6.38,3.51-9.82.72-3.05,1.01-5.66,1.12-7.31.12-1.71.08-2.75.08-2.89ZM38.35,41.56h0c.22,2.25-.46,4.76-1.19,7.41-.7,2.57-1.43,5.24-1.3,7.74.08,1.57.58,3.09,1.12,4.7.49,1.48,1,3.01,1.14,4.57.2,2.26-.47,4.53-1.12,6.73-.57,1.93-1.16,3.93-1.14,5.89.01,2.11.63,4.35,1.26,6.53-1.64-1.9-3.11-3.97-4.38-6.15-.1-.17-.19-.33-.28-.5l-.07-.13c.15-1.48.62-2.91,1.08-4.29.53-1.59,1.07-3.24,1.14-5,.09-2.65-.53-4.54-1.14-6.36-.49-1.46-.99-2.98-1.12-4.89-.19-2.67.55-5.25,1.26-7.76.67-2.35,1.3-4.57,1.23-6.84-.06-1.7-.66-3.33-1.24-4.9-.55-1.49-1.11-3.03-1.25-4.66-.26-3.06.54-5.5,1.31-7.87.71-2.18,1.39-4.25,1.25-6.7h3.67c.07,2.14-.58,3.95-1.26,5.87-.74,2.08-1.51,4.24-1.46,7.03.02,1.61.58,3.11,1.17,4.7.56,1.51,1.14,3.07,1.32,4.87ZM28.73,34.26h0c.15,1.54.73,3.08,1.29,4.56.58,1.55,1.13,3.01,1.2,4.41.12,2.22-.52,4.41-1.19,6.72-.8,2.73-1.62,5.55-1.3,8.74.16,1.61.68,3.07,1.17,4.49.53,1.52,1.03,2.96,1.1,4.48.09,2.05-.43,3.86-.99,5.6-.75-1.93-1.37-3.92-1.84-5.9-1.3-5.51-1.15-9.63-1.15-9.68V20.76c0-.92.75-1.66,1.66-1.66h2.54c.26,2.3-.44,4.6-1.18,7.04-.78,2.59-1.59,5.26-1.31,8.12ZM40.59,73.57c.5-1.46,1.02-2.97,1.14-4.5.24-3.25-.47-5.43-1.16-7.54-.53-1.62-1.03-3.15-1.11-5.12-.09-2.57.62-5.11,1.3-7.56.74-2.64,1.43-5.13,1.19-7.62-.16-1.61-.73-3.15-1.29-4.64-.6-1.59-1.16-3.1-1.2-4.61-.05-1.74.54-3.71,1.17-5.8.68-2.28,1.39-4.63,1.44-7.09h3.21c-.08,1.84-.63,3.68-1.22,5.63-.78,2.59-1.59,5.26-1.3,8.13.15,1.54.73,3.08,1.29,4.57.58,1.55,1.13,3.01,1.2,4.41.12,2.22-.52,4.4-1.19,6.71-.8,2.73-1.62,5.55-1.3,8.75.16,1.61.68,3.08,1.17,4.49.53,1.52,1.03,2.95,1.09,4.48.1,2.21-.52,4.15-1.12,6.02-.57,1.8-1.17,3.65-1.15,5.77.02,2.58.76,5.13,1.46,7.59.76,2.63,1.47,5.13,1.26,7.41-1.05-.83-2.1-1.72-3.12-2.64l-.39-.36c-.28-1.7-.76-3.38-1.23-5-.68-2.38-1.33-4.63-1.29-6.72.03-1.58.59-3.2,1.12-4.76ZM47.77,85.47c-.71-2.46-1.44-5-1.4-7.71.03-1.79.59-3.47,1.13-5.1.53-1.59,1.08-3.24,1.14-5,.09-2.65-.54-4.55-1.14-6.38-.48-1.46-.99-2.97-1.12-4.88-.19-2.67.55-5.26,1.26-7.76.67-2.35,1.3-4.57,1.23-6.83-.06-1.7-.66-3.33-1.24-4.9-.55-1.49-1.12-3.03-1.25-4.66-.26-3.06.54-5.51,1.31-7.87.57-1.76,1.11-3.42,1.24-5.29h42.6c.92,0,1.66.75,1.66,1.66v36.98c0,.17.15,4.13-1.14,9.61-.77,3.27-1.89,6.41-3.34,9.33-1.8,3.64-4.11,6.96-6.87,9.85-2.74,2.87-5.58,5.42-8.46,7.58-2.31,1.73-4.64,3.21-6.93,4.4-3.28,1.71-5.5,2.33-6.35,2.53-.85-.2-3.09-.83-6.38-2.55-1.7-.88-3.43-1.94-5.15-3.12.31-.87.47-1.66.51-2.41.12-2.52-.57-4.92-1.31-7.46Z"/>
    <g id="LION">
      <path id="testicule" class="cls-2" d="M72.46,59.64s0-.01,0-.02c-.05-.09-.1-.13-.12-.14-.26-.19-.76-.06-.81.36-.04.4.28.67.66.7.21.02.27-.17.29-.37h0c.03-.15.03-.26.02-.35,0,0-.02-.14-.04-.19Z"/>
      <path id="aine" class="cls-2" d="M71.47,56.62c.11.66.37,2.35,1,2.54.34-.81-.17-2.22-1-2.54Z"/>
      <g id="griffes_patte_avant_droite">
        <path class="cls-2" d="M58.73,33.92c.24-.06.59-.37.42-.65-.23-.38-.65-.41-1.06-.47.23.35-.03,1.27.64,1.11Z"/>
        <path class="cls-2" d="M54.05,34.93c.15-.97-1.07-.31-1.3.13.33-.02,1.22.34,1.3-.13Z"/>
        <path class="cls-2" d="M56.49,33.39c.42-.81-.78-.88-1.18-.64.17.1,1.03.93,1.18.64Z"/>
        <path class="cls-2" d="M54.19,40.26c.22,1.44,1.4-.03,0,0h0Z"/>
      </g>
      <path id="patte_avant_droite" class="cls-2" d="M61,48.12c.5-.56.93-.97,1.58-1.36-.87-.6-2.34-1.44-1.8-2.77.25-.61.86.23,1.32.27.64.06,1.41.07,2.01-.19-.18-.23-.77-.34-1.03-.59-.5-.48-.66-1.1-.46-1.77.11-.34-1.62-1.39-1.99-1.76-.82-.8-2.04-1.96-1.87-3.23.05-.33.1-.87.37-1.1.14-.11.24-1.43.18-1.57-.38.19-.86.36-1.2,0-.42-.45-.34.45-.3.57.18.51.43.96.47,1.51.03.48-.51,1.03-.51.35-.38-.41-.64-.83-.93-1.31-.11-.18.07-1.53-.29-1.26-.22.16-.54-.02-.72.17-.18.17-.03.52-.11.74-.18.53-.92.07-1.18-.07-.14.65-.96.87-.39,1.55.59.71,1.54.47,2.13,1.21.63.8-.17,1.67-.95,1.82-.19.04-.39.41-.23.58.33.37.21.94.02,1.33.37.15.86.03,1.17-.17.43-.27.2-.64.73-.64.07,0,.39.94.43,1.04.29.61.22,1.09-.11,1.66-.42.72.42,1.82.29,2.61-.19,1.09-.78.97-1.57.43-.21.17.52.62.63.65.78.22,1.23-.24,1.41-.89.17-.62.02-1.24.28-1.87.33-.77.96-.22.66.07-.73.73,1.09,1.98.88,2.87-.08.32.79,1.09,1.08,1.11Z"/>
      <g id="griffes_patte_avant_gauche">
        <path class="cls-2" d="M54.1,54.87c-.33-.54-1.75.1-1.87.6.18,0,2.4.29,1.87-.6Z"/>
        <path class="cls-2" d="M53.55,59.72c-.09-.43-1.35.44-.97,1.15,0,0,.04.04.03.05.29-.28,1.04-.69.94-1.21Z"/>
        <path class="cls-2" d="M57.31,60.99c-.26.57-1.17.41-1.38.8.47,1,2.21-.81,1.38-.8Z"/>
        <path class="cls-2" d="M51.58,58.01c.2-.1,1.34-.03.77-.64-.29.1-.88.19-.77.64Z"/>
      </g>
      <path id="patte_avant_gauche" class="cls-2" d="M63.39,56.45c.2-.05,1.34-.56,1.44-.19.07.26-.09.59.34.62.2.01.64-.1.68-.36.04-.32.46.16.53.19.33.14,1.02-.02,1.2-.35-.65-.14-1-.64-.68-1.31.28-.58.4-.4.04-1.01-.21-.37-.32-.77-.46-1.17-.74,1.3-1.51,2.06-3.06,2.34-1.04.18-3.41-.72-2.65-2.15.26-.5,1.03-.91,1.61-1.05,0,0,.02,0,.02,0,.05-.01.11-.03.16-.03.81-.12-.13.73-.16.86-.16.83,1.19.14,1.4-.06.25-.23.16-.66.11-.95-.08-.43-.1-.89-.2-1.32-.19-.01-.35.12-.49.22-.5.34-1.03.64-1.53.99-.66.46-1.3.97-1.9,1.51-.46.41-.91.84-1.33,1.3-.52.56-1.81,1.9-2.74,1.34-.25-.15-.62-1.07-.79-1.07-.69-.01-.32.3-.6.76-.14.23-.42.27-.64.39.09.27.68.61.29.82-.36.19-.94.17-1.34.27.14.3.31.61.14.94-.12.23.34.4.46.6.12.24.03.46.26.6.34.19.51.51.46.91-.12.93,1.23-.64,1.28-.68.38-.39,2.1-.8,1.69.25-.13.34-.43.58-.16.96.49-.04.63-.06,1.06.18.91-.55.45-.82.17-1.64-.1-.29,1.09-.28,1.37-.64.63-.82.64.24.7.79.34-.03.49-.44.55-.71.14-.57.97.44.93-.11-.02-.33.04-.65.24-.92.23-.31.49.3.45.48-.09.44,1.13.41,1.49.53.01,0,.02,0,.04,0,.11-.36-.87-1.99-.33-2.12Z"/>
      <g id="griffes_patte_arriere_droite">
        <path class="cls-2" d="M57.77,69c1.55-.8-.23-1.18-.75-.39.32,0,.55.16.75.39Z"/>
        <path class="cls-2" d="M62.02,74.92c.02-1.01-.84-.02-1.09.18.21.1,1.08.31,1.09-.18Z"/>
        <path class="cls-2" d="M55.78,71.25c.23-.16,1.46-.49.93-.85-.56-.39-.92.44-.93.85Z"/>
        <path class="cls-2" d="M57.24,74.15c.07-.28.3-.42.53-.54-.38-1.17-1.18.19-.53.54Z"/>
      </g>
      <path id="patte_arriere_droite" class="cls-2" d="M62.43,73.92c.62-.6.27-.6-.3-1.07-.38-.33-.49-.7-.06-1.02.38-.27,1.18.44,1.65.39.39-.05,1.04-.21,1.17-.65.05-.16.29-1.69.68-1.09.31.48,0,.94.69,1.33.42.23,1.25.53,1.72.33-.57-.41-1.44-.86-.72-1.56.25-.23.02-.78.17-1.1.22-.43.71-.48.42-.89-.24-.32.17-.64.36-.86-.1-.4.12-.63-.11-1.02-.35-.59-1.09-1.18-.82-1.98.65-1.95,2.36-3.1,4.4-3.41.11-.02.71.02.73-.15.05-.56-.27-.19-.63-.44-1.13-.77.55-1.21-.8-4.32-.92.05-1.57.83-2.13,1.5-.57.68-1.18,1.05-2.01,1.31-.71.22-1.42.21-2.06.64-.42.28-.85.57-1.2.94-.3.33-.43.83-.8,1.09-.46.33-.39.23-.54.76-.1.37-.07.74-.15,1.12-.17.83-.79,1.38-1.47,1.81.75.24,1.31.21,1.81-.49.18-.26.32-.56.46-.84.13-.23.4-.07.34.16-.21.81.7,1.07.98,1.8.29.76-.19,1.64-.84,2.04-.54.33-1.16.24-1.59.74-.37.43-1.07,1.42-1.75.86-.12-.11-.44-.27-.47-.45-.05-.29.08-.78-.25-.97-.29-.17-1.32.89-1.49,1.07.36.29,1.01.39,1.13.91.06.25-1.33-.43-1.65-.43-.09,0-.39,1.33-.39,1.56,0,.53,1.26.07,1.58.1.02.5-.43.41-.77.56-.54.22.27.89.4,1.13.16.32.04.9.6.66.47-.2.38-.82.78-1.12.32-.24.96-.57,1.37-.54.58.03.82.43.35.84-.6.5.03.58.2.92.49-.14.79.36,1,.69,0,0,0,0,0,0,.28-.29-.29-.55.01-.84Z"/>
      <g id="griffes_patte_arriere_gauche">
        <path class="cls-2" d="M74.28,76.13c.26-.21,1.63-1.09.86-1.58-.17.24-.69.15-.93.45-.25.29-.19.87.07,1.13Z"/>
        <path class="cls-2" d="M78.08,75.9c-.6-.22-.63.93-.09,1.17.1-.43.65-.97.09-1.17Z"/>
        <path class="cls-2" d="M74.42,72.67c-.47-.06-.85.63-.74,1.06-.02-.05.03-.01,0,0,.57-.23.92-.33.74-1.06Z"/>
        <path class="cls-2" d="M80.37,75.93c-.57-.49-.76.1-.46.56.16-.19.3-.38.46-.56Z"/>
      </g>
      <path id="corps_queue" class="cls-2" d="M85.85,46.52c1.15-.77,2.05-2.52.28-3.28-.1,1.02-.1,1.47-.93,2.15-.82.67-2,.65-2.8,1.4-.37.35-.73.98-.51,1.51.08.19.46.73.32.96-.37.59-1.44-1.72-1.47-1.98-.33-2.65,3.12-3.49,4.73-4.65.92-.67,1.71-1.25,1.8-2.46.07-.81-.48-2.08-1.4-2.19-.02,0,.17,1.23.18,1.37.04.53-.05,1.04-.38,1.48-.56.75-1.56.95-2.4,1.26-.93.34-1.92.5-2.63,1.24-.43.44-.63,1.06-.77,1.64-.07.28-.14,2.54-.71,1.17-.11-.26-.03-1.57.24-2.3.42-1.13,1.34-1.94,2.15-2.78,1.02-1.05,2.12-1.95,2.94-3.19.55-.82,1.05-1.83,1.05-2.84,0-1.7-2.15-3.38-3.8-3.12-1.33.21-2.33.55-3.16,1.67-.38.51-.82,1.28-.81,1.93,0,.71.32,1.21.48,1.88.24.99,1.22,2.86-.29,3.41.37.6,1.2.2,1.64-.13,1.65-1.22,1.31-2.76.91-4.51-.25-1.1-.39-2.2.8-2.78,1.06-.52,2.14-.17,2.72.83,1.19,2.07-.96,4.37-2.32,5.7-1.47,1.43-3.2,2.78-3.74,4.82-.59,2.24.73,4.45,2.06,6.12.28.36,1.36,1.65,1.63,2.06.67,1.05,1.48,2.39,1,3.65-.84,2.18-3.92,1.8-5.11.27-.08-.1-.14-.2-.21-.3,0,0,0-.01-.01-.02,0-.01-.02-.02-.02-.03-.16-.23-.32-.47-.47-.71-.08-.12-.15-.24-.22-.37-.04-.08-.09-.15-.13-.23-.32-.56-.61-1.11-.87-1.63-.51-.98-.93-2.19-1.57-3.07-.31.7-.59,1.34-1.16,1.87-1.01.95.77,1.43.34,2.13-.39.64-1.98-.31-2.25-.66-.27-.33-.53-.74-.6-1.17-.03-.14.05-.88-.05-.94-.47.49-1.05,1.03-1.45,1.58-.69.99.17,1.34.98,1.74,1.72.86,3.29,1.95,3.12,4.03-.07.79-.33,1.98-.08,2.75.14.46.36.54.6.91.32.47-.52.16-.56.16-.97-.04-.79,1.49-.8,2-.02,1.11-.64,1.38-1.46,1.88l.05.08h0s.1.18.29.22c0,0,0,0,.01,0,.09.01.18,0,.3-.07h0c.71-.38,1.59-2.1,1.69-2.34.17-.44.54-.3.72.04.16.31-.11.34.23.7.23.24.54.45.82.63,1.22.79,2.73,1.25,3.75,2.34.77.84.65,2.53-.1,3.35-.97,1.07-2.12.33-3.32.58-.44.09-.53,1.15-.29,1.49.36.53.98.52.84,1.38-.3,1.81,1.12-.52,1.6-.88.35-.27.92-.61,1.37-.35.41.24-.57,1.19-.74,1.4.3.18.58.37.86.58.07-.3.13-.58.35-.79.01,0,.02-.02.03-.02.03-.03.06-.06.1-.08.46-.26.39.08.65.29.15.13.56.19.76.31.5.28,0-.8,0-.85.09-.88,1.86-1.29,1.45-2.25-.19-.46.24-.69.36-.23.09.37.67.41.95.31-.32-.24-.63-.47-.85-.81-.24-.37-.16-.56,0-.71,0,0,.02-.01.03-.02.16-.14.37-.26.47-.48-.21-.32-1.12-.4-.25-.75.58-.23,1.26.02,1.79-.51-.51-.13-1.26.53-1.68-.24-.19-.34-.34-.74-.61-1.03,0,0-.75-.66-.3-.64.6.03.71.7,1.27.59,1.08-.2,1.59-1.07,2.74-.53.38-2.01-3.06.33-3.41-1.72-.11-.63.52-.65,1.03-.73.9-.14.85-.96,1.01-1.66,0-.01,0-.02,0-.03-.55.16-1.09.26-1.66.35-.56.09-.59.87-.99.95-.28.06-.74-.53-.95-.65-.46-.28-.86-.39-1.21-.82-.59-.72-1.42-1.8-1.51-2.74-.05-.45-.05-.91-.09-1.36-.03-.44,1.21.06,1.38.1,1.25.25,2.19.05,3.21-.72,1.23-.93,1.12-1.97.85-3.36-.41-2.04-.05-6.29,3.11-4.79-.02-.78-.72-1.24-1.44-1.29-.78-.05-1.42.73-1.81,1.31-.13.19-.13,1.51-.63,1.31-.51-.21-.37-1.57-.28-2,.31-1.62,2-2.27,3.24-3.1Z"/>
      <path id="dent_bas" class="cls-2" d="M68.02,39.82c.07.08.15.08.23,0-.05-.05-.11-.1-.17-.16-.02.05-.05.1-.07.15Z"/>
      <path id="dent_haut" class="cls-2" d="M67.4,37.65c-.23.04-.23,0-.32.06.03-.02-.01.1,0,0-.02.17-.09.54.21.5.04-.19.07-.37.11-.56Z"/>
      <path id="langue" class="cls-2" d="M70.31,37.9c-1.19-.13-1.96.55-2.97.91-.56.2-1.15.45-1.76.21-.28-.11-1.03-.67-1.28-.67.13,1.55,1.38,1.93,2.64,1.35.57-.27,1.03-.74,1.63-.97.5-.2,1.69-.25,1.73-.82"/>
      <path id="tete_criniere" class="cls-2" d="M76.11,39.58c-.17-.61.09-1.32-.12-1.93-.07-.19-.41-.38-.4-.57,0-.27.52-.44.67-.63-.17-.01-.34,0-.51-.05s-.27-.15-.36-.28c-.09-.13-.15-.27-.21-.41-.06-.13-.13-.26-.18-.39-.02-.04-.26-.67-.2-.68-.28.03-1.19.44-1.2-.07,0-.23,1.09-.28,1.34-.45.34-.23.43-.53,0-.74-.41-.2-.9-.23-1.34-.11-.45.12-.67.41-.98.73-.02.02-.04.04-.06.04-.17.05-.2-.31-.18-.41.03-.18.17-.3.32-.4.15-.11.32-.18.5-.24.17-.06.36-.08.52-.17-.34-.49-1.09-.74-1.67-.74-.66-.03-1.31.12-1.94.31-.55.16-1.08.37-1.62.55-.27.09-.69.42-.98.38-.05,0-.09.28-.14.54,0,.06-.02.12-.04.17-.02.08-.04.14-.07.17-.03.03-.06.06-.1.09-.02.01-.03.02-.05.04-.59.42-2.09.77-1.28,1.73.28.33.13.61.28.95.2.46,1.07.32,1.42.2.51-.18,2.4-1.09,2.78-.46.49.8.65,1.91.16,2.78-.47.83-1.77.51-2.53.78.04.44.04,1.36.59,1.51.59.17,1.47-.56,1.82-.95.09-.1.82-1.15.96-.68.16.55-.71,1.53-1.05,1.9-.4.43-1.12.66-1.69.65-.7-.02-1.25-.38-1.91-.28-.02,0-.04.01-.05.01-.08.02-.16.03-.24.06-1.23.45-2.91.32-2.53-1.41-.85.15-1.21,1.12-.75,1.82.24.36.69.63,1.11.71.02,0,.04,0,.08,0,.03,0,.07,0,.12,0,.03,0,.06,0,.09,0,.01,0,.02,0,.03,0,.25,0,.55.05.51.3-.05.36-.97.66-1.29.71-.99.15-1.67.05-2.53-.39-.07.94,1,2.42,2.1,2.26.31-.04.61-.13.92-.17.19-.03.41-.07.58.05.14.11.33.51.12.64-.05.03-.12.03-.18.03-.64-.03-1.27-.08-1.89.12-.68.22-1.08.67-1.51,1.2-.4.5-.69.8-1.32.99-.36.11-.64-.08-.82-.38-.05-.08-.46-.94-.41-1-.79.86-.05,2.03.7,2.62.38.3.86.57,1.35.59.71.03,1.42-.36,2.03-.68.41-.21.8-.46,1.19-.71.27-.17.75-.6,1.08-.58.14,0,.28.11.3.25.01.11-.05.22-.14.29-.21.16-.51.19-.72.36-.72.59-.4,1.29-.29,2.08.2,1.45-2.13,2.11-2.23.33-1.53.85-.96,1.78.48,2.22,1.05.33,2.67-.53,3.23-1.4.23-.34.34-.78.51-1.15.06-.14.63-1.44.86-1.02.25.45-.41,1.06-.27,1.55.21.74.63,1.75,1.35,2.13-.15-.08.08-1.11.13-1.26.16-.46.48-.84.83-1.17.78-.73,1.26-1.58,1.65-2.56.21-.52.45.17.32.5-.2.48-.33,1.06-.37,1.58-.08,1.12.68,2.27,1.91,2.12-.22-.35-.5-.57-.56-1-.1-.76.48-1.06.86-1.6.31-.43.62-.99.59-1.54-.02-.3-.14-.58-.17-.87-.02-.24.03-1.58.49-1.43.01,0,.02.02.03.03.16.17-.11,1.08-.08,1.36.07.51.4,1.17.85,1.54.29.23,1.13.46,1.32-.02-.15-.08-.33-.1-.49-.16-.64-.22-.76-1-.61-1.58.1-.42.33-.81.41-1.23.08-.36-.66-.88-.49-1.13.14-.21,1.07.76,1.5.56-.28-.6-.66-1.22-.49-1.92.17-.68.32-1.38.45-2.07.08-.43.42-1.44-.18-1.67-.2-.08-.7-.16-.81-.39-.06-.13,0-.37.19-.28.49.23,1.13.46,1.58.01.16-.16-.84-.79-.94-1.14ZM69.5,34.79c-.21.19-1.07-.08-1.12-.54-.03-.27,1.44.25,1.12.54Z"/>
    </g>
  </g>
</svg>
