<svg width="1440" height="762" viewBox="0 0 1440 762" fill="none" xmlns="http://www.w3.org/2000/svg">
<g clip-path="url(#clip0_24_1564)">
<path d="M951.6 293.4C951.6 314.1 934.5 331.2 913.8 331.2H739.2V257.4H816.6C838.2 257.4 854.4 240.3 854.4 218.7V216H951.6V293.4ZM863.4 801.9C904.8 801.9 948.9 787.5 978.6 761.4L1020 865.8C1020 865.8 939.9 901.8 858 901.8C854.4 901.8 851.7 901.8 849 901.8C786 900 732 879.3 689.7 837.9C645.6 795.6 624 738.9 624 669.6V379.8H739.2V495H787.8V379.8H866.1C950.7 379.8 1026.3 438.3 1040.7 521.1C1060.5 630.9 975.9 728.1 869.7 728.1L787.8 727.2V611.1H739.2V692.1C739.2 761.4 798.6 801.9 863.4 801.9ZM793.2 513.9V592.2C793.2 603 801.3 611.1 812.1 611.1H869.7C903.9 611.1 930.9 582.3 927.3 548.1C924.6 517.5 896.7 495 866.1 495H812.1C801.3 495 793.2 503.1 793.2 513.9Z" fill="#FF5301"/>
<path d="M1369.1 568.3H1253.9V523.3C1253.9 491.8 1228.7 465.7 1196.3 465.7H1136C1112.6 465.7 1093.7 484.6 1093.7 508V723.1C1093.7 745.6 1112.6 764.5 1136 764.5H1196.3C1228.7 764.5 1253.9 739.3 1253.9 706.9V665.5H1369.1V706.9C1369.1 801.4 1291.7 878.8 1196.3 878.8H1111.7V764.5H1063.1V843.7C1045.1 834.7 1028.9 823 1013.6 808.6C969.5 765.4 947.9 713.2 947.9 643.9V571.9C947.9 501.7 969.5 445.9 1013.6 403.6C1028.9 389.2 1045.1 376.6 1063.1 367.6V465.7H1111.7V350.5H1197.2C1292.6 350.5 1369.1 427.9 1369.1 522.4V568.3Z" fill="#FF5301"/>
<path d="M1515.1 350.5C1608.7 350.5 1685.2 427 1685.2 520.6V708.7C1685.2 802.3 1608.7 878.8 1515.1 878.8H1416.1V764.5H1367.5V869.8C1300.9 845.5 1253.2 782.5 1253.2 707.8V523.3C1253.2 448.6 1300.9 384.7 1367.5 360.4C1367.5 360.4 1367.5 417.1 1367.5 465.7H1416.1V350.5H1515.1ZM1570 709.6V522.4C1570 490.9 1544.8 465.7 1513.3 465.7H1451.2C1422.4 465.7 1398.1 489.1 1398.1 517.9V724.9C1398.1 746.5 1416.1 764.5 1438.6 764.5H1515.1C1545.7 764.5 1570 740.2 1570 709.6Z" fill="#FF5301"/>
</g>
<defs>
<clipPath id="clip0_24_1564">
<rect width="1440" height="762" fill="white"/>
</clipPath>
</defs>
</svg>
