<svg width="1440" height="494" viewBox="0 0 1440 494" fill="none" xmlns="http://www.w3.org/2000/svg">
<g clip-path="url(#clip0_39_2278)">
<path d="M859.201 912H763V343.021H859.201V912Z" fill="#292929"/>
<path d="M1184.55 444.94C1222.12 480.971 1240.16 527.51 1240.16 585.308V827.762H1143.96V732.432H1103.38V827.762H1037.24C966.591 827.762 904.211 778.221 891.435 709.163C875.652 617.586 946.299 539.52 1034.23 539.52H1103.38V634.85H1143.96V563.54C1143.96 559.036 1143.21 554.532 1142.46 550.029C1131.94 504.991 1092.1 474.965 1040.25 474.965C1006.42 474.965 971.101 486.976 946.299 507.243V408.159C971.852 399.902 1007.93 391.645 1044.75 391.645C1047.01 391.645 1049.26 391.645 1051.52 391.645C1104.88 393.147 1149.22 411.162 1184.55 444.94ZM1098.87 716.669V650.613C1098.87 641.606 1091.35 634.85 1083.08 634.85H1037.24C1011.69 634.85 989.138 653.616 986.132 679.137C983.877 707.661 1006.42 732.432 1034.23 732.432H1083.08C1091.35 732.432 1098.87 725.676 1098.87 716.669Z" fill="#292929"/>
<path d="M1336.95 456.116C1416.61 456.116 1482 520.671 1482 600.238V742.107C1482 821.674 1416.61 886.979 1336.95 886.979H1280.58V790.147H1240V886.979H1143.79V318H1240V550.696H1280.58V456.116H1336.95ZM1386.55 742.858V598.736C1386.55 572.464 1365.51 550.696 1339.2 550.696H1317.41C1300.12 550.696 1285.84 564.958 1285.84 582.973V758.621C1285.84 776.636 1300.12 790.147 1317.41 790.147H1339.2C1365.51 790.147 1386.55 769.13 1386.55 742.858Z" fill="#292929"/>
</g>
<defs>
<clipPath id="clip0_39_2278">
<rect width="1440" height="494" fill="white"/>
</clipPath>
</defs>
</svg>
