<svg width="304" height="304" viewBox="0 0 304 304" fill="none" xmlns="http://www.w3.org/2000/svg">
<g clip-path="url(#clip0_28_980)">
<path d="M422.2 119.2C454 134.2 471.4 170.2 471.4 206.8C471.4 208.6 470.8 210.4 470.8 212.2C470.8 212.2 470.8 212.8 470.8 213.4C467.2 239.2 451 273.4 418.6 291.4V229.6H386.8V303.4C379 305.2 370.6 305.8 362.2 305.8H329.2C265 305.8 210.4 254.2 210.4 190.6V180.4H287.2V190.6C287.2 211.6 304.6 229 325.6 229H372.4C383.8 229 393.4 219.4 393.4 208V205C393.4 196.6 391 188.8 378.4 182.8C365.8 176.8 282.4 139 264.4 127C246.4 116.2 224.2 95.7996 224.8 57.3996C225.4 12.3996 251.2 -14.6004 268.6 -26.6004C270.4 -27.8004 271.6 -28.4004 273.4 -29.6004L274 -30.2004C275.2 -30.8004 275.8 -31.4004 277 -32.0004C280.6 -33.8004 283 -35.0004 283 -35.0004V30.9996H314.8V-44.6004C320.2 -45.8004 325 -46.4004 330.4 -46.4004H352.6C414.4 -44.0004 464.2 6.99963 464.2 69.3996V74.7996H387.4V69.3996C387.4 47.7996 370 30.9996 348.4 30.9996H328C316.6 30.9996 307 39.9996 307 51.3996V53.7996C307 54.3996 307 55.5996 307.6 57.3996C308.2 61.5996 309.4 65.1996 311.8 68.1996C316 74.1996 323.8 81.9996 338.8 86.7996C373.6 96.9996 391 104.2 422.2 119.2Z" fill="#CBB9FF"/>
<path d="M184.2 231C214.2 259.8 228.6 297 228.6 343.2V537H151.8V460.8H119.4V537H66.6001C10.2001 537 -39.5999 497.4 -49.7999 442.2C-62.3999 369 -5.99991 306.6 64.2001 306.6H119.4V382.8H151.8V325.8C151.8 322.2 151.2 318.6 150.6 315C142.2 279 110.4 255 69.0001 255C42.0001 255 13.8001 264.6 -5.99991 280.8V201.6C14.4001 195 43.2001 188.4 72.6001 188.4C74.4001 188.4 76.2001 188.4 78.0001 188.4C120.6 189.6 156 204 184.2 231ZM115.8 448.2V395.4C115.8 388.2 109.8 382.8 103.2 382.8H66.6001C46.2001 382.8 28.2001 397.8 25.8001 418.2C24.0001 441 42.0001 460.8 64.2001 460.8H103.2C109.8 460.8 115.8 455.4 115.8 448.2Z" fill="#CBB9FF"/>
</g>
<defs>
<clipPath id="clip0_28_980">
<rect width="304" height="304" fill="white"/>
</clipPath>
</defs>
</svg>
