<svg width="304" height="304" viewBox="0 0 304 304" fill="none" xmlns="http://www.w3.org/2000/svg">
<g clip-path="url(#clip0_28_971)">
<path d="M399.573 -29H439V37.9721H401.129C382.453 37.9721 366.89 43.6829 353.401 55.1045C340.432 66.007 332.65 81.0627 331.094 99.2335V269H264.171V71.1986C264.171 52.5087 249.646 37.9721 230.969 37.9721V37.453H218V-29H289.592V37.453H317.087V-4.08015C339.913 -20.6934 367.408 -29 399.573 -29Z" fill="#99C8FF"/>
<path d="M141.2 183.6C204.8 183.6 257 235.2 257 299.4V412.2C257 475.8 204.8 528 141.2 528H96.2V451.8H63.8V638.4H-13V183.6H63.8V260.4H96.2V183.6H141.2ZM180.8 414V298.2C180.8 277.2 164 260.4 143 260.4H125.6C111.8 260.4 100.4 271.8 100.4 285.6V426.6C100.4 440.4 111.8 451.8 125.6 451.8H143C164 451.8 180.8 435 180.8 414Z" fill="#99C8FF"/>
</g>
<defs>
<clipPath id="clip0_28_971">
<rect width="304" height="304" fill="white"/>
</clipPath>
</defs>
</svg>
