<svg width="304" height="304" viewBox="0 0 304 304" fill="none" xmlns="http://www.w3.org/2000/svg">
<g clip-path="url(#clip0_28_975)">
<path d="M225.2 186.2C288.8 186.2 341 237.8 341 302V533.6H263.6V302C263.6 280.4 246.2 263 225.2 263C203.6 263 186.2 280.4 186.2 302V533.6H109.4V302C109.4 280.4 92 263 71 263C49.4 263 32 280.4 32 302V363.2H-17.2V533.6H-94V188.6H-17.2V279.2H15.2V199.4C31.4 189.8 50.6 185 71 185C100.4 185 128 196.4 148.4 215.6C168.8 197 195.8 186.2 225.2 186.2Z" fill="#DAFF96"/>
<path d="M423.77 -160.4C453.77 -131.6 468.17 -94.4 468.17 -48.2V145.6H391.37V69.4H358.97V145.6H306.17C249.77 145.6 199.97 106 189.77 50.8C177.17 -22.4 233.57 -84.8 303.77 -84.8H358.97V-8.59998H391.37V-65.6C391.37 -69.2 390.77 -72.8 390.17 -76.4C381.77 -112.4 349.97 -136.4 308.57 -136.4C281.57 -136.4 253.37 -126.8 233.57 -110.6V-189.8C253.97 -196.4 282.77 -203 312.17 -203C313.97 -203 315.77 -203 317.57 -203C360.17 -201.8 395.57 -187.4 423.77 -160.4ZM355.37 56.8V4.00002C355.37 -3.19998 349.37 -8.59998 342.77 -8.59998H306.17C285.77 -8.59998 267.77 6.40001 265.37 26.8C263.57 49.6 281.57 69.4 303.77 69.4H342.77C349.37 69.4 355.37 64 355.37 56.8Z" fill="#DAFF96"/>
</g>
<defs>
<clipPath id="clip0_28_975">
<rect width="304" height="304" fill="white"/>
</clipPath>
</defs>
</svg>
