<svg width="1440" height="325" viewBox="0 0 1440 325" fill="none" xmlns="http://www.w3.org/2000/svg">
<g clip-path="url(#clip0_37_2173)">
<path d="M936.2 145.6C999.8 145.6 1052 197.2 1052 260.8V374.2C1052 437.8 999.8 490 936.2 490H891.2V412.6H858.8V490H782V35.2H858.8V221.2H891.2V145.6H936.2ZM975.8 374.8V259.6C975.8 238.6 959 221.2 938 221.2H920.6C906.8 221.2 895.4 232.6 895.4 247V387.4C895.4 401.8 906.8 412.6 920.6 412.6H938C959 412.6 975.8 395.8 975.8 374.8Z" fill="#85E0F4"/>
<path d="M1188.8 61.4C1251.2 61.4 1302.2 112.4 1302.2 174.8V300.2C1302.2 362.6 1251.2 413.6 1188.8 413.6H1122.8V337.4H1090.4V407.6C1046 391.4 1014.2 349.4 1014.2 299.6V176.6C1014.2 126.8 1046 84.2 1090.4 68C1090.4 68 1090.4 105.8 1090.4 138.2H1122.8V61.4H1188.8ZM1225.4 300.8V176C1225.4 155 1208.6 138.2 1187.6 138.2H1146.2C1127 138.2 1110.8 153.8 1110.8 173V311C1110.8 325.4 1122.8 337.4 1137.8 337.4H1188.8C1209.2 337.4 1225.4 321.2 1225.4 300.8Z" fill="#85E0F4"/>
<path d="M1407 455H1330.2V126.2H1407V455ZM1461 26C1461.6 26 1461.6 26.6 1461.6 26.6L1461 78.2C1461 78.2 1461 78.2 1460.4 78.2H1384.2H1383.6V46.4H1352.4V78.2C1352.4 78.2 1352.4 78.2 1351.8 78.2H1275.6L1276.2 26.6L1352.4 1.39997H1384.2L1461 26Z" fill="#85E0F4"/>
</g>
<defs>
<clipPath id="clip0_37_2173">
<rect width="1440" height="325" fill="white"/>
</clipPath>
</defs>
</svg>
