<svg width="32" height="32" viewBox="0 0 32 32" fill="none" xmlns="http://www.w3.org/2000/svg">
<circle cx="16" cy="16" r="16" fill="#161616"/>
<path d="M20.4431 6.00225C20.4431 6.78703 19.7936 7.43533 19.0074 7.43533H12.3756V4.63742H15.3155C16.1359 4.63742 16.7512 3.98913 16.7512 3.17023V3.06787H20.4431V6.00225ZM17.0931 25.2805C18.6655 25.2805 20.3406 24.7345 21.4687 23.745L23.0412 27.703C23.0412 27.703 19.9987 29.0679 16.888 29.0679C16.7512 29.0679 16.6487 29.0679 16.5803 29.0679C14.1532 28.9996 12.1021 28.2149 10.4955 26.6453C8.82043 25.0416 8 22.892 8 20.2647V9.27785H12.3756V13.6453H14.2216V9.27785H17.1956C20.409 9.27785 23.2805 11.4957 23.8274 14.6348C24.5795 18.7975 21.3661 22.4826 17.3324 22.4826L14.2216 22.4484V18.0469H12.3756V21.1177C12.3756 23.745 14.6318 25.2805 17.0931 25.2805ZM14.4267 14.3618V17.3303C14.4267 17.7398 14.7343 18.0469 15.1446 18.0469H17.3324C18.6314 18.0469 19.6569 16.955 19.5202 15.6584C19.4176 14.4983 18.3579 13.6453 17.1956 13.6453H15.1446C14.7343 13.6453 14.4267 13.9524 14.4267 14.3618Z" fill="#ffffff"/>
</svg>
