<svg width="1052" height="699" viewBox="0 0 1052 699" fill="none" xmlns="http://www.w3.org/2000/svg">
<path d="M341.2 530.1L373.6 645.3C354.7 651.6 329.5 655.2 292.6 655.2C212.5 655.2 154 630.9 118 582.3C92.8 549 80.2 504.9 80.2 437.4V307.8C80.2 276.3 54.1 250.2 21.7 250.2H0.100006V135H80.2V0H196.3V135H341.2V250.2H196.3V448.2C196.3 477 201.7 497.7 213.4 511.2C227.8 527.4 250.3 535.5 281.8 535.5C303.4 535.5 325.9 533.7 341.2 530.1ZM182.8 250.2V135H136V250.2H182.8Z" fill="#CBB9FF"/>
<path d="M565.5 452.5C606.9 452.5 651 437.2 680.7 412L722.1 516.4C722.1 516.4 642 552.4 560.1 552.4C556.5 552.4 553.8 552.4 551.1 552.4C488.1 550.6 434.1 529 391.8 488.5C347.7 446.2 326.1 389.5 326.1 320.2V30.4H441.3V145.6H489.9V30.4H568.2C652.8 30.4 728.4 88.9 742.8 171.7C762.6 281.5 678 378.7 571.8 378.7L489.9 376.9V261.7H441.3V341.8C441.3 412 500.7 452.5 565.5 452.5ZM495.3 164.5V242.8C495.3 253.6 503.4 261.7 514.2 261.7H571.8C606 261.7 633 232.9 629.4 197.8C626.7 167.2 598.8 145.6 568.2 145.6H514.2C503.4 145.6 495.3 153.7 495.3 164.5Z" fill="#CBB9FF"/>
<path d="M1051.2 387.9H936V342.9C936 311.4 910.8 285.3 878.4 285.3H818.1C794.7 285.3 775.8 304.2 775.8 327.6V542.7C775.8 565.2 794.7 584.1 818.1 584.1H878.4C910.8 584.1 936 558.9 936 526.5V485.1H1051.2V526.5C1051.2 621 973.8 698.4 878.4 698.4H793.8V584.1H745.2V663.3C727.2 654.3 711 642.6 695.7 628.2C651.6 585 630 532.8 630 463.5V391.5C630 321.3 651.6 265.5 695.7 223.2C711 208.8 727.2 196.2 745.2 187.2V285.3H793.8V170.1H879.3C974.7 170.1 1051.2 247.5 1051.2 342V387.9Z" fill="#CBB9FF"/>
</svg>
