<svg width="922" height="902" viewBox="0 0 922 902" fill="none" xmlns="http://www.w3.org/2000/svg">
<path d="M751.2 165.1C844.8 165.1 921.3 241.6 921.3 335.2V523.3C921.3 616.9 844.8 693.4 751.2 693.4H652.2V579.1H603.6V684.4C537 660.1 489.3 597.1 489.3 522.4V337.9C489.3 263.2 537 199.3 603.6 175C603.6 175 603.6 231.7 603.6 280.3H652.2V165.1H751.2ZM806.1 524.2V337C806.1 305.5 780.9 280.3 749.4 280.3H687.3C658.5 280.3 634.2 303.7 634.2 332.5V539.5C634.2 561.1 652.2 579.1 674.7 579.1H751.2C781.8 579.1 806.1 554.8 806.1 524.2Z" fill="#99C8FF"/>
<path d="M231.3 219.4C326.7 219.4 405 296.8 405 393.1V562.3C405 657.7 326.7 736 231.3 736H163.8V621.7H115.2V901.6H0V219.4H115.2V334.6H163.8V219.4H231.3ZM290.7 565V391.3C290.7 359.8 265.5 334.6 234 334.6H207.9C187.2 334.6 170.1 351.7 170.1 372.4V583.9C170.1 604.6 187.2 621.7 207.9 621.7H234C265.5 621.7 290.7 596.5 290.7 565Z" fill="#99C8FF"/>
<path d="M533.9 0.199951H602.3V116.3H536.6C504.2 116.3 477.2 126.2 453.8 146C431.3 164.9 417.8 191 415.1 222.5V516.8H299V173.9C299 141.5 273.8 116.3 241.4 116.3V115.4H218.9V0.199951H343.1V115.4H390.8V43.3999C430.4 14.5999 478.1 0.199951 533.9 0.199951Z" fill="#99C8FF"/>
</svg>
