<svg width="1062" height="686" viewBox="0 0 1062 686" fill="none" xmlns="http://www.w3.org/2000/svg">
<path d="M327.6 77.4C327.6 98.1 310.5 115.2 289.8 115.2H115.2V41.4H192.6C214.2 41.4 230.4 24.3 230.4 2.70002V0H327.6V77.4ZM239.4 585.9C280.8 585.9 324.9 571.5 354.6 545.4L396 649.8C396 649.8 315.9 685.8 234 685.8C230.4 685.8 227.7 685.8 225 685.8C162 684 108 663.3 65.7 621.9C21.6 579.6 0 522.9 0 453.6V163.8H115.2V279H163.8V163.8H242.1C326.7 163.8 402.3 222.3 416.7 305.1C436.5 414.9 351.9 512.1 245.7 512.1L163.8 511.2V395.1H115.2V476.1C115.2 545.4 174.6 585.9 239.4 585.9ZM169.2 297.9V376.2C169.2 387 177.3 395.1 188.1 395.1H245.7C279.9 395.1 306.9 366.3 303.3 332.1C300.6 301.5 272.7 279 242.1 279H188.1C177.3 279 169.2 287.1 169.2 297.9Z" fill="#81D996"/>
<path d="M745.1 352.3H629.9V307.3C629.9 275.8 604.7 249.7 572.3 249.7H512C488.6 249.7 469.7 268.6 469.7 292V507.1C469.7 529.6 488.6 548.5 512 548.5H572.3C604.7 548.5 629.9 523.3 629.9 490.9V449.5H745.1V490.9C745.1 585.4 667.7 662.8 572.3 662.8H487.7V548.5H439.1V627.7C421.1 618.7 404.9 607 389.6 592.6C345.5 549.4 323.9 497.2 323.9 427.9V355.9C323.9 285.7 345.5 229.9 389.6 187.6C404.9 173.2 421.1 160.6 439.1 151.6V249.7H487.7V134.5H573.2C668.6 134.5 745.1 211.9 745.1 306.4V352.3Z" fill="#81D996"/>
<path d="M891.1 134.5C984.7 134.5 1061.2 211 1061.2 304.6V492.7C1061.2 586.3 984.7 662.8 891.1 662.8H792.1V548.5H743.5V653.8C676.9 629.5 629.2 566.5 629.2 491.8V307.3C629.2 232.6 676.9 168.7 743.5 144.4C743.5 144.4 743.5 201.1 743.5 249.7H792.1V134.5H891.1ZM946 493.6V306.4C946 274.9 920.8 249.7 889.3 249.7H827.2C798.4 249.7 774.1 273.1 774.1 301.9V508.9C774.1 530.5 792.1 548.5 814.6 548.5H891.1C921.7 548.5 946 524.2 946 493.6Z" fill="#81D996"/>
</svg>
