<svg width="967" height="722" viewBox="0 0 967 722" fill="none" xmlns="http://www.w3.org/2000/svg">
<path d="M478.8 200.9C574.2 200.9 652.5 278.3 652.5 374.6V722H536.4V374.6C536.4 342.2 510.3 316.1 478.8 316.1C446.4 316.1 420.3 342.2 420.3 374.6V722H305.1V374.6C305.1 342.2 279 316.1 247.5 316.1C215.1 316.1 189 342.2 189 374.6V466.4H115.2V722H0V204.5H115.2V340.4H163.8V220.7C188.1 206.3 216.9 199.1 247.5 199.1C291.6 199.1 333 216.2 363.6 245C394.2 217.1 434.7 200.9 478.8 200.9Z" fill="#DAFF96"/>
<path d="M899.8 64C944.8 107.2 966.4 163 966.4 232.3V523H851.2V408.7H802.6V523H723.4C638.8 523 564.1 463.6 548.8 380.8C529.9 271 614.5 177.4 719.8 177.4H802.6V291.7H851.2V206.2C851.2 200.8 850.3 195.4 849.4 190C836.8 136 789.1 100 727 100C686.5 100 644.2 114.4 614.5 138.7V19.9C645.1 9.99995 688.3 0.0999756 732.4 0.0999756C735.1 0.0999756 737.8 0.0999756 740.5 0.0999756C804.4 1.89995 857.5 23.5 899.8 64ZM797.2 389.8V310.6C797.2 299.8 788.2 291.7 778.3 291.7H723.4C692.8 291.7 665.8 314.2 662.2 344.8C659.5 379 686.5 408.7 719.8 408.7H778.3C788.2 408.7 797.2 400.6 797.2 389.8Z" fill="#DAFF96"/>
</svg>
