<svg width="992" height="683" viewBox="0 0 992 683" fill="none" xmlns="http://www.w3.org/2000/svg">
<path d="M231.3 166.4C326.7 166.4 405 243.8 405 339.2V509.3C405 604.7 326.7 683 231.3 683H163.8V566.9H115.2V683H0V0.799988H115.2V279.8H163.8V166.4H231.3ZM290.7 510.2V337.4C290.7 305.9 265.5 279.8 234 279.8H207.9C187.2 279.8 170.1 296.9 170.1 318.5V529.1C170.1 550.7 187.2 566.9 207.9 566.9H234C265.5 566.9 290.7 541.7 290.7 510.2Z" fill="#85E0F4"/>
<path d="M553.2 41.1C646.8 41.1 723.3 117.6 723.3 211.2V399.3C723.3 492.9 646.8 569.4 553.2 569.4H454.2V455.1H405.6V560.4C339 536.1 291.3 473.1 291.3 398.4V213.9C291.3 139.2 339 75.3 405.6 51C405.6 51 405.6 107.7 405.6 156.3H454.2V41.1H553.2ZM608.1 400.2V213C608.1 181.5 582.9 156.3 551.4 156.3H489.3C460.5 156.3 436.2 179.7 436.2 208.5V415.5C436.2 437.1 454.2 455.1 476.7 455.1H553.2C583.8 455.1 608.1 430.8 608.1 400.2Z" fill="#85E0F4"/>
<path d="M909.5 683H794.3V189.8H909.5V683ZM990.5 39.5C991.4 39.5 991.4 40.4 991.4 40.4L990.5 117.8C990.5 117.8 990.5 117.8 989.6 117.8H874.4V70.1H827.6V117.8C827.6 117.8 827.6 117.8 826.7 117.8H712.4L713.3 40.4L827.6 2.59996H875.3L990.5 39.5Z" fill="#85E0F4"/>
</svg>
