<svg width="861" height="713" viewBox="0 0 861 713" fill="none" xmlns="http://www.w3.org/2000/svg">
<path d="M115.2 713H0V30.8H115.2V713Z" fill="#292929"/>
<path d="M504.8 153C549.8 196.2 571.4 252 571.4 321.3V612H456.2V497.7H407.6V612H328.4C243.8 612 169.1 552.6 153.8 469.8C134.9 360 219.5 266.4 324.8 266.4H407.6V380.7H456.2V295.2C456.2 289.8 455.3 284.4 454.4 279C441.8 225 394.1 189 332 189C291.5 189 249.2 203.4 219.5 227.7V108.9C250.1 99 293.3 89.1 337.4 89.1C340.1 89.1 342.8 89.1 345.5 89.1C409.4 90.9 462.5 112.5 504.8 153ZM402.2 478.8V399.6C402.2 388.8 393.2 380.7 383.3 380.7H328.4C297.8 380.7 270.8 403.2 267.2 433.8C264.5 468 291.5 497.7 324.8 497.7H383.3C393.2 497.7 402.2 489.6 402.2 478.8Z" fill="#292929"/>
<path d="M687.3 166.4C782.7 166.4 861 243.8 861 339.2V509.3C861 604.7 782.7 683 687.3 683H619.8V566.9H571.2V683H456V0.799988H571.2V279.8H619.8V166.4H687.3ZM746.7 510.2V337.4C746.7 305.9 721.5 279.8 690 279.8H663.9C643.2 279.8 626.1 296.9 626.1 318.5V529.1C626.1 550.7 643.2 566.9 663.9 566.9H690C721.5 566.9 746.7 541.7 746.7 510.2Z" fill="#292929"/>
</svg>
