<svg width="164" height="38" viewBox="0 0 164 38" fill="none" xmlns="http://www.w3.org/2000/svg">
<path d="M156.63 27.43C158.194 27.43 159.86 26.852 160.982 25.9L162.546 29.844C162.546 29.844 159.52 31.204 156.426 31.204C156.29 31.204 156.188 31.204 156.086 31.204C153.706 31.136 151.666 30.32 150.068 28.79C148.402 27.192 147.586 25.05 147.586 22.432V11.484H151.938V15.836H153.774V11.484H156.732C159.928 11.484 162.784 13.694 163.328 16.822C164.076 20.97 160.88 24.642 156.868 24.642L153.774 24.574V20.222H151.938V23.248C151.938 25.9 154.182 27.43 156.63 27.43ZM153.978 16.55V19.508C153.978 19.916 154.284 20.222 154.692 20.222H156.868C158.16 20.222 159.18 19.134 159.044 17.808C158.942 16.652 157.888 15.836 156.732 15.836H154.692C154.284 15.836 153.978 16.142 153.978 16.55Z" fill="black"/>
<path d="M139.492 11.484H143.844V31H139.492V25.866H137.656V30.354C136.738 30.864 135.65 31.204 134.494 31.204C130.89 31.204 127.966 28.212 127.966 24.574V11.484H132.318V24.574C132.318 25.798 133.304 26.75 134.494 26.75C135.718 26.75 136.704 25.798 136.704 24.574V21.106H139.492V11.484Z" fill="black"/>
<path d="M119.716 11.484H124.102V37.256H119.716V26.682H117.88V31H115.33C111.726 31 108.802 28.042 108.802 24.438V18.046C108.802 14.408 111.726 11.484 115.33 11.484H117.88V15.836H119.716V11.484ZM117.642 25.254V17.264C117.642 16.482 116.996 15.836 116.214 15.836H115.228C114.038 15.836 113.086 16.788 113.086 17.978V24.54C113.086 25.73 114.038 26.682 115.228 26.682H116.214C116.996 26.682 117.642 26.036 117.642 25.254Z" fill="black"/>
<path d="M94.3597 9.648C93.5437 9.648 92.9317 9.002 92.9317 8.22V5.296H96.5697C96.5697 6.078 97.2157 6.724 97.9977 6.724H100.922V9.648H94.3597ZM99.2217 27.43C100.786 27.43 102.452 26.886 103.574 25.9L105.138 29.844C105.138 29.844 102.112 31.204 99.0177 31.204C98.8817 31.204 98.7797 31.204 98.6777 31.204C96.2977 31.136 94.2577 30.354 92.6597 28.79C90.9937 27.192 90.1777 25.05 90.1777 22.432V11.484H94.5297V15.836H96.3657V11.484H99.3237C102.52 11.484 105.376 13.694 105.92 16.822C106.668 20.97 103.472 24.642 99.4597 24.642L96.3657 24.608V20.222H94.5297V23.282C94.5297 25.9 96.7737 27.43 99.2217 27.43ZM96.5697 16.55V19.508C96.5697 19.916 96.8757 20.222 97.2837 20.222H99.4597C100.752 20.222 101.772 19.134 101.636 17.842C101.534 16.686 100.48 15.836 99.3237 15.836H97.2837C96.8757 15.836 96.5697 16.142 96.5697 16.55Z" fill="black"/>
<path d="M86.6407 17.876H86.6747V30.966C86.6747 31 86.6407 31 86.6407 31H82.3227C82.2887 31 82.2887 31 82.2887 30.966V17.876C82.2887 16.618 81.2007 15.598 79.9087 15.7C78.7527 15.802 77.9027 16.856 77.9027 18.012V21.344H75.1487C75.1147 21.344 75.1147 21.378 75.1147 21.378V30.966C75.1147 31 75.1147 31 75.0807 31H70.7627C70.7627 31 70.7627 31 70.7627 30.966V5.228H75.0807C75.1147 5.228 75.1147 5.228 75.1147 5.228V16.584C75.1147 16.584 75.1147 16.618 75.1487 16.618H76.9167L76.9507 16.584V12.13C77.8687 11.586 78.9567 11.246 80.1127 11.246C83.7167 11.246 86.6407 14.272 86.6407 17.876Z" fill="black"/>
<path d="M66.6824 26.546L67.9064 30.898C67.1924 31.136 66.2404 31.272 64.8464 31.272C61.8204 31.272 59.6104 30.354 58.2504 28.518C57.2984 27.26 56.8224 25.594 56.8224 23.044V18.148C56.8224 16.958 55.8364 15.972 54.6124 15.972H53.7964V11.62H56.8224V6.52H61.2084V11.62H66.6824V15.972H61.2084V23.452C61.2084 24.54 61.4124 25.322 61.8544 25.832C62.3984 26.444 63.2484 26.75 64.4384 26.75C65.2544 26.75 66.1044 26.682 66.6824 26.546ZM60.6984 15.972V11.62H58.9304V15.972H60.6984Z" fill="black"/>
<path d="M45.0525 11.246C48.5885 11.246 51.4785 14.136 51.4785 17.672V24.778C51.4785 28.314 48.5885 31.204 45.0525 31.204H41.3125V26.886H39.4765V30.864C36.9605 29.946 35.1585 27.566 35.1585 24.744V17.774C35.1585 14.952 36.9605 12.538 39.4765 11.62C39.4765 11.62 39.4765 13.762 39.4765 15.598H41.3125V11.246H45.0525ZM47.1265 24.812V17.74C47.1265 16.55 46.1745 15.598 44.9845 15.598H42.6385C41.5505 15.598 40.6325 16.482 40.6325 17.57V25.39C40.6325 26.206 41.3125 26.886 42.1625 26.886H45.0525C46.2085 26.886 47.1265 25.968 47.1265 24.812Z" fill="black"/>
<path d="M32.0728 19.474H27.7208V17.774C27.7208 16.584 26.7688 15.598 25.5448 15.598H23.2668C22.3828 15.598 21.6688 16.312 21.6688 17.196V25.322C21.6688 26.172 22.3828 26.886 23.2668 26.886H25.5448C26.7688 26.886 27.7208 25.934 27.7208 24.71V23.146H32.0728V24.71C32.0728 28.28 29.1488 31.204 25.5448 31.204H22.3488V26.886H20.5128V29.878C19.8328 29.538 19.2208 29.096 18.6428 28.552C16.9768 26.92 16.1608 24.948 16.1608 22.33V19.61C16.1608 16.958 16.9768 14.85 18.6428 13.252C19.2208 12.708 19.8328 12.232 20.5128 11.892V15.598H22.3488V11.246H25.5788C29.1828 11.246 32.0728 14.17 32.0728 17.74V19.474Z" fill="black"/>
<path d="M14.184 10.6H5.004V16.448H11.668V20.8H5.004V26.648H14.184V31H4.562V26.648H2.726V31H0.176003V6.214H2.726V10.6H4.562V6.214H14.184V10.6ZM10.682 2.984C10.682 3.766 10.036 4.412 9.254 4.412H2.692V1.59H5.616C6.398 1.59 7.044 0.943997 7.044 0.161997V0.0259972H10.682V2.984Z" fill="black"/>
</svg>
