<?xml version="1.0" encoding="UTF-8"?>
<svg id="Mode_Isolation" data-name="Mode Isolation" xmlns="http://www.w3.org/2000/svg" viewBox="0 0 1916.57 166.2">
  <defs>
    <style>
      .cls-1 {
        fill: #fff;
      }
    </style>
  </defs>
  <path d="M1262.54,94.47c-.91,1.06,6.19,9.02,7.21,10.54s2.15,3.43,2.98,5.02c4.69,8.91,9.68,20.34,15.83,28.17,1.04,1.32,7.28,7.06,6.47,8.24-6.94,3.11-12.85,8.67-19.63,12.12-1.12.57-2.63.57-3.84,1.16-1.46.71-6.44,4.26-7.43,3.68-1.65-3.01-3.97-5.56-5.78-8.48-4.02-6.46-10.79-17.58-12.91-24.61-.23-.77.21-1.72.12-1.85-.03-.04-.74.38-1.01.22-.98-.59-2.71-6.74-3.58-8.38-1.7-3.22-4.6-5.41-6.62-8.38-1.87-2.75-3.37-6.22-4.77-9.24l-29.52,1.78c-.14,3.23.2,6.52,0,9.75-.07,1.13-.3,4.02-.5,4.92-.1.47-1.35.09-1,1.57.06.27,1.62,1.04,1.55,4.02-.16,7.03-1.14,14-1.57,20.98-.33,5.44.97,9.14,1.52,14.27-.22.24-3.98-.86-4.81-.93-6.85-.62-14.12,2.89-21.92,2.44-.98-.06-6.19-.97-6.55-1.48-.49-2.39-.13-4.86-.22-7.27-.19-4.73-.55-10.3-.54-15.01,0-1.99,1.25-4.03,1.49-6.05.35-3.07-.78-5.93-.48-8.47.67-5.63-.5-6.36-.96-11.48-.59-6.45.72-12.49.89-18.5.09-3.11-1.23-7.26-1.42-10.48-.24-3.97.36-8.45-.01-12.49,1.97-.25,1.37-1.26,2.51-2.54-3.48-1.67-1.2-3.67-.98-6.5.31-3.91-.54-8.85-.02-12.52.16-1.11,1.03-1.92,1.04-2.48.01-.89-1.27-1.33-1.5-2.5-.4-2.03.16-5.21-.01-7.49-.29-3.86-1.39-8.69-.95-12.47.54-4.68.96-6.54.94-11.56-.01-2.62,1-4.82-.48-7.72,6.43-.38,12.14-2.02,18.61-.86,3.52.63,6.37,2.11,10.12,2.38,8.51.62,17.15-.9,25.53-1.51,8.56-.62,20.69,5.13,29.63,6.35,1.98.27,3.9-.06,5.8.2,3.84.53,7.4,2.03,11.31,2.19.55.33,5.7,9.94,6.25,11.25,2.1,5.03,2.81,10.14,5.66,15.34,1.6,2.91,7.68,9.82,7.55,12.43-.03.68-1.91,3.37-2.35,4.6-2.86,7.86-5.37,15.96-8.25,23.75-.69,1.87-5.2,10.67-6.39,11.61-1.27,1-5.25,1.89-6.97,2.28ZM1226.04,8.97c-3.04-1.39-5.64-.35-2.51,2.5-.12-2.31,2.82-.59,2.51-2.5ZM1187.54,33.97c-1.4-.09-1.85-2.06-3.18-.96-1.24.16-.58,2.77-.31,2.95,1.23.83,1.8-1.16,2.13-1.37.51-.34,1.52.28,1.36-.62ZM1192.23,34.8c-.32-.72-.13-1.53-.68-2.09-1.2-1.04-1.6,7.56,1.44,3.94.59-1.73-.67-1.65-.76-1.85ZM1198.96,69.04c1.54,1.79-3.17,4.56,6.32,3.92,3.59-.24,7.87-1.43,11.51-1.49,5.48-.1,10.3,1.26,16.16-.34,1.28-.35,10.86-4.37,11.56-4.94,1.37-1.11,6.69-12.35,6.45-13.86l-7.44-12.59c-3.41-1.36-7.61-1.53-10.98-2.52-2.19-.64-5.07-2.77-6.86-3.14-8.48-1.73-18.52,3-27.14,2.38-.06,10.33,2.23,20.64,1,31-1.72.56-3.4-2.37-4,.24l3.43,1.33ZM1198.04,53.46c.58-2.2.74-3.08-1.24-4.49-2.04,1.79-1.05,3.67,1.24,4.49ZM1233.04,77.46c-.92-3.28-2.62-1.27-4.65-.49l-.35,1.5,1.4-.41.83.9,2.77-1.49ZM1218.85,83.78c.26-.34.42-.73.68-1.07-.95-1.01-2.52-1.91-3.49-.48l1.01,3.23c.09.09,1.67-1.5,1.8-1.68ZM1258.01,87.42c.29-.42-.79-2.66-1.68-2.43-1.76,1.23-2.59,2.84-2.78,4.98l4.47-2.54ZM1190.54,103.97c-2.29,1.48-2.69-1.44-3.25-1.49-1.37-.13.11,2.01.09,2.23-.05.41-.94.93-.84,1.49l1.25.76,2.76-2.99ZM1245.05,102.97c-.12,1.2-.32,4.07,1.74,3.49,1.47-.41.14-4.31-1.74-3.49ZM1188.04,122.96c.29-1.34,1.19-2.93-.24-3.99-2.96,1.51-3.18,3.18.24,3.99Z"/>
  <path d="M374.5,4.33c.49,1.41-1.26,1-1.49,1.76-.8,2.7,4.87,1.75,2.99-1.25,7.37,1.59,16.45-.6,23.63.61,1.93.33,7.26,2.34,9.36,3.14,5.83,2.23,10.89,5.86,17.53,5.97,1.76,3.49,3.6,7.06,5.57,10.43s3.76,3.78,4.28,8.22c.22,1.89-1.26,2.31,1.57,3.92.84,4.46,7.54,11.71,7.04,15.9-.16,1.3-1.46,3.56-1.87,5.17-.37,1.46.02,3.35-.61,4.9-.81,2-.59.56-1.22,3.25-1.87,7.96-6.34,13.37-9.38,20.14-.97,2.15-1.22,6.06-3.26,7.24-.75.43-6.17,1.94-6.15,2.36,4.5,6.3,7.3,13.73,12.1,19.91,1.43,1.84,3.61,3.34,4.83,5.17,3.52,5.3,4.82,13.19,7.99,18.51.85,1.42,6.65,7.81,6.56,8.33l-3.32,3.27-2.14-.95-1.35,3.03c-4.31,1.75-9.41,3.01-13.65,4.72-1.82.74-9.58,5.84-10.47,5.21-2.75-7.08-7.38-13.21-10.8-19.96-3.75-7.38-6.04-14.19-10.82-21.18-1.39-2.02-4.34-4.52-5.21-6.81-.67-1.78,2.16-.86,1.05-3.03-.85-1.67-2.3-.14-3.25-.71-1.52-.91-2.44-5.74-3.59-7.45-2.15-3.18-3.12-1.02-6.15-.81-6.27.42-15.15.21-21.54,0-1.27-.04-2.44-.61-3.73-.52-.37,2.98.85,5.86,1.02,8.73.36,6.14-1.1,12.65-.52,18.52.61,6.17,2.44,13.06,2.51,19.53.04,3.39-2.7,7.28-1.52,10.73-2.72.14-5.53-.19-8.24.01-1.99.15-3.96,1.13-5.99,1.02-1.6-.09-3.45-1.14-5.14-1.4-4.36-.68-8.77-1.4-13.12-.63-.18-3.35.25-6.92,0-10.24-.74-9.66-3.48-19.65-3.53-29.51-.03-6.06,1.94-13,2.53-19.01,1.58-16.04,1.44-31,1.54-47l-2.33-22.52c.23-1.39,2.06-.95,2.67-1.35,1.68-1.09-1.2-3.02-1.62-.88-1.15-.75-.43-1.44-.25-2.5l-1.54-.27c.22-7.09,2.23-13.68,1.6-20.91.17-.65.61-.72,1.18-.82,2.35-.43,10.36-.24,13.02-.02,4.08.34,8.67,2.06,12.98,2.02,2.88-.03,5.75-2.24,8.5-2.5,3.82-.36,7.84,1.5,11.75.5ZM374.1,35.72c-.28-.17-.37-1.15-.85-1.39l-.25,2-13-1.5c.33,2,.91,1.74-1,2.75,2.84.98.26,4.9,0,7.5-.86,8.68,1.77,17.13,1.49,25.75,2.75-.42,5.74,1.38,8.33,1.46,2.06.07,9.41.27,10.95.08.95-.12.48-.96,1.44-1.08,2.27-.29,5.17.24,7.55.06,5.57-.43,11.71-3.11,17.11-4.65l4.92-12.12c-1.11-2.11-1.27-5.13-2.19-7.11-.54-1.16-1.95-2.45-2.69-3.81-.67-1.23-2.03-5.22-2.54-5.7-.69-.65-4.54-1.43-5.69-1.57-3.84-.47-9.58-.93-13.44-1.06-1.69-.06-9.71.65-10.15.39ZM413.4,41.22l.85-1.4c.44-1.4-3.39-1.38-3.74-.23-.33,1.84,1.63,2.07,2.89,1.63ZM432.9,46.45c-.44-.24-.94-.09-1.4-.12.39,2.01.4,2.69-.5,4.49,2.99.47,3.95-3.23,1.9-4.38ZM418.38,53.46c-2.1-2.26-1.42,1.38-1.47,1.59-.12.53-2.37,1.01-1.41,3.28,1.57.28,1.18-1.55,1.82-2.05.61-.47,3.21-.51,1.05-2.82ZM421.5,70.33c3.29-.1,1.19-1.09,1.07-1.84-.1-.63,2.42-3.27-2.07-2.16l1,4ZM379.48,78.36l-1.48-.03-.5,5,2.45-.05c1.1-2.56.08-2.94-.47-4.92ZM344.5,83.83l-1.55-3.97-1.95.47,1.35,2.51,2.15.99ZM429.5,87.83c.21-1.44-.94-2.64-2.26-3.03-1.06,0-2.67,2.93-2.24,3.53l4.49-.5ZM333,85.33l-3.53.22-.47,2.28c.56.56,4.3-1.02,3.99-2.49ZM333.5,96.83l-2.77,1.5c-.59,1.02.13,1.99.28,3,.46.35,3.22-3.44,2.49-4.5ZM404.5,109.83c2,.85,3.12-3.44,1.74-3.99-2-.8-1.03,2.98-1.74,3.99ZM338.95,120.28c1.42-2.02-2.93-3.93-2.85-1.11.05,1.66,2.29,1.9,2.85,1.11ZM424,150.83c-.09-1.82-1.17-2.84-3-2.5v2.5s3,0,3,0ZM343.94,150.89c-2.43-.49-3.26,1.2-2.94,3.44,2.01.52,1.56-1.89,3.46-2.06l-.53-1.38ZM334,154.84l-2.5-.51v1.5s-.79-1.02-.79-1.02l-2.2.77,2.73,2.24c1.48-.3,3.05-1.27,2.76-2.99Z"/>
  <path d="M1915.04,4.97c-.5,3.92-1.67,7.8-1.99,11.75-.25,3.09.13,5.3.44,8.03.42,3.64,1.76,7.39.6,11.01.8.38,1.18-.01.95,1.21l-5-.5.24-1.5c-1.2-.21-.5.94-1.04,1-7.58.82-15.71,0-23.47-.02-3.53-.01-7.14.61-10.96,0-.57-.09-.92-.26-1.27-.73l1.49-1.01-.72-1.64-2.77,1.15,1.5,1.74c-3.04-.3-5.9,1.69-8.75,2.01-3.93.43-10.83.44-14.95.45-3.11,0-1.74-1.77-2.56-1.95-4.17,2.5-7.69-2.68-12.19-.46-.22.94-.11,2.19.95,2.46l.5-1c-.73,5.55-1.1,11.12-1.4,16.75-.05.86.54,1.78.4,2.96-.15,1.23-1.65,2.47-.76,3.79.28.42,1.23.54,1.51,1,.48.8-.03,2.05.75,2.75.65.58,8.88,1.74,10.24,1.77,8.25.14,17.06-1.01,25.53-.55,3.51.19,8.92,2.15,11.44.48l21.29-1.45v1.5c-2.79-.83-2.92,2.01,0,.5-.09,3.08.13,6.19.03,9.27-.15,4.57-1.03,9.97-1.07,14.48-.01,1.31,1.45,6.08.28,6.24-2.31-.28-5.75-1.1-7.96-1.01-4.56.19-13.6,2.78-18.04,2.57-1.77-.08-2.42-1.11-3.65-1.29-11.52-1.74-21.45,2.05-32.82.73-1.78-.21-3.47-.87-5.26-.99-.04,2.24.06,4.5,0,6.74-.2,7.13-1.06,14.22-1.52,21.48-.06,1.02-1.61,2.95-.21,4.78,4.4-1.18,8.61-.71,12.98-1.02,3.87-.27,7.6-1.15,11.53-1.02,6.04.2,12.38,2.35,18.45,2.54,6.96.22,13.77-1.44,20.5-1.5,5.76-.05,11.57-.43,17.16,1.08.96,2.9,1.32,6.05,1.04,9.09-.15,1.64-.97,3.39-.97,5.06,0,1.81,1.08,3.91,1.05,5.52-.02,1.25-.91,1.97-.95,2.95-.04,1.04,1.01,6.22.44,6.78-3.42-.49-6.78-.59-10.24-.5-8.08.21-15.57,2.99-23.53,2.52-9-.53-19.54-2.59-28.47-2.02-1.92.12-4.02.9-5.99,1.01-9.14.5-18.44.08-27.5,0-1.68-.01-9.46.34-10.06-.51l.29-1.5c-1.17-.3-1.44,1.22-2.31,1.38-.96.18-3.78-.89-5.2-.38.03-2.8-.48-5.45-.52-8.28-.11-7.25.04-13.74.54-20.96.45-6.47-.9-13.01-.54-19.54.11-2,1.06-4.1,1.06-5.99,0-3.99-1.23-8.24-1.06-12.52.34-8.32,2.08-15.62,1.54-24.5-.31-5.05-2.55-12.15-1.98-16.94.8-6.66.14-7.88-.06-14.02-.1-3.07.81-5.86.51-9.02-.66-7.07-1.32-12.17-.5-19.51.13-1.21.4-2.55,1.76-2.74,2.68.45,5.49-.46,7.98-.52,5.57-.13,7.08-.12,12.57-.93,6.57-.97,10.26.93,15.95.99,2.35.03,4.63-1.09,7-1.08,1.95,0,3.41.86,5.05.99,6.01.46,11.32-.73,16.94-.44,3.21.16,6.81,1.32,9.99,1.51,5.03.31,10.32-1.04,15.51-.51,2.68.27,5.35,1.77,8.09,1.8,1.95.02,11.72-2.22,12.17-1.8ZM1853.55,18.97l-1-2.5c-1.56,3.56.86,4.34,4.01,4.27l.48-2.77-3.49,1ZM1811.54,17.97l-3.46,1.3.96,4.19c1.09-.15-.18-1.89.44-2.69.39-.5,2.34-.22,2.05-2.8ZM1868.55,19.46h-2.75c-.9,1.74,1.14,2.82,2.75,2.5v-2.5ZM1812.54,41.46l-.98-2.26c-2.59-1.61-2.84,4.02.98,2.26ZM1823.05,56.96c2.06-.1,6.31-.21,2.48-2.28-.9.59-2.63.85-2.48,2.28ZM1821.54,109.46l-.5-3.5-3.48,2.01.26.99,3.72.5ZM1810.89,128.61c-.53-.64-2.32-1.35-2.84-2.4-1.64-.71-1.12,4.41,1.86,5.16,1.87.47,1.98-1.56.98-2.76ZM1828.04,134.47h-4s.03,1.48.03,1.48c2.06.72,3.67,2.14,3.97-1.48ZM1903.04,150.47c-1.36-.52-4.64,3.12-2.74,3.49.67.13,3.37-2.8,2.74-3.49ZM1867.48,152.9l.06-1.94c-1.44,1.09-2.34.84-3.99.5v2.5s3.93-1.06,3.93-1.06Z"/>
  <path d="M1337.15,144.35c-.31-.55.06-1.64-.13-1.85-.21-.23-2.77-.11-3.48-.29-1.3-.32-6.75-1.93-7.5-2.5-.34-.26-3.67-6.04-4.09-6.91-3.98-8.28-5.21-17.09-8.17-25.33-1.07-2.98-3.47-6.07-4.5-9-1.71-4.88-2.77-11.26-4.2-16.33.67-2.85,2.28-5.43,3.21-8.18.37-1.07.15-2.91.7-3.68.71-.99,3.5.11,1.04-3.6,2.07-7.65,7.57-15.84,9.75-23.23.94-3.19,2.91-16.8,4.51-18.49,1.21-1.29,3.82-.78,5.37-1.13,4.11-.94,5.49-2.85,8.87-4.63,5.51-2.9,11.23-5.4,16.76-8.24l.49,1.99c1-.84.46-2.06,1.55-2.95,1.4-1.14,6.81-2.49,9.21-3.79s4.62-3.57,6.88-4.62c9.82-4.61,14.44,1.89,22.98,5.25,4.81,1.9,11.94,2.95,16.11,5.89,1.22.86,2.06,2.26,3.37,3.13,5.55,3.69,14.84,4.93,21.14,7.36,1.02.76,3.19,7.6,3.41,9.09.25,1.72-.26,3.16-.05,4.56,1.49,10.21,5.9,18.21,10.08,27.42,2.16,4.75,7.16,12.95,7.11,17.92,0,.59-3.44,10.43-3.91,11.12-.72,1.04-2.53,1.14-2.52,1.86,0,.24.94.77.85,1.42-.04.27-1.79,3.53-2.18,4.84-3.09,10.35-4.71,20.76-9.16,30.84-.44,1-3.75,7.62-4.06,7.94-.83.85-3.37,1.5-4.68,2.32-5.38,3.38-11.89,7.92-17.86,10.14-3.02,1.12-6.55,1.24-9.63,2.37-3.39,1.25-6.44,4.25-9.75,5.25-2.26.68-11.58,2.05-13.91,2.1-3.26.08-9.01-2.9-12.18-3.74-3.68-.97-10.45-1.24-13.52-2.48-2.68-1.08-8.22-4.53-10.76-6.24-1.05-.7-6.8-5.04-7.14-5.63ZM1374.49,7.92c.56-.87-1.36-1.91-2.15-1.92l-3.3,3.46c2.53-.3,4.08-.3,6.5.5l-1.99-1c-.48-1.35.84-.88.94-1.04ZM1410.96,45.55c-7.33-2.85-14.68-5.86-21.58-9.67-2.03-1.12-5.89-4.82-8.08-4.86-2.75-.05-10.62,5.56-13.92,7.04-2.15.96-5.14,2.58-7.34,1.92l.49.96-9.22,5.05c-1.3,7.02-5.81,14.12-7.04,20.96-.78,4.33-.05,8.37-1.48,13.02-.41,1.35-1.74,2.3-1.78,3.73-.07,2.36,2.33,4.73,3.06,7.03.32,1,.1,3.01.25,3.26,3.22,5.23,1.91,5.52,2.77,11.18.62,4.04,2.92,8.45,4.58,12.17,8.5,3.33,19.34,11.96,28.18,13.48,2.89.49,8.88-1.93,11.84-2.95,3.74-1.3,4.01-1.95,6.98-3.53,2.22-1.18,4.52-1.47,6.53-2.45.53-.26,5.15-3.4,5.35-3.65,1.45-1.78,3.21-12.62,4.47-16.03,1.96-5.28,6.06-13.22,6.02-19-.03-4.22-4.38-12.81-5.59-17.45-.7-2.66-.88-6.21-1.55-8.9-.9-3.58-3.36-7.1-2.95-11.3ZM1431,41.91c-.12-1.83,2.83-2.86.8-4.44l-3.24,3.74c.6.9,1.45.89,2.44.7ZM1337,44.01l-3.22.45c-1.59,2.48.6,4.21,3.23,3.48l-.02-3.93ZM1436.05,53.46c1.2.16,3.45-.7,2.99-2.24l-2.47-.73-.53,2.97ZM1332.54,65.96c-1.9-.17-2.39.62-3.89,1.07l-.1,1.93,3.93-1.06.07-1.94ZM1448.24,74.67c.81-.71,1.74-1.17,1.81-2.45l-3.5-1.26.5,4.5c1.25.36.84-.49,1.19-.79ZM1432.53,78.45l-.71-2.55-.6-.34-1.67.4,1.5,2.78,1.49-.29ZM1423.54,93.96c.85-.48,5.76.49,5.5-1.24-.21-1.38-1.84.09-2.24.08-.72-.02-1.72-1.33-2.95-.37l-.3,1.53ZM1433.04,92.47c-3.74-.02-3,4.75.29,2l-.29-2ZM1434.66,114.08c-.22.22-.5,1.58-.36,1.91,2.19,3.03,6.28-1.47,3.25-2.8-.2-.09-2.78.79-2.89.89ZM1406.5,125.01c-.49-.35-2.35.06-2.46.72l1.02,2.23c1.65.32,2.41-2.26,1.44-2.95ZM1369.04,143.47l-1.48.37-2.52,4.62c.59.43,1.21,0,1.66-.61.53-.72,3.02-3.72,2.33-4.38ZM1399.54,144.47l-2.27,1.01.29,2.49,1.46-.02.53-3.48Z"/>
  <path d="M92.51,9.84l-.51.99c4.44-.66,8.9,1.21,13.26,2,1.68,3.87,2.09,8.04,3.5,12,2.02,5.64,6.06,10.1,8.49,15.51.54,1.2,3.59,9.12,3.67,9.88.06.57.13.99-.4,1.38l-29.28,10.21c-.92-1.37-1.17-2.93-1.98-4.48-.92-1.75-2.16-3.13-3-5-1.55-3.45-3.36-14.62-5.27-16.23-1.8-1.51-12.7-2.9-15.6-3.4-1.34-.23-2.89-1.27-4.13-1.28-3.3-.04-8.09,2.66-11.07,2.94-.68.06-1.08-1.79-2.69-1.01l.99,1.49-3.01,1.24c-1.38,3.05-6.51,7.2-7.27,10.24-.12.47.69,5.53.9,6.15s3.68,4.13,4.37,4.63c4.2,3.1,11.46,2.89,16.52,4.48,2.09.66,3.98,2.05,5.96,2.54,2.59.64,6.75.64,9.19,2.21.33.21,1.81,4.44,2.58.51,2.14,1.29,4.74,1.2,7.03,1.97,9.05,3.02,16.9,8.43,25.06,12.94,4.39,2.43,4.41.62,7.09,5.91,2.54,5.02,3.51,10.84,7.08,15.44l-1,.98c2.4,1.96,5.31,8.47,4.9,11.37-.14.99-1.32,3.69-1.82,4.72-2.92,6.04-8.66,11.97-11.36,17.64-1.67,3.5-3.61,13.2-6.48,15.52-1.02.83-6.12,1.04-7.97,1.53-3.24.86-6.96,3.15-10.26,3.74-4.99.9-9.48-.41-14.8,1.2-2.51.76-6.03,3.13-8.5,3.49-2.79.41-5.09-.85-7.53-.91-1.7-.04-3.24.68-5.4.4-5.27-.69-18.68-8.56-24.53-10.97-3.24-1.33-7.22-1.96-10.7-2.05l-1.05-2.71c1.48-.37.98-1.38.99-2.73l-1.98.5c-.66-3.24-3.98-5.86-5.3-8.47-1.81-3.55-2.8-8.84-4.35-12.65-2.09-5.17-4.95-10.12-6.87-15.37,4.11-1.33,9.58-2.25,13.49-3.76,4.22-1.63,6.18-3.41,11.4-5.1,1.81-.59,3.39-1.38,5.1-2.14.16,1.29,1,2.44,1.03,3.77.02.64-.71,3.05-.53,3.23.1.1,1.02-.28,1.54.31s4.47,7.51,4.89,8.51c1.18,2.76,2.61,11.4,4.08,12.92.57.59,4.62,2.66,5.58,2.92,1.63.45,3.57.2,5.02.87.46.21.51,1.1,1.34,1.26.92.17,1.77-.37,2.72-.26,3,.35,7.6,1.83,10.33,1.22,3.04-.68,7.4-3.64,10.37-4.14,2.2-.37,4.46.23,6.63-.37l6.48-12.03c-1.26-4.96-.2-7.53-4.25-11.21-4.87-4.43-6.17-3.4-11.77-4.73s-12.33-4.59-18.08-6.42c-3.21-1.02-6.6-1.64-9.88-2.37l.5-1.99c-1.31-.36-1.15,1.33-1.85,1.51-.78.2-3.91.09-4.78-.13-2.89-.73-2.59-3.74-4.02-4.73-.79-.54-2.36-.45-3.34-.91-3.31-1.57-9.43-3.56-11.86-5.14-2.06-1.34-2.76-3.41-4.69-4.81-1.18-.86-4.64-1.96-5.2-2.8-.28-.42-2.3-6.55-2.13-6.87.1-.19,1.24.07.87-1.36-.05-.19-.9-.17-1-.59-.33-1.42-.1-2.96-.65-4.77-.88-2.91-3.5-5.73-3.74-9.07,1.16-2.24,3.13-3.91,4.23-6.21,2.2-4.57,2.91-10.48,4.9-15.1,1.3-3,4.31-8.58,5.98-11.52,3.12-5.45,4.66-3.68,9.89-5.61C42.46,5.6,55.04-.14,70.2,2.38c2.72.45,7.14,1.46,9.82,2.18,4.43,1.19,7.82,4.65,12.49,5.27ZM81.47,14.86c-.66-.44-2.25,1.14-1.97,1.97l3.24,1.01.52-1.01-1.79-1.97ZM37.01,34.83c-.02-3.51-2.73-3.43-3.51-.26.83,1.25,2.27-.1,3.51.26ZM98.94,37.89l-2.2-1.04c-1.28.53-.17,1.9-.24,1.98-.46.48-3.82-.37-3.5,1.25.13.68,1.53.93,2.19.77.33-.08.24-.87.63-.97.99-.26,3.8.52,3.12-1.98ZM34.23,68.61c-.32-.42-.93-1.8-1.48-.79-1.2,2.2-.03,3.53,2.25,3.51.36-1.87-.07-1.81-.77-2.72ZM90,77.83c.14-1.62.15-3.38-1.99-3l-.51,3h2.5ZM21,106.33c-.22.81.4,5.49,1.25,5.49.75-.62,2.47-3.39,2.24-4.21l-3.49-1.28ZM117,114.83l-2.01-4-1.99,1.01c-.69.94,3.38,3.59,3.99,2.99Z"/>
  <path d="M286,4.34c-.67,4.94-1.63,9.76-1.52,14.76.02,1.18.49,2.28.54,3.46.22,5.22-.07,10.13,1.47,15.27-6.98-3.15-5.99,4.77,0,3,.49.57-1.39,8.17-1.51,9.73-.4,5.22.87,10.39,1.04,15.49.13,3.83-1,7.87-1.06,11.53-.07,4.65.66,10.14.05,15.01-.21,1.69-1.22,2.65-1.53,4.24l-2.48-.5-.04,2.23,1.49.3c.15.55.05,1.11,0,1.67-.21,1.95-1.45,8.68-1.97,10.46-.14.47-1.82.31-.47,2.6l-1.51.26c-.47,2.02,1.89.36,2,.5-.2,10.3-5.19,19.53-7.26,29.49-3.54,1.22-6.89,3.34-10.24,4.76-6.85,2.89-14.71,4.6-21.33,7.67-4.4,2.04-11.92,8.65-16.42,8.63-2.11-.01-3.23-1.49-5.24-1.55l4-1.5c-2.09-4.09-4.93.77-7.87.18-3.55-.71-10.08-5.97-13.79-7.77-9.47-4.58-19.8-4.9-28.83-10.17-2.72-7.45-4.08-15.35-5.34-23.16-2.18-10.65-8.62-22.05-8.19-32.8.23-5.86,2.11-10.84,1.54-17.55-.18-2.12-1.3-4.36-1.4-6.11s.55-3.74.37-5.87c-.35-4.23-1.74-9.98-1.52-14.02.13-2.41,1.73-4.49,1.88-6.05.16-1.72-.53-4.73-.37-6.96.18-2.43.99-5.02,1.05-7.46.1-4.72-1.09-9.9-.52-14.77l1.5-.75-1.5.25-.5-4c5.66.54,12.06.86,17.77.52,2.26-.14,4.05-1.09,6.49-1.05,1.73.03,4.11,1.1,4.96,1.05.29-.02.24-.92.62-1.01.92-.22,2.17.11,3.17,0-.7,4.55.74,8.93,1.02,13.23.37,5.75-.92,12.01-.54,18.04s.83,11.02.51,17.48c-.26,5.25-1.85,10.43-.5,15.76-4.52-.92.14,2.12.41,2.84.78,2.06,1.28,11.89,1.11,14.43-.14,2.22-1.16,4.84-1.05,6.96.11,2,1.6,4.78,1.97,7.07,1.13,6.89,1.78,10.07,3.69,16.81.38,1.32.69,4.99,1.34,5.66,8.08,1.56,14.32,7.24,22.35,9.11,1.76.06,8.07-4.27,10.18-5.14,3.45-1.43,8.07-1.53,11.22-4.25,1.03-3.96,2.18-7.88,3.14-11.86.36-1.46.15-3.18.55-4.95.65-2.85,2.52-5.52,2.95-8.55.89-6.43-.48-11.05-.41-16.88s.66-13.56,1.01-19.52c.06-.98.82-1.61.84-1.98.1-1.28-1.67-1.35-1.85-2.48-.36-2.2.86-5.6.98-8.07.45-8.99-.62-18.39-.92-27.42-.16-4.92-.84-9.81-.5-14.75l15.22-2.52c6.69,1.54,13.15-1.81,19.75,1ZM171.42,15.88c-3.8.02-1.59,7.21.96,1.71l-.96-1.71ZM276.5,17.33c-1.04-.04-2.3-.08-3.2.54-3.23,2.24,3.41,4,3.2-.54ZM259.5,26.83l-3.01.24-.49,1.76,3.2-.45.3-1.54ZM258.68,40.03c.5-.46,1.47-.61,1.31-1.44l-2.99-.75.5,3c1.27.36.83-.49,1.18-.8ZM178.5,66.33c1.18.13,4.1.29,3.49-1.74-.49-1.64-4.24-.21-3.49,1.74ZM258,84.83l-3.41,1.08-.09,1.91c2,.39,3.33-1.09,3.5-2.99ZM269,92.83c-2.11.38-3.05-1.54-4.76-2.3-1,1.11-3.04-.38-3.74,1.06s4.25.81,4.49.96c1,.64.96,2.67,4,1.78v-1.49ZM190,105.33c-.19-1.43,1.36-3.31-.49-4,.28,1.3-1.25.86-1.42,1.05-.68.73.04,3.69,1.91,2.95ZM266.51,111.32l2.43-.78c-.4-1.02-.18-3.29-1.25-3.66l-1.69-.05.5,4.49ZM261.88,113.47c-4.25-.71-.83,3.21,2.12,2.36l-2.12-2.36ZM183.97,121.8c.09-.08.56-2.2.33-2.49l-3.8-1.48c-.63,1.54,2.03,5.21,3.46,3.96ZM216,135.33l3.24.49.76-3.73-1.01-.52-3,3.76ZM252.21,134.13c-.24-.14-.25-.83-.44-.8-3.36,1.42-.97,5.35,2.24,4-.11-2.43-.21-2.29-1.8-3.2Z"/>
  <path d="M1584.54,2.97l-.5,5.49,2.55-.31c.11-.81.96-1.69.98-2.43,0-.12-1.71-.49-1.02-1.76,5.36.09,10.93,3.09,16.21,2.46,2.59-.31,8.71-3.48,9.8.04l2.99-1c-.82,5.14-.56,10.52-1,15.74-.13,1.55-.98,3.08-1.01,4.52-.08,3.15,2.22,7.58,2.54,10.96.69,7.32-1.64,15.78-1.04,23.54.21,2.73,1.55,5.92,1.53,8.46-.03,4.45-1.13,9.64-1.41,14.02-.53,8.01-.21,12.43-1.98,20.62-1.7,7.89-3.1,15.88-4.6,23.8l-1.56.6c.87,3.04-.78,4.22-1.56,6.38-1.37,3.78-2.92,7.47-3.71,11.4-3.28.73-6.32,3.01-9.19,4.2-6.98,2.88-15.06,4.56-21.98,7.52-4.52,1.93-11.25,6.09-16.26,6.16-6.19.09-12.81-3.89-18.65-5.78-2.55-.83-5.3-1.11-7.99-2.01-6-1.99-10.65-4.81-15.54-8.72l.93-3.91-2.5-.5.49,2.5-.9-.37-.37.9c-1.51-.87-5.66-1.8-6.39-3.16-1.86-3.46-.94-6.86-1.57-10.39-.84-4.68-3.98-8.86-5.13-12.87-1.82-6.34-.98-13.56-2.91-19.59-2.6-8.13-1.93-7.04-2.37-15.37-.04-.8-.85-1.21-.85-2.32,0-1.54,1.07-3.6,1.02-5.57-.04-1.75-.91-3.32-1.03-5.01-.19-2.61.15-5.31-.04-7.94,1.57-.6,2.75-1.18,3.04-3.05l-3,1.25,1.04-11.75c-1.71-11.72.49-23.79-.03-35.52-.09-1.95-1.41-7.58-.96-8.91.3-.9,4.46-1.26,5.67-1.34,5.99-.41,11.6.96,17.5,1.04,4.51.06,8.35-1.08,12.78-1.02l-1.52,14.23c.36,16.61-.32,33.03-.96,49.54-.34,8.85-2.57,18.95.12,27.34,1.1,3.43,2.86,7.31,4.23,10.27,1.05,2.27.77,5.4,1.35,7.65.41,1.59,2.3,7.3,3.05,8.45.62.95,4.47,3.13,5.7,3.8,2.91,1.57,9.93,5.26,12.75,6.25,4.2,1.47,8.31-3.58,11.92-5.13,4.22-1.81,9.49-2.88,13.84-4.43-1.62-3.35.59-5.87.97-8.76.29-2.19-.1-4.53.17-6.83.94-7.93,5.77-15.69,5.89-24.15.06-4-.28-6.51-.02-10.98.37-6.32-1.36-12.7-1.02-19.52.42-8.23.73-9.65-.42-18.03-1.07-7.75.41-14.41.97-21.93.13-1.76-.61-7.37-.46-7.94.17-.63.81-.95,1.44-.82ZM1518.04,13.46l-1.35-1.94-3.15.95c.5,2.73,2.71,1.72,4.5.99ZM1496.54,36.47c-1.08-.26-.95.42-1.33.92-1.45,1.9-2.04,2.2-.66,4.57,2.64-1.08,2.95-2.9,1.99-5.5ZM1495.11,77.39l1.89-.73c.66-2.14-1.63-3.08-2.96-1.43l1.07,2.16ZM1496.92,80.59c-.61-.6-2.03-.64-2.87-.62l2.01,3.49c1.77.2,1.78-1.96.87-2.87ZM1609.04,104.46l-.83-1.43-4.16-.07c-.5,1.04,2.15,1.72,2.5,1.76.94.13,1.6-.22,2.5-.27ZM1510.17,111.34c1.38,1.26,2.4-.28,3.6-.32,1.09-.04,2.91,1.41,3.28-.8-.33-1.41-6.16-.79-7.49-1.76l.62,2.87ZM1522.3,128.47c-1.9.38.35,5.9,2.73,2.25l-2.73-2.25ZM1569.78,144.09c-2.35,1.35-1.89,2.9.95,2.83,1.73-1.07.5-2.5-.95-2.83ZM1582.04,148.97c-1.36.14-2.67.84-3.89,1.38-.71.31-1.37-.33-1.1,1.12,1.81.27,4.61-.29,5-2.49ZM1524.55,152.46c.83.14,4.27-.38,3.99-1.74-.33-1.64-4.86-.68-3.99,1.74Z"/>
  <path d="M1046.36,36.2l1.77-.07c5.78,12.14,9.08,25.29,15.22,37.32-3.35.94-2.56,3.53.5,1.25l.5,3-.99-.51v1.5s1.49-.5,1.49-.5c2.21,4.2,1.86,9.78,3.39,13.86s4.93,11.87,6.84,15.66c1.23,2.45,3.52,4.39,4.71,6.79,1.85,3.72,2.9,8.74,5.01,12.54l-.95,1.65,1.49-.5c.49,5.08,4.11,9.73,5.6,14.16,1.36,4.02,1.57,8.71,2.41,12.84-4.1,1.65-8.77,1.61-12.91,2.85-3.29.98-6.21,3.88-9.32,5.18-2.8,1.16-6.8,1.99-9.77,2.98-.3-2.89-2.05-5.19-2.76-8-1.32-5.24-1.97-10.29-4.01-15.49s-5.21-9.33-6.99-14.51c-.36-.56-.93-.46-1.48-.52-9.41-1.17-21.42.8-31,1.05-6.14.16-12.21-.27-18.3-.79-4.56,6.66-5.72,15-8.73,22.26-2.12,5.12-5.81,9.59-7.26,15-.95.69-7.21-3.22-8.48-3.74-5.09-2.06-10.62-3.44-15.78-5.22-2.22-.77-4.14-2.41-6.72-2.03,3.19-8.29,7.74-16.04,10.89-24.36,3.28-8.66,5.43-18.53,9.68-26.82,1.49-2.92,2.75-.53,3.43-2.08.51-1.15-1.87-.61-1.97-1.48l1.48-4.26c1.34.81,2.09.45,2.99-.75-.52-.87-2.87,1.22-2.47-.46s1.74-3.49,2.35-5.16c.68-1.89,1.02-3.99,1.73-5.77,1.98-4.96,6.23-8.9,8.27-13.73,1.75-4.14,1.75-8.59,3.24-12.76,1.08-3.03,3.24-6.03,4.47-9.03,3.12-7.63,4.08-16.67,6.65-23.83.79-2.2,4.21-11.57,5.24-12.79,1.14-1.35,2.1-.18,3.52-.23l-2-2.49c4.14,1.03,8.62-1.46,12.27-1.52s8.75,1.01,12.48,1.06c1.82.02,3.49-.73,5.28-.8,1.28.74,7.07,20.33,8.09,23.4.83,2.51,2.37,2.9.89,5.86ZM1002.99,23.34c-.26.22-1.17,2.26-1.1,2.56s4.44,4.72,4.43,1.13c0-.39-.59-3.66-.7-3.85-.43-.72-2.21-.18-2.63.16ZM1021.85,57.2c-1.13-.21-.79.06-1.11.63-1.46,2.66-1.65,6.55-2.64,9.35-2.51,7.06-6.04,14.17-8.99,21.01-1.1,2.56-1.66,5.43-2.75,8,3.38.84,6.52-.19,9.74.01,4.48.28,9.9,2.02,14.56,1.94,1.91-.03,4.24-.81,6.2-.95-1.24-4.14-2.62-8.26-3.91-12.38-1.6-5.12-3.08-11.46-5.34-16.61-1.51-3.44-4.86-7.04-5.76-11ZM979.35,91.2c-2.57.28-1.87,2.21-1.49,4l2.03-.84-.54-3.16ZM1055.35,106.69c1.58.44,4.18,1.74,5-.74l-3.18-1.64-1.19.52-.63,1.86ZM986.99,114.32c-.34.78-.34,2.55.67,2.85.87,0,2.87-.43,3.16-1.28s-1.31-5.69-2.97-4.68c1.26,2.17-.68,2.71-.86,3.12ZM962.85,139.2l.25-6.49c-2.21,1.79-4,5.54-.25,6.49ZM1078.86,152.7v-1.5s-1.52.8-1.52.8c.81,3.02,2.32,2.66,4.01.45l-1.49-.75.25,1h-1.25Z"/>
  <path d="M535.68,65.7c4.11.05,8.92-.8,12.92-.77,10.28.08,20.73,2.76,31.27,2.86,5.61.06,11.92-.97,17.52-.85,6.57.15,13.24,1.35,19.82,1.73,2.7.16,3.71-.93,6.57-1.42,8.48-1.46,18.13.34,26.55,1.38l-8.16-6.51c-7.98-3.1-16.01-6.95-22.71-12.54-.88-.73-1.65-1.55-2.4-2.4l11.51-22.11.63,1.43c1.65-.24,2.4.11,2.96-1.81l-1.78-.93,3.24-3.34c1.17.19,4.35,3.92,5.92,4.77,4.86,2.64,10.18,4.5,14.99,7.88,1.93,1.35,3.63,3.83,5.78,5.23,3.61,2.36,8.22,3.98,11.94,6.27,4.1,2.52,7.76,6.29,11.7,8.94,1.86,1.25,5.68,2.36,6.78,4.11.26.41-.32,1.02.05,1.18.7.31,1.5-.27,2.25.03,1.61.64,4.77,3.63,6.59,4.61,2.54,1.36,5.2,1.92,7.81,3.48,3.38,2.02,6.64,5.28,10.24,7.17.61.65-.06,5.12.04,6.65.14,2.2,1,4.64.97,6.73-.04,2.95-1.54,5.48-1.04,8.49l-.27.46c-2.65,1.2-7.31,2.09-9.68,3.41-2.82,1.57-5.97,4.93-9.01,6.74-12.03,7.14-24.7,12.44-36.61,20.33-3.52,2.33-7.03,5.77-10.48,7.95-3.96,2.5-9.54,3.38-13.39,6.34l-2.18-1.02-.69,1.33,1.65,1.13-7.07,4.38c-3.4-4.39-4.91-10-7.73-14.56-1.64-2.64-3.78-4.5-5.45-6.82-1.41-1.95-2.15-4.72-4.23-6.28l3.38-1.6-.03,1.13,2.46.12c1.04-.81-.77-1.98-.51-2.22l13.68-6.12,2.31.37-.18-1.7,4.65-3.57.74,1.45,2.02-.29-1.97-1.59,9.6-5.41c-.41-.93-17.94-1.78-20.14-1.06-3.75.11-7.14.11-10.86-.34-.65-.08-1.08-.83-1.54-.85-.89-.03-2.74,1.89-4.3-.69l-.95,1.71c-3.29-1.79-6.14-.52-9.24-.54-10.15-.05-20.21-2.04-30.28-2.06l.48-1.43-2.21-1.16.17,2.9c-3.72-.6-7.48.46-11.15.48-5.05.02-10.44-.88-15.72-.53-1.52.1-8.02,1.43-8.54,1.21-.69-.29-.48-.69-.62-1.18-.37-1.32-.34-7.42-.28-9.18.15-4.7.58-10.8,1.02-15.5.11-1.14.49-5.54,1.23-6.01ZM601.74,71.98c-2.14-1.55-3.85,1.58-4.97,3.03l3.56-.52,1.42-2.51ZM621.19,73.76l-1.18,2.14,4.35.3c.67-2.04-1.84-2-3.17-2.44ZM630.55,74.08c.54-1.09-.22-2.76-.15-3.49.09-.97,1.49-1.16.71-2.42-2,.4-1.64,2.91-2.98,4.07l2.43,1.84ZM682.35,66.79c-2.48,1.93,1.81,3.93,2.27,3.17l.29-1.75-2.57-1.42ZM716.97,81.15c-1.16-4.71-6.09-.41-.26,1.93.4-.57.42-1.29.26-1.93Z"/>
  <path d="M1726.54,56.46c-.87.02-.15-1.64-1.75-1s-.87,3.97,1.24,2.49c-.58,4.18-.69,8.53-.52,12.77.12,2.84,1.08,6.74,1.06,9.48-.02,3.02-1.31,6.66-1.54,9.5-.27,3.48.19,7.23,0,10.74l-1.5-.24c-.2,1.31,1.44,1.55,1.54,2.47.47,4.26-.48,7.72-.48,11.47-.01,6.53,1.94,12.83,1.44,19.55-.11,1.42-.83,2.74-.94,4.06-.46,5.56-.47,11.19-1.55,16.7l.99-.51.51,5c-10.8,2.87-21.86-2.86-32.5,1-1.31-5.31,1.1-9.96,1.02-15.27-.07-4.6-1.42-9.55-1.02-14.22l1.22,1.02,2.27-1.27c-2.12-2.79-3.88,1.42-4.03-3.49-.11-3.51,2.11-9.37,2-11.52-.05-.91-1.4-3.18-1.47-5.02s1.1-3.07,1.01-3.21c-.03-.04-.7.11-1.01-.34-.43-.63-1.14-13.32-.95-14.88s1.36-3.5,1.43-5.11c.29-6.28.96-15.34.52-21.42-.42-5.86-2.57-12.59-2.54-18.51.01-1.73,1.77-9.96,1.04-10.75-3.52.92-7.16.27-10.74.51-2.17.14-4.1,1.02-6.51,1.02-4.56,0-10.22-1.8-14.98-2.05s-9.82.76-14.77.52c.3-2.74-.39-6.15-.04-8.79.12-.91.88-.64,1.01-1.05.65-2.16-1.85-1.73-2-2.88.14-1.97,1.91-18.19,2.83-18.31l6.9,1.01.56,1.53,1.02-1.54c3.72,1.2,6.61-1.49,9.51-1.93,5.93-.92,14.92,1.67,20.99,1.49,4.96-.15,10.6-2.44,15.46-2.55,8.13-.18,15.93,3.32,23.01,3.56,2.78.09,6.19-.95,8.98-1.05,13.05-.48,26.22.4,39.27.02.06,6.29.86,12.59,2,18.75l-1.98,11.52-3.81.77-.98-1.07c-3.57.85-9.11,1.15-13,1.05-1.38-.04-4.7-.26-4.98-1.53l-.24,1h-1.5s0-1.5,0-1.5h-1.5s0,2,0,2l-16.5.99-.24-1.99-3.65,2.24c.01.23.39.39.39.5v18.25ZM1686.54,9.97c1.19.45,4.8-.79,4.5-2.24l-4.01-1.05-.48,3.29ZM1761.03,14.46c.4-1.23.75-1.92-.48-2.77l-2.5.78c-.7.92,2.11,2.36,2.98,1.98ZM1744.05,16.47c-.26,1.29,1.06,2.86,2.26,3,3.41.4.36-3.89-2.26-3ZM1673.04,17.97l-2.76,1.47.27,4.52c2.12.43,3.16-5.5,2.49-5.99ZM1765.04,22.97c-2.55-.41-3.21.26-4.49,2.25,2.31,2.23,2.04-.52,2.62-1.12.44-.45,1.74-.06,1.87-1.13ZM1678.28,33.73c-.91-.93-.99-1.6-2.73-1.26v2.5s2-.5,2-.5l.05,1.44,1.95.06c-.29-1.08-.52-1.47-1.26-2.23ZM1689.04,32.47c-.26-.27-2.99.94-3.58,1.18-.52.21-1.82.1-1.41,1.06.78,1.83,3.05-1.5,4.65-.75l.34-1.49ZM1701.55,40.46c1.85.67,4.14-3.15,2.24-3.99l-2.24,3.99ZM1707.14,59.53l.66,1.43,1.22-.81-.23-4.19-1.7,1.31.98,1.93-.92.32ZM1702.54,125.96l-.24-4c-2.17,1.88-3.57,3.24.24,4ZM1716.54,129.47c-3.28-2.64-8.55,3.11-2.98,3.3l2.98-3.3ZM1713.54,149.47c-1.39-.29-.97.52-1,1.5-1.63-1.22-3.24.69-4.68.52-.33-.04-.29-.87-.96-1.15-2.29-.92-.93,3.89,1.38,3.66,1.42-.14,1.11-2.79,4.43-2.05.52.12-.02,1.48,1.32,1.01l-.5-3.5Z"/>
  <path d="M932.85,162.2c-1.89-.15-4.93.4-6.61-.51-1-.54-1.73-3.35-2.14-3.49-1.48-.52,0,2.46-1.57,2.96-1.86.03-3.61-.78-5.44-.95-2.3-.21-6.86-.65-8.98-.51-8.32.54-11.46,4.07-21.95,2.94-14.05-1.51-26.76-2.11-41.06-.93-3.58.29-7.46,1.58-11.01,1.53-4.1-.06-8.99-2-13.23-2.05-.5-.51,1.89-9.43,1.88-11.24-.02-3.43-2.29-6.83-2.42-10.49-.31-8.76,1.02-17.77.56-26.55-.13-2.51-1.16-10.1.22-11.7.63-.73,4.72-1.66.7-2.78-.31-10-.32-19.99-.45-30-.05-4.37-.85-9.49-.53-13.96.23-3.25,1.53-7.32,1.56-10.52.04-5.93-2.63-12.34-1.99-18.45.23-2.24,1.31-4.6,1.46-7.03.25-4.01-1.01-8.17-.51-12.27.36-.38,8.57,1.92,10.23,2.02,3.06.18,9.26-.27,12.51-.52s6.42-.75,9.51-1.51c2.25.17.77,3.29.72,4.74-.23,7.44.65,15.74.01,23.01-.38,4.41-2.05,9.33-1.99,14.01.07,5.75,2.84,12.27,2.95,17.06.23,9.72.48,19.63.07,29.42-.1,2.45-1.57,5.26-1.56,8.03,0,3.49.95,7.94,1.07,11.48.18,5.6-.17,11.22-.3,16.8.92,1.31,5.99-.01,7.51-.05,10.04-.29,20.58,1.65,30.52,1.02,3.46-.22,7.64-1.54,11-1.54,2.3,0,4.83,1.09,7,1.09,5.7,0,11.79-.59,17.48-.56,1.47,0,6.05-.57,6.06,1.05.04,7.78-3.43,15.34-2.73,23.17.1,1.16,1.71,7.05,1.44,7.31ZM822.99,47.84c-.97,1.18-.52,4.21,1.11,3.86,1.44-.31-.2-3.2,1.25-3.75-.45-.96-1.79-.8-2.36-.11ZM837.7,73.35c.33.23.5.98.88,1.35,1.5,1.49,1.31-1.95-.23-2.75-.54-.28-2.97-1.01-3.49,0,.63,1.07,2.09.88,2.84,1.4ZM883.35,133.2c-2.85-.31-1.72,5.5-.74,5.49,1.96-1.37,1.3-3.52.74-5.49ZM858.86,145.7c.26,1.26-1.12,2.62.25,3.5l3.74-3.24-3.99-.26Z"/>
  <path class="cls-1" d="M379.48,78.36c.55,1.98,1.57,2.35.47,4.92l-2.45.05.5-5,1.48.03Z"/>
  <path class="cls-1" d="M429.5,87.83l-4.49.5c-.43-.59,1.18-3.52,2.24-3.53,1.31.38,2.46,1.59,2.26,3.03Z"/>
  <path class="cls-1" d="M418.38,53.46c2.16,2.31-.44,2.36-1.05,2.82-.65.49-.25,2.33-1.82,2.05-.96-2.27,1.29-2.75,1.41-3.28.05-.21-.64-3.85,1.47-1.59Z"/>
  <path class="cls-1" d="M432.9,46.45c2.05,1.15,1.09,4.85-1.9,4.38.9-1.81.89-2.48.5-4.49.46.03.96-.13,1.4.12Z"/>
  <path class="cls-1" d="M421.5,70.33l-1-4c4.49-1.11,1.97,1.53,2.07,2.16.12.76,2.22,1.74-1.07,1.84Z"/>
  <path class="cls-1" d="M333.5,96.83c.73,1.06-2.04,4.84-2.49,4.5-.15-1.01-.87-1.98-.28-3l2.77-1.5Z"/>
  <path class="cls-1" d="M413.4,41.22c-1.27.43-3.22.2-2.89-1.63.35-1.14,4.18-1.16,3.74.23l-.85,1.4Z"/>
  <path class="cls-1" d="M333,85.33c.3,1.48-3.44,3.06-3.99,2.49l.47-2.28,3.53-.22Z"/>
  <path class="cls-1" d="M338.95,120.28c-.55.79-2.8.55-2.85-1.11-.08-2.82,4.26-.91,2.85,1.11Z"/>
  <path class="cls-1" d="M404.5,109.83c.71-1.01-.26-4.79,1.74-3.99,1.38.55.25,4.84-1.74,3.99Z"/>
  <polygon class="cls-1" points="344.5 83.83 342.35 82.84 341 80.34 342.95 79.86 344.5 83.83"/>
  <path class="cls-1" d="M21,106.33l3.49,1.28c.22.82-1.49,3.58-2.24,4.21-.85,0-1.47-4.68-1.25-5.49Z"/>
  <path class="cls-1" d="M98.94,37.89c.68,2.5-2.13,1.72-3.12,1.98-.39.1-.3.89-.63.97-.66.16-2.06-.09-2.19-.77-.32-1.62,3.04-.77,3.5-1.25.08-.08-1.04-1.45.24-1.98l2.2,1.04Z"/>
  <path class="cls-1" d="M117,114.83c-.61.61-4.69-2.05-3.99-2.99l1.99-1.01,2.01,4Z"/>
  <path class="cls-1" d="M37.01,34.83c-1.24-.36-2.67,1-3.51-.26.78-3.17,3.49-3.25,3.51.26Z"/>
  <path class="cls-1" d="M34.23,68.61c.7.91,1.13.85.77,2.72-2.29.03-3.45-1.3-2.25-3.51.55-1.01,1.16.37,1.48.79Z"/>
  <path class="cls-1" d="M90,77.83h-2.5s.51-3,.51-3c2.15-.38,2.14,1.38,1.99,3Z"/>
  <path class="cls-1" d="M81.47,14.86l1.79,1.97-.52,1.01-3.24-1.01c-.28-.83,1.31-2.41,1.97-1.97Z"/>
  <path class="cls-1" d="M269,92.83v1.49c-3.05.89-3.01-1.14-4.01-1.78-.24-.16-5.21.52-4.49-.96s2.73.05,3.74-1.06c1.71.76,2.65,2.68,4.76,2.3Z"/>
  <path class="cls-1" d="M266.51,111.32l-.5-4.49,1.69.05c1.07.37.84,2.63,1.25,3.66l-2.43.78Z"/>
  <path class="cls-1" d="M183.97,121.8c-1.44,1.24-4.09-2.42-3.46-3.96l3.8,1.48c.23.28-.24,2.41-.33,2.49Z"/>
  <path class="cls-1" d="M276.5,17.33c.21,4.54-6.43,2.78-3.2.54.9-.62,2.16-.59,3.2-.54Z"/>
  <path class="cls-1" d="M171.42,15.88l.96,1.71c-2.54,5.5-4.76-1.69-.96-1.71Z"/>
  <path class="cls-1" d="M178.5,66.33c-.75-1.95,3-3.38,3.49-1.74.61,2.03-2.31,1.87-3.49,1.74Z"/>
  <path class="cls-1" d="M258,84.83c-.17,1.9-1.49,3.38-3.5,2.99l.09-1.91,3.41-1.08Z"/>
  <path class="cls-1" d="M190,105.33c-1.87.74-2.59-2.22-1.91-2.95.17-.18,1.7.25,1.42-1.05,1.84.69.29,2.56.49,4Z"/>
  <path class="cls-1" d="M258.68,40.03c-.34.31.09,1.16-1.18.8l-.5-3,2.99.75c.15.83-.81.98-1.31,1.44Z"/>
  <path class="cls-1" d="M261.88,113.47l2.12,2.36c-2.95.86-6.37-3.06-2.12-2.36Z"/>
  <polygon class="cls-1" points="259.5 26.83 259.21 28.38 256 28.83 256.49 27.07 259.5 26.83"/>
  <path class="cls-1" d="M1002.99,23.34c.42-.35,2.2-.88,2.63-.16.11.18.7,3.45.7,3.85,0,3.59-4.36-.81-4.43-1.13s.83-2.35,1.1-2.56Z"/>
  <path class="cls-1" d="M1171.79,114.32c.18-.4,2.12-.94.86-3.12,1.66-1.01,3.24,3.85,2.97,4.68s-2.29,1.27-3.16,1.28c-1.01-.29-1.01-2.07-.67-2.85Z"/>
  <path class="cls-1" d="M1240.15,106.69l.63-1.86,1.19-.52,3.18,1.64c-.82,2.47-3.42,1.18-5,.74Z"/>
  <path class="cls-1" d="M979.35,91.2l.54,3.16-2.03.84c-.38-1.78-1.07-3.72,1.49-4Z"/>
  <path class="cls-1" d="M586.38,53.2l-2.88-.09-2.11-2.91c1.81.32,5.37.39,4.99,3Z"/>
  <path class="cls-1" d="M597.89,79.7l.5-3.01c1.65.65,3.7-.83,4.99.76-.75,1.28-1.57.13-2.47.5-.68.28-1.8,1.73-3.02,1.75Z"/>
  <path class="cls-1" d="M593.83,71.26c.23,1.39,1.43,3.59-.69,3.94l-1.75-4,2.44.05Z"/>
  <path class="cls-1" d="M1678.28,33.73c.75.77.98,1.16,1.26,2.23l-1.95-.06-.05-1.44-1.99.5v-2.5c1.75-.33,1.82.33,2.73,1.26Z"/>
  <path class="cls-1" d="M822.99,47.84c.56-.68,1.91-.85,2.36.11-1.45.54.19,3.44-1.25,3.75-1.63.35-2.08-2.68-1.11-3.86Z"/>
  <path class="cls-1" d="M837.7,73.35c-.75-.52-2.21-.33-2.84-1.4.51-1,2.94-.28,3.49,0,1.54.8,1.74,4.24.23,2.75-.38-.38-.55-1.13-.88-1.35Z"/>
</svg>
