<svg width="310" height="61" viewBox="0 0 310 61" fill="none" xmlns="http://www.w3.org/2000/svg">
<path d="M24.2398 6.11979C24.2398 7.59179 23.0238 8.80779 21.5518 8.80779H9.13585V3.55979H14.6398C16.1758 3.55979 17.3278 2.34379 17.3278 0.807793V0.615791H24.2398V6.11979ZM17.9678 42.2798C20.9118 42.2798 24.0478 41.2558 26.1598 39.3998L29.1038 46.8238C29.1038 46.8238 23.4078 49.3838 17.5838 49.3838C17.3278 49.3838 17.1358 49.3838 17.0078 49.3838C12.4638 49.2558 8.62385 47.7838 5.61585 44.8398C2.47985 41.8318 0.943848 37.7998 0.943848 32.8718V12.2638H9.13585V20.4558H12.5918V12.2638H18.1598C24.1758 12.2638 29.5518 16.4238 30.5758 22.3118C31.9838 30.1198 25.9678 37.0318 18.4158 37.0318L12.5918 36.9678V28.7118H9.13585V34.4718C9.13585 39.3998 13.3598 42.2798 17.9678 42.2798ZM12.9758 21.7998V27.3678C12.9758 28.1358 13.5518 28.7118 14.3198 28.7118H18.4158C20.8478 28.7118 22.7678 26.6638 22.5118 24.2318C22.3198 22.0558 20.3358 20.4558 18.1598 20.4558H14.3198C13.5518 20.4558 12.9758 21.0318 12.9758 21.7998Z" fill="black"/>
<path d="M65.1323 27.3038H56.9403V24.1038C56.9403 21.8638 55.1483 20.0078 52.8443 20.0078H48.5563C46.8923 20.0078 45.5483 21.3518 45.5483 23.0158V38.3118C45.5483 39.9118 46.8923 41.2558 48.5563 41.2558H52.8443C55.1483 41.2558 56.9403 39.4638 56.9403 37.1598V34.2158H65.1323V37.1598C65.1323 43.8798 59.6283 49.3838 52.8443 49.3838H46.8283V41.2558H43.3723V46.8878C42.0923 46.2478 40.9403 45.4158 39.8523 44.3918C36.7163 41.3198 35.1803 37.6078 35.1803 32.6798V27.5598C35.1803 22.5678 36.7163 18.5998 39.8523 15.5918C40.9403 14.5678 42.0923 13.6718 43.3723 13.0318V20.0078H46.8283V11.8158H52.9083C59.6923 11.8158 65.1323 17.3198 65.1323 24.0398V27.3038Z" fill="black"/>
<path d="M89.1898 11.8158C95.8458 11.8158 101.286 17.2558 101.286 23.9118V37.2878C101.286 43.9438 95.8458 49.3838 89.1898 49.3838H82.1498V41.2558H78.6938V48.7438C73.9578 47.0158 70.5658 42.5358 70.5658 37.2238V24.1038C70.5658 18.7918 73.9578 14.2478 78.6938 12.5198C78.6938 12.5198 78.6938 16.5518 78.6938 20.0078H82.1498V11.8158H89.1898ZM93.0938 37.3518V24.0398C93.0938 21.7998 91.3018 20.0078 89.0618 20.0078H84.6458C82.5978 20.0078 80.8699 21.6718 80.8699 23.7198V38.4398C80.8699 39.9758 82.1498 41.2558 83.7498 41.2558H89.1898C91.3659 41.2558 93.0938 39.5278 93.0938 37.3518Z" fill="black"/>
<path d="M129.467 40.6158L131.771 48.8078C130.427 49.2558 128.635 49.5118 126.011 49.5118C120.315 49.5118 116.155 47.7838 113.595 44.3278C111.803 41.9598 110.907 38.8238 110.907 34.0238V24.8078C110.907 22.5678 109.051 20.7118 106.747 20.7118H105.211V12.5198H110.907V2.91979H119.163V12.5198H129.467V20.7118H119.163V34.7918C119.163 36.8398 119.547 38.3118 120.379 39.2718C121.403 40.4238 123.003 40.9998 125.243 40.9998C126.779 40.9998 128.379 40.8718 129.467 40.6158ZM118.203 20.7118V12.5198H114.875V20.7118H118.203Z" fill="black"/>
<path d="M166.597 24.2958H166.661V48.9358C166.661 48.9998 166.597 48.9998 166.597 48.9998H158.469C158.405 48.9998 158.405 48.9998 158.405 48.9358V24.2958C158.405 21.9278 156.357 20.0078 153.925 20.1998C151.749 20.3918 150.149 22.3758 150.149 24.5518V30.8238H144.965C144.901 30.8238 144.901 30.8878 144.901 30.8878V48.9358C144.901 48.9998 144.901 48.9998 144.837 48.9998H136.709C136.709 48.9998 136.709 48.9998 136.709 48.9358V0.487793H144.837C144.901 0.487793 144.901 0.487793 144.901 0.487793V21.8638C144.901 21.8638 144.901 21.9278 144.965 21.9278H148.293L148.357 21.8638V13.4798C150.085 12.4558 152.133 11.8158 154.309 11.8158C161.093 11.8158 166.597 17.5118 166.597 24.2958Z" fill="black"/>
<path d="M180.753 8.80779C179.217 8.80779 178.065 7.59179 178.065 6.11979V0.615791H184.913C184.913 2.08779 186.129 3.30379 187.601 3.30379H193.105V8.80779H180.753ZM189.905 42.2798C192.849 42.2798 195.985 41.2558 198.097 39.3998L201.041 46.8238C201.041 46.8238 195.345 49.3838 189.521 49.3838C189.265 49.3838 189.073 49.3838 188.945 49.3838C184.401 49.2558 180.561 47.7838 177.553 44.8398C174.417 41.8318 172.881 37.7998 172.881 32.8718V12.2638H181.073V20.4558H184.529V12.2638H190.097C196.113 12.2638 201.489 16.4238 202.513 22.3118C203.921 30.1198 197.905 37.0318 190.353 37.0318L184.529 36.9678V28.7118H181.073V34.4718C181.073 39.3998 185.297 42.2798 189.905 42.2798ZM184.913 21.7998V27.3678C184.913 28.1358 185.489 28.7118 186.257 28.7118H190.353C192.785 28.7118 194.705 26.6638 194.449 24.2318C194.257 22.0558 192.273 20.4558 190.097 20.4558H186.257C185.489 20.4558 184.913 21.0318 184.913 21.7998Z" fill="black"/>
<path d="M227.982 12.2638H236.238V60.7758H227.982V40.8718H224.526V48.9998H219.726C212.942 48.9998 207.438 43.4318 207.438 36.6478V24.6158C207.438 17.7678 212.942 12.2638 219.726 12.2638H224.526V20.4558H227.982V12.2638ZM224.078 38.1838V23.1438C224.078 21.6718 222.862 20.4558 221.39 20.4558H219.534C217.294 20.4558 215.502 22.2478 215.502 24.4878V36.8398C215.502 39.0798 217.294 40.8718 219.534 40.8718H221.39C222.862 40.8718 224.078 39.6558 224.078 38.1838Z" fill="black"/>
<path d="M264.707 12.2638H272.899V48.9998H264.707V39.3358H261.251V47.7838C259.523 48.7438 257.475 49.3838 255.299 49.3838C248.515 49.3838 243.011 43.7518 243.011 36.9038V12.2638H251.203V36.9038C251.203 39.2078 253.059 40.9998 255.299 40.9998C257.603 40.9998 259.459 39.2078 259.459 36.9038V30.3758H264.707V12.2638Z" fill="black"/>
<path d="M296.53 42.2798C299.474 42.2798 302.61 41.1918 304.722 39.3998L307.666 46.8238C307.666 46.8238 301.97 49.3838 296.146 49.3838C295.89 49.3838 295.698 49.3838 295.57 49.3838C291.026 49.2558 287.186 47.7198 284.178 44.8398C281.042 41.8318 279.506 37.7998 279.506 32.8718V12.2638H287.698V20.4558H291.154V12.2638H296.722C302.738 12.2638 308.114 16.4238 309.138 22.3118C310.546 30.1198 304.53 37.0318 296.978 37.0318L291.154 36.9038V28.7118H287.698V34.4078C287.698 39.3998 291.922 42.2798 296.53 42.2798ZM291.538 21.7998V27.3678C291.538 28.1358 292.114 28.7118 292.882 28.7118H296.978C299.41 28.7118 301.33 26.6638 301.074 24.1678C300.882 21.9918 298.898 20.4558 296.722 20.4558H292.882C292.114 20.4558 291.538 21.0318 291.538 21.7998Z" fill="black"/>
</svg>
