<svg width="164" height="38" viewBox="0 0 164 38" fill="none" xmlns="http://www.w3.org/2000/svg">
<path d="M156.63 27.404C158.194 27.404 159.86 26.826 160.982 25.874L162.546 29.818C162.546 29.818 159.52 31.178 156.426 31.178C156.29 31.178 156.188 31.178 156.086 31.178C153.706 31.11 151.666 30.294 150.068 28.764C148.402 27.166 147.586 25.024 147.586 22.406V11.458H151.938V15.81H153.774V11.458H156.732C159.928 11.458 162.784 13.668 163.328 16.796C164.076 20.944 160.88 24.616 156.868 24.616L153.774 24.548V20.196H151.938V23.222C151.938 25.874 154.182 27.404 156.63 27.404ZM153.978 16.524V19.482C153.978 19.89 154.284 20.196 154.692 20.196H156.868C158.16 20.196 159.18 19.108 159.044 17.782C158.942 16.626 157.888 15.81 156.732 15.81H154.692C154.284 15.81 153.978 16.116 153.978 16.524Z" fill="white"/>
<path d="M139.492 11.458H143.844V30.974H139.492V25.84H137.656V30.328C136.738 30.838 135.65 31.178 134.494 31.178C130.89 31.178 127.966 28.186 127.966 24.548V11.458H132.318V24.548C132.318 25.772 133.304 26.724 134.494 26.724C135.718 26.724 136.704 25.772 136.704 24.548V21.08H139.492V11.458Z" fill="white"/>
<path d="M119.716 11.458H124.102V37.23H119.716V26.656H117.88V30.974H115.33C111.726 30.974 108.802 28.016 108.802 24.412V18.02C108.802 14.382 111.726 11.458 115.33 11.458H117.88V15.81H119.716V11.458ZM117.642 25.228V17.238C117.642 16.456 116.996 15.81 116.214 15.81H115.228C114.038 15.81 113.086 16.762 113.086 17.952V24.514C113.086 25.704 114.038 26.656 115.228 26.656H116.214C116.996 26.656 117.642 26.01 117.642 25.228Z" fill="white"/>
<path d="M94.3597 9.622C93.5437 9.622 92.9317 8.976 92.9317 8.194V5.27H96.5697C96.5697 6.052 97.2157 6.698 97.9977 6.698H100.922V9.622H94.3597ZM99.2217 27.404C100.786 27.404 102.452 26.86 103.574 25.874L105.138 29.818C105.138 29.818 102.112 31.178 99.0177 31.178C98.8817 31.178 98.7797 31.178 98.6777 31.178C96.2977 31.11 94.2577 30.328 92.6597 28.764C90.9937 27.166 90.1777 25.024 90.1777 22.406V11.458H94.5297V15.81H96.3657V11.458H99.3237C102.52 11.458 105.376 13.668 105.92 16.796C106.668 20.944 103.472 24.616 99.4597 24.616L96.3657 24.582V20.196H94.5297V23.256C94.5297 25.874 96.7737 27.404 99.2217 27.404ZM96.5697 16.524V19.482C96.5697 19.89 96.8757 20.196 97.2837 20.196H99.4597C100.752 20.196 101.772 19.108 101.636 17.816C101.534 16.66 100.48 15.81 99.3237 15.81H97.2837C96.8757 15.81 96.5697 16.116 96.5697 16.524Z" fill="white"/>
<path d="M86.6407 17.85H86.6747V30.94C86.6747 30.974 86.6407 30.974 86.6407 30.974H82.3227C82.2887 30.974 82.2887 30.974 82.2887 30.94V17.85C82.2887 16.592 81.2007 15.572 79.9087 15.674C78.7527 15.776 77.9027 16.83 77.9027 17.986V21.318H75.1487C75.1147 21.318 75.1147 21.352 75.1147 21.352V30.94C75.1147 30.974 75.1147 30.974 75.0807 30.974H70.7627C70.7627 30.974 70.7627 30.974 70.7627 30.94V5.202H75.0807C75.1147 5.202 75.1147 5.202 75.1147 5.202V16.558C75.1147 16.558 75.1147 16.592 75.1487 16.592H76.9167L76.9507 16.558V12.104C77.8687 11.56 78.9567 11.22 80.1127 11.22C83.7167 11.22 86.6407 14.246 86.6407 17.85Z" fill="white"/>
<path d="M66.6824 26.52L67.9064 30.872C67.1924 31.11 66.2404 31.246 64.8464 31.246C61.8204 31.246 59.6104 30.328 58.2504 28.492C57.2984 27.234 56.8224 25.568 56.8224 23.018V18.122C56.8224 16.932 55.8364 15.946 54.6124 15.946H53.7964V11.594H56.8224V6.494H61.2084V11.594H66.6824V15.946H61.2084V23.426C61.2084 24.514 61.4124 25.296 61.8544 25.806C62.3984 26.418 63.2484 26.724 64.4384 26.724C65.2544 26.724 66.1044 26.656 66.6824 26.52ZM60.6984 15.946V11.594H58.9304V15.946H60.6984Z" fill="white"/>
<path d="M45.0525 11.22C48.5885 11.22 51.4785 14.11 51.4785 17.646V24.752C51.4785 28.288 48.5885 31.178 45.0525 31.178H41.3125V26.86H39.4765V30.838C36.9605 29.92 35.1585 27.54 35.1585 24.718V17.748C35.1585 14.926 36.9605 12.512 39.4765 11.594C39.4765 11.594 39.4765 13.736 39.4765 15.572H41.3125V11.22H45.0525ZM47.1265 24.786V17.714C47.1265 16.524 46.1745 15.572 44.9845 15.572H42.6385C41.5505 15.572 40.6325 16.456 40.6325 17.544V25.364C40.6325 26.18 41.3125 26.86 42.1625 26.86H45.0525C46.2085 26.86 47.1265 25.942 47.1265 24.786Z" fill="white"/>
<path d="M32.0728 19.448H27.7208V17.748C27.7208 16.558 26.7688 15.572 25.5448 15.572H23.2668C22.3828 15.572 21.6688 16.286 21.6688 17.17V25.296C21.6688 26.146 22.3828 26.86 23.2668 26.86H25.5448C26.7688 26.86 27.7208 25.908 27.7208 24.684V23.12H32.0728V24.684C32.0728 28.254 29.1488 31.178 25.5448 31.178H22.3488V26.86H20.5128V29.852C19.8328 29.512 19.2208 29.07 18.6428 28.526C16.9768 26.894 16.1608 24.922 16.1608 22.304V19.584C16.1608 16.932 16.9768 14.824 18.6428 13.226C19.2208 12.682 19.8328 12.206 20.5128 11.866V15.572H22.3488V11.22H25.5788C29.1828 11.22 32.0728 14.144 32.0728 17.714V19.448Z" fill="white"/>
<path d="M14.184 10.574H5.004V16.422H11.668V20.774H5.004V26.622H14.184V30.974H4.562V26.622H2.726V30.974H0.176003V6.188H2.726V10.574H4.562V6.188H14.184V10.574ZM10.682 2.958C10.682 3.74 10.036 4.386 9.254 4.386H2.692V1.564H5.616C6.398 1.564 7.044 0.918 7.044 0.136V0H10.682V2.958Z" fill="white"/>
</svg>
