<svg width="149" height="176" viewBox="0 0 149 176" fill="none" xmlns="http://www.w3.org/2000/svg">
<path d="M0 175.646H149V0H0V175.646Z" fill="#00489A"/>
<path d="M3.31348 172.332H145.686V3.31104H3.31348V172.332Z" fill="white"/>
<path d="M45.237 98.6969C51.5555 108.24 62.3969 114.542 74.7018 114.542C94.2052 114.542 110.013 98.7275 110.013 79.2268C110.013 77.3249 109.863 75.4592 109.574 73.6409C107.93 63.3015 101.8 54.4576 93.2399 49.1667C87.851 45.8362 81.5014 43.9149 74.7018 43.9149C68.7014 43.9149 63.0456 45.4102 58.0991 48.0501C53.9333 50.275 50.2689 53.3075 47.309 56.9386C43.1805 62.0094 40.4318 68.2443 39.6293 75.075C39.471 76.4394 39.3872 77.8206 39.3872 79.2268C39.3872 86.4223 41.5399 93.1166 45.237 98.6969Z" fill="#8F9ACE"/>
<path d="M93.1607 50.2245L87.6306 51.4024L91.4441 53.5967L92.7307 52.0985L94.2937 51.0988L93.1607 50.2245ZM93.2414 49.1747C101.801 54.4654 107.932 63.3095 109.575 73.6515L109.572 73.6432L106.813 76.0046L105.051 75.5897L104.225 76.3136L104.284 76.8038C104.312 77.0265 104.413 77.486 104.582 78.171C104.936 79.5772 105.115 80.9807 105.115 82.3479C105.115 83.6205 105.065 84.0354 104.781 85.2662L103.277 85.2746L99.0493 81.8468L95.8271 82.5735L93.7505 82.2199L91.1135 83.0275L92.3055 84.0549L94.3744 83.4701L96.1624 84.9014L95.8799 85.528L95.1427 86.7171L93.5549 88.9893L91.1072 90.9636L86.5829 86.2687L85.4127 86.3941L90.2396 91.9243L92.1968 91.5316L92.6842 92.5313L90.713 95.7531L86.8809 99.4122L85.1566 103.781C85.1178 103.893 84.9377 104.032 84.6614 104.166C84.1074 104.43 83.4586 104.906 82.7369 105.583C81.8134 106.449 81.295 106.928 81.1832 107.025C80.4212 107.694 79.507 108.393 78.4407 109.108C77.3822 109.824 76.3236 110.45 75.2744 110.985C73.4197 111.929 71.3368 112.453 69.451 112.453C68.2156 112.453 66.9599 112.244 65.74 111.829C65.5724 111.773 65.4637 111.69 65.4637 111.614L66.3003 109.25C66.336 109.139 67.0453 108.337 68.3801 106.88C68.9839 106.221 69.4743 105.329 69.8158 104.263C70.3233 102.693 70.6803 101.726 70.8914 101.386C71.6565 100.15 72.0213 99.0948 71.7652 98.8357L66.7597 93.8011L64.6598 89.8971L64.8817 88.9726C65.0385 88.3294 65.5475 87.1988 66.5223 85.3359C67.0484 84.325 67.483 83.7931 67.9641 83.5564L71.3151 81.9051L77.8168 82.8854L79.7972 84.2081L80.73 84.0939L84.7003 85.127L85.6951 82.5401L80.6462 81.1199L78.8613 79.3433L78.613 79.4102L79.448 81.5208L78.4407 81.7214L78.332 81.4735L78.6828 81.4096C78.6999 81.4318 78.3817 80.1119 77.5964 79.7415C77.3154 79.6135 77.1323 79.4881 76.8452 79.4881C76.4602 79.4881 75.8285 79.7248 75.5026 80.0284C74.4006 81.0447 73.5361 81.7409 73.4554 81.6796L71.3849 80.1119L72.1532 78.1794L72.4698 78.2573C72.6576 78.3018 72.8579 78.3242 73.0581 78.3242C73.7099 78.3242 74.1104 77.9455 74.1911 77.5723C74.292 77.1073 73.9707 76.8789 73.9707 76.8789C73.9831 76.8679 73.7736 76.6589 73.7736 76.6589C73.7736 76.6839 74.0716 76.322 74.0576 76.322C74.0499 76.322 74.8461 76.5253 75.2993 76.5503C75.8285 76.581 76.3469 76.4612 76.558 76.2273L77.0593 75.4337L77.9052 75.1998L78.0542 74.0803L78.5711 74.1166C78.5711 74.1166 78.8644 74.5175 78.9839 75.0578L80.4429 74.6791L80.8744 73.1809L80.64 72.9164L81.281 71.4823L80.7269 71.0898L79.7879 73.7379L79.2726 73.8047L79.0445 73.2144L77.7283 73.3147L76.9895 72.1312L78.5913 70.4826L80.1495 68.3913L82.3504 69.082L82.8874 70.1708L83.5579 70.154L83.3142 68.5668L85.1147 66.8765L83.9149 61.4465L84.6832 59.7423L85.5555 59.7925L85.6719 58.453L79.9307 52.1626L80.1139 50.464L84.8679 49.3808L85.5492 49.5839L88.253 49.3223L88.88 49.6035L93.2414 49.1691V49.1747ZM45.2339 98.6965L47.6753 96.6749L49.6806 97.1789L55.0415 93.1439L55.3007 90.9915L51.7744 85.8538C51.7185 85.7787 51.4903 82.5679 50.8089 80.162C50.4489 78.9062 49.6278 75.2528 49.5952 75.1775L49.1296 74.2475L45.7802 69.2156L47.9547 63.7773L49.6899 63.702L49.7923 62.9028L48.5088 61.828L48.47 61.5969L48.4281 60.5777C48.4281 59.8843 49.603 59.1882 50.3852 59.1882C50.5948 59.1882 50.8136 59.2188 51.0433 59.2829C51.5912 59.4333 52.1096 59.8843 52.5737 60.2241C52.6606 60.2854 54.1196 63.691 54.1196 63.691L52.881 64.6851L52.2741 66.1776L53.12 66.8403L54.298 64.8048L59.1855 66.445L62.1811 68.152L63.089 67.1577L65.6034 67.3666L67.4411 64.8633L65.7788 64.2311L67.5218 62.1316L67.3154 61.427L64.6567 60.9118L66.6945 58.776L68.6269 60.0375L68.5881 60.6028L69.839 60.7588L70.8945 58.7538L70.1557 58.105L73.2692 55.1115L76.0846 53.7971L78.2762 52.3603L78.6999 52.0261L78.7884 50.4834L78.4159 49.3918L77.4458 49.0187L78.689 48.0441L78.346 47.8604C77.5157 48.4144 75.5476 49.7651 72.1113 50.01C69.6668 50.1827 64.7203 49.0939 64.7203 49.0939L59.8141 48.3587L58.1022 48.0553C53.9364 50.2774 50.2719 53.3043 47.3106 56.9382L47.1631 61.5718L46.4228 63.6882L44.6689 69.8198L45.2339 71.5492L42.4463 71.9446L39.634 75.0744C39.4787 76.4362 39.3965 77.8228 39.3965 79.2264C39.3965 86.4219 41.5477 93.1161 45.2416 98.6965H45.2339ZM50.7391 75.9684L50.8943 76.6366L51.5322 76.425L51.3211 75.7511L50.7391 75.9684ZM77.109 80.5908L76.6667 80.5351L76.6356 81.3706L77.0811 81.4513L77.3465 80.3793L77.2068 80.3236L77.109 80.5908ZM88.9436 107.187C88.9436 107.198 88.5634 106.766 88.5634 106.766C88.5649 106.78 87.972 107.126 87.972 107.126C87.972 107.126 88.4206 107.571 88.4066 107.571L88.9436 107.187ZM89.7663 102.896L88.6519 103.542L87.2286 103.842L84.1043 106.914L84.2967 107.596L84.7499 107.535L86.5333 106.766C86.9973 106.569 88.4594 105.75 89.2199 104.931C89.9354 104.154 90.1527 103.854 90.5671 103.066L89.7663 102.896ZM73.1884 75.1163L73.9598 75.3307L74.1911 74.615L73.6432 74.4842L73.1884 75.1163ZM75.2636 73.5931C75.2636 73.5931 74.3665 75.7873 74.3665 75.7985C74.3665 75.7985 75.782 75.9321 75.782 75.9433L76.1157 74.1388L75.8704 73.9551L76.0381 73.3397L75.3272 72.9498L75.096 73.4148L75.2636 73.5931ZM51.8054 75.6481C51.8163 75.6481 52.299 75.4587 52.299 75.4587L52.1096 75.0439C52.1096 75.0439 51.8302 75.2833 51.8364 75.3111L51.8054 75.6481ZM51.4546 74.317L51.6502 74.785L52.2229 74.5287C52.2229 74.5287 52.0677 74.0999 52.0475 74.0999L51.4546 74.317ZM51.0682 72.7744L51.1784 73.4956L51.8613 73.4928L51.7697 72.7187L51.0682 72.7744ZM50.4241 71.4377L50.7748 71.9892L51.4484 72.0893L51.7495 70.736L50.6507 70.4688L50.4241 71.4377ZM49.8389 69.7141L50.9487 69.8478L51.2901 67.2302L51.2994 66.4422L51.1038 65.6457L50.5327 65.6011L49.8389 69.7141ZM74.4161 55.5208L71.2204 58.0631L72.3565 58.8818L74.9066 56.2838L74.4161 55.5208ZM71.6022 59.9011L71.1506 59.8815L70.2783 61.4661L68.9233 61.5718L67.3743 63.8023L68.2187 64.3342L70.3031 63.0087L71.8971 61.3073L71.6022 59.9011ZM70.8277 63.6185L69.2508 65.0081V65.9521L71.7574 66.5702L76.7536 63.1785L76.6201 61.7946L74.6396 61.1096L70.8277 63.6185ZM63.2567 67.7425L65.1362 68.0433L64.489 69.2797L62.8748 68.3887L63.2567 67.7425Z" fill="#00489A"/>
<path d="M31.1098 20.6804L29.3358 25.9489H32.7721L31.1098 20.6804ZM34.9605 32.9356L34.0479 29.9951H27.9808L27.0077 32.9356H21.937L29.1138 13.1953H32.8559L40.0312 32.9356H34.9605Z" fill="#E42313"/>
<path d="M54.8662 18.6289C54.4223 17.9634 53.758 17.5206 52.5381 17.5206H50.404V28.609H52.5381C53.758 28.609 54.4223 28.1663 54.8662 27.5008C55.2527 26.9467 55.3924 26.4204 55.3924 23.0648C55.3924 19.7373 55.2527 19.183 54.8662 18.6289ZM58.1908 30.9927C56.8311 32.3517 54.9221 32.9335 52.8687 32.9335H45.5537V13.1962H52.8687C54.9221 13.1962 56.8311 13.778 58.1908 15.137C60.491 17.4371 60.2395 19.96 60.2395 23.0648C60.2395 26.1697 60.491 28.6926 58.1908 30.9927Z" fill="#E42313"/>
<path d="M66.8281 32.9344V13.1942H80.2381V17.5186H71.6753V20.8185H78.9934V25.1431H71.6753V28.6098H80.2381V32.9344H66.8281Z" fill="#E42313"/>
<path d="M100.511 32.9344V23.4806L97.7128 28.3593H94.6071L91.8087 23.4806V32.9344H86.96V13.1942H91.728L96.1607 21.9017L100.593 13.1942H105.358V32.9344H100.511Z" fill="#E42313"/>
<path d="M112.553 32.9344V13.1942H125.964V17.5186H117.401V20.8185H124.719V25.1431H117.401V28.6098H125.964V32.9344H112.553Z" fill="#E42313"/>
<path d="M25.7506 131.361L26.6943 128.562L27.5774 131.361H25.7506ZM25.867 125.647L22.7256 134.285H24.7759L25.2105 132.967H28.0818L28.49 134.285H30.5434L27.3989 125.647H25.867Z" fill="#E42313"/>
<path d="M36.1435 134.358C37.2393 134.358 37.9858 134.072 38.6408 133.397C39.2694 132.756 39.5068 131.975 39.5068 130.524V129.399H36.2459V131.005H37.5512V131.233C37.5512 131.654 37.4208 132.017 37.1849 132.25C36.9506 132.501 36.5998 132.626 36.1435 132.626C35.7477 132.626 35.4047 132.478 35.2045 132.214C34.9949 131.941 34.8584 131.638 34.8584 129.967C34.8584 128.308 34.9949 128.003 35.2045 127.729C35.4078 127.46 35.7586 127.305 36.1435 127.305C36.8807 127.305 37.2874 127.603 37.4907 128.297H39.4758C39.3144 127.39 38.6765 125.573 36.1435 125.573C35.1595 125.573 34.4253 125.871 33.7564 126.537C32.8903 127.403 32.8903 128.578 32.8934 129.819V130.114C32.8903 131.356 32.8903 132.529 33.7564 133.395C34.4129 134.052 35.1703 134.358 36.1435 134.358Z" fill="#E42313"/>
<path d="M44.7965 130.794H48.0776V129.062H44.7965V127.376H48.6348V125.647H42.8315V134.286H48.6348V132.554H44.7965V130.794Z" fill="#E42313"/>
<path d="M58.6964 134.283V125.646H56.7299V130.347L53.736 125.646H51.9961V134.283H53.9626V129.587L56.955 134.283H58.6964Z" fill="#E42313"/>
<path d="M66.4928 131.685C66.3609 132.11 66.0893 132.629 65.2837 132.629C64.8879 132.629 64.5465 132.478 64.3447 132.214C64.1367 131.941 63.9893 131.62 63.9893 129.967C63.9893 128.312 64.1367 127.989 64.3447 127.716C64.5465 127.454 64.8879 127.305 65.2837 127.305C66.0893 127.305 66.3609 127.819 66.4928 128.249H68.5028C68.1737 126.548 67.005 125.573 65.2729 125.573C64.3013 125.573 63.5407 125.879 62.8858 126.538C62.0197 127.401 62.0197 128.576 62.0228 129.816V130.114C62.0197 131.356 62.0197 132.528 62.8858 133.394C63.5407 134.052 64.3013 134.358 65.2729 134.358C67.005 134.358 68.1737 133.386 68.5028 131.685H66.4928Z" fill="#E42313"/>
<path d="M73.4542 130.794H76.7353V129.062H73.4542V127.376H77.291V125.647H71.4893V134.286H77.291V132.554H73.4542V130.794Z" fill="#E42313"/>
<path d="M90.466 132.016C90.2176 132.383 89.8606 132.556 89.3345 132.556H88.2775V127.383H89.3345C89.8606 127.383 90.2176 127.555 90.466 127.923C90.66 128.204 90.7189 128.508 90.7189 129.97C90.7189 131.514 90.6553 131.746 90.466 132.016ZM92.687 130.342C92.6854 130.22 92.6854 130.094 92.6854 129.97C92.6854 129.841 92.6854 129.719 92.687 129.593C92.6963 128.365 92.7041 127.397 91.7961 126.492C91.2482 125.939 90.4489 125.651 89.485 125.651H86.311V134.288H89.485C90.4489 134.288 91.2482 133.996 91.7961 133.447C92.7041 132.542 92.6963 131.57 92.687 130.342Z" fill="#E42313"/>
<path d="M97.9781 130.797H101.259V129.065H97.9781V127.38H101.815V125.651H96.0132V134.289H101.815V132.557H97.9781V130.797Z" fill="#E42313"/>
<path d="M112.805 125.647H110.839V134.285H116.519V132.553H112.805V125.647Z" fill="#E42313"/>
<path d="M121.449 131.361L122.392 128.562L123.276 131.361H121.449ZM124.19 134.285H126.242L123.097 125.647H121.565L118.425 134.285H120.474L120.909 132.967H123.78L124.19 134.285Z" fill="#E42313"/>
<path d="M25.2308 148.362H27.2004V141.457H29.378V139.725H23.0532V141.457H25.2308V148.362Z" fill="#E42313"/>
<path d="M37.8146 143.464H36.4813V141.471H37.8146C38.4975 141.471 38.8653 141.983 38.8653 142.467C38.8653 142.948 38.4975 143.464 37.8146 143.464ZM39.4489 144.684C39.7718 144.522 40.8334 143.881 40.8334 142.467C40.8334 141.106 39.8307 139.725 37.9155 139.725H34.5117V148.362H36.4813V145.07H37.3831L38.9507 148.362H41.24L39.3542 144.732L39.4489 144.684Z" fill="#E42313"/>
<path d="M48.4559 145.439L49.3996 142.641L50.2858 145.439H48.4559ZM48.5723 139.725L45.4263 148.363H47.4812L47.9158 147.046H50.7887L51.2016 148.363H53.2534L50.1073 139.725H48.5723Z" fill="#E42313"/>
<path d="M58.0591 139.725V148.363H60.0271V143.662L63.0242 148.363H64.7672V139.725H62.7976V144.423L59.8021 139.725H58.0591Z" fill="#E42313"/>
<path d="M73.8493 143.191L72.7799 143.042C72.4959 143.006 72.2693 142.908 72.111 142.753C71.9279 142.567 71.9046 142.351 71.9046 142.269C71.9046 141.823 72.2724 141.344 73.0795 141.344H73.1463C73.5374 141.344 74.211 141.341 74.7557 141.825L75.9819 140.606C75.2804 139.945 74.4003 139.65 73.1416 139.65C71.2698 139.65 70.011 140.731 70.011 142.343C70.011 143.076 70.2066 143.65 70.59 144.047C70.9718 144.437 71.5491 144.692 72.3112 144.8L73.3806 144.948C73.6678 144.986 73.885 145.075 74.0247 145.212C74.1629 145.365 74.228 145.559 74.228 145.808C74.228 146.217 73.9906 146.706 72.8545 146.706C72.454 146.706 71.4793 146.649 70.8802 146.126L69.6323 147.372C70.3959 148.115 71.3644 148.437 72.8436 148.437C74.495 148.437 76.1604 147.609 76.1604 145.758C76.1604 144.917 75.9571 144.307 75.5333 143.894C75.1717 143.532 74.6036 143.296 73.8493 143.191Z" fill="#E42313"/>
<path d="M83.4275 139.725H81.4595V148.362H83.4275V139.725Z" fill="#E42313"/>
<path d="M90.7367 148.362H92.7078V141.457H94.8823V139.725H88.5591V141.457H90.7367V148.362Z" fill="#E42313"/>
<path d="M100.016 148.362H101.984V139.725H100.016V148.362Z" fill="#E42313"/>
<path d="M111.576 146.269C111.415 146.48 111.078 146.706 110.623 146.706C110.167 146.706 109.833 146.48 109.669 146.269C109.454 145.988 109.323 145.697 109.323 144.044C109.323 142.384 109.459 142.081 109.669 141.808C109.875 141.541 110.23 141.381 110.623 141.381C111.013 141.381 111.37 141.541 111.576 141.808C111.784 142.081 111.921 142.384 111.921 144.044C111.921 145.697 111.79 145.988 111.576 146.269ZM113.89 143.895C113.893 142.654 113.893 141.482 113.024 140.613C112.355 139.947 111.618 139.649 110.623 139.649C109.63 139.649 108.89 139.947 108.221 140.616C107.355 141.482 107.354 142.654 107.354 143.895V144.192C107.354 145.434 107.355 146.605 108.221 147.475C108.89 148.14 109.63 148.438 110.623 148.438C111.618 148.438 112.355 148.14 113.024 147.475C113.893 146.605 113.893 145.434 113.89 144.192V143.895Z" fill="#E42313"/>
<path d="M125.968 148.362V139.725H123.999V144.424L121.003 139.725H119.26V148.362H121.228V143.664L124.225 148.362H125.968Z" fill="#E42313"/>
<path d="M25.0363 158.958H28.3267V157.221H25.0363V155.531H28.8901V153.793H23.062V162.461H28.8901V160.724H25.0363V158.958Z" fill="#E42313"/>
<path d="M25.8671 150.678L25.313 152.713H26.3544L27.6908 150.678H25.8671Z" fill="#E42313"/>
<path d="M38.2681 156.402H40.2873C39.9583 154.696 38.7834 153.719 37.0419 153.719C36.0672 153.719 35.3082 154.027 34.6502 154.684C33.7794 155.556 33.7795 156.731 33.7826 157.979V158.277C33.7795 159.522 33.7794 160.7 34.6502 161.567C35.3082 162.229 36.0672 162.537 37.0419 162.537C38.7834 162.537 39.9583 161.56 40.2873 159.849H38.2681C38.1377 160.279 37.8614 160.796 37.0559 160.796C36.6586 160.796 36.3156 160.647 36.1153 160.385C35.9043 160.108 35.7568 159.786 35.7568 158.126C35.7568 156.469 35.9043 156.146 36.1153 155.871C36.3156 155.606 36.6586 155.455 37.0559 155.455C37.8614 155.455 38.1377 155.974 38.2681 156.402Z" fill="#E42313"/>
<path d="M49.0314 160.36C48.8188 160.636 48.4633 160.798 48.0753 160.798C47.6888 160.798 47.3319 160.636 47.1208 160.36C46.9066 160.079 46.7746 159.787 46.7746 158.126C46.7746 156.456 46.9066 156.163 47.1208 155.882C47.3272 155.615 47.6826 155.457 48.0753 155.457C48.468 155.457 48.825 155.615 49.0314 155.882C49.2456 156.163 49.376 156.456 49.376 158.126C49.376 159.787 49.2456 160.079 49.0314 160.36ZM48.0753 153.719C47.0789 153.719 46.3354 154.017 45.6665 154.685C44.7989 155.556 44.7989 156.731 44.8004 157.979V158.274C44.7989 159.522 44.7989 160.7 45.6665 161.569C46.3354 162.236 47.0789 162.537 48.0753 162.537C49.0733 162.537 49.8136 162.236 50.4841 161.569C51.3502 160.7 51.3502 159.522 51.3502 158.277V157.976C51.3502 156.731 51.3502 155.553 50.4841 154.685C49.8167 154.017 49.0733 153.719 48.0753 153.719Z" fill="#E42313"/>
<path d="M58.4684 153.793H56.4941V162.461H62.1934V160.724H58.4684V153.793Z" fill="#E42313"/>
<path d="M70.7206 160.36C70.508 160.636 70.1526 160.798 69.7646 160.798C69.3083 160.798 68.9714 160.571 68.81 160.36C68.5958 160.079 68.4655 159.787 68.4655 158.126C68.4655 156.461 68.602 156.158 68.81 155.882C69.0165 155.615 69.3719 155.457 69.7646 155.457C70.1572 155.457 70.5142 155.615 70.7206 155.882C70.9348 156.163 71.0652 156.456 71.0652 158.126C71.0652 159.787 70.9348 160.079 70.7206 160.36ZM69.7646 153.719C68.7681 153.719 68.0247 154.017 67.3588 154.685C66.4881 155.556 66.4912 156.731 66.4912 157.979V158.274C66.4912 159.522 66.4881 160.7 67.3588 161.569C68.0247 162.236 68.7681 162.537 69.7646 162.537C70.7626 162.537 71.5029 162.236 72.1734 161.569C73.0426 160.7 73.0395 159.522 73.0395 158.274V157.979C73.0395 156.731 73.0426 155.556 72.1734 154.685C71.506 154.017 70.7626 153.719 69.7646 153.719Z" fill="#E42313"/>
<path d="M82.5105 156.455H84.5034C84.342 155.544 83.7056 153.72 81.1602 153.72C80.1715 153.72 79.4327 154.018 78.7653 154.685C77.8962 155.555 77.8962 156.733 77.8993 157.98V158.275C77.8962 159.523 77.8962 160.698 78.7653 161.569C79.425 162.23 80.1855 162.536 81.1602 162.536C82.2591 162.536 83.0118 162.246 83.6652 161.569C84.2985 160.926 84.5344 160.144 84.5344 158.687V157.557H81.2657V159.169H82.571V159.397C82.571 159.821 82.4438 160.183 82.2063 160.419C81.9704 160.67 81.6165 160.797 81.1602 160.797C80.7644 160.797 80.4183 160.647 80.2181 160.383C80.0101 160.11 79.8735 159.807 79.8735 158.128C79.8735 156.462 80.0101 156.157 80.2181 155.884C80.4276 155.61 80.7706 155.457 81.1602 155.457C81.9005 155.457 82.3072 155.755 82.5105 156.455Z" fill="#E42313"/>
<path d="M89.6758 162.461H91.65V153.793H89.6758V162.461Z" fill="#E42313"/>
<path d="M101.32 159.446L101.3 159.668L100.794 159.158L99.8298 160.122L100.454 160.748L100.264 160.785C100.191 160.797 100.132 160.797 100.069 160.797C99.6125 160.797 99.2757 160.572 99.1143 160.358C98.9001 160.077 98.7682 159.784 98.7682 158.125C98.7682 156.462 98.9048 156.157 99.1143 155.884C99.3207 155.617 99.6762 155.457 100.069 155.457C100.462 155.457 100.818 155.617 101.025 155.884C101.233 156.157 101.37 156.462 101.37 158.125C101.37 158.769 101.338 159.186 101.32 159.446ZM102.849 161.102C103.347 160.305 103.344 159.317 103.344 158.269V157.98C103.344 156.733 103.347 155.555 102.475 154.684C101.81 154.018 101.067 153.72 100.069 153.72C99.0724 153.72 98.3321 154.018 97.6631 154.685C96.7924 155.555 96.7939 156.733 96.7939 157.98V158.275C96.7939 159.523 96.7924 160.698 97.6631 161.569C98.3321 162.238 99.0724 162.536 100.069 162.536C100.728 162.536 101.275 162.405 101.737 162.137L101.807 162.098L102.475 162.767L103.438 161.803L102.807 161.172L102.849 161.102Z" fill="#E42313"/>
<path d="M110.311 159.399V153.794H108.336V159.449C108.336 161.237 109.704 162.537 111.586 162.537C113.486 162.537 114.861 161.237 114.861 159.449V153.794H112.887V159.399C112.887 160.262 112.389 160.797 111.586 160.797C110.798 160.797 110.311 160.262 110.311 159.399Z" fill="#E42313"/>
<path d="M122.117 158.958H125.409V157.221H122.117V155.531H125.969V153.793H120.143V162.461H125.969V160.724H122.117V158.958Z" fill="#E42313"/>
</svg>
