<svg id="Calque_1" data-name="Calque 1" xmlns="http://www.w3.org/2000/svg" viewBox="0 0 198.21 252.19"><defs><style>.cls-1{fill:#fff;}.cls-2{fill:#e42313;}.cls-3{fill:#2a327b;}</style></defs><title>LOGO_RIDF_2019_COMPACT</title><rect class="cls-1" width="198.21" height="252.19"/><path class="cls-2" d="M29.93,216h-3.6l3.15-4.18h4.27L36.9,216H33.3l-1.68-2.25L29.93,216m-.7,16.16V217.53H34v14.59Z"/><polygon class="cls-2" points="36.33 212.05 41.11 212.05 41.11 232.12 36.33 232.12 36.33 212.05 36.33 212.05"/><path class="cls-2" d="M47.15,226a3.11,3.11,0,0,0,3.26,3.31,2.83,2.83,0,0,0,2.72-1.6h4.48c-.87,3.37-4,4.83-7.26,4.83-4.75,0-8-2.86-8-7.75a7.66,7.66,0,0,1,7.87-7.68c5.23,0,7.84,3.94,7.62,8.89H47.15m5.93-2.67a3,3,0,0,0-2.84-3,3.15,3.15,0,0,0-3.09,3Z"/><path class="cls-2" d="M69.46,232.12H67.57v-1.55h0a3.85,3.85,0,0,1-3.66,1.82c-3.52,0-5.27-2.79-5.27-6s1.73-6,5.23-6a4.39,4.39,0,0,1,3.7,1.79h0V216.3h1.89v15.82m-5.32-1.4c2.52,0,3.5-2.17,3.5-4.31s-1-4.35-3.61-4.35-3.44,2.2-3.44,4.44,1.11,4.22,3.55,4.22Z"/><path class="cls-2" d="M81,228.49a4.62,4.62,0,0,1-4.9,3.9c-3.65,0-5.38-2.53-5.49-6s2.26-6,5.39-6c4,0,5.29,3.79,5.18,6.56H72.62a3.37,3.37,0,0,0,3.57,3.76,2.76,2.76,0,0,0,3-2.23H81M79.2,225.3a3.29,3.29,0,0,0-6.58,0Z"/><polygon class="cls-2" points="82.42 212.05 97.2 212.05 97.2 216.24 87.65 216.24 87.65 220.34 95.91 220.34 95.91 224.39 87.65 224.39 87.65 232.12 82.42 232.12 82.42 212.05 82.42 212.05"/><path class="cls-2" d="M98.16,217.53h4.64v2.56h0a4.41,4.41,0,0,1,4.39-2.84,5.4,5.4,0,0,1,1.12.12v4.35a6.65,6.65,0,0,0-1.83-.28,3.36,3.36,0,0,0-3.6,3.46v7.22H98.16V217.53Z"/><path class="cls-2" d="M108.36,222a4.51,4.51,0,0,1,2.27-3.91,9.77,9.77,0,0,1,4.64-1c3.46,0,6.81.76,6.81,4.89v6.38a8.51,8.51,0,0,0,.56,3.74h-4.81a5.85,5.85,0,0,1-.28-1.37,6.59,6.59,0,0,1-4.81,1.79c-2.78,0-5-1.4-5-4.41,0-4.75,5.17-4.38,8.49-5.06.81-.17,1.26-.45,1.26-1.35,0-1.09-1.32-1.51-2.3-1.51a2.14,2.14,0,0,0-2.39,1.82h-4.47m6.18,7.56c2.28,0,3-1.29,2.92-4.3a13.42,13.42,0,0,1-2.95.79c-1.06.25-2,.7-2,1.86s.92,1.65,2,1.65Z"/><path class="cls-2" d="M123.82,217.53h4.64v2h0a5.51,5.51,0,0,1,4.58-2.42c4.87,0,5.26,3.54,5.26,5.65v9.36h-4.78v-7.05c0-2,.23-4-2.39-4-1.8,0-2.58,1.52-2.58,3.12v8h-4.78V217.53Z"/><path class="cls-2" d="M149.62,222.88a2.25,2.25,0,0,0-2.33-2.11c-2.67,0-3.1,2.27-3.1,4.3,0,1.88.82,3.82,2.84,3.82a2.56,2.56,0,0,0,2.73-2.5h4.64c-.42,3.91-3.46,6.15-7.34,6.15a7.26,7.26,0,0,1-7.65-7.47c0-4.64,3-8,7.65-8,3.63,0,6.86,1.92,7.2,5.77Z"/><path class="cls-2" d="M159.46,226a3.1,3.1,0,0,0,3.26,3.31,2.83,2.83,0,0,0,2.72-1.6h4.47c-.87,3.37-4,4.83-7.25,4.83-4.75,0-8-2.86-8-7.75a7.66,7.66,0,0,1,7.87-7.68c5.23,0,7.84,3.94,7.62,8.89H159.46m5.93-2.67a3,3,0,0,0-2.84-3,3.14,3.14,0,0,0-3.09,3Z"/><path class="cls-3" d="M29.23,191.48h8.06c3.21,0,5.2,1.75,5.2,4.48,0,2.07-.91,3.77-3,4.35v0c2,.39,2.4,1.85,2.56,3.53s.05,3.55,1,4.73H40.55c-.65-.7-.29-2.54-.62-4.22s-.65-3.1-2.86-3.1H31.5v7.32H29.23Zm7,7.89c2.14,0,4-.55,4-3.05a2.71,2.71,0,0,0-3-2.92H31.5v6Z"/><path class="cls-3" d="M55.91,204.67a5,5,0,0,1-5.31,4.23c-4,0-5.83-2.74-6-6.53s2.45-6.45,5.83-6.45c4.39,0,5.74,4.1,5.62,7.1H46.81a3.66,3.66,0,0,0,3.87,4.08,3,3,0,0,0,3.21-2.43Zm-2-3.45a3.57,3.57,0,0,0-3.58-3.5,3.53,3.53,0,0,0-3.55,3.5Zm-3.1-10.15h2.62l-3.14,3.43H48.78Z"/><path class="cls-3" d="M68.91,207.55c0,4-1.85,6.1-5.76,6.1-2.32,0-5-.94-5.13-3.65h2c.09,1.49,1.87,2,3.21,2,2.67,0,3.72-1.92,3.72-4.71v-.81h0a4.12,4.12,0,0,1-3.86,2.25c-3.69,0-5.54-2.9-5.54-6.28,0-2.93,1.44-6.55,5.73-6.55A4.06,4.06,0,0,1,67,198h0V196.2h1.92Zm-2-5.4c0-2.18-1-4.43-3.53-4.43s-3.67,2.13-3.67,4.51.81,4.72,3.5,4.72S66.9,204.48,66.9,202.15Z"/><path class="cls-3" d="M74.14,194h-2v-2.49h2Zm-2,2.23h2v12.41h-2Z"/><path class="cls-3" d="M82.66,195.92c3.93,0,6,2.85,6,6.5s-2.09,6.48-6,6.48-6-2.86-6-6.48S78.72,195.92,82.66,195.92Zm0,11.18c2.13,0,3.86-1.68,3.86-4.68s-1.73-4.7-3.86-4.7-3.86,1.68-3.86,4.7S80.52,207.1,82.66,207.1Z"/><path class="cls-3" d="M91.08,196.2H93v2h0a4.31,4.31,0,0,1,4-2.25c3.26,0,4.27,1.87,4.27,4.53v8.16h-2v-8.4a2.33,2.33,0,0,0-2.52-2.49c-2.47,0-3.67,1.65-3.67,3.88v7h-2Z"/><path class="cls-2" d="M135.38,64.27a19.73,19.73,0,0,0-2.18.84c-.15-.07-.28-.09-.27-.23.2-.68-3,2.3-3.16,1.14-.11-.19.14.06-.31-.06,1.17.16-7.2,2.81-7.2,2.66a2.46,2.46,0,0,1,.23-2.52c.66-1.65-1.44-4-.65-3.35a1.06,1.06,0,0,1,0-1.67c.37.25,0-.08.21-.82.24-.14-.42-1,.17-.76.53-.14,1.4-3.09.79-5.22-1.38-3.18-.8-26.27-.09-25.38.23-1.59-1.24-2.76-.53-3.94.06-1.2-1.12-1.25-1-2.06-.61-2.45-4-2.42-3.67-2.92-1.81.39-8.5,11.15-8.56,11.42.41-.4-4.51,7-4.41,7.05-.55-.14-1.16.83-1.28,1.94,0,.13-2.8,3.52-2.49,2.85-1,1.58-2.06,3.09-2.92,4.69.66-.43-1.22,1.32-1,1.26C97.18,49,95,54.42,95,53.94c.21-.73-2.66,2.65-3,2.7-.61,2.44-9.72-3.57-9.89-6.32,0-.11-.18-2.57-1.42-2.86.54.47-6.47-5.93-5.94-5.42-3.68-4.88-6.57-4.75-12-9.49a17.67,17.67,0,0,0-2.18-4.17c-2.06.51-4.82,3.7-4.24,4.49-.89.35-1.07-.75-1.38-1.13-.3,1.21.89,8.16.89,8.16-.13,1,.47,6.13.69,5.36l.39.46s-.61.76.14,1.25c.85,1.49,2.54,2.53,1.94,4.57-.73.38.09,3.08,0,2.18C58.13,58,68.11,66,66.74,71.65c-.63.5,1.9,3.53,1.37,3.38-.85,1-3.43,1.66-5.24,2.14-.52.3-1.07,0-1.64-.15S56.17,75.08,54.89,76c0,.13-3.75-.87-3.77-.71.66-.75-4.25,1-3.5-.54.32-1.25-4.27,1.3-3.14.62-.08.05-2,1.14-1.95.81s-1.76,0-1.34.07c-.26-.08-2.2-.65-1.92-.45-1.09-.72-1.3.25-2.58-.38a4,4,0,0,1-1.79.27c-.09,0-2.9.11-2.9,0,.24-.1-2.42.78-2.61.08.11-.13-2.09,1.55-2.72.51.29-.84-2.46.7-2.91.76s-1.71-.66-1.44-.22c-.23.12-1.94,2.23-1.94,2.23.32.1,9.43,6.94,8,5.87a30.58,30.58,0,0,0,3.39,2.24c-.39,1,3.52.06,2.9,2.27,3.62-2.15,11.06,7.87,13.68,6.29.31,0,1.43,1.74,1.81,1.6-.59-.5,1.88.82,1.09.76.36.41.24.26,1.42,1.5,3-.13,4.24,2.32,5.22,3.14,3.28,6.29-10.29,12.35-11.46,15.53,0,.16,0,.3-.24.24.16.15-1.87.9-2.12,1.89L42,123c-1.8-.52-6.4,6.78-8.27,7.71l-4.41,2.05a8.45,8.45,0,0,0-1,1.22,4.3,4.3,0,0,1-1.45,1.53,37.61,37.61,0,0,0-3.14,2.87l-.68,1.29,1.09.48a5.46,5.46,0,0,0-.81,1.18c-.16.31-.54,1.22.32,1.42s1.38.2,1.59.63,3.76.68,4.05.63,2-.87,2-.87c1.7-.55,7.28-.47,8,.1-.13,0,8.12-2,8.35-2.7.27,0,5.07-1.67,5.07-1.67,1.31-.63,4.33-1.12,5.29-2.2-.92.17,3.87-1.48,5.23-.82.42.23,12-2.17,12.37-3.66a1.34,1.34,0,0,1,1.09,1c-.28,1.53,0,5.76-.62,6.5,0-.6-1.61,1.1-1.06,2,1.16.35,1.11-.06,1.83,1.64-.35-.79.08,3.43,0,5,.06.79,1.34,3.47-.8,4.52a27.37,27.37,0,0,1-1.27,2.47c.17-1.23.17.64-.07.29,1.09-.53.77,2.8.52,3.2.22-.54-.57.63-.64.25-1.76,3.42,1.93,3.79-.19,4.18.9.27,1.38,4.83,1.33,4.15a10.19,10.19,0,0,1-.39,4.46c-.31-1-.83,1.74-.68,2.48.37,1.69-.49,4.93,1.14,5.68-.24-.68,1.22,1.57,1.22,1.57,3.81,1.6,4.76-3.39,6.44-4.17.59-.13,1.24-2.43,1.8-2.23,0-.2,2.34-11.14,4.11-10.59-.09,0,2.94-4.47,3.54-6.4,0,.13-1.45-1.59,1.61-2.9,1.46.48,2.16-3.44,2.53-5.69.09-1.27,1-.65,1.15-2a23.87,23.87,0,0,0,3-5.86c.42.05.49-2,.79-1.72-.83-.72.72-1.55.52-2.18.28-1.08.19-2,.67-2,.44-2.12,1.77-1.2,2.07-1,.62.36,1.49-.18,1.59,1.39-.61.79,2,1.53,1.75,2-.08-.38,12.33,14.25,15.75,17.05.16.15,9.77,9.68,9.35,9.59,1.07.52,1.95,2.46,2,2.32-.42.62,1.81,1.66,2.22,1.66,1.45,2.53,1.52,2,2.31,1.57.24,1.13,2.17.59,2.88,1-.2-.55,1.52-1,1.15-1.64.52.19-.36-2.06.12-1.79-.62-1.06-4.25-5.9-4-6.8.08-.29.53-.17.79-.13,0-.28-.47-.57-.71-.78q1,0,.45-1.08c-.65.37-1.55-3.77-1-4.35.24-1.05-3-14-4.47-15.27a18.3,18.3,0,0,0-.64-3.54c-2.52-1.57-.44-4.69-2.18-5.25-.39.76-2.19-2.18-2.45-4.62-.84-1.54,0-5.2-.59-4.65-.47-.55,2.59-1.87,3.38-.17,6.53,2.45,19-1.64,23.51,1.86,1.06-2,3.47-.45,2.17-.84-.2.25.24.39.52.47-.6-.13,4.39-.47,5.15-.07-1.92-.46,2.81-.15,2.63-.23-1.69-.36,3.37.62,8.76-2.72,1.93-.6,1.57-1.6,2.38-3.46-.33,1.59.51-1.57-1.14-2.58-9.52-2.39-17.11-9.41-26.61-11.91-3.68-.78-9.64-9.79-12.81-9.23,5.77-6.55,11.35-13.1,17.27-18.67C156,72.84,167.86,60,167.86,60.16c.46-.66,1.12-2.78,1.06-1.87a2,2,0,0,0-.43-1.17c0,.16-4.47-3.31-5.62-1.15,1.56,1-3.2,1.31-4.33,1.57a1,1,0,0,1-.93.08c-1.2-.28-2.75,1.05-3.53,1.24-1.74-1.55-6.11,1.33-8.09,2a16.7,16.7,0,0,1-2.39-.22c-.65,1.09-.64.78-.47.68a13.3,13.3,0,0,1-3.39,1.59c.28.1-1.46.83-2.12.68.06.29-.27,1.1-1.3.92-.77-.23-.66-.51-.94-.23"/></svg>