<svg width="171" height="40" viewBox="0 0 171 40" fill="none" xmlns="http://www.w3.org/2000/svg">
<path d="M157.338 23.0051H154.215V35.6046H157.338V23.0051Z" fill="#161616"/>
<path d="M157.338 18.8384H154.215V21.7926H157.338V18.8384Z" fill="#161616"/>
<path d="M151.272 26.7423C151.272 24.2841 149.174 22.2448 146.598 22.2448C145.778 22.2448 145.014 22.4763 144.341 22.8291V25.8494C144.341 25.8494 144.341 25.8604 144.33 25.8604H143.065C143.065 25.8604 143.053 25.8604 143.053 25.8494V18.8277C143.053 18.8277 143.053 18.8167 143.042 18.8167H139.953C139.953 18.8167 139.941 18.8167 139.941 18.8277V35.6049C139.941 35.6049 139.941 35.6159 139.953 35.6159H143.042C143.042 35.6159 143.053 35.6159 143.053 35.6049V29.1012C143.053 29.1012 143.053 29.0902 143.065 29.0902H145.025C145.025 29.0902 145.037 29.0902 145.037 29.0792V26.8195C145.037 26.0368 145.641 25.3313 146.45 25.2652C147.373 25.188 148.149 25.8825 148.149 26.7423V35.6159C148.149 35.6159 148.149 35.6269 148.16 35.6269H151.249C151.249 35.6269 151.26 35.6269 151.26 35.6159V26.7423H151.272Z" fill="#161616"/>
<path d="M52.1266 26.7421C52.1266 24.2839 50.0292 22.2446 47.4531 22.2446C46.6324 22.2446 45.8687 22.4761 45.1962 22.8289V25.8712H43.8967V22.399H40.7734V35.6157H43.8967V29.09H45.8915V26.7421C45.8915 25.9264 46.5868 25.265 47.4531 25.265C48.3194 25.265 49.0147 25.9264 49.0147 26.7421V35.6157H52.138V26.7421H52.1266Z" fill="#161616"/>
<path d="M7.85374 8.27818L6.4289 4.50826L5.87036 2.82172H5.81336L5.28902 4.47519L3.82998 8.2892H7.86514L7.85374 8.27818ZM8.45788 9.82142H3.23725L2.05178 12.9079H0L4.66209 1.15723H7.05583L11.7293 12.9079H9.60915L8.44648 9.82142H8.45788Z" fill="#161616"/>
<path d="M22.0097 4.00146V12.9082H20.2315L20.1403 11.4641C19.502 12.5885 18.3393 13.0845 16.8233 13.0845C14.9539 13.0845 13.4492 12.1806 13.4492 9.86578V4.00146H15.4554V9.35871C15.4554 11.0122 16.2077 11.5082 17.3818 11.5082C18.8066 11.5082 20.0035 10.6925 20.0035 8.79653V4.00146H22.0097Z" fill="#161616"/>
<path d="M31.7675 8.42167V8.22326C31.7675 6.45956 30.7758 5.37929 29.2028 5.37929C27.6297 5.37929 26.6152 6.47058 26.6152 8.33349C26.6152 10.1964 27.5955 11.2877 29.2028 11.2877C30.81 11.2877 31.7675 10.2184 31.7675 8.42167ZM33.7965 4.0014V12.1916C33.7965 15.3222 32.0296 16.7331 28.8836 16.7331C26.8774 16.7331 25.2246 16.0938 24.894 14.4183L26.809 13.7789C26.9914 14.7931 27.7323 15.2891 29.1572 15.2891C30.696 15.2891 31.7789 14.2419 31.7789 12.6325V11.453C31.1747 12.2688 30.1147 12.8199 28.7582 12.8199C26.2049 12.8199 24.5977 11.1444 24.5977 8.31144C24.5977 5.4785 26.2163 3.80298 28.7582 3.80298C30.2742 3.80298 31.3799 4.46437 31.9271 5.45645L32.098 3.97935H33.8079L33.7965 4.0014Z" fill="#161616"/>
<path d="M45.5605 3.93457V12.8413H43.7823L43.6911 11.3972C43.0527 12.5216 41.8901 13.0176 40.374 13.0176C38.5046 13.0176 37 12.1137 37 9.79888V3.93457H39.0062V9.29182C39.0062 10.9453 39.7585 11.4413 40.9326 11.4413C42.3574 11.4413 43.5543 10.6256 43.5543 8.72964V3.93457H45.5605Z" fill="#161616"/>
<path d="M54.3824 4.00157L54.0632 5.74322C53.8011 5.59992 53.3907 5.51174 52.8892 5.51174C51.7607 5.51174 50.5296 6.37154 50.5296 8.17934V12.8972H48.5234V4.00157H50.2333L50.4156 5.5889C50.9172 4.43147 51.9203 3.8252 53.3565 3.8252C53.7327 3.8252 54.1202 3.88031 54.3824 4.00157Z" fill="#161616"/>
<path d="M57.4941 7.70489H62.5324C62.35 6.20574 61.4609 5.33491 60.0589 5.33491C58.577 5.33491 57.6993 6.17267 57.4941 7.70489ZM64.3334 9.15994H57.4713C57.6993 10.7252 58.6682 11.563 60.1842 11.563C61.4153 11.563 62.2474 11.1331 62.5438 10.3504L64.208 11.0118C63.5355 12.3236 62.236 13.0732 60.1842 13.0732C57.2206 13.0732 55.4766 11.3425 55.4766 8.44344C55.4766 5.54435 57.1294 3.81372 60.0475 3.81372C62.9655 3.81372 64.3904 5.58845 64.3904 8.17888C64.3904 8.5206 64.3562 8.92846 64.3106 9.15994" fill="#161616"/>
<path d="M66.1364 11.2214L67.4815 10.1191C67.9716 11.1884 69.0773 11.5962 70.3881 11.5962C71.699 11.5962 72.3943 11.1333 72.3943 10.527C72.3943 9.97583 71.8472 9.65616 70.2172 9.34751C67.4245 8.85147 66.4556 8.07985 66.4556 6.59172C66.4556 5.1036 67.8804 3.83594 70.3881 3.83594C72.4741 3.83594 73.6482 4.47528 74.3207 5.85317L72.8959 6.84526C72.4285 5.77601 71.6192 5.33508 70.3995 5.33508C69.1799 5.33508 68.4503 5.87522 68.4503 6.42638C68.4503 7.06572 68.9975 7.40743 70.7529 7.70506C73.4316 8.16803 74.3891 8.92863 74.3891 10.4168C74.3891 11.982 72.8845 13.1064 70.3083 13.1064C68.4845 13.1064 66.9115 12.5332 66.125 11.2325" fill="#161616"/>
<path d="M92.0336 11.2654V12.9079H83.2109V1.15723H85.2171V11.2654H92.0336Z" fill="#161616"/>
<path d="M99.557 9.95361V8.88437L97.5166 9.27018C96.2399 9.50166 95.6016 9.90952 95.6016 10.626C95.6016 11.2874 96.1259 11.6402 97.0036 11.6402C98.2575 11.6402 99.557 11.0118 99.557 9.95361ZM102.954 11.5961L102.817 12.8747C102.521 12.996 102.122 13.0842 101.654 13.0842C100.64 13.0842 99.9445 12.7314 99.7393 11.7504C99.158 12.6102 97.9611 13.0842 96.5705 13.0842C94.8037 13.0842 93.5156 12.3015 93.5156 10.7473C93.5156 9.38041 94.7125 8.35525 97.1746 7.9474L99.557 7.53954V7.07657C99.557 6.00733 98.8616 5.31287 97.642 5.31287C96.4223 5.31287 95.6244 5.79789 95.2254 6.91122L93.6638 6.12858C94.1198 4.71762 95.556 3.81372 97.5964 3.81372C99.9445 3.81372 101.552 4.82785 101.552 6.96634V10.9898C101.552 11.4307 101.746 11.6512 102.247 11.6512C102.486 11.6512 102.737 11.6291 102.942 11.574" fill="#161616"/>
<path d="M112.016 8.45475C112.016 6.51468 111.035 5.37929 109.428 5.37929C107.821 5.37929 106.84 6.50365 106.84 8.35554V8.56498C106.84 10.4389 107.855 11.5523 109.428 11.5523C111.001 11.5523 112.016 10.3948 112.016 8.45475ZM114.022 8.4768C114.022 11.3759 112.426 13.0845 109.884 13.0845C108.379 13.0845 107.239 12.3569 106.704 11.2657L106.613 12.9081H104.846V0H106.852V5.44543C107.41 4.46437 108.482 3.82503 109.873 3.82503C112.426 3.82503 114.033 5.55566 114.033 8.4768" fill="#161616"/>
<path d="M63.3417 31.2728C63.3417 32.0554 62.6692 32.6948 61.8485 32.6948H59.7967C59.204 32.6948 58.7138 32.2318 58.7138 31.6696V26.6982C58.7138 25.9486 59.3521 25.3423 60.1387 25.3423H61.8029C62.6578 25.3423 63.3531 26.0037 63.3531 26.8084V31.2728H63.3417ZM61.8485 22.3992H59.1812V25.3423H57.8703C57.8703 24.1188 57.8703 22.6637 57.8703 22.6637C56.0693 23.27 54.7812 24.9014 54.7812 26.8194V31.2287C54.7812 33.1357 56.0807 34.7671 57.8703 35.3734V32.6838H59.1812V35.6159H61.8485C64.379 35.6159 66.4422 33.6648 66.4422 31.2618V26.7643C66.4422 24.3613 64.3904 22.3992 61.8485 22.3992Z" fill="#161616"/>
<path d="M24.3829 26.7972C24.3829 24.3611 22.3084 22.3879 19.7436 22.3879H17.4297V25.3311H19.7322C20.5871 25.3311 21.2711 25.9925 21.2711 26.7972V27.9657H24.3829V26.7862V26.7972Z" fill="#161616"/>
<path d="M4.65069 24.8463C4.24034 24.6148 3.81858 24.2951 3.81858 23.7991V22.8621C3.81858 22.3661 4.17194 21.9362 4.65069 21.8149C4.74188 21.7929 4.84447 21.7818 4.94706 21.7818H5.96155C6.81646 21.7818 7.52318 22.4432 7.52318 23.2589V24.0195H10.6464V23.2589C10.6464 20.8559 8.64026 18.9048 6.13253 18.8276H4.86727C4.65069 18.8276 4.44551 18.8497 4.25174 18.8828V21.7818H2.95228V19.2575C1.37925 19.974 0.284969 21.4952 0.284969 23.2589C0.284969 27.2493 4.49111 27.9328 6.72527 29.2666C7.3066 29.6524 7.85374 29.9169 7.85374 30.5122V31.5814C7.85374 32.1767 7.3408 32.6617 6.71387 32.6617H4.68489C3.81858 32.6617 3.12326 32.0003 3.12326 31.1846V29.2996H0V31.1515C0 33.6097 2.22276 35.5938 4.81027 35.5938H6.50869C6.83925 35.5938 7.16982 35.5608 7.48898 35.4946V32.6727H8.78844V35.0427C10.2133 34.2821 11.1822 32.8381 11.1822 31.1625C11.1822 26.8084 6.85065 26.0478 4.65069 24.8242" fill="#161616"/>
<path d="M21.2703 30.1372V31.2175C21.2703 32.0332 20.5864 32.6836 19.7314 32.6836H18.9221H18.09C17.4631 32.6836 16.9615 32.2096 16.9615 31.6143V26.4114C16.9615 25.8162 17.4631 25.3311 18.09 25.3311H16.1294V22.8179C15.6507 23.0604 15.2175 23.358 14.8072 23.7328C13.6103 24.8241 13.0176 26.2571 13.0176 28.0428V29.5861C13.0176 31.3608 13.6103 32.6946 14.8072 33.7969C15.2061 34.1607 15.6507 34.4693 16.1294 34.7118V32.6836H17.4403V35.6047H19.7428C22.3076 35.6047 24.3935 33.6316 24.3935 31.1955V30.1262H21.2817L21.2703 30.1372Z" fill="#161616"/>
<path d="M75.1298 30.1154C75.1298 30.5783 74.8106 31.0744 74.3775 31.0744H73.2832C72.5195 31.0303 71.7558 30.5012 71.7558 29.7406V26.5439C71.7558 25.7833 72.5081 25.3864 73.2832 25.3534H74.4687H74.3547C74.9474 25.3534 75.1298 25.9596 75.1298 26.4336V30.1264V30.1154ZM79.5297 22.3992H76.4064V25.3423H75.1184V22.3992H73.42C70.9008 22.3992 68.7465 24.24 68.6325 26.6321V29.8177C68.7465 32.2098 70.9122 34.0506 73.4314 34.0506H75.1184V31.0854H76.4064V34.7341C76.4064 36.0789 75.3236 37.1151 73.8987 37.1151C72.8386 37.1151 72.1205 36.4978 71.7444 35.6269H68.6211C69.0656 37.9859 71.106 39.8488 73.7961 39.9921C76.9308 40.1575 79.5183 37.7544 79.5183 34.8112V22.4102L79.5297 22.3992Z" fill="#161616"/>
<path d="M31.4498 25.8274C31.4498 25.5628 31.6778 25.3423 31.9514 25.3423H33.4104C34.2425 25.3423 34.9834 25.9156 35.0632 26.6982C35.1544 27.58 34.4249 28.3186 33.513 28.3186H32.6353H31.9514C31.6778 28.3186 31.4498 28.1092 31.4498 27.8336V25.8163V25.8274ZM31.2902 22.3992V25.3423H29.9908V22.3992H26.8789V29.6855C26.8789 31.4602 27.4716 32.9042 28.6685 33.9955C29.8084 35.0427 31.2446 35.5828 32.9658 35.6269C33.0342 35.6269 33.1026 35.6269 33.1938 35.6269C35.3938 35.6269 37.5595 34.701 37.5595 34.701L36.4539 32.0224C35.6559 32.6838 34.4705 33.0585 33.342 33.0585C31.598 33.0585 30.0022 32.0224 30.0022 30.2476V28.3186H31.3016V31.2838L33.5244 31.3169C36.3855 31.3169 38.6538 28.8477 38.1181 26.0258C37.7191 23.8983 35.6901 22.3992 33.4218 22.3992H31.3016H31.2902Z" fill="#161616"/>
<path d="M164.245 25.8274C164.245 25.5628 164.473 25.3423 164.746 25.3423H166.205C167.037 25.3423 167.778 25.9156 167.858 26.6982C167.949 27.58 167.22 28.3186 166.308 28.3186H165.43H164.746C164.473 28.3186 164.245 28.1092 164.245 27.8336V25.8163V25.8274ZM164.085 22.3992V25.3423H162.786V22.3992H159.674V29.6855C159.674 31.4602 160.267 32.9042 161.463 33.9955C162.603 35.0427 164.04 35.5828 165.761 35.6269C165.829 35.6269 165.898 35.6269 165.989 35.6269C168.189 35.6269 170.354 34.701 170.354 34.701L169.249 32.0224C168.451 32.6838 167.265 33.0585 166.137 33.0585C164.393 33.0585 162.797 32.0224 162.797 30.2476V28.3186H164.097V31.2838L166.319 31.3169C169.18 31.3169 171.449 28.8477 170.924 26.0258C170.525 23.8983 168.496 22.3992 166.228 22.3992H164.108H164.085Z" fill="#161616"/>
<path d="M90.1073 22.388C88.6141 22.388 87.3374 22.7628 86.2659 23.4903V25.3422H84.9665V22.388H81.6152V25.3312H82.2308C83.0857 25.3422 83.7924 26.0036 83.7924 26.8303V35.6047H86.9157V28.0649C86.9954 27.2602 87.3602 26.6098 87.9757 26.1028C88.5913 25.5957 89.3208 25.3422 90.1871 25.3422H91.9767V22.377H90.1073V22.388Z" fill="#161616"/>
<path d="M96.7407 22.3992C95.4184 22.3992 94.2558 22.6968 93.2641 23.281V26.599H90.4258V35.6159H93.549V28.0871C93.6288 27.2824 93.9936 26.6321 94.6091 26.125C95.2247 25.6179 95.9542 25.3644 96.8205 25.3644H98.6101V22.3992H96.7407Z" fill="#161616"/>
<path d="M103.387 22.3992C102.065 22.3992 100.902 22.6968 99.9106 23.281V26.599H97.0723V35.6159H100.196V28.0871C100.275 27.2824 100.64 26.6321 101.256 26.125C101.871 25.6179 102.601 25.3644 103.467 25.3644H105.257V22.3992H103.387Z" fill="#161616"/>
<path d="M110.022 22.3992C108.7 22.3992 107.537 22.6968 106.545 23.281V26.599H103.707V35.6159H106.83V28.0871C106.91 27.2824 107.275 26.6321 107.89 26.125C108.506 25.6179 109.235 25.3644 110.102 25.3644H111.891V22.3992H110.022Z" fill="#161616"/>
<path d="M134.174 31.2397C134.174 32.0444 133.49 32.6948 132.635 32.6948H131.94C131.381 32.6948 130.914 32.2649 130.914 31.7247V26.3234C130.914 25.7833 131.37 25.3534 131.94 25.3534H132.635C133.479 25.3534 134.174 26.0037 134.174 26.8084V31.2397ZM132.567 22.3992H130.743V25.3534H129.444V22.3992H126.32V39.8598H129.444V32.6948H130.743V35.6159H132.567C135.154 35.6159 137.24 33.6318 137.24 31.1736V26.8415C137.24 24.3833 135.143 22.3992 132.567 22.3992Z" fill="#161616"/>
<path d="M29.9902 21.7818H34.6751C35.2337 21.7818 35.701 21.3519 35.701 20.8118V18.8276H33.1021V18.9158C33.1021 19.456 32.6461 19.8859 32.0762 19.8859H29.9902V21.7818Z" fill="#161616"/>
<path d="M118.946 32.2095C118.946 32.4741 118.718 32.6946 118.445 32.6946H116.883C115.971 32.6946 115.241 31.945 115.333 31.0521C115.412 30.2695 116.153 29.6963 116.986 29.6963H118.445C118.718 29.6963 118.946 29.9057 118.946 30.1813V32.2095ZM121.727 23.8761C120.588 22.8289 119.151 22.2887 117.43 22.2446C117.362 22.2446 117.293 22.2446 117.202 22.2446C116.017 22.2446 114.854 22.5092 114.022 22.7627V25.7941C114.82 25.1658 115.96 24.813 117.054 24.813C118.718 24.813 120.018 25.7169 120.348 27.1058C120.382 27.2381 120.394 27.3814 120.394 27.5247V29.7183H119.094V26.7862H116.872C114.01 26.7862 111.753 29.1892 112.266 31.9891C112.654 34.1166 114.683 35.6267 116.963 35.6267H119.083V32.7056H120.394V35.6267H123.517V28.1971C123.517 26.4224 122.924 24.9894 121.727 23.8871" fill="#161616"/>
</svg>
