<svg width="345" height="345" viewBox="0 0 345 345" fill="none" xmlns="http://www.w3.org/2000/svg">
<circle cx="172.5" cy="172.5" r="172.5" fill="#FF5301"/>
<path d="M288.816 275.859C287.917 276.844 286.938 277.508 285.879 277.849C284.831 278.201 283.699 278.258 282.484 278.02L282.639 276.076C283.747 276.318 284.69 276.308 285.471 276.044C286.252 275.802 286.984 275.308 287.666 274.56C288.214 273.96 288.584 273.384 288.776 272.833C288.957 272.293 288.989 271.803 288.871 271.363C288.765 270.934 288.536 270.559 288.185 270.238C287.789 269.877 287.324 269.681 286.791 269.651C286.269 269.631 285.582 269.918 284.73 270.51L281.969 272.443C280.749 273.302 279.704 273.719 278.835 273.693C277.967 273.689 277.176 273.362 276.462 272.711C275.828 272.132 275.427 271.434 275.259 270.617C275.093 269.821 275.168 268.976 275.486 268.083C275.803 267.189 276.36 266.306 277.156 265.434C277.9 264.619 278.664 263.998 279.448 263.571C280.232 263.167 281.013 262.914 281.79 262.813C282.567 262.713 283.317 262.733 284.039 262.874L283.922 264.947C283.296 264.769 282.663 264.7 282.024 264.74C281.386 264.78 280.759 264.955 280.144 265.265C279.518 265.587 278.921 266.059 278.352 266.682C277.825 267.26 277.438 267.82 277.192 268.363C276.946 268.928 276.856 269.448 276.921 269.922C276.997 270.407 277.234 270.83 277.63 271.192C277.993 271.523 278.424 271.699 278.924 271.719C279.436 271.75 280.065 271.504 280.811 270.982L283.809 268.892C284.598 268.345 285.325 267.981 285.99 267.799C286.656 267.638 287.263 267.632 287.813 267.781C288.363 267.951 288.859 268.238 289.301 268.641C289.901 269.189 290.3 269.854 290.499 270.638C290.698 271.443 290.667 272.296 290.404 273.198C290.131 274.111 289.602 274.998 288.816 275.859ZM268.507 294.649L262.433 287.316C261.191 285.816 260.647 284.355 260.803 282.932C260.968 281.521 261.788 280.204 263.265 278.981C264.729 277.768 266.175 277.207 267.604 277.298C269.031 277.41 270.366 278.216 271.608 279.716L277.682 287.049L276.265 288.222L270.485 281.244C269.477 280.027 268.48 279.34 267.493 279.182C266.494 279.034 265.451 279.41 264.365 280.31C263.279 281.209 262.721 282.159 262.693 283.158C262.652 284.167 263.136 285.28 264.143 286.496L269.924 293.475L268.507 294.649ZM254.879 304.227C253.558 305.036 252.291 305.346 251.077 305.155C249.863 304.963 248.899 304.286 248.186 303.123C247.473 301.959 247.321 300.802 247.731 299.652C248.136 298.522 248.999 297.553 250.319 296.744L250.396 296.562L253.573 294.615L250.28 289.241L251.848 288.28L259.781 301.222L254.879 304.227ZM251.16 298.116C250.232 298.685 249.662 299.296 249.45 299.947C249.233 300.62 249.36 301.342 249.833 302.113C250.306 302.884 250.887 303.319 251.577 303.418C252.262 303.538 253.069 303.313 253.997 302.744L257.311 300.713L254.474 296.085L251.16 298.116ZM250.066 298.356L241.789 294.446L243.652 293.304L250.851 296.687L250.066 298.356ZM223.038 305.25L214.816 308.075L214.255 306.444L224.217 303.021L229.151 317.376L227.41 317.974L223.038 305.25ZM195.375 310.936L197.291 310.545L199.709 314.347L206.448 312.973L207.184 308.527L209.077 308.141L206.319 324.196L204.178 324.633L195.375 310.936ZM206.139 314.797L200.708 315.904L204.928 322.672L206.139 314.797ZM171.224 327.851C169.676 327.824 168.441 327.403 167.52 326.59C166.598 325.776 166.15 324.687 166.174 323.323C166.198 321.958 166.692 320.901 167.656 320.151C168.604 319.416 169.852 319.062 171.401 319.09L171.564 318.977L175.289 319.043L175.4 312.742L177.239 312.774L176.973 327.952L171.224 327.851ZM171.372 320.699C170.284 320.68 169.475 320.888 168.946 321.324C168.402 321.774 168.121 322.452 168.105 323.356C168.09 324.261 168.346 324.94 168.875 325.394C169.388 325.863 170.189 326.107 171.277 326.126L175.164 326.195L175.259 320.767L171.372 320.699ZM170.321 320.313L165.442 312.567L167.627 312.605L171.88 319.328L170.321 320.313ZM149.482 326.314C148.059 326.083 146.885 325.566 145.958 324.764C145.015 323.974 144.356 322.958 143.983 321.717C143.594 320.473 143.529 319.057 143.786 317.468C144.044 315.879 144.554 314.555 145.316 313.498C146.062 312.439 147.009 311.676 148.157 311.21C149.286 310.756 150.563 310.645 151.985 310.875C153.408 311.106 154.591 311.616 155.535 312.406C156.461 313.209 157.119 314.232 157.507 315.476C157.881 316.717 157.939 318.132 157.681 319.721C157.423 321.31 156.921 322.635 156.174 323.694C155.413 324.751 154.467 325.507 153.337 325.96C152.19 326.426 150.905 326.544 149.482 326.314ZM149.758 324.611C150.787 324.778 151.719 324.68 152.555 324.319C153.388 323.972 154.082 323.378 154.638 322.536C155.191 321.71 155.57 320.668 155.774 319.412C155.978 318.156 155.949 317.04 155.687 316.066C155.423 315.107 154.952 314.323 154.274 313.716C153.594 313.124 152.739 312.745 151.709 312.578C150.665 312.409 149.734 312.498 148.916 312.847C148.081 313.209 147.386 313.803 146.833 314.63C146.277 315.472 145.897 316.521 145.694 317.777C145.49 319.033 145.52 320.141 145.784 321.1C146.045 322.075 146.516 322.858 147.197 323.45C147.86 324.054 148.714 324.441 149.758 324.611ZM121.331 319.217L124.238 310.15C124.833 308.295 125.771 307.051 127.054 306.415C128.331 305.794 129.883 305.776 131.708 306.361C133.519 306.942 134.771 307.858 135.464 309.111C136.138 310.374 136.178 311.932 135.583 313.787L132.677 322.854L130.925 322.293L133.691 313.663C134.173 312.159 134.215 310.949 133.816 310.032C133.403 309.111 132.525 308.435 131.182 308.004C129.838 307.573 128.738 307.615 127.881 308.129C127.009 308.639 126.332 309.646 125.85 311.15L123.084 319.779L121.331 319.217ZM101.527 310.82L102.274 309.265L107.042 311.557L112.871 299.43L114.529 300.227L108.701 312.354L113.469 314.645L112.721 316.2L101.527 310.82ZM101.651 293.677L93.3442 306.383L84.431 300.556L85.3749 299.112L92.7481 303.932L95.4288 299.832L89.692 296.081L90.6359 294.637L96.3727 298.388L99.1667 294.114L91.5048 289.105L92.4487 287.661L101.651 293.677ZM66.9995 275.22L68.3517 273.873L73.7096 279.249L72.3575 280.596L66.9995 275.22ZM56.141 254.008L51.3147 246.776L52.7495 245.819L58.5972 254.58L45.971 263.007L44.9495 261.477L56.141 254.008ZM35.8116 248.384L41.0625 246.134L41.7581 247.379L36.799 250.151L35.8116 248.384ZM42.0871 224.474L42.8883 226.258L39.7088 229.451L42.5272 235.724L47.0264 235.468L47.8182 237.23L31.549 238.06L30.6535 236.066L42.0871 224.474ZM40.6804 235.823L38.4087 230.767L32.7309 236.369L40.6804 235.823ZM22.6377 213.89L24.2877 213.387L25.831 218.447L38.7007 214.521L39.2375 216.281L26.3678 220.207L27.9111 225.266L26.2612 225.77L22.6377 213.89ZM33.3204 200.845L31.8716 192.272L33.5725 191.985L35.3279 202.371L20.3602 204.901L20.0536 203.087L33.3204 200.845ZM32.2534 172.624L32.3217 174.578L28.1716 176.334L28.4121 183.207L32.6748 184.668L32.7424 186.599L17.365 181.223L17.2886 179.039L32.2534 172.624ZM26.6648 182.6L26.471 177.061L19.0979 180.103L26.6648 182.6ZM17.4694 159.263C17.5986 157.935 17.9847 156.817 18.6276 155.909C19.2553 155 20.1268 154.275 21.2422 153.737L22.2834 155.387C21.2517 155.856 20.5026 156.43 20.036 157.109C19.5557 157.771 19.2665 158.606 19.1685 159.613C19.0898 160.422 19.139 161.104 19.3159 161.661C19.4944 162.202 19.7625 162.613 20.1203 162.894C20.4628 163.174 20.8706 163.337 21.3437 163.383C21.8778 163.435 22.3673 163.313 22.812 163.018C23.2414 162.72 23.6196 162.079 23.9465 161.094L24.9975 157.892C25.4591 156.473 26.0454 155.514 26.7566 155.013C27.454 154.495 28.2834 154.283 29.2448 154.377C30.0995 154.46 30.8388 154.778 31.4628 155.332C32.073 155.869 32.5189 156.59 32.8006 157.496C33.0822 158.401 33.1659 159.442 33.0515 160.617C32.9447 161.716 32.7054 162.671 32.3338 163.482C31.9484 164.276 31.4749 164.946 30.9134 165.493C30.3519 166.039 29.7397 166.472 29.0769 166.793L27.9279 165.064C28.536 164.83 29.0837 164.506 29.5708 164.091C30.0579 163.676 30.4547 163.16 30.7613 162.543C31.0693 161.911 31.2641 161.175 31.3458 160.335C31.4215 159.557 31.3953 158.877 31.2671 158.294C31.1251 157.695 30.8858 157.225 30.5492 156.884C30.1974 156.542 29.7544 156.344 29.2202 156.292C28.7319 156.245 28.2814 156.363 27.8686 156.646C27.4407 156.928 27.0844 157.502 26.7999 158.368L25.6535 161.838C25.3493 162.748 24.9858 163.476 24.5632 164.02C24.1267 164.547 23.644 164.916 23.1152 165.127C22.5725 165.321 22.0036 165.388 21.4084 165.331C20.5996 165.252 19.8809 164.959 19.2525 164.451C18.6103 163.926 18.124 163.224 17.7936 162.344C17.4647 161.45 17.3566 160.422 17.4694 159.263ZM24.3614 125.742C25.1213 123.49 26.3417 121.936 28.0226 121.079C29.6938 120.203 31.6845 120.154 33.9945 120.934C36.3045 121.713 37.8661 122.96 38.6792 124.675C39.4827 126.37 39.5044 128.344 38.7445 130.596L37.1781 135.237L22.795 130.384L24.3614 125.742ZM37.1689 129.87C37.7229 128.228 37.6676 126.785 37.0031 125.542C36.3289 124.278 35.1202 123.353 33.3767 122.764C31.6333 122.176 30.118 122.182 28.8309 122.784C27.5341 123.366 26.6087 124.478 26.0547 126.119L25.0178 129.192L36.132 132.943L37.1689 129.87ZM44.1167 115.763L30.5543 108.944L35.3376 99.4301L36.8788 100.205L32.922 108.075L37.2989 110.276L40.3776 104.152L41.9188 104.927L38.8401 111.051L43.402 113.344L47.5138 105.166L49.055 105.94L44.1167 115.763ZM42.8661 86.4254C43.6184 85.3237 44.4949 84.5297 45.4955 84.0433C46.4834 83.5482 47.5958 83.333 48.8327 83.3978L48.9514 85.3449C47.821 85.26 46.888 85.4027 46.1524 85.773C45.4128 86.122 44.7576 86.7144 44.1869 87.5501C43.7286 88.2212 43.4431 88.8432 43.3304 89.4161C43.2263 89.9764 43.2634 90.4659 43.4416 90.8847C43.6072 91.2948 43.8862 91.6339 44.2787 91.9019C44.7219 92.2046 45.2096 92.3333 45.7417 92.2882C46.2612 92.2345 46.9012 91.8546 47.6619 91.1486L50.1245 88.8475C51.2118 87.8262 52.1877 87.2671 53.0522 87.1704C53.9126 87.0524 54.7417 87.2658 55.5394 87.8106C56.2485 88.2948 56.7433 88.9298 57.0237 89.7154C57.3002 90.4798 57.3439 91.3266 57.1549 92.2559C56.9659 93.1852 56.5385 94.1374 55.8727 95.1124C55.2501 96.0241 54.5807 96.746 53.8646 97.2782C53.1444 97.789 52.4067 98.1487 51.6516 98.3572C50.8965 98.5656 50.1513 98.6509 49.416 98.6129L49.2413 96.5441C49.8867 96.632 50.5228 96.6115 51.1494 96.4824C51.776 96.3533 52.3722 96.092 52.938 95.6985C53.5124 95.2924 54.0374 94.7411 54.513 94.0446C54.954 93.3988 55.2585 92.7898 55.4265 92.2175C55.5905 91.6239 55.607 91.0968 55.476 90.636C55.3324 90.1665 55.039 89.7805 54.5958 89.4779C54.1906 89.2012 53.7389 89.0877 53.2408 89.1374C52.73 89.1785 52.1415 89.5101 51.4753 90.1321L48.8001 92.6222C48.0954 93.2735 47.4268 93.736 46.7943 94.0097C46.1578 94.262 45.5571 94.3531 44.9922 94.283C44.4233 94.1916 43.892 93.9773 43.3981 93.6401C42.727 93.1818 42.2383 92.5788 41.9319 91.8311C41.6215 91.0621 41.5331 90.2127 41.6668 89.2828C41.8092 88.3402 42.2089 87.3877 42.8661 86.4254ZM68.5184 56.9306L69.7076 58.1802L65.8756 61.8271L75.1514 71.5737L73.8185 72.8422L64.5427 63.0956L60.7107 66.7425L59.5215 65.4929L68.5184 56.9306ZM80.1018 47.4052C81.2715 46.563 82.4676 46.0987 83.6901 46.0121C84.916 45.9041 86.0996 46.1572 87.2409 46.7715C88.3947 47.3767 89.4419 48.3327 90.3826 49.6393C91.3233 50.9459 91.8977 52.2422 92.1057 53.5284C92.3262 54.8056 92.1952 56.0146 91.7129 57.1554C91.2341 58.2748 90.4098 59.2556 89.2401 60.0978C88.0704 60.9399 86.8725 61.415 85.6466 61.523C84.4241 61.6096 83.236 61.3502 82.0823 60.7449C80.941 60.1307 79.9 59.1703 78.9593 57.8637C78.0186 56.5571 77.438 55.2652 77.2175 53.988C77.0095 52.7018 77.1449 51.4991 77.6237 50.3796C78.1061 49.2388 78.9321 48.2473 80.1018 47.4052ZM81.1097 48.8051C80.2635 49.4143 79.6727 50.142 79.3372 50.9882C78.9927 51.8219 78.9213 52.733 79.1229 53.7215C79.3155 54.6976 79.7836 55.702 80.5272 56.7349C81.2708 57.7677 82.0793 58.5365 82.9529 59.0412C83.8174 59.5335 84.7042 59.7547 85.613 59.705C86.513 59.6428 87.386 59.3071 88.2322 58.6979C89.0908 58.0797 89.6861 57.3582 90.0181 56.5335C90.3536 55.6873 90.4251 54.7762 90.2324 53.8001C90.0309 52.8116 89.5583 51.8009 88.8147 50.7681C88.0711 49.7353 87.267 48.9727 86.4024 48.4804C85.5289 47.9757 84.6422 47.7545 83.7423 47.8167C82.8458 47.8575 81.9683 48.1869 81.1097 48.8051ZM105.026 32.5303L109.381 40.9981C110.271 42.7299 110.488 44.2738 110.03 45.63C109.565 46.9725 108.48 48.0821 106.776 48.9587C105.085 49.8282 103.552 50.0651 102.176 49.6692C100.806 49.2528 99.6763 48.1786 98.7857 46.4469L94.4309 37.9791L96.0672 37.1376L100.212 45.1963C100.934 46.6008 101.76 47.4864 102.69 47.853C103.634 48.2126 104.733 48.0698 105.987 47.4246C107.242 46.7795 107.99 45.9721 108.233 45.0024C108.489 44.0257 108.256 42.8351 107.534 41.4306L103.39 33.3718L105.026 32.5303ZM120.406 26.1092C121.87 25.6038 123.174 25.5753 124.318 26.0237C125.463 26.4721 126.257 27.3413 126.703 28.6312C127.148 29.9212 127.047 31.0836 126.398 32.1186C125.759 33.134 124.708 33.8945 123.244 34.3999L123.129 34.5611L119.607 35.7772L121.664 41.7341L119.925 42.3346L114.971 27.9859L120.406 26.1092ZM122.719 32.8781C123.748 32.5227 124.436 32.0499 124.784 31.4594C125.141 30.8494 125.172 30.1169 124.877 29.2618C124.581 28.4066 124.107 27.8565 123.455 27.6113C122.812 27.3467 121.976 27.392 120.947 27.7473L117.273 29.0159L119.045 34.1467L122.719 32.8781ZM123.839 32.8806L131.078 38.4838L129.013 39.1969L122.713 34.3401L123.839 32.8806ZM147.258 19.2146L150.081 34.1298L147.844 34.5532L139.716 25.7449L137.604 23.2421L137.581 23.2463L138.099 25.4891L140.092 36.0202L138.375 36.3452L135.552 21.43L137.789 21.0066L145.886 29.7739L148.033 32.3403L148.056 32.3361L147.534 30.0707L145.541 19.5396L147.258 19.2146ZM159.06 32.786L158.362 17.622L169 17.1324L169.079 18.8556L160.279 19.2606L160.504 24.1544L167.351 23.8393L167.43 25.5624L160.584 25.8776L160.818 30.9782L169.963 30.5573L170.042 32.2805L159.06 32.786ZM163.965 11.7922L165.895 11.7034L164.087 15.4475L162.616 15.5152L163.965 11.7922ZM177.826 32.2492L179.129 17.1252L189.738 18.0388L189.59 19.7574L180.814 19.0017L180.394 23.8826L187.222 24.4706L187.074 26.1893L180.246 25.6012L179.808 30.6884L188.928 31.4738L188.78 33.1924L177.826 32.2492ZM204.632 20.2251C205.934 20.5173 206.995 21.0386 207.817 21.7888C208.642 22.524 209.253 23.4783 209.649 24.6517L207.884 25.4811C207.545 24.3993 207.068 23.585 206.452 23.0381C205.855 22.4797 205.062 22.0896 204.075 21.8679C203.282 21.6898 202.598 21.6543 202.024 21.7611C201.465 21.8713 201.024 22.0865 200.701 22.4068C200.381 22.7121 200.169 23.0967 200.064 23.5605C199.947 24.0841 200.007 24.5848 200.246 25.0627C200.488 25.5256 201.077 25.9801 202.014 26.4262L205.062 27.8648C206.413 28.4981 207.293 29.1986 207.702 29.9662C208.129 30.7222 208.237 31.5714 208.025 32.514C207.837 33.3518 207.43 34.0461 206.803 34.5969C206.195 35.1361 205.424 35.4894 204.491 35.657C203.558 35.8246 202.515 35.7791 201.363 35.5205C200.286 35.2786 199.368 34.9232 198.609 34.4542C197.868 33.9736 197.261 33.4209 196.789 32.7962C196.316 32.1715 195.962 31.5104 195.725 30.813L197.583 29.8866C197.74 30.5189 197.994 31.1024 198.345 31.6371C198.697 32.1717 199.16 32.6292 199.734 33.0097C200.324 33.3935 201.03 33.6778 201.853 33.8625C202.616 34.0339 203.294 34.0919 203.888 34.0366C204.501 33.9698 204.997 33.7904 205.376 33.4986C205.76 33.1917 206.01 32.7765 206.127 32.2529C206.235 31.7741 206.174 31.3125 205.943 30.8679C205.717 30.4084 205.191 29.9839 204.367 29.5946L201.065 28.0282C200.199 27.6138 199.523 27.1633 199.035 26.6766C198.565 26.1783 198.259 25.6537 198.115 25.1029C197.99 24.5405 197.993 23.9676 198.124 23.3841C198.302 22.5912 198.682 21.9143 199.264 21.3534C199.863 20.7809 200.62 20.3851 201.534 20.1659C202.462 19.9501 203.495 19.9698 204.632 20.2251ZM236.18 47.4534L234.406 46.6334L234.71 42.1373L228.467 39.2527L225.24 42.3982L223.486 41.5879L235.219 30.2871L237.203 31.2036L236.18 47.4534ZM229.796 37.9666L234.828 40.2916L235.437 32.3386L229.796 37.9666ZM237.951 25.4177L237.795 29.3742L236.458 28.7568L236.197 24.6074L237.951 25.4177ZM272.767 53.9541L263.358 65.8662L261.986 64.7827L267.903 57.2925L270.546 54.2803L270.528 54.2661L258.214 61.803L256.987 60.8336L261.467 47.1093L261.449 47.0951L259.131 50.3638L253.214 57.854L251.843 56.7705L261.252 44.8584L263.472 46.612L260.372 55.9167L258.922 59.6075L258.958 59.636L262.217 57.4031L270.547 52.2005L272.767 53.9541ZM285.692 65.8584C286.667 66.92 287.27 68.0525 287.501 69.256C287.754 70.4605 287.643 71.6658 287.169 72.8719C286.704 74.0893 285.88 75.2426 284.694 76.3317C283.508 77.4207 282.289 78.1448 281.037 78.504C279.795 78.8744 278.579 78.8879 277.389 78.5443C276.22 78.2016 275.149 77.4995 274.174 76.438C273.199 75.3765 272.585 74.2435 272.332 73.039C272.101 71.8354 272.218 70.625 272.682 69.4075C273.156 68.2014 273.986 67.0538 275.172 65.9648C276.358 64.8757 277.572 64.1459 278.814 63.7755C280.066 63.4163 281.277 63.4081 282.445 63.7507C283.635 64.0943 284.717 64.7969 285.692 65.8584ZM284.422 67.0253C283.717 66.2574 282.924 65.757 282.044 65.5243C281.175 65.2812 280.262 65.3183 279.305 65.6358C278.358 65.9428 277.416 66.5268 276.479 67.3877C275.542 68.2486 274.874 69.1426 274.477 70.0699C274.091 70.9867 273.976 71.8934 274.133 72.79C274.302 73.6762 274.739 74.5032 275.444 75.2711C276.16 76.0503 276.947 76.5559 277.805 76.7877C278.685 77.0204 279.598 76.9833 280.544 76.6762C281.502 76.3588 282.45 75.7696 283.387 74.9087C284.324 74.0479 284.986 73.159 285.372 72.2421C285.77 71.3149 285.884 70.4082 285.716 69.522C285.569 68.6367 285.138 67.8045 284.422 67.0253ZM299.662 83.2845C300.991 85.2548 301.486 87.168 301.148 89.0241C300.83 90.8843 299.661 92.496 297.64 93.8593C295.619 95.2227 293.68 95.7073 291.824 95.3134C289.989 94.9236 288.407 93.7435 287.078 91.7732L284.338 87.7117L296.923 79.2231L299.662 83.2845ZM288.611 90.9611C289.579 92.3975 290.76 93.2289 292.152 93.4553C293.565 93.6858 295.034 93.2866 296.56 92.2576C298.085 91.2287 298.999 90.0202 299.302 88.6322C299.626 87.2483 299.304 85.8381 298.335 84.4017L296.522 81.7131L286.797 88.2725L288.611 90.9611ZM295.609 105.045L309.262 98.411L313.916 107.989L312.365 108.743L308.515 100.82L304.108 102.961L307.104 109.126L305.552 109.88L302.557 103.715L297.964 105.947L301.965 114.18L300.414 114.934L295.609 105.045ZM319.675 121.885C320.093 123.152 320.19 124.33 319.968 125.421C319.76 126.506 319.255 127.52 318.451 128.463L316.833 127.373C317.588 126.527 318.042 125.7 318.195 124.891C318.368 124.091 318.296 123.211 317.979 122.25C317.725 121.478 317.405 120.873 317.018 120.435C316.637 120.012 316.226 119.744 315.785 119.631C315.359 119.513 314.92 119.528 314.468 119.677C313.959 119.845 313.56 120.153 313.272 120.603C312.999 121.048 312.911 121.788 313.01 122.821L313.339 126.175C313.489 127.659 313.339 128.774 312.891 129.519C312.461 130.274 311.788 130.802 310.87 131.104C310.055 131.373 309.25 131.38 308.455 131.125C307.681 130.88 306.982 130.399 306.359 129.684C305.736 128.969 305.24 128.051 304.87 126.93C304.525 125.881 304.359 124.911 304.372 124.019C304.404 123.136 304.567 122.332 304.861 121.606C305.154 120.879 305.54 120.236 306.017 119.675L307.766 120.794C307.303 121.253 306.933 121.771 306.654 122.347C306.376 122.923 306.221 123.555 306.189 124.243C306.163 124.946 306.281 125.698 306.545 126.499C306.789 127.242 307.088 127.854 307.44 128.335C307.812 128.827 308.22 129.16 308.666 129.336C309.126 129.508 309.61 129.509 310.12 129.342C310.586 129.188 310.951 128.899 311.214 128.473C311.492 128.042 311.587 127.373 311.498 126.466L311.148 122.828C311.059 121.873 311.098 121.061 311.265 120.392C311.452 119.734 311.745 119.201 312.144 118.795C312.562 118.399 313.056 118.108 313.624 117.921C314.396 117.667 315.171 117.645 315.951 117.856C316.751 118.078 317.479 118.524 318.136 119.195C318.798 119.881 319.311 120.778 319.675 121.885ZM326.877 155.323C327.093 157.69 326.605 159.605 325.415 161.069C324.24 162.546 322.439 163.395 320.011 163.616C317.584 163.838 315.651 163.328 314.214 162.089C312.794 160.863 311.976 159.067 311.76 156.7L311.316 151.822L326.433 150.444L326.877 155.323ZM313.495 156.727C313.652 158.453 314.286 159.75 315.397 160.619C316.524 161.501 318.004 161.859 319.836 161.692C321.669 161.525 323.052 160.907 323.986 159.836C324.937 158.78 325.333 157.389 325.176 155.663L324.882 152.433L313.2 153.497L313.495 156.727ZM327.862 179.426C327.78 180.865 327.388 182.087 326.685 183.091C325.997 184.111 325.055 184.871 323.86 185.371C322.663 185.887 321.261 186.098 319.654 186.007C318.046 185.915 316.677 185.545 315.547 184.897C314.416 184.264 313.559 183.401 312.977 182.308C312.408 181.231 312.165 179.973 312.248 178.534C312.33 177.095 312.715 175.865 313.403 174.845C314.105 173.841 315.055 173.081 316.252 172.566C317.447 172.066 318.849 171.862 320.456 171.953C322.064 172.045 323.433 172.408 324.564 173.04C325.694 173.689 326.543 174.551 327.112 175.628C327.694 176.721 327.944 177.987 327.862 179.426ZM326.14 179.328C326.199 178.287 326.006 177.369 325.56 176.576C325.129 175.784 324.466 175.154 323.571 174.689C322.692 174.224 321.617 173.955 320.346 173.882C319.076 173.81 317.969 173.954 317.027 174.315C316.1 174.676 315.37 175.226 314.836 175.963C314.318 176.702 314.029 177.591 313.97 178.632C313.909 179.689 314.095 180.605 314.527 181.383C314.973 182.176 315.636 182.805 316.515 183.27C317.41 183.736 318.493 184.005 319.764 184.078C321.034 184.15 322.133 184.006 323.06 183.644C324.002 183.283 324.732 182.734 325.25 181.995C325.783 181.273 326.08 180.384 326.14 179.328ZM323.739 208.146L314.417 206.205C312.51 205.808 311.174 205.005 310.408 203.796C309.656 202.59 309.476 201.049 309.867 199.173C310.254 197.311 311.035 195.97 312.208 195.15C313.393 194.347 314.939 194.144 316.845 194.541L326.168 196.482L325.792 198.284L316.921 196.436C315.375 196.114 314.166 196.2 313.297 196.692C312.423 197.199 311.843 198.143 311.556 199.524C311.268 200.905 311.425 201.995 312.026 202.794C312.624 203.608 313.696 204.175 315.242 204.497L324.114 206.345L323.739 208.146ZM303.197 223.553L303.907 221.56L311.183 219.783L306.681 213.782L307.399 211.768L312.894 219.367L321.543 217.299L320.817 219.335L313.959 220.968L318.221 226.615L317.549 228.499L312.27 221.391L303.197 223.553ZM297.362 250.579L295.733 249.585L299.688 243.106L301.317 244.101L297.362 250.579Z" fill="#FFEFE9"/>
<path d="M155.851 114.195L157.041 115.209C160.482 122.527 162.461 130.095 166.147 137.35C171.051 147.008 176.453 156.879 181.795 166.112C185.252 172.087 188.377 177.694 190.049 184.442L191.286 179.749C190.826 171.43 191.089 163.312 192.576 155.093C200.709 155.334 209.035 154.132 216.942 156.329L211.944 214.459L209.448 213.836C208.969 215.644 210.682 214.84 211.202 216.123C213.009 220.578 210.544 227.411 210.607 232.192C205.631 234.613 201.635 238.796 195.899 239.453C194.117 239.463 190.939 235.811 188.988 234.579C183.313 231 176.75 228.118 171.298 224.113C169.754 222.981 167.716 221.398 168.752 219.467L167.763 220.76L165.621 220.081L166.253 218.216C162.677 219.167 158.362 215.244 155.002 213.507C148.442 210.119 144.443 206.687 138.807 203.424C136.101 201.86 132.544 201.737 130.671 199.056C134.391 191.767 140.059 185.616 142.483 177.569L144.938 178.548C151.846 184.877 159.709 189.783 168.132 193.822C166.56 187.227 162.367 181.858 159.461 175.917C154.332 165.43 149.92 154.658 145.088 144.005C144.352 142.381 141.653 138.599 141.493 137.576C141.334 136.552 142.815 136.252 142.47 135.051L139.996 135.673C139.508 133.721 138.434 131.988 137.576 130.189C136.323 127.564 135.324 125.058 133.599 122.345C132.995 121.397 130.082 118.165 130.007 117.765C129.776 116.489 135.171 113.679 136.417 113.056C138.268 112.127 149.294 107.131 150.462 107.012C153.377 106.718 154.933 111.952 155.851 114.195ZM144.975 115.037L143.729 113.792V115.04H144.975V115.037ZM138.086 120.675H136.214V121.92H138.086V120.675ZM149.976 148.804V147.559H149.363V148.804H149.976ZM166.253 150.681L165.947 149.436L165.004 150.678H166.253V150.681ZM164.371 151.304V150.059H163.758V151.304H164.371ZM154.36 153.816H153.114V154.429H154.36V153.816ZM159.367 155.068H158.121V155.681H159.367V155.068ZM206.317 158.193L204.51 158.265L203.815 160.055L205.622 159.983L206.317 158.193ZM200.054 161.941H198.181V163.186H200.054V161.941ZM162.502 166.321L159.374 166.95C158.707 169.91 162.947 166.659 162.502 166.321ZM206.94 172.563C207.137 171.653 206.68 171.261 206.01 170.708L204.444 171.324V171.934L206.94 172.563ZM177.517 173.189V171.944H176.903V173.189H177.517ZM214.446 176.94V175.695H213.832V176.94H214.446ZM164.998 180.069V178.198H164.384V180.069H164.998ZM185.03 180.069V178.823H184.416V180.069H185.03ZM144.975 182.578C143.832 182.365 142.896 183.263 143.103 184.449L144.975 182.578ZM150.609 186.945C150.402 184.039 147.712 184.758 148.11 187.574L150.609 186.945ZM180.646 187.571V186.326H180.032V187.571H180.646ZM173.766 189.445V188.519L172.523 187.571V189.445H173.766ZM174.392 190.077H173.146V191.322H174.392V190.077ZM139.968 195.07L142.473 194.126L140.905 191.329L139.968 195.07ZM183.157 191.332H181.907V192.577L183.154 191.332H183.157ZM166.172 198.305C165.317 197.933 164.575 198.64 164.378 199.444L167.503 200.702C167.919 200.326 166.294 198.359 166.169 198.305H166.172ZM194.421 200.082H193.174V201.328H194.421V200.082ZM150.606 202.588C150.465 202.445 148.599 201.894 148.107 201.963C148.414 203.164 149.491 203.371 150.606 203.202C150.571 202.998 150.69 202.679 150.606 202.592V202.588ZM205.697 206.956L207.563 202.579L205.666 203.627L205.697 206.956ZM186.279 209.459C186.445 208.292 186.285 207.294 185.039 206.959C184.873 208.126 185.033 209.124 186.279 209.459ZM202.556 208.214H201.31V208.827H202.556V208.214ZM157.495 210.717H155.619V211.959H156.546L157.495 210.717ZM182.528 221.967H181.601L180.652 223.209H182.528V221.967ZM178.776 223.844C177.993 223.428 176.593 224.846 176.897 225.083C177.68 225.499 179.08 224.082 178.776 223.844ZM210.695 225.086V223.838L209.448 224.78L210.695 225.086ZM203.182 231.347L201.936 231.653L203.179 232.595V231.347H203.182Z" fill="#FFEFE9"/>
</svg>
