<svg xmlns="http://www.w3.org/2000/svg" width="345" height="345" fill="none"><circle cx="172.5" cy="172.5" r="172" fill="#fff" stroke="#2F2F2F"/><path fill="#2F2F2F" d="M288.816 275.859q-1.349 1.478-2.937 1.99-1.572.528-3.395.171l.155-1.944q1.661.364 2.832-.032 1.172-.362 2.195-1.484.822-.9 1.11-1.727.272-.81.095-1.47a2.23 2.23 0 0 0-.686-1.125 2.2 2.2 0 0 0-1.394-.587q-.783-.03-2.061.859l-2.761 1.933q-1.83 1.289-3.134 1.25-1.302-.006-2.373-.982a3.8 3.8 0 0 1-1.203-2.094q-.25-1.194.227-2.534.476-1.341 1.67-2.649 1.116-1.223 2.292-1.863 1.176-.606 2.342-.758 1.166-.15 2.249.061l-.117 2.073a5.6 5.6 0 0 0-1.898-.207 4.8 4.8 0 0 0-1.88.525q-.939.483-1.792 1.417-.79.867-1.16 1.681-.369.848-.271 1.559.114.727.709 1.27a1.98 1.98 0 0 0 1.294.527q.768.046 1.887-.737l2.998-2.09q1.184-.82 2.181-1.093.999-.241 1.823-.018.825.255 1.488.86.9.821 1.198 1.997.299 1.207-.095 2.56-.41 1.37-1.588 2.661m-20.309 18.79-6.074-7.333q-1.864-2.25-1.63-4.384.247-2.116 2.462-3.951 2.196-1.82 4.339-1.683 2.14.168 4.004 2.418l6.074 7.333-1.417 1.173-5.78-6.978q-1.512-1.825-2.992-2.062-1.499-.222-3.128 1.128t-1.672 2.848q-.061 1.514 1.45 3.338l5.781 6.979zm-13.628 9.578q-1.981 1.214-3.802.928-1.821-.288-2.891-2.032-1.07-1.746-.455-3.471.608-1.695 2.588-2.908l.077-.182 3.177-1.947-3.293-5.374 1.568-.961 7.933 12.942zm-3.719-6.111q-1.392.854-1.71 1.831-.326 1.01.383 2.166t1.744 1.305q1.028.18 2.42-.674l3.314-2.031-2.837-4.628zm-1.094.24-8.277-3.91 1.863-1.142 7.199 3.383zm-27.028 6.894-8.222 2.825-.561-1.631 9.962-3.423 4.934 14.355-1.741.598zm-27.663 5.686 1.916-.391 2.418 3.802 6.739-1.374.736-4.446 1.893-.386-2.758 16.055-2.141.437zm10.764 3.861-5.431 1.107 4.22 6.768zm-34.915 13.054q-2.322-.041-3.704-1.261-1.382-1.221-1.346-3.267.036-2.047 1.482-3.172 1.422-1.103 3.745-1.061l.163-.113 3.725.066.111-6.301 1.839.032-.266 15.178zm.148-7.152q-1.632-.029-2.426.625-.816.675-.841 2.032-.023 1.357.77 2.038.77.704 2.402.732l3.887.069.095-5.428zm-1.051-.386-4.879-7.746 2.185.038 4.253 6.723zm-20.839 6.001q-2.134-.347-3.524-1.55-1.415-1.185-1.975-3.047-.583-1.866-.197-4.249.387-2.384 1.53-3.97 1.119-1.589 2.841-2.288 1.694-.68 3.828-.335t3.55 1.531q1.39 1.204 1.972 3.07.561 1.861.174 4.245t-1.507 3.973q-1.142 1.586-2.837 2.266-1.72.699-3.855.354m.276-1.703q1.543.25 2.797-.292 1.25-.52 2.083-1.783.83-1.24 1.136-3.124t-.087-3.346q-.396-1.439-1.413-2.35-1.02-.888-2.565-1.138-1.566-.254-2.793.269-1.253.543-2.083 1.783-.834 1.263-1.139 3.147t.09 3.323q.392 1.462 1.413 2.35.995.906 2.561 1.161m-28.427-5.394 2.907-9.067q.892-2.782 2.816-3.735 1.916-.932 4.654-.054 2.717.871 3.756 2.75 1.011 1.894.119 4.676l-2.906 9.067-1.752-.561 2.766-8.63q.723-2.256.125-3.631-.62-1.381-2.634-2.028-2.016-.646-3.301.125-1.308.765-2.031 3.021l-2.766 8.629zm-19.804-8.397.747-1.555 4.768 2.292 5.829-12.127 1.658.797-5.828 12.127 4.768 2.291-.748 1.555zm.124-17.143-8.307 12.706-8.913-5.827.944-1.444 7.373 4.82 2.68-4.1-5.736-3.751.944-1.444 5.737 3.751 2.794-4.274-7.662-5.009.944-1.444zM67 275.22l1.352-1.347 5.358 5.376-1.352 1.347zM56.14 254.008l-4.826-7.232 1.435-.957 5.847 8.761-12.626 8.427-1.021-1.53zm-20.33-5.624 5.252-2.25.695 1.245-4.959 2.772zm6.276-23.91.801 1.784-3.18 3.193 2.82 6.273 4.498-.256.792 1.762-16.269.83-.895-1.994zm-1.407 11.349-2.271-5.056-5.678 5.602zM22.638 213.89l1.65-.503 1.543 5.06 12.87-3.926.536 1.76-12.87 3.926 1.544 5.059-1.65.504zm10.682-13.045-1.448-8.573 1.7-.287 1.756 10.386-14.968 2.53-.306-1.814zm-1.067-28.221.069 1.954-4.15 1.756.24 6.873 4.263 1.461.067 1.931-15.377-5.376-.076-2.184zm-5.588 9.976-.194-5.539-7.373 3.042zm-9.196-23.337q.195-1.992 1.159-3.354.941-1.364 2.614-2.172l1.041 1.65q-1.547.704-2.247 1.722-.72.993-.867 2.504-.12 1.213.147 2.048.268.811.804 1.233.514.42 1.224.489a2.2 2.2 0 0 0 1.468-.365q.645-.447 1.134-1.924l1.051-3.202q.692-2.128 1.76-2.879 1.045-.777 2.488-.636a3.8 3.8 0 0 1 2.218.955q.915.805 1.338 2.164.422 1.358.25 3.121-.16 1.648-.717 2.865-.58 1.19-1.42 2.011a7 7 0 0 1-1.837 1.3l-1.15-1.729a5.6 5.6 0 0 0 1.644-.973 4.8 4.8 0 0 0 1.19-1.548q.462-.948.585-2.208.114-1.167-.079-2.041-.213-.898-.718-1.41-.528-.513-1.329-.592a2 2 0 0 0-1.351.354q-.642.423-1.07 1.722l-1.145 3.47q-.457 1.365-1.09 2.182-.655.79-1.449 1.107a3.9 3.9 0 0 1-1.707.204 3.97 3.97 0 0 1-2.155-.88q-.964-.787-1.46-2.107-.492-1.342-.324-3.081m6.892-33.521q1.14-3.378 3.662-4.663 2.506-1.314 5.972-.145 3.465 1.168 4.684 3.741 1.205 2.543.066 5.921l-1.567 4.641-14.383-4.853zm12.808 4.128q.831-2.463-.166-4.328-1.011-1.895-3.626-2.778-2.616-.882-4.546.02-1.945.873-2.776 3.335l-1.037 3.073 11.114 3.751zm6.948-14.107-13.563-6.819 4.784-9.514 1.54.775-3.956 7.87 4.377 2.201 3.079-6.124 1.54.775-3.078 6.124 4.562 2.293 4.112-8.178 1.541.774zm-1.25-29.338q1.127-1.651 2.629-2.382 1.481-.742 3.337-.645l.118 1.947q-1.695-.127-2.799.428-1.11.523-1.965 1.777-.687 1.007-.857 1.866-.156.84.112 1.469.247.615.837 1.017.664.454 1.463.386.78-.08 1.92-1.14l2.462-2.3q1.632-1.532 2.928-1.678 1.29-.177 2.487.64a3.8 3.8 0 0 1 1.485 1.905q.414 1.148.13 2.54-.283 1.395-1.281 2.857-.934 1.368-2.008 2.166-1.08.766-2.213 1.08-1.132.312-2.236.255l-.175-2.069a5.6 5.6 0 0 0 1.908-.062 4.8 4.8 0 0 0 1.789-.784q.862-.609 1.575-1.653.661-.969.913-1.828.246-.89.05-1.581-.216-.704-.88-1.158a1.98 1.98 0 0 0-1.355-.34q-.767.06-1.766.994l-2.675 2.49q-1.057.977-2.006 1.388-.954.378-1.802.273a3.9 3.9 0 0 1-1.594-.643 3.97 3.97 0 0 1-1.466-1.809q-.466-1.153-.265-2.548.213-1.414 1.2-2.858m25.651-29.494 1.19 1.25-3.832 3.646 9.275 9.747-1.332 1.268-9.276-9.746-3.832 3.647-1.19-1.25zm11.584-9.526q1.755-1.263 3.588-1.393 1.84-.162 3.55.76 1.732.907 3.143 2.867t1.723 3.89q.33 1.916-.393 3.626-.718 1.68-2.473 2.943t-3.593 1.425q-1.834.13-3.565-.778-1.712-.921-3.123-2.881-1.41-1.96-1.742-3.876-.311-1.93.407-3.608.723-1.712 2.478-2.975m1.008 1.4q-1.27.915-1.773 2.183-.516 1.251-.214 2.733.288 1.465 1.404 3.014t2.426 2.306q1.296.739 2.66.664 1.35-.093 2.62-1.007 1.287-.927 1.785-2.165.504-1.269.214-2.733-.302-1.483-1.417-3.032-1.116-1.549-2.413-2.288-1.31-.756-2.66-.663-1.344.06-2.632.988m23.916-16.275 4.355 8.468q1.335 2.598.649 4.632-.698 2.013-3.254 3.329-2.536 1.304-4.6.71-2.055-.624-3.39-3.222l-4.355-8.468 1.636-.841 4.145 8.058q1.083 2.107 2.478 2.657 1.416.54 3.297-.428t2.246-2.423q.384-1.464-.699-3.571l-4.144-8.06zm15.38-6.42q2.196-.76 3.912-.086 1.717.672 2.385 2.607t-.305 3.488q-.958 1.523-3.154 2.28l-.115.162-3.522 1.216 2.057 5.957-1.739.6-4.954-14.348zm2.313 6.768q1.543-.532 2.065-1.419.535-.915.093-2.197-.444-1.282-1.422-1.65-.965-.398-2.508.135l-3.674 1.269 1.772 5.13zm1.12.003 7.239 5.603-2.065.713-6.3-4.857zm23.419-13.666 2.823 14.915-2.237.423-8.128-8.808-2.112-2.503-.023.004.518 2.243 1.993 10.531-1.717.325-2.823-14.915 2.237-.423 8.097 8.767 2.147 2.566.023-.004-.522-2.265-1.993-10.531zm11.802 13.571-.698-15.164 10.638-.49.079 1.724-8.8.405.225 4.893 6.847-.315.079 1.723-6.846.316.234 5.1 9.145-.42.079 1.723zm4.905-20.994 1.93-.089-1.808 3.745-1.471.067zm13.861 20.457 1.303-15.124 10.609.914-.148 1.718-8.776-.755-.42 4.88 6.828.589-.148 1.718-6.828-.588-.438 5.087 9.12.786-.148 1.718zm26.806-12.024q1.952.439 3.185 1.564 1.238 1.103 1.832 2.863l-1.765.83q-.508-1.624-1.432-2.444-.896-.837-2.377-1.17-1.19-.267-2.051-.107-.839.166-1.323.646-.48.458-.637 1.154a2.2 2.2 0 0 0 .182 1.502q.363.694 1.768 1.363l3.048 1.439q2.026.95 2.64 2.101.64 1.134.323 2.548a3.8 3.8 0 0 1-1.222 2.083q-.912.809-2.312 1.06-1.4.252-3.128-.136-1.615-.363-2.754-1.067-1.112-.72-1.82-1.658a7 7 0 0 1-1.064-1.983l1.858-.926q.236.948.762 1.75.528.802 1.389 1.373.885.576 2.119.852 1.144.258 2.035.175.92-.101 1.488-.538.576-.461.751-1.246.162-.718-.184-1.385-.34-.69-1.576-1.273l-3.302-1.567q-1.298-.622-2.03-1.351-.705-.748-.92-1.574a3.9 3.9 0 0 1 .009-1.719 3.97 3.97 0 0 1 1.14-2.03q.899-.86 2.27-1.188 1.392-.324 3.098.06m31.548 27.228-1.774-.82.304-4.496-6.243-2.884-3.227 3.145-1.754-.81 11.733-11.3 1.984.916zm-6.384-9.486 5.032 2.325.609-7.953zm8.155-12.55-.156 3.957-1.337-.617-.261-4.15zm34.816 28.537-9.409 11.912-1.372-1.083 5.917-7.49 2.643-3.013-.018-.014-12.314 7.537-1.227-.97 4.48-13.724-.018-.014-2.318 3.269-5.917 7.49-1.371-1.084 9.409-11.912 2.22 1.754-3.1 9.305-1.45 3.69.036.029 3.259-2.233 8.33-5.203zm12.925 11.904q1.462 1.593 1.809 3.398.38 1.806-.332 3.616-.697 1.825-2.475 3.46-1.779 1.633-3.657 2.172-1.863.555-3.648.04-1.753-.513-3.215-2.106-1.463-1.593-1.842-3.399-.346-1.805.35-3.632.711-1.809 2.49-3.442 1.779-1.635 3.642-2.19 1.879-.538 3.631-.024 1.785.515 3.247 2.107m-1.27 1.167q-1.058-1.152-2.378-1.5-1.303-.366-2.739.11-1.42.462-2.826 1.753t-2.002 2.682q-.58 1.375-.344 2.72.253 1.329 1.311 2.481 1.074 1.17 2.361 1.517 1.32.348 2.739-.112 1.437-.475 2.843-1.767t1.985-2.667q.597-1.39.344-2.72-.22-1.328-1.294-2.497m15.24 16.26q1.993 2.955 1.486 5.74-.477 2.79-3.508 4.834-3.032 2.045-5.816 1.454-2.752-.585-4.746-3.54l-2.74-4.061 12.585-8.489zm-11.051 7.676q1.452 2.154 3.541 2.494 2.12.346 4.408-1.197 2.287-1.544 2.742-3.626.486-2.076-.967-4.23l-1.813-2.689-9.725 6.56zm6.998 14.084 13.653-6.634 4.654 9.578-1.551.754-3.85-7.923-4.407 2.141 2.996 6.165-1.552.754-2.995-6.165-4.593 2.232 4.001 8.233-1.551.754zm24.066 16.84q.626 1.9.293 3.536-.312 1.628-1.517 3.042l-1.618-1.09q1.132-1.269 1.362-2.482.26-1.2-.216-2.641-.38-1.158-.961-1.815-.571-.635-1.233-.804a2.23 2.23 0 0 0-1.317.046 2.2 2.2 0 0 0-1.196.926q-.41.668-.262 2.218l.329 3.354q.224 2.226-.448 3.344-.645 1.132-2.021 1.585a3.8 3.8 0 0 1-2.415.021q-1.161-.368-2.096-1.441-.934-1.073-1.489-2.754-.518-1.573-.498-2.911.048-1.324.489-2.413a7 7 0 0 1 1.156-1.931l1.749 1.119a5.6 5.6 0 0 0-1.112 1.553 4.8 4.8 0 0 0-.465 1.896q-.04 1.054.356 2.256.367 1.115.895 1.836.558.737 1.226 1.001.69.257 1.454.006a1.98 1.98 0 0 0 1.094-.869q.417-.647.284-2.007l-.35-3.638q-.134-1.433.117-2.436.28-.988.879-1.597a3.9 3.9 0 0 1 1.48-.874 3.97 3.97 0 0 1 2.327-.065q1.2.333 2.185 1.339.993 1.03 1.539 2.69m7.202 33.438q.324 3.55-1.462 5.746-1.762 2.215-5.404 2.547t-5.797-1.527q-2.13-1.839-2.454-5.389l-.444-4.878 15.117-1.378zm-13.382 1.404q.236 2.589 1.902 3.892 1.69 1.323 4.439 1.073t4.15-1.856q1.426-1.584 1.19-4.173l-.294-3.23-11.682 1.064zm14.367 22.699q-.123 2.159-1.177 3.665-1.032 1.53-2.825 2.28-1.795.773-4.206.636-2.412-.138-4.107-1.11-1.697-.95-2.57-2.589-.854-1.615-.729-3.774.123-2.159 1.155-3.689 1.053-1.506 2.849-2.279 1.793-.75 4.204-.613 2.412.139 4.108 1.087 1.695.973 2.548 2.588.873 1.64.75 3.798m-1.722-.098q.089-1.562-.58-2.752-.647-1.189-1.989-1.887-1.318-.697-3.225-.807-1.906-.108-3.319.433-1.39.542-2.191 1.648-.777 1.108-.866 2.669-.091 1.585.557 2.751.67 1.19 1.988 1.887 1.342.699 3.249.808 1.905.109 3.296-.434 1.413-.541 2.19-1.649.8-1.083.89-2.667m-2.401 28.818-9.322-1.941q-2.86-.595-4.009-2.409-1.128-1.809-.541-4.623.581-2.793 2.341-4.023 1.778-1.204 4.637-.609l9.323 1.941-.376 1.802-8.871-1.848q-2.32-.483-3.624.256-1.31.76-1.741 2.832t.47 3.27q.897 1.22 3.216 1.703l8.872 1.848zm-20.542 15.407.71-1.993 7.276-1.777-4.502-6.001.718-2.014 5.495 7.599 8.649-2.068-.726 2.036-6.858 1.633 4.262 5.647-.672 1.884-5.279-7.108zm-5.835 27.026-1.629-.994 3.955-6.479 1.629.995zM155.851 114.195l1.19 1.014c3.441 7.318 5.42 14.886 9.106 22.141 4.904 9.658 10.306 19.529 15.648 28.762 3.457 5.975 6.582 11.582 8.254 18.33l1.237-4.693c-.46-8.319-.197-16.437 1.29-24.656 8.133.241 16.459-.961 24.366 1.236l-4.998 58.13-2.496-.623c-.479 1.808 1.234 1.004 1.754 2.287 1.807 4.455-.658 11.288-.595 16.069-4.976 2.421-8.972 6.604-14.708 7.261-1.782.01-4.96-3.642-6.911-4.874-5.675-3.579-12.238-6.461-17.69-10.466-1.544-1.132-3.582-2.715-2.546-4.646l-.989 1.293-2.142-.679.632-1.865c-3.576.951-7.891-2.972-11.251-4.709-6.56-3.388-10.559-6.82-16.195-10.083-2.706-1.564-6.263-1.687-8.136-4.368 3.72-7.289 9.388-13.44 11.812-21.487l2.455.979c6.908 6.329 14.771 11.235 23.194 15.274-1.572-6.595-5.765-11.964-8.671-17.905-5.129-10.487-9.541-21.259-14.373-31.912-.736-1.624-3.435-5.406-3.595-6.429-.159-1.024 1.322-1.324.977-2.525l-2.474.622c-.488-1.952-1.562-3.685-2.42-5.484-1.253-2.625-2.252-5.131-3.977-7.844-.604-.948-3.517-4.18-3.592-4.58-.231-1.276 5.164-4.086 6.41-4.709 1.851-.929 12.877-5.925 14.045-6.044 2.915-.294 4.471 4.94 5.389 7.183m-10.876.842-1.246-1.245v1.248h1.246zm-6.889 5.638h-1.872v1.245h1.872zm11.89 28.129v-1.245h-.613v1.245zm16.277 1.877-.306-1.245-.943 1.242h1.249zm-1.882.623v-1.245h-.613v1.245zm-10.011 2.512h-1.246v.613h1.246zm5.007 1.252h-1.246v.613h1.246zm46.95 3.125-1.807.072-.695 1.79 1.807-.072zm-6.263 3.748h-1.873v1.245h1.873zm-37.552 4.38-3.128.629c-.667 2.96 3.573-.291 3.128-.629m44.438 6.242c.197-.91-.26-1.302-.93-1.855l-1.566.616v.61zm-29.423.626v-1.245h-.614v1.245zm36.929 3.751v-1.245h-.614v1.245zm-49.448 3.129v-1.871h-.614v1.871zm20.032 0v-1.246h-.614v1.246zm-40.055 2.509c-1.143-.213-2.079.685-1.872 1.871zm5.634 4.367c-.207-2.906-2.897-2.187-2.499.629zm30.037.626v-1.245h-.614v1.245zm-6.88 1.874v-.926l-1.243-.948v1.874zm.626.632h-1.246v1.245h1.246zm-34.424 4.993 2.505-.944-1.568-2.797zm43.189-3.738h-1.25v1.245l1.247-1.245zm-16.985 6.973c-.855-.372-1.597.335-1.794 1.139l3.125 1.258c.416-.376-1.209-2.343-1.334-2.397zm28.249 1.777h-1.247v1.246h1.247zm-43.815 2.506c-.141-.143-2.007-.694-2.499-.625.307 1.201 1.384 1.408 2.499 1.239-.035-.204.084-.523 0-.61zm55.091 4.368 1.866-4.377-1.897 1.048zm-19.418 2.503c.166-1.167.006-2.165-1.24-2.5-.166 1.167-.006 2.165 1.24 2.5m16.277-1.245h-1.246v.613h1.246zm-45.061 2.503h-1.876v1.242h.927zm25.033 11.25h-.927l-.949 1.242h1.876zm-3.752 1.877c-.783-.416-2.183 1.002-1.879 1.239.783.416 2.183-1.001 1.879-1.239m31.919 1.242v-1.248l-1.247.942zm-7.513 6.261-1.246.306 1.243.942v-1.248z"/></svg>