<svg width="42" height="43" viewBox="0 0 42 43" fill="none" xmlns="http://www.w3.org/2000/svg">
<g filter="url(#filter0_g_6_7)">
<rect x="1" y="1.7188" width="40" height="40" rx="20" fill="#292929"/>
<path d="M28 30.7188V28.7188C28 27.6579 27.5786 26.6405 26.8284 25.8904C26.0783 25.1402 25.0609 24.7188 24 24.7188H18C16.9391 24.7188 15.9217 25.1402 15.1716 25.8904C14.4214 26.6405 14 27.6579 14 28.7188V30.7188" stroke="white" stroke-width="2" stroke-linecap="round" stroke-linejoin="round"/>
<path d="M21 20.7188C23.2091 20.7188 25 18.9279 25 16.7188C25 14.5097 23.2091 12.7188 21 12.7188C18.7909 12.7188 17 14.5097 17 16.7188C17 18.9279 18.7909 20.7188 21 20.7188Z" stroke="white" stroke-width="2" stroke-linecap="round" stroke-linejoin="round"/>
</g>
<defs>
<filter id="filter0_g_6_7" x="0" y="0.718796" width="42" height="42" filterUnits="userSpaceOnUse" color-interpolation-filters="sRGB">
<feFlood flood-opacity="0" result="BackgroundImageFix"/>
<feBlend mode="normal" in="SourceGraphic" in2="BackgroundImageFix" result="shape"/>
<feTurbulence type="fractalNoise" baseFrequency="0.050251256674528122 0.050251256674528122" numOctaves="3" seed="7694" />
<feDisplacementMap in="shape" scale="2" xChannelSelector="R" yChannelSelector="G" result="displacedImage" width="100%" height="100%" />
<feMerge result="effect1_texture_6_7">
<feMergeNode in="displacedImage"/>
</feMerge>
</filter>
</defs>
</svg>
