<svg width="1604" height="891" viewBox="0 0 1604 891" fill="none" xmlns="http://www.w3.org/2000/svg">
<g clip-path="url(#clip0_505_32)">
<path d="M947.398 603.832H1007.74V706.258H949.78C921.196 706.258 897.376 714.992 876.732 732.46C856.882 749.134 844.972 772.16 842.59 799.95V1059.59H740.164V757.074C740.164 728.49 717.932 706.258 689.348 706.258V705.464H669.498V603.832H779.07V705.464H821.152V641.944C856.088 616.536 898.17 603.832 947.398 603.832Z" fill="#F2F3F4"/>
<path d="M1241 481C1241 497.1 1227.7 510.4 1211.6 510.4H1075.8V453H1136C1152.8 453 1165.4 439.7 1165.4 422.9V420.8H1241V481ZM1172.4 876.5C1204.6 876.5 1238.9 865.3 1262 845L1294.2 926.2C1294.2 926.2 1231.9 954.2 1168.2 954.2C1165.4 954.2 1163.3 954.2 1161.9 954.2C1112.2 952.8 1070.2 936.7 1037.3 904.5C1003 871.6 986.2 827.5 986.2 773.6V548.2H1075.8V637.8H1113.6V548.2H1174.5C1240.3 548.2 1299.1 593.7 1310.3 658.1C1325.7 743.5 1259.9 819.1 1177.3 819.1L1113.6 818.4V728.1H1075.8V791.1C1075.8 845 1122 876.5 1172.4 876.5ZM1117.8 652.5V713.4C1117.8 721.8 1124.1 728.1 1132.5 728.1H1152.1H1177.3C1203.9 728.1 1224.9 705.7 1222.1 679.1C1220 655.3 1198.3 637.8 1174.5 637.8H1132.5C1124.1 637.8 1117.8 644.1 1117.8 652.5Z" fill="#F2F3F4"/>
<path d="M1535 619.2H1625.3V995.8C1625.3 1085.4 1550.4 1158.2 1460.1 1153.3C1382.4 1149.1 1323.6 1092.4 1311 1021H1400.6C1411.8 1047.6 1432.1 1065.8 1462.9 1065.8C1503.5 1065.8 1535 1034.3 1535 993.7V882.4H1497.9V972.7H1449.6C1376.8 972.7 1313.8 916.7 1311 843.9V747.3C1313.8 674.5 1376.1 619.2 1448.9 619.2H1497.9V708.8H1535V619.2ZM1497.9 853.7V741C1497.9 727 1493 708.8 1475.5 708.8H1444.7C1422.3 709.5 1400.6 722.1 1400.6 744.5V841.8C1400.6 864.9 1422.3 881 1444.7 882.4H1476.2C1488.8 882.4 1497.9 867.7 1497.9 853.7Z" fill="#F2F3F4"/>
</g>
<defs>
<clipPath id="clip0_505_32">
<rect width="1604" height="891" fill="white"/>
</clipPath>
</defs>
</svg>
