<?xml version="1.0" encoding="UTF-8"?>
<svg id="Calque_2" data-name="Calque 2" xmlns="http://www.w3.org/2000/svg" viewBox="0 0 571.89 614.33">
  <defs>
    <style>
      .cls-1 {
        fill: #fefefe;
      }
    </style>
  </defs>
  <g id="Calque_1-2" data-name="Calque 1">
    <path class="cls-1" d="M331.45,51.34c2.13-.2,1.72,1.39,1,3l5.89,4.88c-.84-.03-.09-.8,2.25-2.32-.5-2.45-.19-4.04,2.86-3.57,2.04-4.62,11.79-.5,9,4,1.64,4.35,2.97,8.69,4,13,2.61-.29,5.3-.91,8.08-1.83l1.08,1.73c3.84.14,5.12,1.35,4.84,5.11-.2,6.04.8,9.04,3,9,.69-1.21,1.69-2.21,3-3,1.88-2.04,4.35-.5,6.37.9,4.08-2.79,7.62-1.42,10.63,4.1,5.28-2.86,1.46,7.2-2,7,4.24,2.61,5.65,5.21,4.24,7.8-7.48,6.73-.35,6.85,6.62,6.86,2.01.18,4.43.54,6.14,1.34,2.48-1.56,5.14-2.89,8-4,4.72-4.14,6.87-1.02,8.43,4.02-1.85,6.39,1.33,9.99,9.56,10.81,1.14,2.33,2.47,4.06,4.01,5.17,3.06-.53,12.21,2.75,7,6-.07,1.67.26,2,1,1,1.01-3.1,3.91.38,5.3,2.24,1.17,4.12,3.07,5.37,5.7,3.76,4.3-2.1,8.57-2.8,12.81-2.1,2.76,5.12,6.53,4.03,11.31-3.28l.88.38c3.67,3.41,8.31,5.39,13.93,5.96,1.29.57,1.76,1.74,2.07,3.04.67,1.37,1.33,2.44,2,4,4.89,12.05,8.77,14.39,11.62,7,1.98-2.27,3.8-.58,4.38,2,.61,2.1,1.65,2.06,1.69,2.2.17.58-.84,1.69-.7,1.79,1.33.96,4.81-1.92,6.51-1.93,2.02-.02,3.1,1.7,4.02,1.95.22.06.81-1.06,3.48-2.01,3.66-3.87,9.2-3.66,12,1,4.28,2.41,5.28,4.07,3,5-1.06,5.89-.73,5.89,1,0,1.38-2.94,10.77-2.16,14-1,3.28,1.29,6.72,2.13,10.3,2.53.83,7.2-1.97,12.43-8.75,15.33-3.9,7.18-6.08,8.56-6.55,4.14-1.81-1.72-3.48-2.05-5-1-3.01.9-1.55,3.3,0,5,1.02.22,1.69.89,2,2,5.3-3.48,2.55,7.7,1.71,10.26,1.32,3.45,1.08,7.03-.71,10.74-1.41,4.77-2.97,9.63-4.69,14.56l.69,3.44c.22.66.8,1.35,1,2-.48,3.13-1.48,6.46-3,10-.26,3.28-2.17,11.28-2,12,3.01,3.26,5.24,10.06,2,13l-3.96,1.16c-2.77,2.5-11.59,6.77-11.04.84-2.32-1.75-2.41-5.38-2-8-.52-.8-.86-.85-1,0,1.23.99,1.57,4.56,0,5-2.25,1.91-4.91,3.25-8,4-3.2,1.05-6.66,4.23-3.09,6.65,1.88-1.07,7.33-2.23,7.6.86.1,1.12-10.63,16.67-13.37,17.79-.4,5.4-3.78,7.97-10.15,7.7-2.4,1.73-2.73,5.4-1,11,.09.4,1.02.83.98,2.36-.11,4.88-2.7,3.02-3.98,3.64-7.19,1.27-10.68,6.35-10.71,13.37-1.85,1.96-2.61,4.17-2.29,6.63,4.16,3.83,3.04,13.22-3,14-.07,1.47-1.1,2.52-3.1,3.17,1.41,7.12,15.1.49,14.1-5.17-.65-2.4-1.19-2.45-2-4-.56-4.26,2.44-6.59,9-7,2.67-1.57,2.53-2.99,7-4,2.71-.83,6.12-.68,8.33,1.34.49.45,5.08,10.46,5.66,12.03.03.08-.41.33-.99.64-4.67,1.47-3.62,6.43.71,7.68l.29,2.32c5.86,3.39,11.02,6.52,6,14-2.97,2.08-9.25,2.74-8,7l4.08,4.54c4.22,1.33,6.53,4.82,6.92,10.46,2.46,3.74,6.03,6.17,9.95,8.06l-2.68,2.78c-.3,6.79-3.08,10.74-8.33,11.84-3.78,4.29-6.21,5.16-11.94,4.32-.56.16-1.33.76-2,1-1.03,3.02-2.1,3.59-3.21,1.7-1.08.2-1.68.97-1.79,2.3q-1.7,3.15,0,0c.61-4.74,3.25-2.69,4.42,1.05l4.63,2.46c1.19,10.03,1.85,10.52,12.46,10.4l.48,1.09c1.87,4.65,5.63,9.18-1,10-1.19,2.86-2.65,6.09-4.4,9.67,2.34,4.01,2.81,7.79,1.4,11.33,1.25,2.92,4.14,4.53,5,8,3.74,1.19,7.81,1.94,12.2,2.25l1.8,1.75c5.54,5.74,8.66,3.33,14-1,4.65-1.72,5.17-1.63,6,3,2.05,3.03,1.51,5.8-.91,8.44-5.92,4.64-7.96,8.49-6.09,11.56,1.3,3.33.83,5-1.43,5.01.52,3.86-2,5.19-7.57,3.99-.15.25.16.79,0,1-1.5,1.02-6.18.59-6.86,1.14-1,.8-.87,7.57-1.15,7.85-.33.32-5.98-.59-7.76,1.24-1.5,1.55-.93,6.54-2.89,7.85-3.13,2.09-6.74-.82-8.38.33-1.02.72-1.34,4.05-2.47,5.58-2.1,2.86-9.59,4.96.51,6.02-2.13,10.17-4.24,3.68-6.38,4.07-.82.15-1.67,1.87-2.71,2.35-3.04,1.4-6.15.52-5.93,5.58-1.52,1.34-3.74-4.69-8-2.53-3.21,1.63-.8,6.31-3.5,8.52-1.27-.91,0-5.57-.49-6-.3-.27-3.1.3-4.33,0-.8-.2-.65-1.87-1.3-2.01-4.42-.96-4.35,4.18-8.38,5.02-2.56-5.05-5.89-7.71-10-8-3.79-.98-7.91-1.64-12.36-1.99-1.5-1.01-1.82-4.42.36-4.01.09-.93-.38-1.62-1.29-2.12,2.59-4.53,3.81-10.95-2.64-6.24.22,4.47-.4,5.62-5.08,5.36-4.08.24-11.36.63-11.58-4.4-4.43,4.17-10.24,5.63-17.42,4.4,3.38-13.61-9.04-3.9-16-8,.87-1.4.87-1.73,0-1-4.8,7.03-7.71-4.88-8.62-5.08-1.55-.33-6.53,2.21-8.38,3.08-.34,2.93-8.23,9.52-11,8-2.08,1.7-5.34,5.39-7.27,6.23-9.07,3.99-9.65,1.92-17.76,10.24-2.98,3.05-2.63,6.46-7.97,4.53-.96,2.88,3.77,3.72,3.99,4.02.34.45-2.7,4.02-2.62,5.46.06,1.06,2.33,2.64,1.61,4.52-9.56-2.92-2.18,5.54-1.39,9.99.68,3.83-.7,10.9,1.38,14.3.33.54,7.62,3.01,5.02,5.7-1.63,1.68-5.54-3.65-7.49-3.64-.35,0-5.81,1.59-6.75,1.9-1.46.48-2.14,2.12-3.46,2.53-1.63.52-4.02-.22-5.34.66-.95.63-1.3,4.58-2.45,4.53-.3-.01-1.41-2.09-2.81-1.84-1.03.18-1.91,2.27-3.99,1.77-1.47-.36-3.29-3.64-5.43-4.68-3.21-1.56-10.42-1.9-13.5-.21-2.4,1.31-3.38,7.89-8.77,1,4.32.43,8.53-7.64,2.54-7.01-1.96.21-3.66,2.74-5.01,2.64-.51-.04-8.52-2.68-8.51-3.14,0-.36,2.58-2.1,2.98-3.5.8-1.26.53-2.69,0-4-1.19-.39-11.61-2.08-13-2-.74.04-2.84,1.72-3.93.94-.23-.16-.59-2.79-1.6-3.91-3.77-4.21-10.86-.4-11.47-1.03-.21-.21-.09-5.22-1.14-5.88-.86-.54-5.12.04-7.14-.36-3.74-.73-11.05-3.69-14.22-3.83-3.69-.16-1.22,7.55-.51,9.05-4.15.06-8.33-.06-12.49.01-1.66.03-3.47,1.16-5,1.01-2.24-.21-2.78-3.06-5.98-3.1s-4.25,2.29-6.26,2.85c-7.42,2.05-8.49-3.51-12.27-8.25-1.39-1.74-3.52-1.31-4-4.51-1.11-.3-.41-4.33-.18-4.32.3.01-.23,4.98-2.82,4.32-.81,1.52-2.4,5.48-3.53,5.97-3.58,1.58-1.91-2.79-2.98-2.98-4.11-.75-1.84,2.29-2.59,2.88-4.99,3.9-4.49-7.85-5.91-8.88-.21-.15-2.65,1.41-2.98,1.01.42-7.7-3.25-3.92-7.26-4.24-5.17-.41-7.97-3.7-12.07-5.95-4.2-2.3-7.14-.7-9.18-6.8-2.64,1.08-2.16,5.52-3.45,6.57-.8.65-3.76-.41-3.96-.68-1.64-2.29,4.83-9.37,4.94-13.4.05-1.93-3.17-2.03-5.03-2.51l-4.25.97c-1.12,2.35-3.09,1.76-5.91-1.77-2.72.62-4.58.63-5.85-2.21-.37-.93-1.35-4.46-.99-5,2.79,1.45,5.39-.02,7.99-1,4.68-2.47,7.93-6.52,9.75-12.15l5.25-12.85c.23-2.19-.05-4.72,0-7-.34-3.16,1.4-6.38,3-9,.1-.98-.11-2.02,0-3,1.34-8.76,3.3-17.67,6-26,.05-1-.05-2,0-3-.47-7.77,1.43-9.26,8.8-8.28,7.42-1.72-2.38-10.98-4.8-6.72-.67,2.18-2.92,4.05-4.01,1.74-.37-.78,2.28-8.27,3.01-9.74.15-1.91.04-4.06,0-6,.49-9.16,1.39-18.93,5-27,.09-.99-.07-2.01,0-3-2.09-4.93-.56-14.9,3.9-6.06,2.52.97,4.22,2.32,5.1,4.06,3.64,7.35,7.31,8.76,9,17-.25,2.58.08,5.25,1,8,1.04,2.58,3.47,5.28,5,8,2.19,3.08,6.05-.86,3.64-3.77l-4.64-4.23c-.41-2.18-.4-3.53-1-6,0-4.83-1.37-9.49-3-14-1.48-3.08-1.94-4.07-4-7-5.32-6.54-11.66-11.54-19-15,2.02-4.48,4.56-8.9,7.61-13.28-.64-3.12.12-5.89,2.3-8.3l-2.91-7.42c-1.09-.57-3.79.76-4.08-2.52-.23-2.62,1.51-3.05,3.08-4.48,3.81-1.77,0-7.14-.14-2.65-.4-2.06-1.29-1.94-2.86-1.35-.06,0-.15.83-1.07.6-.87-.21-1.36-1.24-1.93-1.6-5.57-.52-9.34-3.15-11.32-7.9-2.61.13-4.83-.23-6.68-1.1l-1.52-1.77c-3.81-.16-5.31-2.57-4.48-7.23-.98-3.1-1.46-4.17-3-7-2.4-3.22-5.07-6.22-8-9-.06-.09-.88-1.72-1-2-1.89-2.77.65-6.31,3-8,5.83-7.59,3.41-9.72-5.52-10.06l-.48-.94c-.44-.26-2.17.18-3,0,.39-1.26,1.96-2.17,3-2.99,2.29-1.57,2.03-2.66,1.26-5.17-2.08-.84-1.1-2.07.9-2.79,1.79-.65,12.78,2.89,14.27,5.73,1.48,1.14,4.18,2.05,4-.54-.11-1.63-12.01-9.6-15.43-7.22.31,1.28-.69,1.61-3,1-.32,1.86-1.99,3.2-5,4-2.63-1.1-5.29-1.76-8-2-1.46.59-4.23-1.99-2.43-3.21,5.06.2,5.21-1.4.43-4.79-1.08.03-2.39-1.89-1.79-2.53,5.2.28,7.48-.23,4.01-4.99,1.64-1.21.9-2.04-2.22-2.48-4.06,1.39-7.39,1.72-10,1-.67.22-1.51.93-2,1-3.71-.08-4.39-1.11-3.54-4.75l6.54-.25c6.25-4.81,1.44-7.06-4-4-.95.42-1.4,1.33-3,1-3.67-5.6-5.33-4.08-3.88,2.06l-4.64-.28c-2.37,3.21-3.86,2.28-4.47-2.78l-.68-2.34c3.97-4.52,4.53-6.74,1.68-6.66-1.2.83-2.27,2.51-3,3l-3.04.09c-1.84-1.94-4.43-2.55-7.79-1.84-2.65-4.79-7.64-7.57-13.17-7.25-2.61.39-4.9-1.99-6.86-7.16l-5.44,1.8c-.7-3.97-5.45-2.27-5.7,1.36,3.03,4.77-4.05,4.01-7,3-.94-3.47-1.22-7.51-.82-12.12-3.21-1.11-6.8-2.81-9.18-4.88-1.36.82-1.83.46-1-1,1.84-.27,3.33-1.45,5-2l2.59-.76c5.96,1.33,8.43-.09,7.41-4.24-.28-.84-.56-1.28-1-2-2.21-4.01-5.43-4.69-9-2-.26.55-.93.21-2-1-.09-2.4-3.36-4.91,1-5,4.94,1.94,9.81,3.41,15,3-.81-4.36-4.3-5.85-10.47-4.47.04-2.76-.47-3.93-1.53-3.53-2.11,2.42-4.69,2.64-7.51,1.47-5.42,2.25-6.38-.85-2.88-9.31-.52-3.33-.49-5.54,3.38-5.16,2.53-2.1,5.2-3.1,8-3,1.79-.75,2.6-1.32,4-2,2.02-.74,4.14-.45,6.38.86l7.62-2.86c4.09-2.55,6.52-1.28,6.63,1.14l1.37,1.86c.31,1.03.76,1.43,1,2,1.81-.05,3.08-1.82,3.82-5.31,5.22,3.15,16.18,5.9,9.52-3.73l.67-1.96c2.41-1.91,5.15-1.26,8.25,1.94,3.81-3.91,7.02-4.48,9.62-1.72,2.45-2.93,4.57-1.83,6.36,3.31,5.4,4.66,9.33,10.82,11.78,18.47,1.25,1.75,3.25,1.09,6-2,.69-.35,1.16-.46,2-1,3.7-1.08,6.83-3.58,9.39-7.48,1.24,1.82,2.9,3.31,4.96,4.46-.13,3.5,1.41,3.5,4.65.01l4.52-.62c4.12-3.13,10.21-5.46,8.08,2.17,1.17,2.1,5.74,1.83,8.41,1.46.43.02,2.58.02,3,0,.82.77,1.16.77,1,0,1.22-.1,2.15-.84,3-1,10.71,2.61,4.07-3.61-1-7-1.85-5.52-2.59-9.64.18-14.99l-.18-4.01-2.41-2.4c.33-4.92.13-9.79-.59-14.6-.37-1.18-.31-1.6-1-3-5.38-2.86-7.38-6.53-6-11-2.66-2.47-3.15-6.18-1.46-11.14-4.71-.51-8.09-6.41-1.67-5.59,5.3,2.73,10.62,4.19,15.96,4.38,6.64-3.66,11.03-3.21,13.17,1.35.03.19,1.4.7.59,1.96-1.24,1.94-4.34,1.87-4.51,5.6-.01.24,1.76,1.25,2.92,3.44.8,3.99,1.57,7.83,2.3,11.52l5.7-4.52c2.95-.56,5.84.33,8.67,2.64,10.83,1.27,19.3,3,29.33,7.36,3.25-.23,2.82-.69,5-2l6-6c3.18-.71,6.49-.73,9.76-.39l-.76,3.39c1.5,1.16,1.83.83,1-1-.97-.49-1.24-1.36-1.03-2.41,9.28-1.94,4.18-3.46-1.97-3.59-10.71-.56-5.61-11.1-2-17,4.81-1.13,8.81-3.13,12-6,1.94-.84,2.74-1.22,5-2,5.75-.15,11.08-1.48,16-4,3.27-.48,6.27-1.48,9-3,2.26-.79,2.76-.88,5-2,4.79-3.67,8.68-8.56,11.67-14.65,10.87,5.86,5.72-1.34.5-5.31,1.54-6.61,2.48-13.29,2.83-20.04-.37-3.86-.04-7.53,1-11-2.93-8.12,3.01-12.67,10-16,6.27-1.23,11.13-2.61,17-4,3.55-.36,6.88-1.36,10-3,2.02-.76,3.3.47,3.86,3.71-.39,7.42,1.42,11.8,5.42,13.14l.71,2.15Z"/>
    <path class="cls-1" d="M422.45,5.34c1.33,1.38,4.27.59,6,0-.18-.63,0-1.05.56-1.39.79-.48,6.28-3.14,6.44-1.61,1.5,2.5-.28,3.32,1,7,1.17,1.78,2.85,3.02,5.05,3.74.64,2.46,2.29,3.54,4.95,3.26,2.53-.77,5.2-1.44,8-2,1.97,2.94,4.63,5.77,7,8,2.48-1,9.92.54,7,3-.18.19.13,1.4,0,2-1.93,2.4-3.26,5.06-4,8,0,1.84.95,3.15,1,4-4.67,2.48-5.67,5.48-3,9,.15.97,1,1.77,0,3,.87.28.86.62,0,1,6.72,2.27,9.72,1.75,9-1.58,3.56.32,7.23,1.51,11,3.58,1.45,3.48,2.97,4.95,5.77,6.55-2.62,2.41-4.52,4.35-1.77,7.45,6.55.2,6.71,1.82,6.64,8.05,2.84,4.68,2.25,6.49-1.79,5.44l-.85,1.5c-.34,1.41-1.92,2.24-3,3l-1.85,1.43c.05,5.94-3.68,5.08-8.3,3.99-3.78,3.81-6.22,8.47-7.32,13.96-5.63,2.79-4.11,11.67-.54,15.62,1.9,2.06,3.35,4.28,4,7-.4,1.95-1.07,3.95-2,6-1.16,1.79-3.64,2.32-7.47,1.57-2.17,1.38-4.34,2.19-6.53,2.43-2.46,1.82-4.48.4-6.06-4.25-2.66-1.8-4.45-4.08-5.36-6.82-3.9-.7-6.76-2.34-8.58-4.93-3.18-2.23-6.85-3.58-11.03-4.05l-1.32-1.58c.8-4.49.04-7.75-2.61-11.29,7.88-15.91-1.24-11.5-3.14-.68l-2.9.6c-2.75,1.6-5.42,2.6-8,3-2.3.06-13.21-.11-14.52-1.2-2.46-2.04-.26-6.59,2.51-6.97-.2-1.67-.52-3.28-.99-4.82-3.58-1.68-.72-7.11,1.02-7.56.79-.21-2.02-1.76-3.02-1.44-2.98-5.63-6.4-6.87-10.24-3.73-2-1.62-4.25-2.37-6.76-2.27-.37,2.51-2.16,3.92-3.23,1.2,1.28-10.55-7.49-13.17-15.44-11.84l-.32-1.36c-2.4-.57-3.98-5.34-2-7-1.72-5.83-4.66-10.72-10-12-1.84-1.27-3.51-.93-5,1-2.37.51-4.37,1.51-6,3-1.51-.75-2.51-2.42-3-5-2.18.21-3.77-.24-4.78-1.34l-1.68-12.12c-1.2-1.83-1.38-3.34-.53-4.55.18-.22-.23-2.35,1.43-4.05,2.65-2.71,19.37-11.64,23.84-14,3.34-1.76,4.71-1.46,8.73-2.95l1.63-.27c-.11,6.04,4.41,13.79,8.37,5.15,1.03-.38,2.15-.7,3,.13,1.84-.45,5.55,1.26,7,3,.75,3.03,3.42,3.7,8,2,2.88-1.08,3.44-1.37,6-3,3-1.88,4.95-4.27,5.95-7.6l6.76,1.06c-.56-1.55-.23-1.84.99-.86-2-4.48-.9-6.34,3.3-5.59.18-.9.52-.86,1,0,1.2,2.6,5.73,2.46,7,0,4.6-4.6,8.59-4.92,5,2Z"/>
  </g>
</svg>