<svg width="1440" height="703" viewBox="0 0 1440 703" fill="none" xmlns="http://www.w3.org/2000/svg">
<g clip-path="url(#clip0_24_8035)">
<path d="M768.3 428.6C863.7 428.6 942 506 942 601.4V771.5C942 866.9 863.7 945.2 768.3 945.2H700.8V829.1H652.2V945.2H537V263H652.2V542H700.8V428.6H768.3ZM827.7 772.4V599.6C827.7 568.1 802.5 542 771 542H744.9C724.2 542 707.1 559.1 707.1 580.7V791.3C707.1 812.9 724.2 829.1 744.9 829.1H771C802.5 829.1 827.7 803.9 827.7 772.4Z" fill="#85E0F4"/>
<path d="M1090.2 303.3C1183.8 303.3 1260.3 379.8 1260.3 473.4V661.5C1260.3 755.1 1183.8 831.6 1090.2 831.6H991.2V717.3H942.6V822.6C876 798.3 828.3 735.3 828.3 660.6V476.1C828.3 401.4 876 337.5 942.6 313.2C942.6 313.2 942.6 369.9 942.6 418.5H991.2V303.3H1090.2ZM1145.1 662.4V475.2C1145.1 443.7 1119.9 418.5 1088.4 418.5H1026.3C997.5 418.5 973.2 441.9 973.2 470.7V677.7C973.2 699.3 991.2 717.3 1013.7 717.3H1090.2C1120.8 717.3 1145.1 693 1145.1 662.4Z" fill="#85E0F4"/>
<path d="M1446.5 945.2H1331.3V452H1446.5V945.2ZM1527.5 301.7C1528.4 301.7 1528.4 302.6 1528.4 302.6L1527.5 380C1527.5 380 1527.5 380 1526.6 380H1411.4V332.3H1364.6V380C1364.6 380 1364.6 380 1363.7 380H1249.4L1250.3 302.6L1364.6 264.8H1412.3L1527.5 301.7Z" fill="#85E0F4"/>
</g>
<defs>
<clipPath id="clip0_24_8035">
<rect width="1440" height="703" fill="white"/>
</clipPath>
</defs>
</svg>
