<svg width="1440" height="800" viewBox="0 0 1440 800" fill="none" xmlns="http://www.w3.org/2000/svg">
<g clip-path="url(#clip0_24_8035)">
<path d="M899.058 407.008C899.058 424.394 884.701 438.756 867.321 438.756H720.724V376.772H785.71C803.846 376.772 817.447 362.409 817.447 344.268V342H899.058V407.008ZM825.004 834.094C859.764 834.094 896.791 822 921.728 800.079L956.488 887.764C956.488 887.764 889.235 918 820.47 918C817.447 918 815.18 918 812.914 918C760.018 916.488 714.678 899.102 679.163 864.331C642.136 828.803 624 781.181 624 722.976V479.575H720.724V576.331H761.529V479.575H827.271C898.302 479.575 961.777 528.709 973.868 598.252C990.492 690.472 919.461 772.11 830.294 772.11L761.529 771.354V673.843H720.724V741.874C720.724 800.079 770.597 834.094 825.004 834.094ZM766.063 592.205V657.968C766.063 667.039 772.864 673.843 781.932 673.843H830.294C859.008 673.843 881.678 649.654 878.655 620.929C876.388 595.228 852.963 576.331 827.271 576.331H781.932C772.864 576.331 766.063 583.134 766.063 592.205Z" fill="#81D996"/>
<path d="M1249.6 637.895H1152.87V600.1C1152.87 573.643 1131.72 551.722 1104.51 551.722H1053.88C1034.24 551.722 1018.37 567.596 1018.37 587.249V767.911C1018.37 786.808 1034.24 802.682 1053.88 802.682H1104.51C1131.72 802.682 1152.87 781.517 1152.87 754.304V719.533H1249.6V754.304C1249.6 833.675 1184.61 898.682 1104.51 898.682H1033.48V802.682H992.675V869.202C977.562 861.643 963.96 851.816 951.114 839.722C914.087 803.438 895.951 759.596 895.951 701.391V640.919C895.951 581.958 914.087 535.092 951.114 499.564C963.96 487.47 977.562 476.887 992.675 469.328V551.722H1033.48V454.966H1105.27C1185.37 454.966 1249.6 519.974 1249.6 599.344V637.895Z" fill="#81D996"/>
<path d="M1372.18 454.966C1450.77 454.966 1515 519.218 1515 597.832V755.816C1515 834.43 1450.77 898.682 1372.18 898.682H1289.06V802.682H1248.25V891.123C1192.34 870.714 1152.29 817.801 1152.29 755.06V600.1C1152.29 537.36 1192.34 483.69 1248.25 463.281C1248.25 463.281 1248.25 510.903 1248.25 551.722H1289.06V454.966H1372.18ZM1418.28 756.572V599.344C1418.28 572.887 1397.12 551.722 1370.67 551.722H1318.53C1294.35 551.722 1273.95 571.375 1273.95 595.564V769.423C1273.95 787.564 1289.06 802.682 1307.95 802.682H1372.18C1397.87 802.682 1418.28 782.273 1418.28 756.572Z" fill="#81D996"/>
</g>
<defs>
<clipPath id="clip0_24_8035">
<rect width="1440" height="800" fill="white"/>
</clipPath>
</defs>
</svg>
