<svg width="257" height="140" viewBox="0 0 257 140" fill="none" xmlns="http://www.w3.org/2000/svg">
<g clip-path="url(#clip0_1_2)">
<path d="M6.42615 52.7402C4.4065 52.7402 2.84587 53.291 1.69834 54.4386C0.550813 55.5861 0 57.2844 0 59.5336C0 60.9106 0.275406 62.15 0.826219 63.2975C1.37703 64.445 2.11145 65.3171 3.12127 66.0056C4.1311 66.6942 5.23272 67.0155 6.47205 67.0155C8.26219 67.0155 9.82283 66.327 11.0622 64.9499C12.3015 63.5729 12.9441 61.7827 12.9441 59.5795C12.9441 57.4221 12.3933 55.7238 11.2917 54.5304C10.0982 53.3369 8.5376 52.7402 6.42615 52.7402ZM9.96053 62.15C9.68512 62.9303 9.27202 63.527 8.6753 64.0319C8.07859 64.5368 7.34417 64.7663 6.47205 64.7663C5.23272 64.7663 4.3147 64.3073 3.58028 63.3434C2.89177 62.3795 2.52456 61.1401 2.52456 59.5336C2.52456 57.9729 2.84587 56.8254 3.44258 56.091C4.03929 55.3566 5.04912 54.9894 6.47205 54.9894C7.89498 54.9894 8.8589 55.3566 9.50152 56.091C10.0982 56.8254 10.4195 57.9729 10.4195 59.5336C10.3736 60.5434 10.2359 61.4155 9.96053 62.15Z" fill="black"/>
<path d="M16.7998 49.2519C16.1112 49.8945 15.744 50.8126 15.744 52.0978V54.1174H13.3113V55.9994H15.744V66.6943H18.1309L18.085 56.0453H22.0784V54.1174H17.9932V52.465C17.9932 51.7306 18.1309 51.2257 18.4522 50.9044C18.7276 50.5831 19.2325 50.4454 19.921 50.4454C20.7932 50.4454 21.6653 50.629 22.5374 50.9962V48.9306C21.7571 48.5634 20.7932 48.3798 19.6456 48.3798C18.4522 48.3339 17.4883 48.6552 16.7998 49.2519Z" fill="black"/>
<path d="M77.573 16.7998H67.8419V10.2818H76.3795V8.17039H67.8419V2.15735H77.573V0H65.3174V19.003H77.573V16.7998Z" fill="black"/>
<path d="M83.0349 19.2784C84.0907 19.2784 85.0087 18.9571 85.789 18.3604C86.5693 17.7637 87.2119 16.9374 87.6709 15.9735L88.0382 18.9571H89.8283V5.32447H87.4414V12.2555C87.4414 12.6227 87.3955 12.9899 87.3037 13.4031C87.2119 13.8162 87.0283 14.2293 86.7988 14.6883C86.5693 15.1014 86.2939 15.5145 85.9726 15.8358C85.6513 16.203 85.2841 16.4784 84.8251 16.7079C84.3661 16.9374 83.8612 17.0292 83.3103 17.0292C82.3464 17.0292 81.6579 16.7538 81.2448 16.203C80.8317 15.6522 80.6022 14.826 80.6022 13.7244V5.27856H78.2612V14.1375C78.2612 15.8358 78.6743 17.0751 79.5006 17.9473C80.3268 18.8653 81.5202 19.2784 83.0349 19.2784Z" fill="black"/>
<path d="M94.1889 12.1637C94.1889 11.8424 94.1889 11.567 94.1889 11.3375C94.1889 11.108 94.2348 10.8326 94.3266 10.4654C94.4184 10.0982 94.5102 9.82279 94.6479 9.54739C94.7856 9.27198 94.9692 8.99657 95.2446 8.72117C95.52 8.44576 95.7954 8.21625 96.1626 8.03265C96.5298 7.84905 96.9429 7.71134 97.4937 7.57364C98.0445 7.43594 98.6413 7.39004 99.3298 7.39004V5.04908C96.7593 4.81958 94.9692 5.8753 94.0052 8.17035L93.5921 5.32449H91.802V18.9571H94.1889V12.1637Z" fill="black"/>
<path d="M99.8349 15.6064C100.386 16.7539 101.12 17.626 102.13 18.3145C103.14 19.0031 104.241 19.3244 105.481 19.3244C107.271 19.3244 108.831 18.6359 110.071 17.2588C111.31 15.8818 111.953 14.0916 111.953 11.8884C111.953 9.73105 111.402 8.03271 110.3 6.83928C109.199 5.64585 107.592 5.04913 105.527 5.04913C103.507 5.04913 101.946 5.59994 100.799 6.74747C99.6513 7.895 99.1004 9.59334 99.1004 11.8425C99.0545 13.2195 99.284 14.4589 99.8349 15.6064ZM102.451 8.39991C103.048 7.6655 104.058 7.29829 105.481 7.29829C106.904 7.29829 107.868 7.6655 108.51 8.39991C109.107 9.13433 109.428 10.2819 109.428 11.8425C109.428 12.8064 109.29 13.7244 109.015 14.4589C108.74 15.2392 108.327 15.8359 107.73 16.3408C107.133 16.8457 106.399 17.0752 105.527 17.0752C104.287 17.0752 103.369 16.6162 102.635 15.6523C101.946 14.6884 101.579 13.449 101.579 11.8425C101.579 10.2819 101.855 9.13433 102.451 8.39991Z" fill="black"/>
<path d="M115.671 16.6621C116.038 17.3506 116.635 17.9473 117.415 18.4981C118.195 19.049 119.159 19.3244 120.215 19.3244C121.5 19.3244 122.648 19.0031 123.566 18.3145C124.484 17.626 125.218 16.7539 125.631 15.6523C126.09 14.5507 126.32 13.2654 126.32 11.8884C126.32 10.6491 126.182 9.59334 125.861 8.67532C125.54 7.75729 125.172 7.06878 124.622 6.56386C124.071 6.05895 123.52 5.69175 122.923 5.46224C122.326 5.23274 121.638 5.09503 120.949 5.09503C119.756 5.09503 118.7 5.37044 117.782 5.87535C116.864 6.42616 116.176 7.16058 115.671 8.1245L115.349 5.41634H113.284V23.8227H115.671V16.6621ZM116.313 9.68514C116.635 8.95072 117.186 8.3081 117.874 7.80319C118.563 7.29828 119.389 7.06878 120.353 7.06878C120.995 7.06878 121.546 7.20648 122.005 7.43598C122.464 7.66549 122.831 8.0327 123.107 8.44581C123.382 8.90482 123.566 9.36383 123.703 9.91464C123.841 10.4655 123.887 11.0622 123.887 11.7507C123.887 12.7605 123.795 13.5867 123.566 14.3211C123.336 15.0556 123.061 15.6064 122.694 16.0195C122.326 16.4326 121.913 16.708 121.454 16.8916C120.995 17.0752 120.49 17.167 119.94 17.167C119.251 17.167 118.608 17.0293 118.104 16.7539C117.553 16.4785 117.186 16.1572 116.864 15.79C116.589 15.4228 116.359 15.0097 116.176 14.5048C115.992 13.9998 115.9 13.5867 115.854 13.1736C115.808 12.8064 115.763 12.3933 115.763 12.0261C115.809 11.2458 115.992 10.4655 116.313 9.68514Z" fill="black"/>
<path d="M128.936 17.4424C129.533 18.0391 130.221 18.4981 131.002 18.8195C131.782 19.1408 132.608 19.2785 133.48 19.2785C134.536 19.2785 135.546 19.0949 136.418 18.7736C137.29 18.4522 137.933 18.085 138.346 17.7178V15.6064C137.198 16.5703 135.684 17.0752 133.802 17.0752C132.471 17.0752 131.461 16.708 130.772 15.9736C130.084 15.2392 129.671 14.2293 129.533 12.9441H138.805C138.897 12.072 138.943 11.2458 138.897 10.4655C138.851 9.68514 138.713 8.95073 138.438 8.30811C138.162 7.6655 137.795 7.06878 137.336 6.60977C136.877 6.15076 136.326 5.73765 135.592 5.46225C134.857 5.18684 134.031 5.04913 133.113 5.04913C132.103 5.04913 131.185 5.23274 130.405 5.59994C129.625 5.96715 128.982 6.47207 128.477 7.11468C127.972 7.7573 127.605 8.49171 127.376 9.31793C127.1 10.1442 127.008 11.0163 127.008 11.9343C127.008 13.1277 127.192 14.1835 127.513 15.1015C127.835 16.0654 128.339 16.8457 128.936 17.4424ZM130.772 8.17041C131.415 7.57369 132.195 7.25239 133.205 7.25239C135.362 7.25239 136.51 8.44582 136.602 10.8327H129.579C129.716 9.68514 130.13 8.76712 130.772 8.17041Z" fill="black"/>
<path d="M142.339 18.2686C143.257 18.9571 144.405 19.2784 145.69 19.2784C146.746 19.2784 147.71 19.003 148.49 18.4522C149.27 17.9014 149.867 17.3047 150.234 16.6161V16.7079L150.51 18.9571H152.575V5.32448H150.51L150.188 8.03264C149.683 7.06872 148.949 6.2884 148.077 5.78349C147.159 5.23268 146.103 5.00317 144.91 5.00317C144.221 5.00317 143.533 5.14087 142.936 5.37038C142.339 5.59988 141.743 5.96709 141.238 6.47201C140.733 6.97692 140.32 7.71133 139.998 8.58345C139.677 9.50147 139.539 10.5572 139.539 11.7965C139.539 13.2195 139.769 14.4588 140.228 15.5604C140.687 16.7079 141.375 17.626 142.339 18.2686ZM142.293 9.40967C142.523 8.72116 142.936 8.17035 143.487 7.75724C144.038 7.34413 144.726 7.11462 145.598 7.11462C146.516 7.11462 147.342 7.34413 148.077 7.84904C148.765 8.35395 149.316 8.95066 149.638 9.73098C149.959 10.4654 150.142 11.2916 150.142 12.1637C150.142 12.5309 150.097 12.9441 150.051 13.3113C150.005 13.6785 149.867 14.1375 149.729 14.6424C149.592 15.1473 149.316 15.5604 149.041 15.9276C148.765 16.2948 148.352 16.6161 147.801 16.8915C147.251 17.167 146.654 17.3047 145.965 17.3047C145.415 17.3047 144.91 17.2129 144.451 17.0293C143.992 16.8456 143.579 16.5702 143.211 16.1571C142.844 15.744 142.523 15.1932 142.339 14.4588C142.156 13.7244 142.018 12.8523 142.018 11.8883C141.926 10.8785 142.064 10.0982 142.293 9.40967Z" fill="black"/>
<path d="M157.027 12.072C157.027 11.7048 157.073 11.3376 157.165 10.9245C157.257 10.5114 157.395 10.0982 157.624 9.68514C157.854 9.27203 158.083 8.85892 158.405 8.53761C158.726 8.21631 159.093 7.9409 159.598 7.71139C160.103 7.48189 160.608 7.39009 161.204 7.39009C161.755 7.39009 162.214 7.48189 162.627 7.71139C163.041 7.9409 163.362 8.2163 163.545 8.58351C163.775 8.95072 163.913 9.31793 164.004 9.68514C164.096 10.0523 164.142 10.4655 164.142 10.8327V19.0949H166.529V10.236C166.529 8.53761 166.116 7.29828 165.29 6.42616C164.463 5.55404 163.316 5.14093 161.801 5.14093C160.608 5.14093 159.598 5.46224 158.772 6.05895C157.946 6.65567 157.303 7.48189 156.844 8.44581L156.431 5.46224H154.641V19.0949H157.027V12.072Z" fill="black"/>
<path d="M67.8419 32.911L67.5206 28.6881H67.6583L77.8025 43.2388H79.8221V24.2816H77.2517V34.6094L77.6189 38.8323H77.4353L67.2911 24.2816H65.3174V43.2388H67.8419V32.911Z" fill="black"/>
<path d="M84.9172 29.8816C84.1369 30.2488 83.4943 30.7537 82.9893 31.3963C82.4844 32.039 82.1172 32.7734 81.8877 33.5996C81.6123 34.4258 81.5205 35.2979 81.5205 36.216C81.5205 37.4094 81.7041 38.4651 82.0254 39.3831C82.3926 40.3471 82.8516 41.0815 83.4484 41.7241C84.0451 42.3208 84.7336 42.7798 85.5139 43.1011C86.2942 43.4224 87.1204 43.5601 87.9926 43.5601C89.0483 43.5601 90.0581 43.3765 90.9302 43.0552C91.8023 42.7339 92.445 42.3667 92.8581 41.9995V39.888C91.7105 40.852 90.1958 41.3569 88.3139 41.3569C86.9827 41.3569 85.9729 40.9897 85.2844 40.2552C84.5959 39.5208 84.1828 38.511 84.0451 37.2258H93.3171C93.4089 36.3537 93.4548 35.5274 93.4089 34.7471C93.363 33.9668 93.2253 33.2324 92.9499 32.5898C92.6745 31.9472 92.3073 31.3504 91.8482 30.8914C91.3892 30.4324 90.8384 30.0193 90.104 29.7439C89.3696 29.4685 88.5434 29.3308 87.6253 29.3308C86.6155 29.2849 85.6975 29.4685 84.9172 29.8816ZM91.0679 35.1143H84.0451C84.2287 33.9209 84.5959 33.0488 85.2385 32.4062C85.8811 31.8095 86.6614 31.4881 87.6712 31.4881C89.8286 31.534 90.9761 32.7275 91.0679 35.1143Z" fill="black"/>
<path d="M108.923 39.934H108.786L108.143 37.7766L105.94 29.6521H98.366V26.6686H96.989C96.5759 27.7243 96.1168 28.5505 95.6119 29.1013C95.0611 29.6521 94.3267 30.0653 93.4087 30.3407V31.58H96.0251V39.1078C96.0251 40.4848 96.3464 41.5864 97.0349 42.4126C97.7234 43.2389 98.6414 43.652 99.8807 43.652C101.212 43.652 102.268 43.3307 102.956 42.6422V40.7602C102.222 41.2192 101.441 41.4487 100.523 41.4487C99.1004 41.4487 98.4119 40.5307 98.4119 38.7406V31.6259H103.461V29.698L107.776 43.3307L110.025 43.2389L112.641 35.3898L113.467 33.0947H113.605L114.385 35.4357L117.002 43.3307H119.251L123.566 29.698H120.949L118.746 37.8225L118.103 39.9799H117.966L117.277 37.8225L114.34 29.698H112.549L109.612 37.8225L108.923 39.934Z" fill="black"/>
<path d="M134.031 41.4486C135.27 40.0716 135.913 38.2815 135.913 36.0782C135.913 33.9209 135.362 32.2225 134.261 31.0291C133.159 29.8357 131.552 29.239 129.487 29.239C127.467 29.239 125.907 29.7898 124.759 30.9373C123.612 32.0848 123.061 33.7832 123.061 36.0323C123.061 37.4093 123.336 38.6487 123.887 39.7962C124.438 40.9437 125.172 41.8158 126.182 42.5044C127.192 43.1929 128.294 43.5142 129.533 43.5142C131.277 43.5601 132.792 42.8716 134.031 41.4486ZM132.975 38.7405C132.7 39.5208 132.287 40.1175 131.69 40.6224C131.093 41.1273 130.359 41.3568 129.487 41.3568C128.248 41.3568 127.33 40.8978 126.595 39.9339C125.907 38.97 125.539 37.7306 125.539 36.1241C125.539 34.5635 125.861 33.4159 126.457 32.6815C127.054 31.9471 128.064 31.5799 129.487 31.5799C130.91 31.5799 131.874 31.9471 132.516 32.6815C133.113 33.4159 133.434 34.5635 133.434 36.1241C133.389 37.088 133.251 37.9602 132.975 38.7405Z" fill="black"/>
<path d="M137.29 43.2388H139.677V36.3995C139.677 36.0782 139.677 35.8028 139.677 35.5733C139.677 35.3438 139.723 35.0684 139.815 34.7012C139.906 34.334 139.998 34.0586 140.136 33.7832C140.274 33.5078 140.457 33.2324 140.733 32.9569C141.008 32.6815 141.283 32.452 141.651 32.2684C142.018 32.0848 142.431 31.9471 142.982 31.8094C143.533 31.6717 144.129 31.6258 144.818 31.6258V29.2849C142.247 29.0554 140.457 30.1111 139.493 32.4061L139.08 29.5603H137.29V43.2388Z" fill="black"/>
<path d="M147.801 23.0883H145.415V43.2389H147.801V36.3078H147.847L154.503 43.2389H157.487L150.601 36.0783L157.395 29.6063H154.273L147.801 35.7111V23.0883Z" fill="black"/>
<path d="M66.8319 122.693C65.2713 124.3 64.491 126.595 64.491 129.487C64.491 132.654 65.2713 135.179 66.8319 137.061C68.3926 138.942 70.504 139.906 73.1204 139.906C74.1302 139.906 75.1859 139.723 76.3793 139.356C77.5269 138.988 78.4449 138.529 79.1793 138.024V135.729C78.5826 136.234 77.7564 136.693 76.7007 137.106C75.6908 137.52 74.4974 137.703 73.2122 137.703C71.2384 137.703 69.7237 137.015 68.7139 135.592C67.6581 134.169 67.1532 132.149 67.1532 129.533C67.1532 128.523 67.2909 127.605 67.5204 126.779C67.7499 125.952 68.1171 125.218 68.5762 124.53C69.0352 123.887 69.6778 123.382 70.4581 123.015C71.2384 122.648 72.1564 122.464 73.2122 122.464C75.5072 122.464 77.6187 123.153 79.5006 124.53V122.051C77.7105 120.857 75.6449 120.261 73.3958 120.261C70.5958 120.261 68.3926 121.041 66.8319 122.693Z" fill="black"/>
<path d="M91.2055 128.844C90.9301 128.202 90.5629 127.605 90.1039 127.146C89.6449 126.687 89.094 126.274 88.3596 125.998C87.6252 125.723 86.799 125.585 85.881 125.585C84.8711 125.585 83.9531 125.769 83.1728 126.136C82.3925 126.503 81.7499 127.008 81.245 127.651C80.74 128.293 80.3728 129.028 80.1433 129.854C79.8679 130.68 79.7761 131.552 79.7761 132.47C79.7761 133.664 79.9597 134.72 80.281 135.638C80.6482 136.602 81.1073 137.336 81.704 137.979C82.3007 138.575 82.9892 139.034 83.7695 139.356C84.5498 139.677 85.376 139.815 86.2482 139.815C87.3039 139.815 88.3137 139.631 89.1858 139.31C90.058 138.988 90.7006 138.621 91.1137 138.254V136.143C89.9662 137.106 88.4514 137.611 86.5695 137.611C85.2384 137.611 84.2285 137.244 83.54 136.51C82.8515 135.775 82.4384 134.766 82.3007 133.48H91.5727C91.6645 132.608 91.7104 131.782 91.6645 131.002C91.6186 130.221 91.4809 129.533 91.2055 128.844ZM82.3466 131.415C82.5302 130.221 82.8974 129.349 83.54 128.707C84.1826 128.11 84.9629 127.789 85.9728 127.789C88.1301 127.789 89.2776 128.982 89.3694 131.369H82.3466V131.415Z" fill="black"/>
<path d="M100.156 125.585C98.9627 125.585 97.9529 125.907 97.1267 126.503C96.3005 127.1 95.6579 127.926 95.1989 128.89L94.7857 125.907H92.9956V139.539H95.3825V132.608C95.3825 132.241 95.4284 131.874 95.5202 131.461C95.612 131.048 95.7497 130.634 95.9792 130.221C96.2087 129.808 96.4382 129.395 96.7595 129.074C97.0808 128.753 97.448 128.477 97.9529 128.248C98.4578 128.018 98.9627 127.926 99.5595 127.926C100.11 127.926 100.569 128.018 100.982 128.248C101.395 128.477 101.717 128.753 101.9 129.12C102.084 129.487 102.268 129.854 102.359 130.221C102.451 130.589 102.497 131.002 102.497 131.369V139.631H104.884V130.772C104.884 129.074 104.471 127.834 103.645 126.962C102.818 126.044 101.671 125.585 100.156 125.585Z" fill="black"/>
<path d="M110.346 122.923H108.969C108.556 123.979 108.097 124.805 107.592 125.356C107.041 125.907 106.307 126.32 105.389 126.595V127.834H108.005V135.362C108.005 136.739 108.327 137.841 109.015 138.667C109.704 139.493 110.622 139.906 111.861 139.906C113.192 139.906 114.248 139.585 114.936 138.897V137.015C114.202 137.474 113.422 137.703 112.504 137.703C111.081 137.703 110.392 136.785 110.392 134.995V127.88H115.441V125.907H110.392V122.923H110.346Z" fill="black"/>
<path d="M123.657 125.631C121.087 125.402 119.297 126.457 118.333 128.752L117.92 125.907H116.13V139.539H118.516V132.7C118.516 132.379 118.516 132.103 118.516 131.874C118.516 131.644 118.562 131.369 118.654 131.002C118.746 130.634 118.838 130.359 118.976 130.084C119.113 129.808 119.297 129.533 119.572 129.257C119.848 128.982 120.123 128.752 120.49 128.569C120.857 128.385 121.271 128.247 121.821 128.11C122.372 127.972 122.969 127.926 123.657 127.926V125.631Z" fill="black"/>
<path d="M134.766 128.844C134.49 128.202 134.123 127.605 133.664 127.146C133.205 126.687 132.654 126.274 131.92 125.998C131.185 125.723 130.359 125.585 129.441 125.585C128.431 125.585 127.513 125.769 126.733 126.136C125.953 126.503 125.31 127.008 124.805 127.651C124.3 128.293 123.933 129.028 123.703 129.854C123.428 130.68 123.336 131.552 123.336 132.47C123.336 133.664 123.52 134.72 123.841 135.638C124.208 136.602 124.667 137.336 125.264 137.979C125.861 138.575 126.549 139.034 127.33 139.356C128.11 139.677 128.936 139.815 129.808 139.815C130.864 139.815 131.874 139.631 132.746 139.31C133.618 138.988 134.261 138.621 134.674 138.254V136.143C133.526 137.106 132.011 137.611 130.13 137.611C128.798 137.611 127.789 137.244 127.1 136.51C126.412 135.775 125.998 134.766 125.861 133.48H135.133C135.225 132.608 135.27 131.782 135.225 131.002C135.225 130.221 135.041 129.533 134.766 128.844ZM125.907 131.415C126.09 130.221 126.457 129.349 127.1 128.707C127.743 128.11 128.523 127.789 129.533 127.789C131.69 127.789 132.838 128.982 132.93 131.369H125.907V131.415Z" fill="black"/>
<path d="M145.093 133.113C144.726 132.838 144.313 132.562 143.946 132.379C143.533 132.195 143.074 132.011 142.569 131.828L140.962 131.323C139.815 130.956 139.08 130.634 138.667 130.359C138.3 130.038 138.07 129.625 138.07 129.12C138.07 128.707 138.3 128.339 138.759 128.064C139.218 127.789 139.861 127.651 140.687 127.651C141.513 127.651 142.339 127.789 143.257 128.018C144.175 128.248 144.91 128.569 145.506 128.982V126.733C144.91 126.412 144.175 126.136 143.303 125.907C142.431 125.677 141.605 125.585 140.733 125.585C140.044 125.585 139.447 125.677 138.851 125.815C138.254 125.953 137.749 126.182 137.29 126.457C136.831 126.733 136.464 127.146 136.189 127.605C135.913 128.064 135.775 128.615 135.775 129.257C135.775 130.313 136.097 131.093 136.739 131.69C137.382 132.287 138.346 132.792 139.585 133.159L141.329 133.71C142.385 134.031 143.074 134.307 143.441 134.536C143.808 134.766 143.946 135.133 143.946 135.638C143.946 136.28 143.624 136.785 143.028 137.152C142.431 137.52 141.651 137.703 140.733 137.703C138.943 137.703 137.382 137.152 135.959 136.097V138.392C136.372 138.621 136.739 138.851 137.061 138.988C137.382 139.126 137.887 139.31 138.575 139.493C139.264 139.677 140.044 139.769 140.825 139.769C141.743 139.769 142.569 139.631 143.349 139.356C144.129 139.08 144.772 138.621 145.323 137.979C145.828 137.336 146.103 136.556 146.103 135.638C146.103 135.087 146.011 134.582 145.828 134.123C145.736 133.756 145.461 133.389 145.093 133.113Z" fill="black"/>
<path d="M178.004 51.5929C176.444 53.1994 175.663 55.4944 175.663 58.3862C175.663 61.5534 176.444 64.0779 178.004 65.9599C179.565 67.8418 181.676 68.8058 184.293 68.8058C185.303 68.8058 186.358 68.6221 187.552 68.2549C188.699 67.8877 189.617 67.4287 190.352 66.9238V64.6288C189.755 65.1337 188.929 65.5927 187.873 66.0058C186.863 66.4189 185.67 66.6025 184.385 66.6025C182.411 66.6025 180.896 65.914 179.886 64.4911C178.83 63.0681 178.326 61.0485 178.326 58.4321C178.326 57.4223 178.463 56.5043 178.693 55.6781C178.922 54.8518 179.29 54.1174 179.749 53.4289C180.208 52.7863 180.85 52.2814 181.63 51.9142C182.411 51.547 183.329 51.3634 184.385 51.3634C186.68 51.3634 188.791 52.0519 190.673 53.4289V50.9502C188.883 49.7568 186.817 49.1601 184.568 49.1601C181.768 49.206 179.611 49.9863 178.004 51.5929Z" fill="black"/>
<path d="M200.496 61.7828C200.496 62.15 200.45 62.5172 200.358 62.9303C200.266 63.3434 200.083 63.7566 199.853 64.2156C199.624 64.6746 199.348 65.0418 199.027 65.3631C198.706 65.7303 198.339 66.0057 197.88 66.2352C197.421 66.4647 196.916 66.5565 196.365 66.5565C195.401 66.5565 194.712 66.2811 194.299 65.7303C193.886 65.1795 193.657 64.3533 193.657 63.2516V54.8058H191.27V63.6647C191.27 65.3631 191.683 66.6024 192.509 67.4745C193.335 68.3467 194.529 68.7598 196.043 68.7598C197.099 68.7598 198.017 68.4385 198.798 67.8417C199.578 67.245 200.22 66.4188 200.679 65.4549L201.047 68.4385H202.837V54.8058H200.45V61.7828H200.496Z" fill="black"/>
<path d="M204.856 48.3339V68.5303H207.243L207.197 48.3339H204.856Z" fill="black"/>
<path d="M213.073 51.8682H211.696C211.282 52.9239 210.823 53.7502 210.318 54.301C209.768 54.8518 209.033 55.2649 208.115 55.5403V56.7796H210.732V64.3074C210.732 65.6844 211.053 66.7861 211.741 67.6123C212.43 68.4385 213.348 68.8516 214.587 68.8516C215.918 68.8516 216.974 68.5303 217.663 67.8418V65.9598C216.928 66.4189 216.148 66.6484 215.23 66.6484C213.807 66.6484 213.118 65.7303 213.118 63.9402V56.8255H218.168V54.8977H213.118V51.8682H213.073Z" fill="black"/>
<path d="M227.853 61.7828C227.853 62.15 227.807 62.5172 227.715 62.9303C227.623 63.3434 227.44 63.7566 227.21 64.2156C226.981 64.6287 226.705 65.0418 226.384 65.3631C226.063 65.7303 225.695 66.0057 225.236 66.2352C224.777 66.4647 224.273 66.5565 223.722 66.5565C222.758 66.5565 222.069 66.2811 221.656 65.7303C221.243 65.1795 221.014 64.3533 221.014 63.2516V54.8058H218.627V63.6647C218.627 65.3631 219.04 66.6024 219.866 67.4745C220.692 68.3467 221.886 68.7598 223.4 68.7598C224.456 68.7598 225.374 68.4385 226.154 67.8417C226.935 67.245 227.577 66.4188 228.036 65.4549L228.404 68.4385H230.194V54.8058H227.807V61.7828H227.853Z" fill="black"/>
<path d="M239.696 54.5764C237.125 54.3469 235.335 55.4026 234.371 57.6977L233.958 54.8518H232.168V68.5303H234.555V61.6911C234.555 61.3698 234.555 61.0944 234.555 60.8649C234.555 60.6354 234.6 60.36 234.692 59.9927C234.784 59.6255 234.876 59.3501 235.014 59.0747C235.151 58.7993 235.335 58.5239 235.61 58.2485C235.886 57.9731 236.161 57.7436 236.528 57.56C236.896 57.3764 237.309 57.2387 237.859 57.101C238.41 56.9633 239.007 56.9174 239.696 56.9174V54.5764Z" fill="black"/>
<path d="M250.207 57.56C249.702 56.5961 248.967 55.8158 248.095 55.3108C247.177 54.76 246.121 54.5305 244.928 54.5305C244.24 54.5305 243.551 54.6682 242.954 54.8977C242.358 55.1272 241.761 55.4944 241.256 55.9994C240.751 56.5043 240.338 57.2387 240.017 58.1108C239.695 59.0288 239.558 60.0845 239.558 61.3239C239.558 62.7468 239.787 63.9861 240.246 65.0878C240.705 66.1894 241.394 67.0615 242.312 67.75C243.23 68.4385 244.377 68.7598 245.662 68.7598C246.718 68.7598 247.682 68.4844 248.462 67.9336C249.243 67.3828 249.839 66.7861 250.207 66.0976V66.1894L250.482 68.4385H252.548V54.8059H250.482L250.207 57.56ZM250.023 62.7927C249.977 63.1599 249.839 63.6189 249.702 64.1238C249.564 64.6287 249.289 65.0419 249.013 65.4091C248.738 65.7763 248.325 66.0976 247.774 66.373C247.223 66.6484 246.626 66.7861 245.938 66.7861C245.387 66.7861 244.882 66.6943 244.423 66.5107C243.964 66.3271 243.551 66.0517 243.184 65.6386C242.817 65.2255 242.495 64.6747 242.312 63.9402C242.128 63.2058 241.99 62.3337 241.99 61.3698C241.99 60.4518 242.128 59.6714 242.358 58.9829C242.587 58.2944 243 57.7436 243.551 57.3305C244.102 56.9174 244.79 56.6879 245.662 56.6879C246.58 56.6879 247.407 56.9174 248.141 57.4223C248.83 57.9272 249.38 58.5239 249.702 59.3042C250.023 60.0386 250.207 60.8649 250.207 61.737C250.069 62.0124 250.069 62.3796 250.023 62.7927Z" fill="black"/>
<path d="M257 48.3339H254.613L254.659 68.5303H257V48.3339Z" fill="black"/>
<path d="M121.729 92.6283C126.09 92.6283 129.946 93.4087 132.287 94.5562V78.7203C130.129 78.2613 127.88 77.9859 125.585 77.9859C112.044 77.9859 101.074 86.4776 101.074 96.943C101.074 107.408 112.044 115.9 125.585 115.9C127.926 115.9 130.175 115.625 132.287 115.166V99.6053C129.946 100.753 126.09 101.533 121.729 101.533C114.615 101.533 108.877 99.5135 108.877 97.0807C108.831 94.6021 114.615 92.6283 121.729 92.6283Z" fill="black"/>
<path d="M36.3537 69.9992H57.5141V52.7863C55.5863 50.3994 52.6486 48.7469 48.1503 48.7469C37.0423 48.7469 28.0457 57.7895 28.0457 68.8975C28.0457 80.0056 38.4193 91.5267 57.56 86.4317L57.5141 73.4876C44.7995 76.563 37.0882 73.2122 36.3537 69.9992Z" fill="black"/>
<path d="M135.454 68.5303C135.454 78.9957 146.424 87.4874 159.965 87.4874C162.306 87.4874 164.555 87.212 166.667 86.753V50.3075C164.509 49.8485 162.26 49.5731 159.965 49.5731C146.424 49.5731 135.454 58.0189 135.454 68.5303Z" fill="black"/>
<path d="M159.965 95.8873C155.467 95.8873 151.795 99.5594 151.795 104.058C151.795 108.556 155.467 112.228 159.965 112.228C162.765 112.228 165.198 110.851 166.667 108.694V99.3758C165.198 97.3103 162.765 95.8873 159.965 95.8873Z" fill="black"/>
<path d="M96.943 66.5565C96.943 54.6222 91.6644 49.5731 84.2743 49.5731C79.9137 49.5731 74.222 52.3272 72.8908 56.596V50.537H65.2712V86.753H96.8971V66.5565H96.943Z" fill="black"/>
<path d="M73.4417 101.304V113.972H89.7824V101.304C89.7824 96.8053 86.1103 93.1332 81.612 93.1332C77.1137 93.1332 73.4417 96.8053 73.4417 101.304Z" fill="black"/>
<path d="M49.3437 93.1332C44.8454 93.1332 41.1733 96.8053 41.1733 101.304H57.5141C57.56 96.8053 53.8879 93.1332 49.3437 93.1332Z" fill="black"/>
</g>
<defs>
<clipPath id="clip0_1_2">
<rect width="257" height="140" fill="white"/>
</clipPath>
</defs>
</svg>
