<?xml version="1.0" encoding="UTF-8"?>
<svg id="Ebene_2" data-name="Ebene 2" xmlns="http://www.w3.org/2000/svg" viewBox="0 0 359.04 132.1">
  <defs>
    <style>
      .cls-1 {
        fill: #fff;
      }
    </style>
  </defs>
  <g id="Ebene_2-2" data-name="Ebene 2">
    <g>
      <path d="M359.04,0v132.1H0V0h359.04ZM351.06,8.94H8.98v114.22h342.09V8.94Z"/>
      <path class="cls-1" d="M35.9,24.83h-11.97v81.44h33.91v-11.92h-21.94V24.83ZM76.79,24.83h-12.97v81.44h12.97V24.83ZM95.6,24.97l-11.83-.14,11.92,80.81,16.99.63,11.98-81.43-10.31-.04-.97,1.24-8.18,60.38-9.61-61.44ZM166.55,24.83h-34.91v81.44h34.91v-10.93h-21.44l-1.5-1.49v-24.33h17.95v-11.92h-17.95v-20.36l1.5-1.49h21.44v-10.93ZM286.23,24.83h-45.38c-2.71,0-11.17,3.5-13.8,5.13-3.45,2.14-6.54,5.7-9.14,8.76-3.6-3.33-6.68-7.41-11.15-9.74-1.58-.82-10.67-4.15-11.79-4.15h-19.45v80.45h12.97V36.75c8.4-.71,18.36,3.49,21.68,11.68.56,1.38,2.25,7.66,2.25,8.68v49.16h10.97v-53.14c0-2.74,3.69-9,5.95-10.96,1.84-1.59,9.46-5.43,11.5-5.43h32.41v68.53h12.97V24.83ZM307.04,24.97l-12.82-.13,13.01,40.19-14.01,41.24,11.86-.1c2.71-7.83,4.64-17.87,8.03-25.27.45-.98.66-2.33,2.03-2.43l9.13,27.67,12.82.13-14-42.22,14.01-39.2c-2.98.48-10.72-1.15-12.48.97-2.02,2.43-5.34,17.88-7.43,22.4-.45.99-.61,2.33-2.02,2.44l-8.13-25.68ZM244.35,50.65c-3.76-1.52-9.97,3.15-9.97,6.46v49.16h9.97v-55.62ZM263.3,50.65h-9.97v55.62h9.97v-55.62ZM202.46,105.28v-47.18l-4.99-3.48v50.65h4.99Z"/>
      <path d="M286.23,24.83v80.45h-12.97V36.75h-32.41c-2.04,0-9.66,3.84-11.5,5.43-2.26,1.96-5.95,8.22-5.95,10.96v53.14h-10.97v-49.16c0-1.02-1.69-7.31-2.25-8.68-3.32-8.19-13.28-12.39-21.68-11.68v68.53h-12.97V24.83h19.45c1.12,0,10.21,3.32,11.79,4.15,4.47,2.33,7.55,6.41,11.15,9.74,2.6-3.06,5.69-6.62,9.14-8.76,2.62-1.63,11.09-5.13,13.8-5.13h45.38Z"/>
      <path d="M307.04,24.97l8.13,25.68c1.41-.11,1.57-1.46,2.02-2.44,2.08-4.52,5.4-19.97,7.43-22.4,1.77-2.11,9.5-.49,12.48-.97l-14.01,39.2,14,42.22-12.82-.13-9.13-27.67c-1.37.1-1.58,1.45-2.03,2.43-3.39,7.4-5.32,17.45-8.03,25.27l-11.86.1,14.01-41.24-13.01-40.19,12.82.13Z"/>
      <polygon points="95.6 24.97 105.21 86.41 113.39 26.03 114.36 24.79 124.67 24.83 112.69 106.26 95.7 105.64 83.77 24.83 95.6 24.97"/>
      <polygon points="166.55 24.83 166.55 35.76 145.11 35.76 143.62 37.24 143.62 57.61 161.57 57.61 161.57 69.52 143.62 69.52 143.62 93.86 145.11 95.35 166.55 95.35 166.55 106.27 131.65 106.27 131.65 24.83 166.55 24.83"/>
      <polygon points="35.9 24.83 35.9 94.35 57.85 94.35 57.85 106.27 23.94 106.27 23.94 24.83 35.9 24.83"/>
      <rect x="63.83" y="24.83" width="12.97" height="81.44"/>
      <rect x="253.32" y="50.65" width="9.97" height="55.62"/>
      <path d="M244.35,50.65v55.62h-9.97v-49.16c0-3.31,6.21-7.98,9.97-6.46Z"/>
      <polygon points="202.46 105.28 197.47 105.28 197.47 54.63 202.46 58.1 202.46 105.28"/>
    </g>
  </g>
</svg>