<svg width="194" height="263" viewBox="0 0 194 263" fill="none" xmlns="http://www.w3.org/2000/svg">
<g clip-path="url(#clip0_7_45)">
<path d="M62.73 165.55H66.51C67.93 165.55 68.78 165.82 69.41 166.38C70.04 166.95 70.67 167.95 70.49 169.36C70.39 170.18 69.93 171.46 68.94 172.31C68.12 173.01 67.4 173.18 66.77 173.33L69.56 177.88H66.79L64.1 173.17H64.07L63.49 177.88H61.21L62.72 165.55H62.73ZM64.3 171.45H65.76C67.64 171.45 68.11 170.2 68.19 169.55C68.27 168.87 68 167.68 66.22 167.68H64.76L64.3 171.44V171.45Z" fill="#FFFFFF"/>
<path d="M73.6 165.55H80.23L79.97 167.68H75.62L75.25 170.69H79.42L79.16 172.82H75L74.64 175.73H78.99L78.73 177.86H72.1L73.61 165.53L73.6 165.55ZM75.23 163.12L79.25 160.9L79.93 162.65L75.89 164.65L75.23 163.12Z" fill="#FFFFFF"/>
<path d="M87.31 171.6H95.35L95.32 171.87C94.89 175.38 91.47 178.13 88.03 178.13C84.59 178.13 81.74 175.42 82.19 171.72C82.64 168.09 86.06 165.31 89.54 165.31C92.64 165.31 94.63 167.41 95.04 169.17H92.31C91.88 168.35 90.86 167.44 89.23 167.44C86.45 167.44 84.71 169.8 84.48 171.74C84.25 173.62 85.37 176.01 88.3 176.01C89.82 176.01 91.33 175.18 92.22 173.74H87.06L87.32 171.61L87.31 171.6Z" fill="#FFFFFF"/>
<path d="M98.93 165.55H101.21L99.7 177.88H97.42L98.93 165.55Z" fill="#FFFFFF"/>
<path d="M110.67 165.31C114.17 165.31 116.77 168.11 116.32 171.75C115.89 175.28 112.64 178.13 109.09 178.13C105.54 178.13 102.99 175.28 103.43 171.75C103.88 168.1 107.17 165.31 110.67 165.31ZM109.35 176C111.7 176 113.76 174.02 114.04 171.73C114.33 169.37 112.72 167.43 110.4 167.43C108.08 167.43 106 169.36 105.71 171.73C105.43 174.01 107 176 109.35 176Z" fill="#FFFFFF"/>
<path d="M119.34 165.52H121.89L125.82 174.34H125.86L126.94 165.52H129.18L127.69 177.64H125.18L121.2 168.83H121.17L120.09 177.64H117.84L119.33 165.52H119.34Z" fill="#FFFFFF"/>
<path d="M3.73 179.06H10.14L20 201.17H20.08L22.8 179.06H28.43L24.7 209.46H18.41L8.43 187.36H8.35L5.64 209.46H0L3.73 179.06Z" fill="#FFFFFF"/>
<path d="M30.4 197.9C31.26 190.89 37.64 185.5 44.28 185.5C50.92 185.5 55.91 190.72 55.04 197.81C54.11 205.4 47.68 210.2 41.25 210.2C34.36 210.2 29.59 204.53 30.4 197.89V197.9ZM49.47 197.94C49.99 193.72 47.12 190.59 43.65 190.59C40.77 190.59 36.55 193.05 35.95 197.89C35.41 202.27 38.36 205.11 41.87 205.11C45.92 205.11 49.02 201.61 49.47 197.93V197.94Z" fill="#FFFFFF"/>
<path d="M80.61 186.3L77.77 209.46H72.68L72.97 207.12H72.88C71.81 208.37 70.08 210.21 66.53 210.21C62.31 210.21 60.19 208.12 59.22 206.54C57.81 204.08 58.27 200.32 58.51 198.4L60 186.3H65.55L64.1 198.11C63.87 199.99 63.24 205.12 68.08 205.12C71.59 205.12 73.16 201.82 73.61 198.15L75.07 186.3H80.62H80.61Z" fill="#FFFFFF"/>
<path d="M83.49 186.3H89.5L93.2 201.66H93.32L100.46 186.3H106.55L94.32 209.46H89.98L83.48 186.3H83.49Z" fill="#FFFFFF"/>
<path d="M111.73 200.36C111.79 201.86 113.57 205.12 117.53 205.12C119.99 205.12 121.96 204.08 123.24 202.15H129.08C127.23 206.32 122.33 210.21 116.9 210.21C110.01 210.21 105.35 204.7 106.18 197.94C106.98 191.39 112.77 185.37 119.91 185.37C127.05 185.37 131.11 191.72 130.39 197.56C130.26 198.65 129.97 199.61 129.71 200.36H111.72H111.73ZM124.92 195.9C124.75 192.19 122.08 190.48 119.32 190.48C117.28 190.48 113.67 191.6 112.1 195.9H124.91H124.92Z" fill="#FFFFFF"/>
<path d="M136.65 178.58H142.2L138.41 209.46H132.86L136.65 178.58Z" fill="#FFFFFF"/>
<path d="M147.08 178.58H152.63L148.84 209.46H143.29L147.08 178.58Z" fill="#FFFFFF"/>
<path d="M159.72 200.36C159.79 201.86 161.56 205.12 165.52 205.12C167.98 205.12 169.95 204.08 171.23 202.15H177.07C175.22 206.32 170.32 210.21 164.9 210.21C158.01 210.21 153.35 204.7 154.18 197.94C154.98 191.39 160.77 185.37 167.91 185.37C175.05 185.37 179.11 191.72 178.39 197.56C178.25 198.65 177.97 199.61 177.71 200.36H159.72ZM172.92 195.9C172.75 192.19 170.08 190.48 167.33 190.48C165.29 190.48 161.68 191.6 160.11 195.9H172.92Z" fill="#FFFFFF"/>
<path d="M142.25 220.42C142.03 222.26 140.35 223.75 138.51 223.75C136.67 223.75 135.36 222.26 135.59 220.42C135.82 218.58 137.49 217.09 139.33 217.09C141.17 217.09 142.48 218.58 142.25 220.42Z" fill="#FFFFFF"/>
<path d="M16.52 218.51H20.81L29.29 250.59H23.24L21.09 242.31H10.47L6.29001 250.59H0.230011L16.51 218.51H16.52ZM13 236.72H19.81L17.65 226.88H17.57L13 236.72Z" fill="#FFFFFF"/>
<path d="M57.52 226.53L53.09 262.09H47.76L49.51 248.29C46.53 251.37 43 251.37 42.36 251.37C35.63 251.37 31.93 244.96 32.74 238.33C33.58 231.43 39.46 225.71 45.55 225.71C50.08 225.71 51.56 228.36 52.17 229.57H52.25L52.62 226.53H57.51H57.52ZM43.66 246.09C47.43 246.09 50.52 242.45 50.99 238.59C51.45 234.82 49.4 231 45.47 231C41.54 231 38.55 234.51 38.06 238.46C37.47 243.31 40.33 246.09 43.66 246.09Z" fill="#FFFFFF"/>
<path d="M81.59 226.53L78.64 250.59H73.75L74.05 248.16H73.97C72.93 249.46 71.25 251.37 67.85 251.37C63.8 251.37 61.79 249.2 60.87 247.56C59.54 245 60.02 241.1 60.26 239.11L61.8 226.54H67.13L65.62 238.81C65.38 240.76 64.73 246.09 69.37 246.09C72.73 246.09 74.28 242.66 74.75 238.85L76.26 226.54H81.59V226.53Z" fill="#FFFFFF"/>
<path d="M97.06 231.65H94.46L95.09 226.53H97.7L98.68 218.51H104.01L103.03 226.53H106.23L105.6 231.65H102.4L100.07 250.59H94.75L97.07 231.65H97.06Z" fill="#FFFFFF"/>
<path d="M128.27 250.6H123.38L123.75 247.61C121.8 249.78 118.32 251.38 115.51 251.38C109.78 251.38 105.3 246.44 106.28 238.42C107.19 231.05 112.81 225.72 118.98 225.72C123.51 225.72 125.76 229.23 125.88 229.58H125.96L126.33 226.54H131.22L128.27 250.6ZM119.13 231C114.76 231 112.02 235.08 111.57 238.68C111.07 242.75 113.46 246.09 117.27 246.09C121.08 246.09 124.15 242.97 124.69 238.51C125.3 233.52 122.29 231.01 119.12 231.01L119.13 231Z" fill="#FFFFFF"/>
<path d="M145.68 226.53H150.61L150.36 228.61C151.35 227.7 153.44 225.7 156.81 225.7C158.73 225.7 161.55 226.61 163.09 229.04C164.81 231.68 164.31 235.72 164.08 237.58L162.48 250.58H157.15L158.61 238.7C158.86 236.71 159.56 230.98 155.07 230.98C154.11 230.98 152.32 231.5 151.16 233.1C150.01 234.57 149.7 237.09 149.46 239.13L148.05 250.57H142.72L145.67 226.51L145.68 226.53Z" fill="#FFFFFF"/>
<path d="M173.01 241.15C173.06 242.71 174.73 246.09 178.54 246.09C180.9 246.09 182.8 245.01 184.04 243.01H189.65C187.84 247.34 183.09 251.37 177.89 251.37C171.28 251.37 166.85 245.65 167.71 238.63C168.55 231.82 174.16 225.58 181.01 225.58C187.86 225.58 191.7 232.17 190.96 238.24C190.82 239.36 190.54 240.36 190.28 241.14H173.01V241.15ZM185.73 236.51C185.6 232.65 183.06 230.87 180.42 230.87C178.45 230.87 174.99 232.04 173.44 236.51H185.74H185.73Z" fill="#FFFFFF"/>
<path d="M83.4 250.58H88.73L91.68 226.52H86.35L83.4 250.58Z" fill="#FFFFFF"/>
<path d="M93.44 220.09C93.2 222.04 91.43 223.61 89.49 223.61C87.55 223.61 86.16 222.04 86.4 220.09C86.64 218.15 88.41 216.57 90.35 216.57C92.29 216.57 93.68 218.15 93.44 220.09Z" fill="#FFFFFF"/>
<path d="M132.58 250.58H137.91L140.86 226.52H135.53L132.58 250.58Z" fill="#FFFFFF"/>
<path d="M181.87 197.82C182.01 196.65 183.1 195.69 184.28 195.69H191.03C192.21 195.69 193.06 196.65 192.91 197.82L192.86 198.25C192.72 199.42 191.63 200.38 190.45 200.38H183.7C182.52 200.38 181.67 199.42 181.82 198.25L181.87 197.82Z" fill="#FFFFFF"/>
<path d="M160.91 73.7V6.87C160.91 3.08 157.83 0 154.03 0H39.21C35.43 0 32.35 3.08 32.35 6.86V73.69C32.33 74.29 32.29 76.15 32.49 78.98C32.7 81.95 33.22 86.64 34.51 92.11C35.74 97.33 37.46 102.4 39.62 107.2C40.01 108.06 40.41 108.91 40.82 109.75C42 112.13 43.33 114.5 44.76 116.77C47.43 121 50.51 124.95 53.91 128.52C54.58 129.23 55.25 129.91 55.92 130.59C58.07 132.75 60.26 134.81 62.43 136.72C64.36 138.41 66.35 140.05 68.34 141.59C69.83 142.73 71.33 143.83 72.8 144.84C83.95 152.52 92.46 154.98 94.8 155.56L96.64 155.93L98.43 155.56C100.09 155.16 104.63 153.87 110.89 150.61C115.18 148.38 119.54 145.62 123.84 142.39C129.12 138.43 134.33 133.77 139.33 128.53C144.58 123.02 148.99 116.71 152.43 109.76C155.16 104.23 157.29 98.29 158.74 92.13C160.03 86.66 160.55 81.97 160.76 79C160.96 76.1 160.92 74.25 160.9 73.72L160.91 73.7ZM157.32 78.75C157.12 81.59 156.63 86.07 155.39 91.32C154 97.23 151.96 102.91 149.35 108.2C146.07 114.83 141.87 120.85 136.86 126.11C132 131.21 126.94 135.74 121.83 139.57C117.69 142.68 113.5 145.34 109.38 147.48C103.45 150.57 99.23 151.77 97.69 152.14L96.66 152.35L95.64 152.15C93.42 151.61 85.41 149.29 74.74 141.94C73.32 140.96 71.87 139.9 70.43 138.8C68.5 137.31 66.57 135.73 64.7 134.08C62.59 132.23 60.46 130.22 58.37 128.12C57.72 127.46 57.07 126.8 56.41 126.11C53.17 122.71 50.23 118.94 47.68 114.9C46.31 112.73 45.05 110.48 43.92 108.2C43.52 107.4 43.14 106.58 42.77 105.76C40.7 101.18 39.06 96.32 37.88 91.32C36.64 86.07 36.15 81.59 35.95 78.75C35.74 75.67 35.82 73.82 35.82 73.74V7.1C35.82 5.12 37.43 3.5 39.42 3.5H153.86C155.85 3.5 157.47 5.12 157.47 7.11V73.78C157.47 74.01 157.54 75.81 157.34 78.75H157.32Z" fill="#FFFFFF"/>
<path d="M66.81 108.81C66.77 105.18 67.79 101.98 68.78 98.89C69.81 95.67 70.87 92.34 70.7 88.54C70.59 85.92 69.73 83.45 68.82 80.84C67.97 78.4 67.09 75.88 66.81 73.11C66.25 67.61 67.67 62.76 69.04 58.07C70.2 54.1 71.3 50.35 71.09 46.53C70.96 44.12 70.02 41.61 69.02 38.95C68.06 36.39 67.07 33.74 66.81 31.09C66.32 26.16 67.71 21.57 69.05 17.12C70.06 13.77 71.02 10.59 71.15 7.42999H65.63C65.54 11.66 64.33 15.7 63.16 19.62C62.08 23.21 61.07 26.61 61.15 29.59C61.23 32.19 62.2 34.78 63.22 37.52C64.18 40.08 65.17 42.73 65.44 45.51C65.85 49.79 64.65 54.08 63.39 58.61C62.21 62.83 60.99 67.19 61.15 71.61C61.28 74.99 62.14 77.63 63.05 80.42C64.24 84.05 65.46 87.8 65.04 93.38C64.84 96 63.95 98.6 63.08 101.11C62.15 103.79 61.2 106.57 61.15 109.3C61.09 112.9 62.19 116.77 63.37 120.86C64.17 123.64 64.99 126.52 65.48 129.45L66.15 130.06C67.91 131.64 69.71 133.17 71.51 134.6C71.87 130.67 70.64 126.38 69.34 121.85C68.12 117.61 66.86 113.22 66.82 108.79L66.81 108.81Z" fill="#FFFFFF"/>
<path d="M59.63 7.45H53.32C53.55 11.66 52.39 15.21 51.16 18.96C49.83 23.02 48.46 27.22 48.91 32.48C49.14 35.28 50.11 37.92 51.06 40.48C52.06 43.19 53.09 45.99 53.19 48.91C53.32 52.82 52.23 56.63 51.08 60.67C49.85 64.97 48.58 69.42 48.91 74C49.14 77.29 50 79.9 50.84 82.41C51.88 85.55 52.96 88.8 52.8 93.35C52.69 96.38 51.75 99.21 50.85 101.95C50.06 104.33 49.25 106.78 49 109.33L49.12 109.55C49.28 109.84 49.44 110.13 49.6 110.41C51.77 114.17 54.3 117.72 57.13 120.99C56.04 117.23 54.99 113.38 54.96 109.76C54.93 106.39 55.95 102.95 56.93 99.64C58.04 95.86 59.2 91.95 58.86 88.07C58.62 85.39 57.74 82.76 56.89 80.21C55.97 77.44 55.09 74.82 54.96 72.13C54.75 67.82 55.99 63.25 57.2 58.82C58.45 54.25 59.62 49.94 59.24 46.07C58.93 42.98 57.94 40.29 56.97 37.7C55.96 34.97 55 32.39 54.96 29.62C54.88 24.82 56.2 21.12 57.47 17.54C58.64 14.24 59.75 11.13 59.63 7.44V7.45Z" fill="#FFFFFF"/>
<path d="M46.98 7.45001H42.62C41.04 7.45001 39.76 8.73001 39.76 10.31V73.82C39.76 73.91 39.49 80.99 41.73 90.46C42.54 93.87 43.6 97.27 44.9 100.6C45.85 97.6 46.75 94.49 46.6 90.97C46.49 88.34 45.63 85.87 44.72 83.26C43.87 80.82 42.99 78.3 42.71 75.54C42.15 70.05 43.57 65.2 44.94 60.51C46.1 56.54 47.2 52.79 46.99 48.96C46.86 46.55 45.92 44.03 44.92 41.37C43.96 38.81 42.97 36.17 42.71 33.53C42.23 28.61 43.62 24.01 44.96 19.56C46.23 15.36 47.43 11.4 46.99 7.46001L46.98 7.45001Z" fill="#FFFFFF"/>
<path d="M153.5 73.89V10.31C153.5 8.73001 152.22 7.45001 150.64 7.45001H77.4C77.18 10.66 76.25 13.52 75.27 16.54C73.95 20.6 72.58 24.8 73.02 30.07C73.25 32.87 74.23 35.52 75.17 38.08C76.17 40.79 77.2 43.59 77.3 46.51C77.43 50.41 76.34 54.22 75.19 58.26C73.96 62.56 72.69 67.02 73.02 71.61C73.25 74.89 74.12 77.49 74.95 80.01C75.99 83.16 77.07 86.41 76.92 90.97C76.81 94 75.87 96.83 74.96 99.57C74.03 102.37 73.07 105.27 73.02 108.34C72.95 112.99 74.21 117.36 75.43 121.59C76.69 125.96 77.88 130.09 77.68 134.42C77.62 135.71 77.34 137.07 76.81 138.57C79.76 140.61 82.74 142.42 85.66 143.94C91.32 146.89 95.16 147.98 96.63 148.33C98.09 147.99 101.91 146.91 107.55 143.98C111.48 141.94 115.48 139.39 119.46 136.42C124.4 132.72 129.3 128.33 134 123.39C138.74 118.42 142.71 112.72 145.81 106.46C148.29 101.44 150.22 96.04 151.55 90.42C153.77 81 153.52 74.19 153.51 73.9L153.5 73.89ZM106.06 41.72C107.1 42.13 108.11 41.7 109.08 41.35C110.8 40.73 112.14 39.56 114.18 39.79C114.1 40.77 112.06 40.86 111.2 41.2C110.17 41.61 109.38 42.41 108.4 42.88C106.23 43.89 104.08 43.24 103.86 40.56C104.3 40.56 105.58 41.53 106.06 41.72ZM108.63 39.46C108.79 39.36 108.79 39.44 109.18 39.36C109.12 39.68 109.06 40 109 40.32C108.47 40.39 108.59 39.75 108.63 39.46ZM110.65 43.1C110.51 43.23 110.37 43.22 110.25 43.1C110.29 43.01 110.32 42.93 110.36 42.84C110.46 42.93 110.56 43.02 110.64 43.11L110.65 43.1ZM103.05 45.34C102.39 48.32 105.28 48.54 107.4 47.77C107.54 47.72 107.68 47.69 107.82 47.66C107.85 47.66 107.88 47.64 107.91 47.64C109.06 47.46 109.99 48.09 111.2 48.12C112.18 48.14 113.42 47.73 114.11 47C114.68 46.38 116.18 44.68 115.91 43.74C115.67 42.94 114.41 44.74 114.26 44.92C113.65 45.6 112.14 46.85 111.12 46.56C110.17 46.3 110.18 44.73 110.11 43.97C111.4 43.5 113.65 44.05 114.45 42.63C115.29 41.12 115.02 39.22 114.18 37.84C113.52 36.77 110.27 38.33 109.4 38.63C108.8 38.85 107.3 39.09 106.96 38.29C106.71 37.69 106.96 37.22 106.49 36.65C105.1 35 107.67 34.4 108.68 33.68C108.71 33.66 108.74 33.64 108.77 33.62C108.84 33.57 108.89 33.51 108.94 33.46C108.98 33.41 109.02 33.3 109.06 33.16C109.09 33.07 109.11 32.97 109.13 32.87C109.21 32.43 109.28 31.93 109.37 31.94C109.88 32.01 110.59 31.45 111.06 31.29C111.99 30.97 112.9 30.62 113.84 30.34C114.91 30.02 116.04 29.76 117.17 29.81C118.16 29.81 119.46 30.23 120.04 31.08C119.77 31.24 119.45 31.27 119.15 31.37C118.85 31.47 118.55 31.6 118.29 31.78C118.04 31.95 117.81 32.16 117.75 32.47C117.72 32.63 117.78 33.27 118.06 33.17C118.1 33.16 118.13 33.13 118.16 33.09C118.7 32.53 119.06 32.04 119.84 31.83C120.6 31.62 121.43 31.68 122.14 32.02C122.87 32.37 122.72 32.89 122.13 33.29C121.7 33.58 119.82 33.67 119.82 34.07C119.83 34.94 121.4 34.24 121.88 34.19C121.78 34.2 122.19 35.28 122.23 35.35C122.33 35.57 122.44 35.79 122.55 36.01C122.67 36.24 122.77 36.5 122.92 36.71C123.07 36.94 123.28 37.12 123.55 37.19C123.83 37.27 124.13 37.26 124.42 37.28C124.16 37.6 123.28 37.9 123.27 38.36C123.26 38.7 123.85 39.02 123.96 39.35C124.32 40.4 123.87 41.61 124.16 42.67C124.34 43.28 126.05 44.36 125.78 44.63C124.99 45.4 123.89 45.01 123.06 44.61C122.76 44.47 122.64 44.87 122.74 45.1C122.92 45.49 123.78 45.63 124.13 45.77C125.17 46.17 124.58 47.92 124.45 48.65C124.22 49.84 123.97 51.04 123.67 52.22C123.37 53.41 124.03 54.48 124.51 55.51C123.77 55.85 122.18 54.19 121.93 54.55C121.64 54.98 122.92 55.86 122.78 56.49C122.63 57.21 122.24 57.88 122.07 58.6C121.81 59.6 122.02 60.94 123.12 61.32C123.4 61.42 123.7 61.45 123.96 61.59C123.63 62.41 122.19 62.03 121.69 61.62C120.92 60.99 120.36 59.86 120.23 58.97C120.17 58.5 120.64 56.92 120.37 56.63C120.36 56.61 120.35 56.59 120.33 56.58C119.55 56.32 119.46 58.62 119.5 59.04C119.54 59.55 119.76 60.03 119.78 60.54C119.83 61.49 119.31 62.44 118.77 63.19C118.11 64.11 117.11 64.63 117.29 65.94C117.4 66.68 117.87 67.05 118.25 67.65C116.13 67.91 114.82 65.93 114.96 64.01C115.03 63.11 115.25 62.12 115.59 61.29C115.81 60.72 115.4 59.53 115.04 60.43C114.38 62.12 113.54 63.58 112.2 64.83C111.6 65.4 111.04 66.04 110.77 66.83C110.68 67.09 110.29 68.86 110.55 69C109.31 68.34 108.59 66.61 108.23 65.33C107.99 64.48 109.13 63.44 108.69 62.66C108.29 61.95 107.32 64.17 107.21 64.42C106.92 65.06 106.73 65.82 106.34 66.41C105.36 67.92 102.58 69.39 100.78 68.82C98.31 68.06 97.32 66.46 99.96 65C100.14 68.06 104.14 66.92 103.8 64.43C103.61 63.08 103.07 61.86 104.31 60.86C104.67 60.57 105.19 60.52 105.55 60.24C105.7 60.12 105.82 59.93 105.8 59.74C105.77 59.5 105.53 59.32 105.29 59.31C104.73 59.28 103.89 60.02 103.43 60.31C102.76 60.73 102.09 61.16 101.39 61.53C100.35 62.08 99.12 62.75 97.9 62.7C97.06 62.67 96.23 62.2 95.59 61.69C94.3 60.67 93.03 58.67 94.38 57.19C94.29 57.29 95 58.78 95.08 58.91C95.4 59.43 95.88 59.76 96.5 59.57C97.58 59.23 98.08 58.72 98.77 57.86C99.52 56.94 100.2 56.17 101.37 55.79C102.44 55.44 103.52 55.53 104.62 55.58C104.73 55.58 104.84 55.58 104.93 55.53C105.28 55.31 104.96 54.62 104.72 54.44C104.43 54.22 104.06 54.3 103.73 54.35C103.2 54.43 102.68 54.58 102.15 54.65C100.25 54.93 98.41 52.38 98.54 50.76C100.02 51.52 101.19 51.69 102.89 51.43C103.44 51.35 105.03 50.83 105.12 50.21C105.19 49.78 104.68 49.71 104.24 49.7C104.22 49.7 104.2 49.7 104.18 49.7C104.13 49.7 104.07 49.7 104.03 49.7C103.96 49.7 103.89 49.7 103.83 49.7C103.77 49.7 103.73 49.7 103.7 49.7C102.98 49.56 102.21 49.11 101.79 48.48C101 47.27 101.62 45.61 103.08 45.35L103.05 45.34ZM95.01 31.84C95.3 32.31 94.7 32.85 94.28 32.95C93.13 33.22 93.58 31.64 93.18 31.03C93.88 31.13 94.61 31.19 95 31.84H95.01ZM90.43 32.04C90.17 32.53 88.69 31.1 88.4 30.94C89.09 30.53 91.16 30.65 90.43 32.04ZM89.09 34.49C89.23 34.11 88.98 33.52 89.28 33.22C89.59 32.89 90.14 33.2 90.53 32.92C91.16 32.47 90.85 34.78 91.04 35.09C91.53 35.92 91.99 36.63 92.64 37.34C92.64 38.5 93.58 37.57 93.52 36.73C93.44 35.79 93.01 35.01 92.71 34.13C92.64 33.92 92.5 32.39 93.22 33.16C93.81 33.79 94.63 33.5 95.28 33.17C95.39 33.4 95.21 35.67 94.97 35.86C94.51 36.25 94.42 37.18 94.33 37.75C94.04 39.93 96.13 41.93 97.54 43.31C98.18 43.94 101.15 45.75 100.96 46.33C100.61 47.47 100.89 48.54 101.74 49.37C102.19 49.81 103.21 49.99 103.52 50.39C102.49 50.84 101.17 50.81 100.07 50.71C99.28 50.64 98.22 49.2 97.8 50.24C96.87 52.53 99.4 53.97 100.9 55C99.77 55.68 99.04 56.38 98.18 57.34C97.68 57.31 96.18 55.99 96.33 55.43C96.7 53.89 93.56 51.74 94.81 50.49C95.32 50 94.23 49.06 93.67 50.37C93.22 51.45 93.48 52.52 93.19 53.58C92.88 54.69 92.11 55.48 90.76 55.1C90.58 55.05 89.32 54.26 89.68 53.98C91.04 54.9 92.05 55.12 92.38 53.24C92.61 51.87 91.16 49.98 91.88 48.75C92.45 47.76 92.57 46.94 92.07 45.89C91.99 45.73 91.46 44.1 91.33 44.11C90.42 44.11 90.83 44.75 90.08 45.21C89.53 45.56 88.69 45.76 88.06 45.51C88.39 44.84 88.6 43.86 88.03 43.22C87.76 42.92 88.1 42.28 88.43 42.22C89.78 41.96 91.16 40.47 90.07 39.09C89.05 37.82 87.42 38.23 86.4 37.02C85.42 35.85 86.83 35.47 87.07 34.35C87.51 34.59 88.79 35.37 89.09 34.47V34.49ZM86.47 43.84C88.89 43.79 86.86 46.32 86.47 43.84ZM86.23 34.68C86.09 35.5 84.57 34.87 84 34.91C84.38 34.14 86.48 33.02 86.23 34.68ZM86.31 68.96C87.23 70.49 83.42 70 83.1 70C83.29 69.13 85.74 68.03 86.31 68.96ZM81.98 74.36C81.79 73.58 82.81 73.42 83.31 73.25C84.29 74.31 82.32 74.18 81.98 74.36ZM83.76 79.39C83.76 79.39 83.73 79.3 83.71 79.3C83.04 78.07 85.22 76.58 85.37 77.32C85.55 78.2 84.26 78.91 83.76 79.39ZM86.03 77.91C86.12 77.22 85.83 76.67 85.24 76.34C84.85 76.11 84.99 75.72 84.79 75.31C84.6 74.97 83.8 74.67 84.01 74.28C84.3 73.71 84.01 73.18 83.76 72.67C84.45 72.5 85.44 72.53 86.06 72.21C86.73 71.85 85.73 71.27 85.57 70.81C85.94 70.61 86.42 70.54 86.67 70.14C87.16 69.35 86.52 68.81 87.71 68.83C88 68.83 88.65 70.41 89.07 70.66C90.66 71.63 92.88 69.31 93.78 68.35C94.51 67.57 95.28 66.83 96.07 66.12C97.11 65.19 98.2 64.33 99.33 63.53C100.19 62.93 101.1 62.42 101.96 61.83C102.21 61.66 102.48 61.42 102.8 61.45C102.98 62.18 103.02 62.97 103.15 63.72C103.24 64.21 103.39 64.97 102.97 65.36C102.6 65.7 100.28 66.89 100.56 65.46C100.61 65.24 102.22 63.78 100.83 63.98C100.74 63.99 100.65 64.02 100.56 64.04C100.55 64.04 100.53 64.04 100.52 64.04C99.52 64.28 98.21 64.98 97.76 65.84C96.47 68.3 100.54 69.85 102.32 69.53C104.99 69.05 106.33 67.74 107.59 65.5C107.82 66.19 108.01 66.88 108.37 67.52C108.98 68.58 108.77 68.26 108.3 69.26C107.75 70.4 108.36 71.26 109.47 71.5C109.16 72.07 107.98 72.34 107.41 72.1C107.29 72.05 106.58 71.23 106.51 71.77C106.44 72.21 105.69 72.41 105.34 72.39C104.6 72.35 104.89 71.78 104.76 71.33C104.6 70.69 102.64 71.57 102.29 71.66C101.36 71.88 103.05 74.68 102.86 75.3C102.84 75.3 102.82 75.3 102.8 75.3C102.19 75.09 100.1 75.15 100.25 74.39C100.32 74.08 99.88 73.02 99.48 73.56C99.13 74.02 99.04 74.58 99.07 75.14C99.13 76.08 97.71 74.35 97.47 75.33C97.36 75.8 97.12 76.51 96.52 76.55C96.43 75.6 96.4 73.78 95.32 75.19C94.84 75.82 92.8 75.79 92.97 76.3C93.45 77.72 94.24 78.18 92.67 79.12C91.92 78.71 91.68 78.75 90.84 78.82C90.39 78.16 90.9 77.74 91.12 77.16C91.84 75.36 88.87 76.07 88.22 76.73C88.14 76.81 85.81 79.5 86.02 77.9L86.03 77.91ZM92.63 93.26C92.29 92.87 91.89 92.59 91.35 92.6C92.23 91.23 95.29 91.89 92.63 93.26ZM89.48 80.86C89.83 80.2 91.4 80.47 91.84 79.48C93.27 79.47 90.28 82.58 89.48 80.86ZM89.2 97.12C89.23 96.41 89.84 94.99 90.81 95.65C91.71 96.27 89.6 96.84 89.2 97.12ZM91.72 102.12C90.6 101.51 91.99 99.18 92.64 101.19C92.24 101.4 91.84 101.64 91.72 102.12ZM98.06 103.75C98.5 103.41 99.97 101.71 99.94 103.44C99.92 104.28 98.42 103.91 98.06 103.75ZM110.37 89.32C110.78 89.99 110.39 90.37 110.56 91.07C110.24 91.44 109.54 91.99 109.95 92.54C110.46 93.23 109.6 93.32 109.23 94.07C108.98 94.61 109.36 95.56 108.94 95.96C107.69 97.16 109.2 97.95 110.17 98.65C109.37 98.98 107.93 98.48 107.21 98.08C106.02 97.41 106.56 96.62 106.02 95.79C105.36 94.77 104.94 97.39 104.86 97.67C104.63 98.43 103.52 98.71 102.84 98.79C102.04 98.88 100.65 97.67 100 98.13C99.26 98.67 99.45 99.32 100.1 99.88C101.08 100.7 101.69 100.7 100.62 101.73C100.1 102.23 101.08 102.68 100.6 103.18C100.24 102.62 99.72 101.76 98.88 102C98.59 101.42 97.51 101.29 98.53 100.42C99.34 99.72 98.93 99.03 97.94 98.98C97.24 98.93 96.13 99.5 95.59 99.91C94.9 100.41 95.05 101.49 94.25 101.83C93.28 102.25 93.49 101.24 93.22 100.7C93 100.28 91.61 99.14 92.53 98.76C93.11 98.51 93.9 98.66 93.86 97.8C93.3 97.75 91.15 98.54 91.14 97.63C91.14 97.23 91.66 94.95 91.81 94.95C92.36 94.96 94.74 96.12 94.64 95.7C94.43 94.81 93.31 94.63 92.7 94.13C92.99 93.81 94.76 91.99 95.26 92.28C95.83 92.61 95.6 93.46 95.68 93.95C95.74 94.27 96.29 94.54 96.49 94.73C97.65 95.7 98.85 94 99.49 93.26C100.23 92.4 101.31 92.55 102.23 91.98C103.35 91.29 104.17 89.78 103.67 88.48C103.19 87.22 101.63 86.78 101.99 85.39C102.09 85 101.63 84.73 101.41 85.12C101.16 85.61 100.93 86.12 100.62 86.57C99.76 87.78 98.8 87.82 97.51 87.41C98.68 86.68 99.74 85.72 100.04 84.3C100.19 83.66 100.14 83.02 100.3 82.38C100.55 81.46 100.43 81.64 101.23 81.07C101.86 80.63 102.08 79.75 102.6 79.19C103.19 78.55 103.93 78.06 104.66 77.57C105.76 76.82 106.98 76.83 108.2 76.46C109.63 76.02 110.68 75.37 111.66 74.2C112.62 73.06 113.74 71.7 115.32 71.62C117.65 76.97 114.76 77.73 116.7 79.05C117.32 79.47 117.87 78.84 117.79 79.8C117.77 80.09 116.73 80.03 116.54 80.06C113.03 80.59 110.09 82.57 108.97 85.92C108.52 87.29 109.79 88.31 110.39 89.32H110.37ZM117.9 76.34C116.81 76.02 116.37 73.11 116.17 71.98C117.6 72.53 118.49 74.95 117.9 76.34ZM117.91 78.09C117.87 78.43 117.76 78.76 117.41 78.72C116.75 78.66 116.21 78.21 116.28 77.51C116.36 76.79 117.21 76.56 117.66 76.88C117.7 76.9 117.78 76.97 117.86 77.12C117.86 77.13 117.87 77.14 117.88 77.16C117.91 77.23 117.95 77.47 117.95 77.48C117.96 77.63 117.95 77.83 117.91 78.09ZM121.25 99.58C121.55 100.82 120.96 101.01 119.97 101.4C119.78 100.67 120.43 99.48 121.25 99.58ZM121.01 105.52C120.55 105.08 120.46 104.08 120.88 103.58C121.3 103.08 122.19 103.23 122.48 102.81C123.81 103.64 121.45 105.15 121.01 105.52ZM127.39 107.14C126.46 106.73 126.51 104.74 127.54 105.12C128.5 105.47 127.54 106.4 127.39 107.14ZM130.69 106.14C130.17 105.34 130.5 104.33 131.48 105.18C131.21 105.49 130.96 105.82 130.69 106.14ZM132.14 55.9C132.19 56.36 134.03 60.32 134.66 59.31C134.9 58.91 134.24 57.99 134.11 57.66C133.74 56.75 134.35 55.67 134.99 55.07C136.36 53.78 138.39 53.82 139.8 52.66C141.22 51.48 141.23 50.71 141.4 48.96C144.43 50.27 142.88 53.27 140.91 54.6C138.79 56.03 135.88 57.14 135.34 59.93C135.19 60.67 134.95 63 135.83 63.37C136.69 63.73 136.69 61.45 136.91 61.13C137.57 60.13 138.67 58.79 140.01 58.88C141.26 58.96 142.45 59.76 142.49 61.1C137.06 58.52 136.44 65.82 137.14 69.33C137.61 71.71 137.8 73.5 135.69 75.11C133.94 76.44 132.32 76.78 130.17 76.35C129.87 76.28 127.74 75.42 127.8 76.18C127.86 76.95 127.87 77.74 127.95 78.52C128.1 80.14 129.53 81.99 130.55 83.23C131.15 83.96 131.84 84.16 132.63 84.64C132.99 84.86 133.77 85.86 134.26 85.77C134.94 85.63 135 84.3 135.96 84.14C136.93 83.97 137.85 83.8 138.81 83.53C138.81 83.55 138.81 83.57 138.81 83.58C138.54 84.79 138.63 86.2 137.07 86.44C136.19 86.58 135.1 86.6 135.3 87.69C135.89 91.22 141.81 87.19 141.16 90.65C139.19 89.73 138.3 91.23 136.45 91.57C135.49 91.75 135.3 90.6 134.27 90.55C133.49 90.51 134.79 91.64 134.79 91.65C135.25 92.15 135.5 92.83 135.84 93.42C136.57 94.73 137.85 93.61 138.73 93.82C137.82 94.73 136.65 94.3 135.66 94.7C134.17 95.29 135.74 95.43 136.1 95.98C135.94 96.36 135.56 96.56 135.29 96.8C135.28 96.81 135.26 96.82 135.25 96.84C134.97 97.1 134.82 97.42 135.23 98.07C135.6 98.66 136.15 99.04 136.69 99.46C136.21 99.63 135.21 99.57 135.06 98.93C134.87 98.13 134.11 98.53 134.45 99.32C135.16 100.97 132.11 101.68 131.96 103.2C131.96 103.28 132.81 105.14 131.95 104.66C131.61 104.46 130.91 104.34 130.65 104.13C130.22 103.77 130.34 103.19 129.54 103.64C129.47 103.68 129.43 103.73 129.37 103.78C129.35 103.79 129.34 103.81 129.32 103.82C128.93 104.17 128.83 104.66 128.71 105.17C128.22 104.8 127.74 104.48 127.23 104.17C127.52 103.81 129.2 102.18 128.5 101.77C127.73 101.32 126.75 101.91 126.15 102.38C125.33 103 122.88 106.99 123.4 103.89C123.65 102.4 122.57 102.43 121.96 101.51C121.56 100.92 121.7 99.11 122.46 98.95C124.52 98.52 126.5 99.79 128.17 97.96C129.45 96.55 129.66 93.64 128.34 92.2C126.6 90.32 123.99 89.53 121.9 88.17C121.42 87.86 120.88 87.51 120.49 87.09C119.9 86.48 120.36 86.42 120.09 85.89C119.78 85.31 119.16 85.07 118.86 85.82C118.68 86.22 117.17 89.18 115.95 89.83H115.94C115.73 89.97 115.57 89.98 115.42 89.96C115.42 89.96 115.41 89.96 115.4 89.96C115.07 89.89 114.9 89.59 114.9 89.59L114.81 89.45C116.22 88.58 117.29 88.12 117.32 86.21C117.34 85.32 117.02 82.69 118.69 82.77C118.77 82.77 120.21 83.3 119.66 82.5C119.24 81.88 118.87 81.73 118.62 80.94C118.19 79.61 118.65 77.56 118.77 76.21C119.06 72.64 116.36 70.77 113.4 69.28C112.02 68.59 110.53 67.99 111.72 66.29C112.4 65.34 113.4 64.43 114.21 63.58C114.39 63.68 114.26 64.96 114.3 65.2C114.43 65.94 114.88 66.63 115.34 67.21C115.82 67.81 118.54 69.45 119.21 68.35C119.95 67.14 116.89 66.32 118.63 64.68C119.61 63.76 120.1 62.66 120.63 61.46C121.73 62.98 122.45 65.05 123.33 66.74C123.77 67.62 124.27 68.57 124.82 69.54C124.89 69.67 124.97 69.8 125.05 69.93C125.18 70.14 125.3 70.35 125.43 70.56C125.69 70.98 125.96 71.39 126.24 71.79C126.25 71.81 126.27 71.83 126.28 71.85C126.28 71.85 126.3 71.87 126.3 71.88C126.42 72.05 126.54 72.24 126.67 72.4C128.72 75.03 134.02 75.68 135.46 71.93C136.29 69.75 134.89 67.45 133.75 65.65C133.3 64.94 131.44 62.72 130.95 62.1C128.67 59.22 126.39 55.43 127.41 51.57C128.34 48.05 131.32 45.73 133.85 43.28C136.2 40.99 139.9 37.05 137.85 33.48C136.86 31.76 135 31.16 133.17 32.05C131.12 33.05 131.36 34.94 131.8 36.83C132.49 39.85 133.06 42.5 130.23 44.59C129.48 45.15 128.05 45.84 127.41 44.81C130.01 43.86 128.32 40.64 127.91 38.95C127.63 37.79 127.09 36.93 127.08 35.71C127.07 34.59 127.83 33.26 128.47 32.39C129.89 30.48 131.61 29.89 133.9 29.53C136.74 29.08 140.42 31.98 140.43 34.9C140.43 36.64 139.56 38.36 138.62 39.78C137.21 41.91 135.33 43.46 133.57 45.27C132.18 46.71 130.61 48.1 129.88 50.04C129.42 51.3 129.28 53.55 129.47 54C130.45 56.36 130.56 52.47 130.69 51.99C130.94 50.98 131.28 49.93 132.02 49.17C133.24 47.9 134.95 47.63 136.54 47.04C137.97 46.51 139.7 46.16 140.66 44.87C141.23 44.11 141.38 43.24 141.32 42.33C141.3 42.09 140.97 39.97 141.01 39.97C142.6 40.15 143.54 42.34 143.43 43.73C143.27 45.82 141.91 46.82 140.33 47.96C137.57 49.95 131.62 51.4 132.2 55.96L132.14 55.9Z" fill="#FFFFFF"/>
<path d="M110.88 33.51C110.96 34.3 112.45 34.77 112.8 34.45C113.36 33.94 110.83 33.05 110.88 33.51Z" fill="#FFFFFF"/>
</g>
<defs>
<clipPath id="clip0_7_45">
<rect width="193.18" height="262.09" fill="white"/>
</clipPath>
</defs>
</svg>
