<?xml version="1.0" encoding="UTF-8"?>
<svg id="Ebene_2" data-name="Ebene 2" xmlns="http://www.w3.org/2000/svg" viewBox="0 0 120.41 134.29" fill="#FFFFFF">
  <g id="Ebene_2-2" data-name="Ebene 2">
    <g>
      <path d="M114.21,19c4.25,10.92-2.46,9.23-7.35,14.74-6.51,7.34-10,19.36-19.33,25.38,7.41,3.91,12.56,8.24,15.41,16.38.82,2.34.34,5.22,1.36,7.61.89,2.09,3.81,2.79,3.99,5.88-3.69,2.48-8.2,1.4-12.18.51l-2.11-12.01-12.39-5.57c4.02-10.68,7.62-20.03,4.03-31.54.5-1.8,5.65-2.67,7.27-5.69,2.27-4.22.47-9.29,4.59-13.3,5.89-5.74,9.61-3.55,16.7-2.4Z"/>
      <path d="M31.89,76.51l11.94-38.76,28.78,32.3c-11.27,10.84-26.59,8.83-40.71,6.46Z"/>
      <path d="M82.55,30.79c-7.79-3.32-10.48-12.2-16.86-17.41C48.75-.46,24.32,5.75,14.61,24.93c-3.9,7.71-3.05,19.4-7.32,25.44-.6.84.17,1.87-2.21,1.29.51-4.72-1.4-8.13-.89-13.3,1.05-10.65,7.9-23.77,16.31-30.4,22.32-17.59,56.6-4.28,62.06,22.83Z"/>
      <path d="M81.56,36.76h-16.89c3.4,7.33,19.8-4.28,18.82,6.9l-25.26,2.02c-1.88-.37-9.45-7.94-10.95-9.91-.77-1-1.92-1.25-1.48-2.99h19.87c-2.16-5-5.74-1.95-9.39-1.94s-7-.7-10.47-.06l5.99-7.5c5.47,1.1,6.18,2.83,10.38-2.2,1.09-.08,15.81,11.2,17.73,12.85,1.04.89,2.07.96,1.65,2.82Z"/>
      <path d="M54.73,125.22c-2.51-2.62-2.58,7.8-4.47,7.95-4.53,1.02-8.18-20.1-7.43-23.85,5.37-.77,4.8,6.89,5.65,10.78.32,1.46-.4,3.62,1.78,3.14.96-.33,1.59-10.87,4.97-10.95,1.54-.04,1.61,10.34,4.47,10.94l3-14.9c1.11-.19,1.86,0,2.48.98,2.37,3.73-3.11,19-3.96,23.87l-2.9.92-3.58-8.88Z"/>
      <path d="M27.85,74.44c-2.29,1.98-11.41-3.65-11.89-6.4l4.03-31.28c1.49.2,2.27,3.48,2.69,4.75,1.62,4.9,6.8,20.74,7.01,24.83.15,2.87-1.75,5.28-1.84,8.1Z"/>
      <path d="M83.55,47.69c1.63,8.41-2.95,12.71-7.45,18.87l-15.39-16.4c-.41-2.24.97-1.38,2.46-1.48,6.77-.45,13.6-.95,20.39-.99Z"/>
      <path d="M13.02,104.34l-5.46-3.01c-1.74-.51-2.09,1.63-2.25,2.78-1.21,8.86,9.43,12.12,9.76,19.63.57,12.73-16.64,14.02-14.96.49l7.32,5.9c9.09-7.83-4.3-13.62-5.89-18.77-3.87-12.54,9.54-20.64,11.47-7.02Z"/>
      <path d="M44.81,84.48c-5.39,4.06-1.87,10.42-9.56,10.88-8.92.54-20.25-6.96-9.68-14.63l19.24,3.75Z"/>
      <path d="M92.49,122.24h-8.94s1.96,7.47,1.96,7.47l5.48-1.52c2.33,4.47-5.96,6.44-9.03,4.07-1.58-1.22-3.45-8.33-3.46-10.52-.1-16.27,17.01-17.24,13.99.5Z"/>
      <path d="M30.19,110.6c4.1-3.41,9.47-.83,10.41,4.42.98,5.45,1.92,16.69-5.46,17.99-10.35,1.83-10.13-18.1-4.94-22.41ZM34.86,131.18c2.52-5.95,3.61-14.38-.48-19.85-3.64-.03-2.55,13.17-2,15.9.14.71,1.31,4.09,2.48,3.95Z"/>
      <path d="M75.61,100.37l-2.08,10.35,4.04,2.08c-8.35,3.69,3.66,18.35-5.93,21.36-1.1-.79-1.49-15.43-2.03-18.34-.32-1.7-1.94-2.61-1.99-4.01-.02-.6,1.83-.35,2.03-1.15.49-2.01-.24-4.56.47-7.33,2.02-7.96,14.14-8.15,12.44-1.47-.95,3.71-4.59-3.1-6.93-1.48Z"/>
      <path d="M115.32,98.39l.99,10.93h3.98c.89,3.06-3.71,2.41-4.03,3.6-.84,3.15-1.92,21.04,4.03,17.27l-.02,2.94-6.66-.22c-4.01-6.41-1.65-14.42-2.26-21.6h-4.96s5.07-2.58,5.07-2.58l1.05-8.68,2.8-1.65Z"/>
      <path d="M22.97,130.19l2.96-.99c.93,5.54-6.88,5.49-7.9.46-2.02-9.96-.39-21.28.97-31.27l3.02.44c2.3,1.7-.03,8.93-.1,11.94-.17,6.56.17,12.96,1.05,19.43Z"/>
      <path d="M105.14,131.92c-6.86,7.3-15.55-4.53-10.15-5.71,2.28-.5,3.33,6.33,6.49,3.38,3.7-6.76-6.01-7.8-6.83-13.04-1.1-7.03,9.05-10.67,11.72-3.76-2.3,3.17-3.56.21-5.44-1.48-8.41,6.91,12.3,11.98,4.21,20.6Z"/>
      <path d="M32.88,60.61c-2.74.41-1.51-.33-1.97-1.48-3.16-7.85-4.76-16.5-7.93-24.36l13.74,13.56-3.83,12.28Z"/>
      <path d="M41.82,33.78c-.28,1.89-3.07,10.9-4.47,10.91l-12.42-12.89,16.88,1.98Z"/>
      <path d="M6.08,87.45c1.95-4.28,2.83-9.44,4.74-13.67,1.51-3.36,6.28,3.14,7.1,5.08-2.93,4.18-7.27,6.61-11.84,8.58Z"/>
      <path d="M13.01,65.58c-2.39-1.65-2.46-6.69-2.96-9.35l7.93-19.47-4.97,28.82Z"/>
    </g>
  </g>
</svg>
