<svg width="1440" height="800" viewBox="0 0 1440 800" fill="none" xmlns="http://www.w3.org/2000/svg">
<g clip-path="url(#clip0_24_8035)">
<path d="M1102.8 412.9C1198.2 412.9 1276.5 490.3 1276.5 586.6V934H1160.4V586.6C1160.4 554.2 1134.3 528.1 1102.8 528.1C1070.4 528.1 1044.3 554.2 1044.3 586.6V934H929.1V586.6C929.1 554.2 903 528.1 871.5 528.1C839.1 528.1 813 554.2 813 586.6V678.4H739.2V934H624V416.5H739.2V552.4H787.8V432.7C812.1 418.3 840.9 411.1 871.5 411.1C915.6 411.1 957 428.2 987.6 457C1018.2 429.1 1058.7 412.9 1102.8 412.9Z" fill="#FFEFE9"/>
<path d="M1529.8 319C1574.8 362.2 1596.4 418 1596.4 487.3V778H1481.2V663.7H1432.6V778H1353.4C1268.8 778 1194.1 718.6 1178.8 635.8C1159.9 526 1244.5 432.4 1349.8 432.4H1432.6V546.7H1481.2V461.2C1481.2 455.8 1480.3 450.4 1479.4 445C1466.8 391 1419.1 355 1357 355C1316.5 355 1274.2 369.4 1244.5 393.7V274.9C1275.1 265 1318.3 255.1 1362.4 255.1C1365.1 255.1 1367.8 255.1 1370.5 255.1C1434.4 256.9 1487.5 278.5 1529.8 319ZM1427.2 644.8V565.6C1427.2 554.8 1418.2 546.7 1408.3 546.7H1353.4C1322.8 546.7 1295.8 569.2 1292.2 599.8C1289.5 634 1316.5 663.7 1349.8 663.7H1408.3C1418.2 663.7 1427.2 655.6 1427.2 644.8Z" fill="#FFEFE9"/>
</g>
<defs>
<clipPath id="clip0_24_8035">
<rect width="1440" height="800" fill="white"/>
</clipPath>
</defs>
</svg>
