<svg width="1440" height="800" viewBox="0 0 1440 800" fill="none" xmlns="http://www.w3.org/2000/svg">
<g clip-path="url(#clip0_42_1041)">
<mask id="mask0_42_1041" style="mask-type:luminance" maskUnits="userSpaceOnUse" x="0" y="0" width="1440" height="800">
<path d="M1440 0H0V800H1440V0Z" fill="white"/>
</mask>
<g mask="url(#mask0_42_1041)">
<path d="M923.529 707.28L951.981 808.393C935.384 813.923 913.255 817.082 880.852 817.082C810.514 817.082 759.144 795.754 727.531 753.097C705.402 723.869 694.338 685.161 694.338 625.915V512.162C694.338 484.514 671.419 461.606 642.968 461.606H624V360.492H694.338V242H796.289V360.492H923.529V461.606H796.289V635.394C796.289 660.673 801.031 678.841 811.305 690.691C823.95 704.91 843.708 712.019 871.369 712.019C890.336 712.019 910.094 710.439 923.529 707.28ZM784.434 461.606V360.492H743.338V461.606H784.434Z" fill="#FF5301"/>
<path d="M1120.49 639.169C1156.85 639.169 1195.57 625.739 1221.65 603.621L1258.01 695.255C1258.01 695.255 1187.67 726.853 1115.75 726.853C1112.59 726.853 1110.22 726.853 1107.85 726.853C1052.53 725.273 1005.11 706.314 967.963 670.766C929.237 633.639 910.27 583.872 910.27 523.046V268.683H1011.43V369.796H1054.11V268.683H1122.86C1197.15 268.683 1263.54 320.029 1276.19 392.705C1293.57 489.078 1219.28 574.393 1126.03 574.393L1054.11 572.813V471.699H1011.43V542.005C1011.43 603.621 1063.59 639.169 1120.49 639.169ZM1058.85 386.385V455.111C1058.85 464.59 1065.96 471.699 1075.45 471.699H1126.03C1156.06 471.699 1179.77 446.421 1176.61 415.613C1174.23 388.755 1149.74 369.796 1122.86 369.796H1075.45C1065.96 369.796 1058.85 376.906 1058.85 386.385Z" fill="#FF5301"/>
<path d="M1547 582.468H1445.84V542.97C1445.84 515.322 1423.71 492.414 1395.26 492.414H1342.31C1321.76 492.414 1305.16 509.003 1305.16 529.541V718.339C1305.16 738.088 1321.76 754.677 1342.31 754.677H1395.26C1423.71 754.677 1445.84 732.558 1445.84 704.12V667.782H1547V704.12C1547 787.064 1479.03 855 1395.26 855H1320.97V754.677H1278.29V824.192C1262.49 816.293 1248.26 806.023 1234.83 793.384C1196.1 755.466 1177.13 709.649 1177.13 648.823V585.628C1177.13 524.012 1196.1 475.035 1234.83 437.907C1248.26 425.268 1262.49 414.209 1278.29 406.309V492.414H1320.97V391.3H1396.05C1479.82 391.3 1547 459.236 1547 542.18V582.468Z" fill="#FF5301"/>
</g>
</g>
<defs>
<clipPath id="clip0_42_1041">
<rect width="1440" height="800" fill="white"/>
</clipPath>
</defs>
</svg>
