<svg width="1440" height="800" viewBox="0 0 1440 800" fill="none" xmlns="http://www.w3.org/2000/svg">
<g clip-path="url(#clip0_24_8035)">
<path d="M1391.2 429.1C1484.8 429.1 1561.3 505.6 1561.3 599.2V787.3C1561.3 880.9 1484.8 957.4 1391.2 957.4H1292.2V843.1H1243.6V948.4C1177 924.1 1129.3 861.1 1129.3 786.4V601.9C1129.3 527.2 1177 463.3 1243.6 439C1243.6 439 1243.6 495.7 1243.6 544.3H1292.2V429.1H1391.2ZM1446.1 788.2V601C1446.1 569.5 1420.9 544.3 1389.4 544.3H1327.3C1298.5 544.3 1274.2 567.7 1274.2 596.5V803.5C1274.2 825.1 1292.2 843.1 1314.7 843.1H1391.2C1421.8 843.1 1446.1 818.8 1446.1 788.2Z" fill="#1C4094"/>
<path d="M871.3 483.4C966.7 483.4 1045 560.8 1045 657.1V826.3C1045 921.7 966.7 1000 871.3 1000H803.8V885.7H755.2V1165.6H640V483.4H755.2V598.6H803.8V483.4H871.3ZM930.7 829V655.3C930.7 623.8 905.5 598.6 874 598.6H847.9C827.2 598.6 810.1 615.7 810.1 636.4V847.9C810.1 868.6 827.2 885.7 847.9 885.7H874C905.5 885.7 930.7 860.5 930.7 829Z" fill="#1C4094"/>
<path d="M1173.9 264.2H1242.3V380.3H1176.6C1144.2 380.3 1117.2 390.2 1093.8 410C1071.3 428.9 1057.8 455 1055.1 486.5V780.8H939V437.9C939 405.5 913.8 380.3 881.4 380.3V379.4H858.9V264.2H983.1V379.4H1030.8V307.4C1070.4 278.6 1118.1 264.2 1173.9 264.2Z" fill="#1C4094"/>
</g>
<defs>
<clipPath id="clip0_24_8035">
<rect width="1440" height="800" fill="white"/>
</clipPath>
</defs>
</svg>
