<svg width="1440" height="567" viewBox="0 0 1440 567" fill="none" xmlns="http://www.w3.org/2000/svg">
<g clip-path="url(#clip0_26_1504)">
<path d="M851.201 703H755V134.021H851.201V703Z" fill="#292929"/>
<path d="M1176.55 235.94C1214.12 271.971 1232.16 318.51 1232.16 376.308V618.762H1135.96V523.432H1095.38V618.762H1029.24C958.591 618.762 896.211 569.221 883.435 500.163C867.652 408.586 938.299 330.52 1026.23 330.52H1095.38V425.85H1135.96V354.54C1135.96 350.036 1135.21 345.532 1134.46 341.029C1123.94 295.991 1084.1 265.965 1032.25 265.965C998.425 265.965 963.101 277.976 938.299 298.243V199.159C963.852 190.902 999.928 182.645 1036.75 182.645C1039.01 182.645 1041.26 182.645 1043.52 182.645C1096.88 184.147 1141.22 202.162 1176.55 235.94ZM1090.87 507.669V441.613C1090.87 432.606 1083.35 425.85 1075.08 425.85H1029.24C1003.69 425.85 981.138 444.616 978.132 470.137C975.877 498.661 998.425 523.432 1026.23 523.432H1075.08C1083.35 523.432 1090.87 516.676 1090.87 507.669Z" fill="#292929"/>
<path d="M1328.95 247.116C1408.61 247.116 1474 311.671 1474 391.238V533.107C1474 612.674 1408.61 677.979 1328.95 677.979H1272.58V581.147H1232V677.979H1135.79V109H1232V341.696H1272.58V247.116H1328.95ZM1378.55 533.858V389.736C1378.55 363.464 1357.51 341.696 1331.2 341.696H1309.41C1292.12 341.696 1277.84 355.958 1277.84 373.973V549.621C1277.84 567.636 1292.12 581.147 1309.41 581.147H1331.2C1357.51 581.147 1378.55 560.13 1378.55 533.858Z" fill="#292929"/>
</g>
<defs>
<clipPath id="clip0_26_1504">
<rect width="1440" height="567" fill="white"/>
</clipPath>
</defs>
</svg>
