<svg width="1440" height="738" viewBox="0 0 1440 738" fill="none" xmlns="http://www.w3.org/2000/svg">
<g clip-path="url(#clip0_24_4983)">
<path d="M1130.8 412.9C1226.2 412.9 1304.5 490.3 1304.5 586.6V934H1188.4V586.6C1188.4 554.2 1162.3 528.1 1130.8 528.1C1098.4 528.1 1072.3 554.2 1072.3 586.6V934H957.1V586.6C957.1 554.2 931 528.1 899.5 528.1C867.1 528.1 841 554.2 841 586.6V678.4H767.2V934H652V416.5H767.2V552.4H815.8V432.7C840.1 418.3 868.9 411.1 899.5 411.1C943.6 411.1 985 428.2 1015.6 457C1046.2 429.1 1086.7 412.9 1130.8 412.9Z" fill="#DAFF96"/>
<path d="M1557.8 319C1602.8 362.2 1624.4 418 1624.4 487.3V778H1509.2V663.7H1460.6V778H1381.4C1296.8 778 1222.1 718.6 1206.8 635.8C1187.9 526 1272.5 432.4 1377.8 432.4H1460.6V546.7H1509.2V461.2C1509.2 455.8 1508.3 450.4 1507.4 445C1494.8 391 1447.1 355 1385 355C1344.5 355 1302.2 369.4 1272.5 393.7V274.9C1303.1 265 1346.3 255.1 1390.4 255.1C1393.1 255.1 1395.8 255.1 1398.5 255.1C1462.4 256.9 1515.5 278.5 1557.8 319ZM1455.2 644.8V565.6C1455.2 554.8 1446.2 546.7 1436.3 546.7H1381.4C1350.8 546.7 1323.8 569.2 1320.2 599.8C1317.5 634 1344.5 663.7 1377.8 663.7H1436.3C1446.2 663.7 1455.2 655.6 1455.2 644.8Z" fill="#DAFF96"/>
</g>
<defs>
<clipPath id="clip0_24_4983">
<rect width="1440" height="738" fill="white"/>
</clipPath>
</defs>
</svg>
