<svg width="1440" height="365" viewBox="0 0 1440 365" fill="none" xmlns="http://www.w3.org/2000/svg">
<g clip-path="url(#clip0_36_6100)">
<path d="M991.652 526H919V95.9132H991.652V526Z" fill="#292929"/>
<path d="M1237.36 172.953C1265.74 200.188 1279.36 235.367 1279.36 279.056V462.325H1206.71V390.266H1176.06V462.325H1126.11C1072.76 462.325 1025.64 424.877 1016 372.677C1004.08 303.454 1057.43 244.445 1123.84 244.445H1176.06V316.505H1206.71V262.602C1206.71 259.197 1206.14 255.793 1205.57 252.389C1197.63 218.345 1167.54 195.649 1128.38 195.649C1102.84 195.649 1076.16 204.727 1057.43 220.047V145.151C1076.73 138.909 1103.97 132.668 1131.79 132.668C1133.49 132.668 1135.19 132.668 1136.89 132.668C1177.19 133.803 1210.68 147.42 1237.36 172.953ZM1172.65 378.351V328.42C1172.65 321.611 1166.98 316.505 1160.73 316.505H1126.11C1106.81 316.505 1089.78 330.689 1087.51 349.981C1085.81 371.542 1102.84 390.266 1123.84 390.266H1160.73C1166.98 390.266 1172.65 385.16 1172.65 378.351Z" fill="#292929"/>
<path d="M1352.45 181.401C1412.62 181.401 1462 230.197 1462 290.341V397.579C1462 457.723 1412.62 507.087 1352.45 507.087H1309.88V433.893H1279.23V507.087H1206.58V77H1279.23V252.893H1309.88V181.401H1352.45ZM1389.92 398.147V289.206C1389.92 269.348 1374.02 252.893 1354.16 252.893H1337.7C1324.64 252.893 1313.86 263.674 1313.86 277.291V410.062C1313.86 423.679 1324.64 433.893 1337.7 433.893H1354.16C1374.02 433.893 1389.92 418.005 1389.92 398.147Z" fill="#292929"/>
</g>
<defs>
<clipPath id="clip0_36_6100">
<rect width="1440" height="365" fill="white"/>
</clipPath>
</defs>
</svg>
