<svg width="1440" height="762" viewBox="0 0 1440 762" fill="none" xmlns="http://www.w3.org/2000/svg">
<g clip-path="url(#clip0_24_1564)">
<path d="M1375.2 421.1C1468.8 421.1 1545.3 497.6 1545.3 591.2V779.3C1545.3 872.9 1468.8 949.4 1375.2 949.4H1276.2V835.1H1227.6V940.4C1161 916.1 1113.3 853.1 1113.3 778.4V593.9C1113.3 519.2 1161 455.3 1227.6 431C1227.6 431 1227.6 487.7 1227.6 536.3H1276.2V421.1H1375.2ZM1430.1 780.2V593C1430.1 561.5 1404.9 536.3 1373.4 536.3H1311.3C1282.5 536.3 1258.2 559.7 1258.2 588.5V795.5C1258.2 817.1 1276.2 835.1 1298.7 835.1H1375.2C1405.8 835.1 1430.1 810.8 1430.1 780.2Z" fill="#99C8FF"/>
<path d="M855.3 475.4C950.7 475.4 1029 552.8 1029 649.1V818.3C1029 913.7 950.7 992 855.3 992H787.8V877.7H739.2V1157.6H624V475.4H739.2V590.6H787.8V475.4H855.3ZM914.7 821V647.3C914.7 615.8 889.5 590.6 858 590.6H831.9C811.2 590.6 794.1 607.7 794.1 628.4V839.9C794.1 860.6 811.2 877.7 831.9 877.7H858C889.5 877.7 914.7 852.5 914.7 821Z" fill="#99C8FF"/>
<path d="M1157.9 256.2H1226.3V372.3H1160.6C1128.2 372.3 1101.2 382.2 1077.8 402C1055.3 420.9 1041.8 447 1039.1 478.5V772.8H923V429.9C923 397.5 897.8 372.3 865.4 372.3V371.4H842.9V256.2H967.1V371.4H1014.8V299.4C1054.4 270.6 1102.1 256.2 1157.9 256.2Z" fill="#99C8FF"/>
</g>
<defs>
<clipPath id="clip0_24_1564">
<rect width="1440" height="762" fill="white"/>
</clipPath>
</defs>
</svg>
