<svg width="304" height="304" viewBox="0 0 304 304" fill="none" xmlns="http://www.w3.org/2000/svg">
<g clip-path="url(#clip0_28_966)">
<path d="M233.4 226.6C233.4 240.4 222 251.8 208.2 251.8H91.8V202.6H143.4C157.8 202.6 168.6 191.2 168.6 176.8V175H233.4V226.6ZM174.6 565.6C202.2 565.6 231.6 556 251.4 538.6L279 608.2C279 608.2 225.6 632.2 171 632.2C168.6 632.2 166.8 632.2 165 632.2C123 631 87 617.2 58.8 589.6C29.4 561.4 15 523.6 15 477.4V284.2H91.8V361H124.2V284.2H176.4C232.8 284.2 283.2 323.2 292.8 378.4C306 451.6 249.6 516.4 178.8 516.4L124.2 515.8V438.4H91.8V492.4C91.8 538.6 131.4 565.6 174.6 565.6ZM127.8 373.6V425.8C127.8 433 133.2 438.4 140.4 438.4H178.8C201.6 438.4 219.6 419.2 217.2 396.4C215.4 376 196.8 361 176.4 361H140.4C133.2 361 127.8 366.4 127.8 373.6Z" fill="#81D996"/>
<path d="M456.4 -42.8H379.6V-72.8C379.6 -93.8 362.8 -111.2 341.2 -111.2H301C285.4 -111.2 272.8 -98.6 272.8 -83V60.4C272.8 75.4 285.4 88 301 88H341.2C362.8 88 379.6 71.2 379.6 49.6V22H456.4V49.6C456.4 112.6 404.8 164.2 341.2 164.2H284.8V88H252.4V140.8C240.4 134.8 229.6 127 219.4 117.4C190 88.6 175.6 53.8 175.6 7.60001V-40.4C175.6 -87.2 190 -124.4 219.4 -152.6C229.6 -162.2 240.4 -170.6 252.4 -176.6V-111.2H284.8V-188H341.8C405.4 -188 456.4 -136.4 456.4 -73.4V-42.8Z" fill="#81D996"/>
</g>
<defs>
<clipPath id="clip0_28_966">
<rect width="304" height="304" fill="white"/>
</clipPath>
</defs>
</svg>
