<svg width="1440" height="664" viewBox="0 0 1440 664" fill="none" xmlns="http://www.w3.org/2000/svg">
<g clip-path="url(#clip0_25_3923)">
<path d="M1089 333H1165V462H1092C1056 462 1026 473 1000 495C975 516 960 545 957 580V907H828V526C828 490 800 462 764 462V461H739V333H877V461H930V381C974 349 1027 333 1089 333Z" fill="black"/>
<path d="M1433 67C1433 90 1414 109 1391 109H1197V27H1283C1307 27 1325 7.99997 1325 -16V-19H1433V67ZM1335 632C1381 632 1430 616 1463 587L1509 703C1509 703 1420 743 1329 743C1325 743 1322 743 1319 743C1249 741 1189 718 1142 672C1093 625 1069 562 1069 485V163H1197V291H1251V163H1338C1432 163 1516 228 1532 320C1554 442 1460 550 1342 550L1251 549V420H1197V510C1197 587 1263 632 1335 632ZM1257 312V399C1257 411 1266 420 1278 420H1306H1342C1380 420 1410 388 1406 350C1403 316 1372 291 1338 291H1278C1266 291 1257 300 1257 312Z" fill="black"/>
</g>
<defs>
<clipPath id="clip0_25_3923">
<rect width="1440" height="664" fill="white"/>
</clipPath>
</defs>
</svg>
