<svg width="1440" height="574" viewBox="0 0 1440 574" fill="none" xmlns="http://www.w3.org/2000/svg">
<g clip-path="url(#clip0_24_6803)">
<path d="M1205.8 437.4C1268.2 437.4 1319.2 488.4 1319.2 550.8V676.2C1319.2 738.6 1268.2 789.6 1205.8 789.6H1139.8V713.4H1107.4V783.6C1063 767.4 1031.2 725.4 1031.2 675.6V552.6C1031.2 502.8 1063 460.2 1107.4 444C1107.4 444 1107.4 481.8 1107.4 514.2H1139.8V437.4H1205.8ZM1242.4 676.8V552C1242.4 531 1225.6 514.2 1204.6 514.2H1163.2C1144 514.2 1127.8 529.8 1127.8 549V687C1127.8 701.4 1139.8 713.4 1154.8 713.4H1205.8C1226.2 713.4 1242.4 697.2 1242.4 676.8Z" fill="#85E0F4"/>
<path d="M953.2 521.6C1016.8 521.6 1069 573.2 1069 636.8V750.2C1069 813.8 1016.8 866 953.2 866H908.2V788.6H875.8V866H799V411.2H875.8V597.2H908.2V521.6H953.2ZM992.8 750.8V635.6C992.8 614.6 976 597.2 955 597.2H937.6C923.8 597.2 912.4 608.6 912.4 623V763.4C912.4 777.8 923.8 788.6 937.6 788.6H955C976 788.6 992.8 771.8 992.8 750.8Z" fill="#85E0F4"/>
<path d="M1424 831H1347.2V502.2H1424V831ZM1478 402C1478.6 402 1478.6 402.6 1478.6 402.6L1478 454.2C1478 454.2 1478 454.2 1477.4 454.2H1401.2H1400.6V422.4H1369.4V454.2C1369.4 454.2 1369.4 454.2 1368.8 454.2H1292.6L1293.2 402.6L1369.4 377.4H1401.2L1478 402Z" fill="#85E0F4"/>
</g>
<defs>
<clipPath id="clip0_24_6803">
<rect width="1440" height="574" fill="white"/>
</clipPath>
</defs>
</svg>
