<svg width="30" height="31" viewBox="0 0 30 31" fill="none" xmlns="http://www.w3.org/2000/svg">
<rect x="1" y="1" width="28" height="28.2" rx="14" fill="#EEFF00"/>
<rect x="1" y="1" width="28" height="28.2" rx="14" stroke="#2F2F2F" stroke-width="2"/>
<path d="M19.728 14.11L21.078 15.982C20.13 16.558 19.29 17.122 18.558 17.674C17.826 18.226 17.172 18.796 16.596 19.384C16.02 19.984 15.486 20.62 14.994 21.292L14.886 21.292C14.406 20.62 13.872 19.984 13.284 19.384C12.708 18.796 12.054 18.226 11.322 17.674C10.602 17.122 9.768 16.558 8.82 15.982L10.152 14.11C10.932 14.614 11.61 15.136 12.186 15.676C12.774 16.216 13.278 16.756 13.698 17.296C14.118 17.836 14.454 18.364 14.706 18.88C14.958 19.396 15.138 19.882 15.246 20.338L14.634 20.338C14.742 19.882 14.922 19.396 15.174 18.88C15.438 18.364 15.78 17.836 16.2 17.296C16.62 16.756 17.118 16.216 17.694 15.676C18.282 15.136 18.96 14.614 19.728 14.11ZM16.182 9.304L16.182 14.326C16.182 15.226 16.14 16.06 16.056 16.828C15.972 17.596 15.864 18.298 15.732 18.934L14.94 20.284L14.166 18.934C14.034 18.298 13.926 17.596 13.842 16.828C13.758 16.06 13.716 15.226 13.716 14.326L13.716 9.304L16.182 9.304Z" fill="#2F2F2F"/>
</svg>
