<?xml version="1.0" encoding="UTF-8"?>
<svg id="Calque_1" xmlns="http://www.w3.org/2000/svg" version="1.1" viewBox="0 0 1269 491">
  <!-- Generator: Adobe Illustrator 29.5.1, SVG Export Plug-In . SVG Version: 2.1.0 Build 141)  -->
  <defs>
    <style>
      .st0 {
        fill: #fff;
      }
    </style>
  </defs>
  <path d="M336.3,281.3l6.8,12.5c1,5.1,3,10.5,5.5,15s7.6,9.4,7.5,12.6-1.4,2.6-1.9,4.1c-4.6,12.5-8.2,25.5-14.7,37l-7.9,2.6c0,.4,0,.8,0,1.2.5,2.1,8.6,11.3,10.5,15,6.5,12.6,11.5,23,20.6,34.2.6.8,2.8,1.4,2.1,3.2-6.1,3.5-11.8,8.4-17.9,11.6s-5.1,2.1-7.7,3.3-5.2,3.7-6.1,3.1c-.2-.5-.3-1.2-.6-1.6-8.5-10.9-14.6-23.5-20.5-36s-1.6-4.9-2.8-7.2c-1.8-3.3-5.1-5.8-7.3-9.2-1.7-2.7-3.2-5.9-4.4-8.9l-30.9,1.9c-.6.7,1.2,14.4-1.5,16.3.2.5,1.2.6,1.4.8.3.5.2,7.8.1,9.2-.2,7.5-1.7,16.1-1,23.5s1.5,4.7,1.5,7.2c-3.6-.2-7.2-.9-10.7-.5-6.2.6-6.2,2.4-13.6,1.6s-10,2-10.7-2.4,0-10.6,0-15.4-.5-4.7-.5-6.5,1.7-4.7,1.8-6.7c.7-10.9-2.3-22.2-1.9-33.9s1-3.4,1-5c0-4.2-1-9.8-1.2-14.6s-.9-7.5-.3-9.4,1-.1,1.4-.4c1.5-1.3,1.6-2.9-.8-2.9v-.7c1.7-6.4.5-12.8,1.5-19.4s.8-1.3.8-1.6c0-.8-1.6-1-1.8-1.3-.5-.8,0-7,0-8.7-.2-3.4-1.1-7.6-1.1-11s1.5-5.5,1.6-8,.2-5.9.2-8.8-.8-3.6-1.3-5c6.8-.8,13.3-2.1,20.1-.9s3.7,1.3,5.4,1.6c9.8,2,20.1,0,29.8-.8,10.2-.7,20.7,4.9,30.6,6.4,3,.5,6.7.2,9.8.7,2.8.4,6.1,1.9,9.1,2.1ZM294,277.6c-.5-1-4.2-2.2-4.5-.7l1.3,2.2c.9-1.1,1.7-1.7,3.2-1.5ZM329,292.7c-.3,3.3,2.5,3.9,2.5.2l-2.5-.2ZM251.9,301.2l-2.5,1.2,1.3,2.2.7-2,2.5.5c-.2-.9-1.1-.8-1.8-1.2s-.2-.7-.3-.7ZM258.6,303.5c-.4-.9,0-2.5-1.7-2.3l.2,4.5c1.5,1.3,2.6-.1,2.3-1.7s-.7-.3-.8-.5ZM312.3,308.7c-3.9-1.6-8.4-1.7-12.3-3-7.6-2.4-7.4-4.2-16.8-3.1-5.7.6-11.9,3-17.8,2.4-.4,10.7,2.6,21.4.4,31.9h-1.6c0,0-.6-.9-.6-.9-3.3,1.4.8,2.1,1.5,3s.7,2.9.8,4c5.2,0,10.6-1.3,15.7-1.5s10.5.5,16,0,10.1-4.2,15.2-5.6c2.6-4.5,5.3-9,6.6-14.1l-7.1-13.1ZM265,322.6c0-1.6.2-4.4-2-4.5-1.5,2.3-.8,4.1,2,4.5ZM300.9,346.2c-1.8-1-3.2,0-4.8.9s-1-.3-.7,1l1.5-.3.5,1.3h1c0-1.4,1.4-1.4,2.5-1.5v-1.5ZM286.3,353.9c.4-.6,1-1,.2-1.6-3.1-2.3-4,1.4-1.7,3.2.2-.7,1.3-1.3,1.6-1.7ZM322,360.1l4.8-2.5c-1.3-4.7-4.1,0-4.8,2.5ZM253,373.6c.8.7-.3,4.6.7,4.5,2.2-.2,1.8-4.4-.7-4.5ZM315.4,374.2c-2.2-1.7-3,3-1.1,3.3l1.7-.4-.6-2.9ZM252.1,391.8c-1.2,1.4.9,3,1.6,2.9,1.8-.4,1.6-6.5-1.6-2.9Z"/>
  <path d="M506.5,69.6l-2,1.7.8,1.3,2.6-.6v-2.4c0,0,12.3,1,12.3,1,12.7-4.3,23.9,6.2,34.6,8.3s3.6-.2,5.3.6c1.7,3.8,3.8,7.6,5.9,11.2s6,6.4,3.5,10.1c2.9,1.6,2.7,3.9,4.1,6.3s6.1,9.7,5.8,12-1.6,3.9-2,5.5,0,4-.8,5.7-.6.2-1.2,2.8c-1.9,8.5-6.3,13.7-9.6,20.9s-1.1,4.9-2.1,6.4-4.9,2.3-6.9,3.1-.9-.2-.7.8,2.2,2.4,2.9,3.6c3.2,5,5.5,11.7,9.4,16.6,1.5,1.9,3.8,3.4,5.1,5.4,3.6,5.2,4.8,12.8,7.8,18.2s5.2,6.9,7.8,10l-4.3,3.5-1.5-1c-1,.8-.9,2.2-2.1,2.9-2.9,1.7-9.6,3.1-13,4.5s-10.8,6.1-11.6,5.6c-2.9-7.4-7.7-13.9-11.3-21s-6.3-14.5-11-21.5-4.2-4.6-5.7-7.3v-.7s1.4-.8,1.4-.8l-.2-1.7c-.8-1.2-2.5.3-3.3-.2s-2.6-6.1-3.5-7.5c-2.4-3.9-3.2-1.5-6.7-1.2-6.2.5-15.7.2-22,0s-2.4-.6-3.7-.5c-.5,3.3.8,6.5,1,9.7.3,6-1.1,12.7-.5,19s2.5,13.1,2.3,19.6-2.1,7.3-1.8,11.2c-2.7.1-5.5-.2-8.2,0-6.6.5-8.3.4-15-.6s-6.1-1.7-9.8-.5c-.5-.5-.4-10.1-.5-11.7-.3-3.3-1.6-6.6-2-9.5-1.8-15.1-.6-30.4,1-45.5s2.1-11.9,2.5-17.5-1.5-10.1-1.5-15c-.1-9.4.5-16.9-.5-26.5s-1.5-5.3-.8-7.8c.7-.9,4.8-.2,1.5-3l-.2,1.5c-1.8,0-1.8-1.3-.5-2.3l-.5-.5c-2.2.8-1.2-5.8-.9-7.4s1.4-4.3,1.4-6.1-1.5-7.6.4-8.7c2.6-1.3,5.5,0,7.9,0s3.7-.7,6-.5c4.8.3,10.3,2.7,15.4,1.9s4.6-2.1,7.1-2.4c4-.4,8.2,1.6,12.3,1ZM554.5,87.1c0-.1-2.1-.7-2.5-.3l-.5,2.3c1.3.5,4-.5,3-2ZM506,102.1l-.8-2-.2,2-13.5-1.5c.7,2.6-.9,2.4-1,2.5s.7.8.9,1.3c.6,2.4-1.5,8-1.4,11.4,0,5.5,1.5,11.1,2,16.6s-.6,3.8,0,5.7c2.6-.4,4.8.8,7.2,1,6.8.5,18.1-.2,25-1s13.8-3.9,14.5-4.5l5.1-12.7c-1.2-2.1-1.3-4.7-2.1-6.8-1.3-3.2-5.2-6.2-5.4-10.4-4.5-1.7-9.1-1.2-13.6-1.6s-11.1-1.8-16.7,0ZM543.5,107.1c1.2,0,4.6.5,4-1.7s-4.9-.6-4,1.7ZM565.5,112.6c.4.8-1,5,.2,5,3-1.5,3.1-4-.2-5ZM550.5,114.1c-.5-.4-1.8.7-1.9,1.3l1.1,2.7c1.4-.2,1.2-3.6.7-4ZM550,125.1c0-2.4.7-2.1,2.5-3.3-.3-1.7-1.6-3.2-3-1.5l1,1c-2,.8-1.3,2-2,3.7h1.5ZM555,137.6l2-.7c-1.7-1.3,0-2.3,0-2.9-.2-1.2-2.2-1.6-3-.5l1,4.2ZM511.5,145.6h-1.5s-.5,5.5-.5,5.5h2.4c0-1,.8-1.8,1-2.4.4-1.7-1.9-1.2-1.4-3.1ZM475,151.6c0-2.2-.8-4.4-3.5-4-.4,1.2,2.9,4.6,3.5,4ZM558.5,155.6c.9,0,4.9.4,5-.7-1.6-3.5-4.1-2.7-5,.7ZM463.5,153.1h-4s0,2.5,0,2.5c1.7.1,3.2-1.1,4-2.5ZM464,165.1l-2.8,1-.2,3c.7.8,3.5-2.9,3-4ZM538,174.1c.2.5-.9,4.5.2,4.5,1.5-1.3,2.9-4.9-.2-4.5ZM467,186.7c-1.2.8.2,3.9,2,2.7s-.7-3.6-2-2.7ZM489.4,197.1c.5-1.2,1.7-4.2-.7-3.5s-.8,2.6-.8,3.5h1.5ZM554.7,218.1c-1.5.4,0,4.2,2.3,2.8s-.4-3.2-2.3-2.8ZM472,224.6c.9.7,2.3-2.4,3-2.8l-.8-1.2c-2.7,0-3,1.8-2.2,4ZM460.1,227.5c1.6,1.8,6.9-2.7,2.7-2.8s-3.2,0-3.3.2c-1.4.9,0,1.2.4,1.7s0,.7.2.9Z"/>
  <path d="M1006.5,272.1c-.1,4.5-1.7,8.8-2,13.3-.4,5.6.8,7.6,1.4,12.5.3,2.5-.3,5.1.6,7.7l-5-.5.2-1.5c-1.2-.2-.5.9-1,1-6.5.7-13.4,0-19.9,0s-5.5.6-8,.6-5.8-1-8.8-.5c-.3-1.4,3-1.8,1-3.3s-2.8.2-3.5,1l2,1.7c-3.2-.5-6.2,1.7-9.2,2s-7.9-.1-11.5,0-5,1.3-6,0,.3-2.2-1.9-1.5-.1,1-1,1c-2.9,0-7.1-3.9-10.3-1.2l.8,2.2.8-.2c-1.2,5.1-.9,9.8-1,15s-.8,1.5-.8,2,.8,1,.9,2-1.5,3.1-1.4,4,1.7,1.1,2.1,1.7,0,2.1.7,2.8,8.4,1.7,9.8,1.7c12.3.5,25.4-1.8,37.9.8,7.7-1.3,15.5-2.1,23.3-2.3v1.5s-2,0-2,0c-.5,2,1.9.4,2,.5l-.5,31c-.3.3-6.9-1-8.2-1-2,0-4.2,1.3-6.1,1.5s-5-.2-7.5,0-4.3,1.7-7.4.9c-13.3-3.4-23.4,1.2-36.6-.4-1.6-.2-3.1-.9-4.7-1,0,2.1.1,4.2,0,6.3-.3,7-1.1,13.9-1.5,21s-1.3,4.5-.5,7.3c.3.3,6.1-1.4,7.3-1.5,1.8-.1,3.3.6,5,.5,3.6-.1,8.2-1.5,11.5-1.6,10.8,0,17.6,3.3,30,2,8.5-.9,16.3-1.2,25-.5,1,0,3.7.4,4.4.6s1.8,6,1.9,7.2c0,2.5-1.3,5.1-1.3,7.6,0,3.8.4,4.6,0,9s.9,6.5.3,7.2c-4-.7-8.6-.7-12.7-.5-7.3.3-14.9,3-22,2.5-10.6-.7-20.8-2.7-31.4-1.9-10.5.8-18,1.3-28.5.4-5-.4-9.9,1.1-14.8,0l.5-2c-2.3,2.2-4.5,1.4-7.5,1.5l-1-25.3c2-9.3,0-17.9.6-27.4s.1-5.7,0-10.1c-.3-9,1.7-17.2,1.5-26s-2.6-17.2-2-24c.7-7.2.3-12.2,0-19.5-.2-4.5-1-9.5-1-14,0-4,1.2-8.7,1.3-12.8.2-.4,7.3-1,8.5-1,5.6-.2,7.7,0,13.1-.9,7.6-1.1,11,.9,17.4.9s4.7-1.2,7-1.2,4.7,1.1,7,1.2c5.1.4,9.3-1,13.5-1.1s9.7,1.9,14,2.1,9.9-1.4,16-.5c2.1.3,3.9,1.3,6,1.5,4.2.3,9.7-.9,13.8-2ZM943,287.1l-1-2.5c-1.5,3.8.8,4.1,4,4.3l1-2.8c-.9.5-2-.1-2.7,0s0,1.5-1.3,1ZM899.5,285.6l-1,2c-3.5-2.7-2.6,1.8-1.5,4,1.1-.2-.2-1.9.4-2.7s2.6-.4,2-3.3ZM958.5,290.1c.4-1.8-.5-4-2.5-2.8s1,3.4,2.5,2.8ZM899.4,307.7c-.4-.2-.9,0-1.4-.1v2.2c.6,1.3,3.4,1.3,2.5-.4s-1-1.6-1.1-1.6ZM915.5,326.1c.2-3.3-2.8-1.8-4-.2l4,.2ZM910,380.6l-.5-3.5-3.5,2.3c-.5,1.3,3.4.9,4,1.2ZM900,385.6l-2.8-2.5-.2,1.7-1.5.3c.7,1.7,3.2.6,4.5.5ZM897.1,399.5c-.4-.3-.6-1.3-1.1-1.6-1.5-.7-.9,3.3-.4,4.1s4.2,2.1,4.1.1c-.5-2.3-1.6-1.8-2.6-2.6ZM912.5,408.1l3.2,1c2.4-3.1-.9-3.3-3.2-2.5v1.4ZM994.5,423.1c-2.1,0-3.5,1.3-3.5,3.5.3.3,4.4-2.5,3.5-3.5ZM957.4,425.5v-1.9c-1.4,1.1-2.3.8-3.9.5v2.5s3.9-1.1,3.9-1.1Z"/>
  <path d="M528.9,365.1c-.3.2-1.5-.8-1.9.3,1,2.3-.8,3.6-1.4,5.6-3.4,11.2-5.2,22.7-9.9,33.6s-3.6,7.6-3.9,7.9c-.6.6-3.3,1.2-4.4,1.9-5.9,3.4-11.1,7.5-17.6,10.4s-7.2,1.6-10.7,2.8-7.8,4.9-11.1,5.9-12.7,2.2-14.8,2.2c-3.5,0-9.4-3.2-12.8-4.1s-9.4-1-12.8-2.2-10.9-5.8-13.6-7.9c-.6-.5-5.1-4.4-5.3-4.7-.8-1.4.7-2-2.5-2.4l-.4,1-8.8-3.2c-4.3-7.1-7.3-14.8-9.8-22.7s-1.5-7.3-2.8-10.7c-2.7-7.4-6.3-13.6-8.2-21.8s.9-7.2,2.6-12.9-.6-3.8,2.6-4.9l-.8-3.7c2.8-6.8,7-14.4,9.3-21.2s2.8-14.1,5.2-20.8c2.8-1.4,5.7-.8,8.6-1.9s5.6-3.8,8.3-5.2c5.1-2.6,10.6-4.7,15.6-7.4v2.5c1.2-.7.3-2.5,1.1-3,1.7-1.3,6.2-2.1,8.3-3.1,4.9-2.2,10.2-8.2,16.1-7.8s12.6,5.7,17.8,7.7c5.2,2,11.2,2.7,15.9,6.1s1.8,1.9,2.9,2.6c6.3,4.2,15.8,5.3,22.7,8.3.3.3,2.7,7.3,2.8,8.2,1.9,10.9.9,13.3,6,24s2.9,6.6,4.5,10c2.8,6.2,6.4,11.6,7.5,18.5-1.5,1.8-3.4,11.9-4.4,12.6ZM447.5,275.6c.3-1.2-1.8-2.3-2.7-2s-.7,1.8-1.3,2.3-2.4-.5-2,1.2c2.7-.1,4.4-.4,7,.5l-2.5-1.5,1.5-.5ZM469.8,398.5c.3-.1,1.8-2.2,2.9-2.8,3-1.6,10.1-3.2,12.1-6.4s2.6-11.6,4-15.5c2.5-6.8,6-13.3,6.5-20.9-3.7-9-5.2-18.2-7.6-27.4s-1.7-3.5-2.1-5.4c-1.1-4.5,1.1-5-4.2-7.3s-12.2-4.8-18.3-8.2-6.2-6.5-12.3-4-10.8,7.3-16.6,8.3-1.5-.5-1.7-.4.3,1-.3,1.5c-1.2,1.1-8.1,3.4-9.1,4.6-.6,5.3-3.4,9.9-5,14.8s-1.7,10.5-2.8,16.7-2.8,7.6-2.8,8c.2,2.1,2.4,4.5,3.1,6.5s.2,4.3.4,4.4,1.2-.3,1.5.3c1.6,2.9,1.1,9.5,1.7,12.7s3.7,9.7,4.5,10.5c6.8,3.3,14,8.2,20.8,11.2,3.8,1.6,6.7,2.4,10.6,2.5s.8.7,1.1.7,1.1-.9,1.7-1.1c3.8-1.1,9.1-1.9,11.9-3.4ZM507.5,306.6l-3.4,1.6-.6,2.9h2.5c-.5-2,1.7-2.6,1.5-4.5ZM408.4,317.1c.6-1.7.9-3.8-1.2-4.5-2.4.4-3.5,2.2-1.8,4.2l3,.3ZM511,322.6c1.1.1,2.1,0,2.8-1v-1.5s-2.3-.5-2.3-.5l-.5,3ZM404,335.6h-3s.5,1,.5,1h-1.4c0,0,0,2,0,2l4-1v-2ZM524.2,344.4c.5-.8,1-1.6,1.2-2.5l-3.5-1.3c-.3,2.2,0,7.2,2.3,3.8ZM505.5,349.1c.9-.4,2.4-.9,2-2.2-.9-1.4-2.1-1-3.5-.8l1.5,3ZM498,363.1l1.2,1.5c.8-.7,4.1.2,4.2-.8.4-2-2-.4-2.2-.4-.9,0-1.8-1.3-3.3-.3ZM508,363.1c-1.4-1-4.9,3.4-1.4,2.9s2.3-2.2,1.4-2.9ZM512.9,384.6c-2.7,0-5.5,1.9-2.6,4,2.9-.3,3.9-1.1,2.6-4ZM481,399.1c0-3.7-4.8-3-2,.3l2-.3ZM455.5,410.6c.5.3,2.3,0,2.5-.7l-2.3-2.7c-.6.5-.7,3.1-.2,3.5ZM441.5,415.6c-1.6-.4-.7,1-1.1,1.4s-1.1,0-1.4.4-1.1,3.6-1,3.7c1.3.3,1.7-1.6,2.2-2.3s2-.9,1.3-3.2ZM473,416.6c-2.4-.3-2.9,2.6-1.2,4,1.6.4,1.3-3.2,1.2-4Z"/>
  <path d="M214.5,76c.1,0,1.5-.5,2.6-.4,2,.2,4.1,1,6.1,1.4s3.2-.5,4.2.8c2.4,6.2,3.2,12.6,6.5,18.5s2.1,2.6,2.9,4.1c3,5.5,5.7,11.5,7.1,17.6l-31.5,10.5c0-4.2-3.3-7.1-4.9-10.9s-3-13.9-4.9-15.6-13.4-3.2-16.3-3.7-2.9-1.3-4.1-1.3c-2.8,0-10.3,3.3-11.9,2.9s-.6-1.7-2.3-1l.5,2c-1.1,0-1.9.3-2.7,1s-6.5,8.3-6.9,9.6-.2,6.4.8,7.9c4.9,7.6,13.1,6.3,20.5,8.5,2.3.7,4.6,2.3,6.7,2.8,3.1.9,6.1.5,9.3,2.2s1.4,3.2,3.5.9c8.6,2.3,17.9,6.1,25.7,10.3s4.5,3.4,6.8,4.7c4.7,2.7,5.1.8,7.9,6.6s3.2,10.7,6.9,15.1l-1,1.4c2.3,1.6,5.6,8.9,5.4,11.4s-4.8,10.1-5.9,12c-2,3.3-5.3,6.9-7.2,10.3s-3,9.6-5.5,14-4.3,3.4-9.8,4.7-8.3,3.8-12.3,4.2-7.3-.3-10.8.2-9.3,4.5-14.1,4.4c-7.5-.1-12.6-.5-19.4-3.6-5.8-2.6-12.8-6.8-18.7-8.8s-8.9-1.3-9.7-1.8-1-2.1-1-2.5,1.9-.8,1-2.8l-2,.3c-1.2-3.3-4.2-6-5.7-8.8s-1.7-6.1-2.6-8.5c-2.7-6.9-6.4-13.5-8.7-20.5l14-3.8,6.5-4,10.5-3.3c-.1,1.4,1.1,3.6,1,4.8s-.9,1.4-.9,1.5c0,.2,1.5,1,1.9,1.6,5,6.5,5.2,10.6,7.7,17.8s2.3,5.1,6,6.5,4.2.5,5.9,1.1,1.7,1.5,2.3,1.7,1.8-.5,2.8-.4c2.6.3,6,1.4,8.6,1.5s8.5-3.6,11.6-4.4,6.1.4,7.8-.7,6.7-11.4,6.7-12.2-1.4-8.2-1.7-8.7c-.8-1.5-6-5.7-7.5-6.5-2.5-1.2-5.2-.9-7.9-1.6-5.5-1.4-11.5-4.4-16.9-6.1s-7.6-2-11.4-2.9l.5-2c-2.3-.7-1.1,1.3-1.8,1.5-2.5,0-5.9.4-7.8-1.8s-.9-2.9-2-3.5-1.9,0-2.6-.4c-3-1.2-9.9-3.9-12.2-5.3s-2.8-3.2-4.4-4.6-5.2-2.1-6.3-3.7-1.3-4.8-2.5-6.6l1.5-1.5c-2.2-.9-1.4-3.4-2.1-5.9s-3.6-6.1-3.9-9.6c.8-1.6,2.2-2.7,3.2-4.3,3.6-5.7,3.9-13.1,6.7-18.8s2.1-2.5,2.7-3.8c1.1-2.3,3.6-9.2,5.4-10.6s6.7-1.7,8.6-2.4c8.2-2.9,16.2-6.4,24.8-8.2,8.8-1.9,18.5-.3,27.2,2s5.3,2.6,8.4,4.1,3.1.7,4.2,1.3.7,1.2.9,1.3ZM203.6,81.4c-.4-.5-.6-1.5-1.4-1.3l-1.3,2,3.2,1c1.5-1.1.1-1-.6-1.7ZM157,98.1l-2.5-.3-1,3.3,3.5-.5v-2.5ZM221.5,104.1l-3-1v2s-3.5,0-3.5,0v1.5c.7.9,5-.8,5.9-1.3s.9,0,.6-1.1ZM151.9,109.7l-2.7-1.6-1.2,2.5,4,.5v-1.4ZM182.5,130.1c-.5-.5-2.8,1.3-.5,1.7.2,1.2-.9.5-1,1.1-.3,1,.2,2.6,0,3.7,1.1.3,1.2-.4,1.4-1.4.3-1.7,0-3.4.1-5.1ZM154,134.6l-1.9.7c0,2.4,3,4.8,2.9,1.5s-1.5-.9-1-2.2ZM211.9,142.7c-.1-.2-1.6-.7-1.9-.4l-1,2.8,2.5.3c.6-.4.7-2.2.4-2.7ZM140.5,175.1c0,.9.2,5.3,1.7,5l2.2-3.8c-.9-1.2-2.5-1.4-4-1.2ZM238,183.5c.7.5,2.1-.2,1.9-1.1l-2-2.5c-4,0-1.3,1.9,0,3.7Z"/>
  <path d="M414.4,69.2c.8,4.3-1.5,8.5-1.5,12.7s.5,2.6.6,4c.2,6.1.5,11.7,1.5,17.8-7.3-2.2-6,4.7.5,3.5.4.4-2,9.5-2,11.3,0,4.7,1.5,10.7,1.5,15s-.9,13.4-1,19.5.4,8.1-2,12.2l-.7-1c-1.7-.2-2,1.1-1.7,2.5.9.2,1.9,0,1.9,1.2s-1.4,4.9-1.8,6.7,0,3.3-.5,4.9-1.7.4-.6,2.4l-1.4.8.3,1,1.7-.5c-.2,10.8-5.4,20.5-7.6,30.9-5.5,1.5-10.5,4.4-15.8,6.5s-11.7,3.5-17,6-9,6.2-13.8,8.2c-3.8,1.6-5.8-.2-9.3-1.8l5-.8c-2.1-3.9-4-.3-5.3-.1s-1-.4-1.4-.4-.2,1.4-1,1c-8.2-4.1-15.7-9.3-24.4-12.1s-8.3-1.6-11.8-2.7-7.7-3.6-8.1-3.9c-1.1-1-1.9-4.6-2.3-6.2-1.8-6.4-2.6-13.1-3.9-19.6-2.4-10.8-8.7-21.4-7.8-32.6s2.1-11,1.5-17.5-1.4-4.6-1.5-6.5.6-2.9.6-4.5c-.2-5.3-2-11.2-1.6-16.5s1.6-4.5,1.8-6c.5-4.4-1-10.2.8-15l-1-15.3c.9.5,1.9.6,2-.7l-2,.2v-4c5.8.5,13,1,18.8.5s3.6-1.1,6-1.1,3.5.9,4.6.9,3-1.6,4.7-.9c.1,2.4-.2,4.9,0,7.2.9,10.1.6,19.9,1.5,30s-1.5,15.1-1.5,22,.9,5.1.5,7.8c-2-1.1-2.4.6-.9,1.7s1.3,0,1.5.6c1.2,3.9,1.2,12.7,1,16.9s-1.1,3.8-1,5.5,2.1,11.4,2.7,14.4c.9,5.3,3.8,10.8,4.5,16.3,8.4,1.7,14.9,7.4,23.2,9.5,1.7,0,8.1-4.3,10.2-5.1,4-1.6,8.7-1.8,12.2-4.8.7-4.2,2.1-8.2,3.1-12.4s.1-3,.5-4.5c.6-2.9,2.6-5.7,3-9,1-6.7-.5-11.4-.4-17.4s1.5-8,1.6-11.5-.9-5.5-.5-8.5,1.7-2.2.5-3.9-1.4-.2-1.6-2.1,0-3.5,1.5-4c-1.6-1-.4-2.1-.5-3.5,0-4.7.3-9.7,0-14.5s-.8-8.5-1-13.5-.8-10.5-.5-15.8c.3-.3,8-.9,9.2-1.1,5.3-.8,7.3-.7,12.6-.9s9.3-1.8,14.2.5ZM295.9,85c.3-.1,1.5-2.3.9-2.9l-1.1-.9-1.7.4.5,3.5c.5,0,1,.1,1.4-.1ZM405,82.6c-1.2-.2-3.3,0-4.2,1-2.1,2.4,4.7,3.1,4.2-1ZM387.5,94.1c.6-3-4.4-2-4,.5l4-.5ZM307,133.1l-.8-2.5-2.7,1.3.3,1.3h3.2ZM291.5,135.1c5-.4.9-5,0-2.2v2.2ZM386,152.6c-1.6,0-4.8.3-3.8,2.5s4.3-2,3.8-2.5ZM397,160.6c-1.8.8-3.8-2.3-4.8-2.3s-2.8,1-3.7.8c-.3,2.1,3.7.9,4.2,1.1s1.5,2.6,3.6,2.3l.7-1.9ZM315.4,173.6v-3.9c-1,.7-1.3,1.2-2.5.5l1.1,4,1.4-.5ZM396.4,175.7c-.4-.4-2.2-.8-2.4.2s.6,4,1.2,4.2c2.4.7,1.6-4,1.1-4.4ZM389.8,182.3l-1.8-.7c-.5,2.7,1.7,3.2,4,3l-2.2-2.3ZM310,188.1l-4.5-1.5c-.2,2.3,1.2,3.8,3.3,4.5l1.2-3ZM346,205.1c-.4-1.5,1.3-3.4-.2-4.5l-3.2,3.7,3.5.8ZM380.8,203.8c-.3-.3-2.7-.8-2.9-.6-.2,2-.1,2.9,1,4.5l3-1.7c-.8-.4-.8-1.8-1.1-2.1Z"/>
  <path d="M604.5,271.6c-1.1,5.6-.8,10.7-1,16.3-.4,16.6-.8,33.3-1.5,50s-2.5,19.3.5,28.5,2.5,4.8,2.8,6.2-.4,1.6-.3,2.2,1.1.5,1.6,1.5c1,2.1.7,5,1.3,7.2.8,3.4,2.4,6.6,3.3,10l21.1,10.6c7.9-4.6,15.7-8.5,24.7-10.5-1.9-3.5.5-6.1,1-9.3s-.2-4.3.1-6.4c1.1-8.4,5.6-15.6,6-24.5.1-2.9-.7-5.5-.5-8.5s1.1-4.7,1.1-7-1.5-6.5-1.5-9.5c-.1-6.3,1.5-13.6,1-20s-1.3-5.9-1.5-9c-.6-8.1.6-15.9,1.5-23.8l2.9.4c.7-1.4.9-2.7-.4-3.7.4-.5.6-.7,1.2-.8,3.2-.4,9.3,2.5,13,2.6,4.2.1,8.1-2.3,12.5-1.6l.5,1.5c.8-.9,1.4-1.7,2.7-1.5-.5,2.9.2,6,0,8.7-.3,4-1.5,8.8-1.5,13s2.3,7.9,2.6,12-1.5,11.7-1.6,17c0,7.6,2.1,14.9,1.5,23s-.5,5.8-2,6.5c2.2,1,.5,5.6.5,8-.1,7.2-.3,7.7-1.8,14.7-1.5,7-2.4,16.1-4.3,22.7s-1.5,1.1-1.7,1.8,0,2.2-.2,3.3c-.6,2.8-3.5,7.9-4.6,10.9s0,3.1-1.1,3.9c-3.4.9-6.5,2.9-9.7,4.3-8.1,3.3-16.6,5.5-24.7,8.8s-3.3,2.1-5.2,2.8c-12.9,4.9-17.5,0-28.7-3.5-3.2-1-6.5-1.3-9.9-2.6-5.2-2-9.8-4.9-14.1-8.5l.6-4.3h-2.5s.5,2,.5,2l-1-.5v1.5c-3.9-1.9-7.1-1.9-7.9-6.9s-.5-8.3-2.3-13.2c-2.5-7-4.8-10.5-5.4-18.7s.6-2.2.5-2.9-.9-.3-1-.6c-.3-1.4,0-3-.5-4.9-1.1-3.6-2.7-5-3-9.5s-.4-6.2-.5-9,1.1-3.9,1.1-6-1.6-5.4-1.6-8.5.5-4.9.6-5.2,3.6-1,2.9-3.3l-3,1.7,1-11.8c-2.4-12,.6-24,0-36s-1.5-10.7-1-11.2l11.7-.9c4.7.9,9.7,1.5,14.5,1.4s7.1-1.5,10.7-1ZM592.8,279.9c-.6.4-1.4.3-1.8,1,2.1,2.9,7.7-.6,3.1-1.7-1.4-.3-1,.5-1.3.7ZM677.3,284.8c-.7-.3-1.3-.2-2.1-.2l-.2,1c.9.3,3.1,2.4,4,1.5s-1-1.5-1.3-1.7-.2-.6-.3-.6ZM686.8,296.2l-1.2,1.3.7,1.7,2.7-1.8-2.2-1.2ZM574,305.6c-1.9-.4-2.3,1.7-3.4,2.8l1.2,2.2c.4.2,2.1-1.7,2.2-1.8.3-.9,0-2.2,0-3.2ZM571.7,344.6l-.8,1.2c3.5,4.6,4.3-2.3.8-1.2ZM574.5,353.6c.2-2.5-.8-4-3.5-3.5l.5,1.7,3,1.7ZM690,374.1c-2.1.8-3.8-1.1-5.5.2,1.6,1.2,5.1,2.7,5.5-.2ZM587,379.6c.3,5.2,1.8,2.9,4.4,2.6s2.5,1.2,3.6-.8c-1.5-1.9-3.5-.5-5.2-.7s-1.7-1.1-2.8-1ZM599.5,400.6c0,1.2.5,2.9,1.8,3,3.4.4.8-3.8-1.8-3ZM648.5,419.6c1.2.9,4.2-1.3,2-2.7s-2.7,2.2-2,2.7ZM662,421.6c-.3-.3-3.3,1.1-3.9,1.4s-1.4-.3-1.1,1.1c.9.6,6.5-1,5-2.5ZM607,423.1c-.8-.9-4.9-.6-4.5,1.2s5.5-.2,4.5-1.2Z"/>
  <path d="M1069.4,70.2c.8.5,3.7,12.1,4.3,13.9,1.2,3.7,4.4,10,5,13.5s-1,1.5-.8,2.5l2-.5,15.5,39.5c-1.5-.3-2,.6-2,2l2.3-1,1.2,3-1.5.2c2,.6,2.6,2.4,3.2,4.3,1,3.2.8,6.5,1.9,9.6s5.5,13.7,7.3,17.2,3.7,4.6,5,7c2,3.9,3.4,9.3,5.2,13.3l-1,1.3,1.5-.5c.7,2.8,1.7,5.9,2.8,8.5s1.9,3.1,2.6,4.9,3.3,13.9,2.6,14.6l-13.8,3c-6.1,3.5-12.2,6.8-19.2,8-.8-3.7-2.3-7.2-3.3-11-2.4-9.6-3.9-14.1-8.6-22.9-1.9-3.6-.9-6.2-5.9-6.1-10.2.1-20.7,1.4-31,1.6s-12.2-.4-18.2-1c-4.7,8.7-6.4,18.7-10.8,27.5-1.8,3.6-4.7,6.8-5.3,11l-32-11.5c2.8-7.9,7.3-15.1,10.2-23s6.4-21.1,10.8-29.7,1.5-.7,3.4-2.1c.2-1.1-1.4-1-1.5-1.6-.4-2.1,3.1-8.2,3.9-10.5s1.4-5.5,2.5-8c1.7-3.8,5.1-6.9,7-10.5,2.8-5.4,2.6-10.9,4.7-16.3s3.3-6.1,4.5-9c3.2-7.9,4.1-17,6.9-24.6s3.9-9.1,5.6-13.7l3,.5-1.5-2.5c3.7,1.3,6.8-.7,10.3-1,7.1-.7,14.1,1,21.2,0ZM1035.2,86.3c-5.1,1.5-2.4,4.1.5,6.3,1.1,0,1.1-6.1-.5-6.3ZM1044.8,91.7l-1.3,1.7,3,.5c1.4-.9-.6-2.2-1.7-2.2ZM1063.6,147.9c-1.4-4.3-3-9.6-4.6-13.7s-5.1-8.6-6.8-12.7l-15.2,40.2c.5,1.9,8,.3,9.7.3,3.8.1,8.8,1.9,13.1,2s5.8-.2,8.8-1c-1.7-3.8-2.7-7.9-3.9-11.9s-.5-2.1-.9-3.3ZM1009.4,160.5c.5-1.1-.3-3.6-1.6-3.4-1.9,1-1,2.3-.8,4l2.4-.6ZM1092.5,171.6c-2.4-.2-4.5-2.3-5,1.5,2,1.1,5.1,1.7,5-1.5ZM1019.6,180.5c-.2-.6.6-1.3.2-1.9l-1.3-.8-1,.5c2.1,1.5-.9,1.9-1,3.5-.3,3.3,5.4,2.3,4-.9s-.8-.4-.9-.5ZM1098,186.6c-1-.3-2.2-.7-3.2,0s1.6,2.6,2,2.5l1.3-2.5ZM990.6,201.3c-2.8,3.5.8,7.5,1.2,3.8s0-3.3.6-4.9c0,0-1.6.9-1.8,1.2ZM1002.5,202.1l-2.4.6v2.4c1.6.1,3.3-1.3,2.4-3ZM1111.5,220.6v-1.5s-1.5,1.3-1.5,1.3c1.3,3.3,5.2.7,4-.7s-1.5,2-2.5,1Z"/>
  <path d="M717,132c.1.1,1.3.2,1.9.8,5.8,4.9,9.8,17.5,12.6,24.4s1,2.8,1.9,3.4c-.2-3.4,1.3-6.9,1.5-10.2s-1.1-8.1-1-12.5.8-10.1,1.6-13.9.6-2.5,1-3.8c2.8.3,5.6-.5,8.2-.6s2.4.6,3.5.5c2.7,0,11.1-1.5,13.1.1s.3,3.6,3.1,2.9v-2s4.5.8,4.5.8c.3,2.4-.9,4.6-1,6.9-.4,5.2.4,10.9,0,16s-2.1,7.3-2.5,11,.3,9.1,0,13.5c-.3,5-2.1,9.9-2.5,14.5-.2,2.2.3,4.9,0,7s-1.3,2.1-1.4,2.6.8,1.2.9,1.9c.2,1.7-1,5.9-1,8s.7,5.5.5,8.5-1,10.4-1.9,12.6-3.8,2.4-5.8,3.7-3.5,2.9-5.5,4c-2.9,1.6-5.9,1.6-8.7,3.3-.8,0-6.8-6.2-8.2-7.1-2.9-2-7.1-3-10.1-4.9-12.4-7.7-23.5-17-36.5-24-3.9-2.1-9-3.8-12.6-5.9s-6-5.1-8.8-7.2-3.3-1.7-3.4-1.9c-.4-.6.3-2.3-.8-2.9l-.2,2c-3.1,0-5.8-1.8-8-3.8,1.8-5.6,6.7-9.4,9.6-14.3s2.2-5.4,3.5-8,3.2-4.1,3.4-6.8l3.5,1.5-1.5,1.7,1.5,1.7c1.2.5,1.4-1.6,1.7-1.5,3,2.6,6.3,4.7,9.5,7s1.9,2.1,3.1,2.9c5.1,3.6,12.7,5.5,17.4,10.1.4,0,.3-.5.3-.8-.3-1.7-4.9-12-5.9-14.1-3.2-6.4-5.6-8-7.6-15.8s-3.1-2-1.5-4.4h-2c-.4-1.9-.8-4-1.7-5.6-4.5-8.4-8.7-17-12.2-25.8s-2.7-6-2.7-6.4,2.2-1.1,1.5-2.8l-1.8,1.5c-.5.2-.7-.3-.9-.5-.6-.5-4.2-6.9-4.9-8.1-2.8-5.1-4.9-11-8-16s-5.3-6.7-5.3-7.2,0-.6.5-.9c.8-.7,7.9-4.4,9.4-5.1,3.8-1.9,8.8-4.1,12.8-5.7s6.3-2.9,7.6-2,6.1,9.8,6.8,11.2c5,9.7,7.6,20.7,12.8,30.7,6,11.5,11.6,20.7,16.4,33.2.3.8,0,2.1.3,2.4ZM706.5,117.6c1.1-2.3-4.8-3.2-5-3-1.2,1.3,1.3,1.6,1.4,1.8,1.5,1.3.5,1.9,3.6,1.2ZM714.4,136.7c-.2-.2-2.3-.7-2.4.2l1.8,3.7c1.2.7.8-3.8.7-3.9ZM724,143.6c-.2-2.7-3.4-.8-5-1.5l-.5,3c2.2-.3,3-2.5,5.5-1.5ZM703.5,168.1c-2,3.8,2.9,3.6,2.5,1.8l-2.5-1.8ZM750,189.1c-3.9,0-1.7,1.1-1.7,1.8s-1.1.9-.8,1.7l2.4-.6v-2.9ZM754.5,224.6c-1.4-1.4-4.3,2.7-2.2,4,1.2-.3,3.1-3.1,2.2-4Z"/>
  <path d="M859,273.1c-.3,6.3,2,13,2,19.2s-.8,4.3-1,6.5.4,4.9-.5,5.5l-4.3.8-1-1.1c-3.8.8-9.9,1.2-14,1s-4.3-.3-4.5-1.5l-.2,1h-2s-.7-2-.7-2l-.5,2c-5.4,1.1-11.1,1.8-16.8,1.5l-.2-2c-1.3,1.4-1.7,2.2-3.8,1.5v20.5c-1.1.2.1-2-1.2-1.5s-1.7,3.9.7,2.5c-1.6,7.1.3,14.2.5,21.2.3,7.5-2.6,14.8-1.5,22.5l-1.5.3c3.2,5.3,1.2,12.2,1.5,18.3s1.4,10.6,1,16.5c-.4,6.2-2.5,14.7-2.5,20.5s.9.6,1,1.1.7,4.5.5,4.6c-4.7.4-9.5.8-14.3.5-3.5-.2-8-1.6-11.5-1.5s-7.1,2.2-7.8,1.5c-1.4-5.4,1-10.8,1-16.2s-.9-6.4-1-9,0-3.2,0-4.7l.8,1c4.4-.9,2.9-3.6-.8-2-.9-3-.3-6.2,0-9.2s1.3-3.4.6-7.2-1.4-5.2.3-7.1c-2.6-.4-1.3-5.8-1.5-8.3s-.9-5-.5-7.9,1.4-3.5,1.4-5.1c.2-4.4.3-8.9.5-13.4.5-9.5-2.5-18-2.5-27s1.3-7.8,1-11.8c-3.5.9-7.2.3-10.7.5s-4.5,1-7,1c-4.8,0-10.5-1.8-15.5-2.1s-10.2.7-15.3.5c0-2.2,0-4.5,0-6.7s-.6-1.8-.5-2.4,1.8-.5,1.1-3c-3.9-.8-1.1-7.1-.6-10.1s1-6.4,1.1-9.7l7.7,1,.6,1.5,1.5-1.5c4.1,1.2,7.5-2.2,11.1-2.3,5.3-.2,13.5,1.9,18.8,1.9,5.1,0,11-2.2,16-2.5,9.2-.6,18,3.5,25.5,3.6s14.4-2.3,21-1h28.3ZM770.5,274.1c.3,1-.4,2.2-.4,2.9,0,2.2,6.3-.4,3.9-2.1l-3.5-.8ZM847.5,282.1c.8-4.3-4.6-1.9-2.7-.5l2.7.5ZM833.5,287.6c.5-2.3-1.6-3.1-3.5-3.5-1,1.9,1.5,3.8,3.5,3.5ZM753.5,292.1c1,1.1,4.5-5.5,2.2-6.5-3.5,1.7-1.5,3.5-2.2,6.5ZM782,290.1c-.3-.2-1.5,0-1.8.5l-.2,4c1.4.3.9-.4,1.2-1s1.6-2.9.8-3.5ZM851.5,291.1c-2.3-.4-4.6.4-4.5,3l1.5.3,3-3.3ZM761.3,301.3c-.3-.3-2.3-.8-2.4-.7v3s1.7-.5,1.7-.5c.8.9.7,1.9,2.3,1.5-.2-.4-1.4-3.2-1.6-3.3ZM785.5,309.1c2.1.3,4.7-2.2,2.7-4l-2.7,4ZM793.5,330.1c-.4-.8,1-5-.2-5-2.8,1.8-.7,2.2-.8,3.2s-1.2.9-.9,1.8h2ZM784,381.1c.6,0,1.2.5,1.8.5,3.7.2-.6-5.2-1.8-.5ZM787,393.6c-2.8.4-3.4,4.6,0,3.7v-3.7ZM799.4,404.5c.3-.2.6-2.3,2.1-2.6-2.1-3.5-8.2,1.8-4.9,2.9s2.5,0,2.8-.3ZM798,422.1l-.5,1c-1.7,0-3.5.2-4.8,1.5-3.5-5-3.4,2,.5,2.5l1.6-2.5,3.9.5-.8-3Z"/>
  <path d="M880,69.6c-.9,5.7-.3,11.5-.5,17.3s.2,7.2,0,10.5c-.5,8.3-2.8,12.6-1.5,22,.5,3.3,2.4,7.6,2.4,10.6.2,9.9.8,21.1,0,30.9s-1.4,4.5-1.5,7c-.2,4.2.9,8.8,1,13s0,11.5-.5,17.2c2.3,1.1,4.1,0,6.2,0,8.6-.2,16.6.7,25,1,6.7.3,12.3-1.5,18.5-1.5s17.7.4,26,.5,4.5,0,6.8,0c-.3,11-5.5,21.6-1,32.5-2-.2-5.3.5-7.1-.5s-1.4-4.6-3.4-3.2l.4,1.6-.7,1.1c-1.8-.2-3.7-.8-5.5-1-2.8-.2-7.3-.7-10-.5-4.5.3-9.6,3.3-13.6,3.4s-6.7-.3-8.9-.5c-14.5-1.5-27.8-2.1-42.6-.9-3.7.3-7.9,1.6-11.5,1.5s-9.3-2.1-13.7-2c.5-4.1,2.1-8.1,2-12.3s-1.7-5.5-2-8.5c-.5-5,.2-15,.5-20.5s.6-4.5,1-6.5l-1,.2c.4-5.3-1.8-10.3,0-15.5,2.1,1.5,3.9-2.7.5-1.5.7-2.7.7-6.4.5-9.3-1.2-15.9-1-29,0-45,.2-3.6-.4-7.2-.5-10.8l2,1.5c-.7-1.2-.2-1.5.5-2.5l-3,.5c.3-2.5-1-5.5-1-7.8,0-3.5,2-8,2-11.4s-1.7-10.5-1-11.2c3.4.3,6.9,1.8,10.2,2s11.4-.3,15.5-.5,6.1-1.4,9.3-1ZM846,115l2.2,1.1c1.6-1.1-.3-2.8,1.3-3.8-1.8-2.1-3.3.7-3.4,2.7ZM864,140.1c.4-2.8-2.1-3.7-4.5-3.5-.3,1.2.6,1.1,1.2,1.5s3,2.3,3.3,2ZM909.5,200.6c-3.2.5-1.6,3.4-1.5,5.5,3.3.3,1.7-3.5,1.5-5.5ZM888,213.1l-4,.5-.3,2.5c1.6,1.5,1.8-.4,2.4-.8s2.3-.1,1.8-2.2Z"/>
  <path class="st0" d="M322,360.1c.6-2.5,3.5-7.2,4.8-2.5l-4.8,2.5Z"/>
  <path class="st0" d="M300.9,346.2v1.5c-1.1.1-2.6.1-2.5,1.5h-1s-.5-1.3-.5-1.3l-1.5.3c-.3-1.3.3-.8.7-1,1.6-1,2.9-1.9,4.8-.9Z"/>
  <path class="st0" d="M265,322.6c-2.8-.4-3.5-2.2-2-4.5,2.2.1,2.1,2.9,2,4.5Z"/>
  <path class="st0" d="M252.1,391.8c3.2-3.6,3.3,2.4,1.6,2.9s-2.8-1.5-1.6-2.9Z"/>
  <path class="st0" d="M286.3,353.9c-.2.4-1.3,1-1.6,1.7-2.3-1.9-1.4-5.5,1.7-3.2s.2,1-.2,1.6Z"/>
  <path class="st0" d="M258.6,303.5c0,.2.8.2.8.5.3,1.6-.8,3-2.3,1.7l-.2-4.5c1.6-.2,1.3,1.5,1.7,2.3Z"/>
  <path class="st0" d="M251.9,301.2c0,0,0,.6.3.7.7.4,1.6.3,1.8,1.2l-2.5-.5-.7,2-1.3-2.2,2.5-1.2Z"/>
  <path class="st0" d="M315.4,374.2l.6,2.9-1.7.4c-1.9-.3-1.1-5,1.1-3.3Z"/>
  <path class="st0" d="M294,277.6c-1.5-.2-2.4.4-3.2,1.5l-1.3-2.2c.3-1.5,4-.3,4.5.7Z"/>
  <path class="st0" d="M253,373.6c2.6,0,2.9,4.3.7,4.5s0-3.8-.7-4.5Z"/>
  <path class="st0" d="M329,292.7l2.5.2c0,3.7-2.8,3.1-2.5-.2Z"/>
  <path class="st0" d="M511.5,145.6c-.5,1.9,1.8,1.4,1.4,3.1s-1,1.4-1,2.3h-2.4c0,0,.5-5.4.5-5.4h1.5Z"/>
  <path class="st0" d="M460.1,227.5c-.2-.2,0-.7-.2-.9-.4-.5-1.9-.8-.4-1.7s3-.2,3.3-.2c4.2.1-1.1,4.6-2.7,2.8Z"/>
  <path class="st0" d="M558.5,155.6c.9-3.5,3.3-4.3,5-.7,0,1.1-4.1.7-5,.7Z"/>
  <path class="st0" d="M555,137.6l-1-4.2c.8-1.1,2.8-.7,3,.5s-1.7,1.6,0,2.9l-2,.7Z"/>
  <path class="st0" d="M550,125.1h-1.5c.7-1.7,0-3,2-3.7l-1-1c1.4-1.8,2.7-.2,3,1.5-1.8,1.2-2.6.8-2.5,3.3Z"/>
  <path class="st0" d="M565.5,112.6c3.3,1,3.3,3.4.2,5-1.2,0,.2-4.2-.2-5Z"/>
  <path class="st0" d="M472,224.6c-.8-2.2-.5-4,2.2-4l.8,1.2c-.7.4-2.1,3.4-3,2.8Z"/>
  <path class="st0" d="M543.5,107.1c-.9-2.4,3.6-3,4-1.7.6,2.2-2.8,1.8-4,1.7Z"/>
  <path class="st0" d="M554.7,218.1c1.9-.5,3.7,1.8,2.3,2.8-2.2,1.5-3.7-2.4-2.3-2.8Z"/>
  <path class="st0" d="M475,151.6c-.6.6-3.9-2.8-3.5-4,2.6-.5,3.4,1.8,3.5,4Z"/>
  <path class="st0" d="M464,165.1c.5,1.1-2.3,4.8-3,4l.2-3,2.8-1Z"/>
  <path class="st0" d="M467,186.7c1.2-.9,4.2,1.3,2,2.7s-3.1-1.9-2-2.7Z"/>
  <path class="st0" d="M463.5,153.1c-.8,1.4-2.3,2.6-4,2.5v-2.5s4,0,4,0Z"/>
  <path class="st0" d="M538,174.1c3.1-.4,1.7,3.2.2,4.5-1.1,0,0-4-.2-4.5Z"/>
  <path class="st0" d="M489.4,197.1h-1.5c0-.9-.3-3.1.8-3.5,2.4-.8,1.2,2.2.7,3.5Z"/>
  <path class="st0" d="M554.5,87.1c1,1.5-1.7,2.5-3,2l.5-2.3c.4-.4,2.4.2,2.5.3Z"/>
  <path class="st0" d="M550.5,114.1c.5.4.6,3.7-.7,4l-1.1-2.7c.1-.6,1.4-1.7,1.9-1.3Z"/>
  <path class="st0" d="M897.1,399.5c1.1.8,2.1.4,2.6,2.6,0,1.9-3.6.8-4.1-.1s-1.1-4.8.4-4.1c.6.3.8,1.3,1.1,1.6Z"/>
  <path class="st0" d="M943,287.1c1.2.5.8-.9,1.3-1s1.8.5,2.7,0l-1,2.8c-3.2-.2-5.6-.5-4-4.3l1,2.5Z"/>
  <path class="st0" d="M899.5,285.6c.5,2.9-1.6,2.8-2,3.3-.6.8.6,2.5-.4,2.7-1.1-2.2-2-6.7,1.5-4l1-2Z"/>
  <path class="st0" d="M912.5,408.1v-1.4c2.3-.8,5.6-.6,3.2,2.5l-3.2-1Z"/>
  <path class="st0" d="M910,380.6c-.6-.3-4.5,0-4-1.2l3.5-2.3.5,3.5Z"/>
  <path class="st0" d="M957.4,425.5l-3.9,1.1v-2.5c1.7.3,2.6.6,4-.5v1.9Z"/>
  <path class="st0" d="M958.5,290.1c-1.5.6-4-1.8-2.5-2.8s3,.9,2.5,2.8Z"/>
  <path class="st0" d="M900,385.6c-1.3.1-3.8,1.2-4.5-.5l1.5-.3.2-1.7,2.8,2.5Z"/>
  <path class="st0" d="M915.5,326.1l-4-.2c1.2-1.6,4.2-3,4,.2Z"/>
  <path class="st0" d="M899.4,307.7c0,0,.9,1.4,1.1,1.6.9,1.7-1.9,1.7-2.4.4v-2.2c.4,0,.9-.1,1.3.1Z"/>
  <path class="st0" d="M994.5,423.1c1,1-3.2,3.8-3.5,3.5,0-2.2,1.4-3.4,3.5-3.5Z"/>
  <path class="st0" d="M408.4,317.1l-3-.3c-1.7-2-.7-3.8,1.8-4.2,2.1.6,1.8,2.8,1.2,4.5Z"/>
  <path class="st0" d="M447.5,275.6l-1.5.5,2.5,1.5c-2.6-.9-4.3-.6-7-.5-.4-1.7,1.2-.7,2-1.2s.4-2,1.3-2.3,3,.8,2.7,2Z"/>
  <path class="st0" d="M512.9,384.6c1.3,2.9.3,3.7-2.6,4-2.8-2.1,0-4,2.6-4Z"/>
  <path class="st0" d="M524.2,344.4c-2.4,3.4-2.6-1.6-2.3-3.8l3.5,1.3c-.2.9-.7,1.8-1.2,2.5Z"/>
  <path class="st0" d="M507.5,306.6c.2,1.9-2,2.5-1.5,4.5h-2.5s.6-2.9.6-2.9l3.4-1.6Z"/>
  <path class="st0" d="M441.5,415.6c.7,2.3-.8,2.4-1.3,3.2s-.8,2.6-2.2,2.3c-.1-.1.8-3.5,1-3.7.3-.5,1.2-.1,1.4-.4.4-.4-.5-1.8,1.1-1.4Z"/>
  <polygon class="st0" points="404 335.6 403.9 337.6 400 338.6 400 336.7 401.5 336.6 401 335.6 404 335.6"/>
  <path class="st0" d="M473,416.6c0,.8.4,4.4-1.2,4-1.7-1.4-1.1-4.3,1.2-4Z"/>
  <path class="st0" d="M498,363.1c1.5-.9,2.3.2,3.3.3s2.6-1.6,2.2.4-3.4,0-4.2.8l-1.2-1.5Z"/>
  <path class="st0" d="M508,363.1c1,.7.3,2.7-1.4,2.9-3.5.5,0-3.9,1.4-2.9Z"/>
  <path class="st0" d="M511,322.6l.5-3,2.3.5v1.5c-.7,1-1.7,1.1-2.8,1Z"/>
  <path class="st0" d="M505.5,349.1l-1.5-3c1.4-.2,2.6-.6,3.5.8.4,1.3-1.1,1.8-2,2.2Z"/>
  <path class="st0" d="M481,399.1l-2,.3c-2.8-3.3,2-4,2-.3Z"/>
  <path class="st0" d="M455.5,410.6c-.5-.3-.4-3,.2-3.5l2.3,2.7c-.1.7-2,1.1-2.5.7Z"/>
  <path class="st0" d="M140.5,175.1c1.4-.1,3,0,4,1.2l-2.2,3.8c-1.5.3-1.8-4.1-1.7-5Z"/>
  <path class="st0" d="M221.5,104.1c.2,1.1-.1.8-.6,1.1-.9.6-5.2,2.3-5.8,1.3v-1.5s3.4,0,3.4,0v-2s3,1,3,1Z"/>
  <path class="st0" d="M238,183.5c-1.4-1.8-4.1-3.6,0-3.7l2,2.5c.2.9-1.2,1.6-1.9,1.1Z"/>
  <polygon class="st0" points="157 98.1 157 100.6 153.5 101.1 154.4 97.8 157 98.1"/>
  <path class="st0" d="M182.5,130.1c0,1.7.2,3.4-.1,5.1s-.2,1.7-1.4,1.4c.2-1.1-.3-2.7,0-3.7s1.2.1,1-1.1c-2.3-.5,0-2.3.5-1.7Z"/>
  <path class="st0" d="M211.9,142.7c.3.5.2,2.3-.4,2.7l-2.5-.3,1-2.8c.4-.4,1.8.2,1.9.4Z"/>
  <path class="st0" d="M154,134.6c-.5,1.3,1,1.4,1,2.2,0,3.3-3,.9-2.9-1.5l1.9-.7Z"/>
  <polygon class="st0" points="151.9 109.7 152 111.1 148 110.6 149.2 108.1 151.9 109.7"/>
  <path class="st0" d="M203.6,81.4c.7.7,2,.6.6,1.7l-3.2-1,1.3-2c.9-.2,1,.8,1.4,1.3Z"/>
  <path class="st0" d="M397,160.6l-.7,1.9c-2,.3-3.1-2.2-3.6-2.3s-4.5,1-4.2-1.1c.9.2,3.4-.8,3.7-.8,1,0,3,3.1,4.8,2.3Z"/>
  <path class="st0" d="M380.8,203.8c.3.3.3,1.7,1.1,2.1l-3,1.7c-1.1-1.6-1.2-2.5-1-4.5.1-.1,2.5.3,2.9.6Z"/>
  <path class="st0" d="M310,188.1l-1.2,3c-2.1-.7-3.5-2.2-3.3-4.5l4.5,1.5Z"/>
  <path class="st0" d="M396.4,175.7c.4.4,1.3,5.1-1.1,4.4s-1.4-3.7-1.2-4.2c.2-.9,2-.5,2.4-.2Z"/>
  <path class="st0" d="M405,82.6c.5,4-6.3,3.3-4.2,1s3-1.1,4.2-1Z"/>
  <path class="st0" d="M346,205.1l-3.5-.8,3.2-3.7c1.5,1.1-.1,3,.2,4.5Z"/>
  <path class="st0" d="M386,152.6c.5.5-2.7,4.9-3.8,2.5s2.2-2.5,3.8-2.5Z"/>
  <path class="st0" d="M295.9,85c-.4.2-.9,0-1.4.1l-.5-3.5,1.7-.4,1.1.9c.6.5-.6,2.7-.9,2.9Z"/>
  <path class="st0" d="M315.4,173.6l-1.4.5-1.1-4c1.2.7,1.5.2,2.5-.5v3.9Z"/>
  <polygon class="st0" points="307 133.1 303.7 133.1 303.4 131.9 306.2 130.6 307 133.1"/>
  <path class="st0" d="M389.8,182.3l2.2,2.3c-2.3.2-4.4-.3-4-3l1.8.7Z"/>
  <path class="st0" d="M387.5,94.1l-4,.5c-.4-2.5,4.6-3.5,4-.5Z"/>
  <path class="st0" d="M291.5,135.1v-2.2c.9-2.8,5,1.8,0,2.2Z"/>
  <path class="st0" d="M587,379.6c1.1,0,1.7.9,2.8,1,1.7.2,3.7-1.1,5.2.7-1.2,2-2.3.7-3.6.8-2.5.4-4.1,2.7-4.4-2.6Z"/>
  <path class="st0" d="M574,305.6c0,1,.2,2.2,0,3.2s-1.8,2-2.2,1.8l-1.2-2.2c1.1-1.1,1.6-3.2,3.4-2.8Z"/>
  <path class="st0" d="M592.8,279.9c.3-.2,0-1,1.3-.7,4.6,1.1-1,4.6-3.1,1.7.4-.6,1.2-.6,1.8-1Z"/>
  <path class="st0" d="M607,423.1c1,1.1-4.1,3-4.5,1.2s3.7-2.1,4.5-1.2Z"/>
  <path class="st0" d="M599.5,400.6c2.5-.8,5.1,3.4,1.8,3s-1.8-1.8-1.8-3Z"/>
  <path class="st0" d="M648.5,419.6c-.7-.5-.6-4.3,2-2.7s-.7,3.6-2,2.7Z"/>
  <path class="st0" d="M574.5,353.6l-3-1.7-.5-1.7c2.7-.5,3.7,1,3.5,3.5Z"/>
  <path class="st0" d="M690,374.1c-.4,2.9-3.9,1.5-5.5.2,1.7-1.3,3.4.6,5.5-.2Z"/>
  <path class="st0" d="M571.7,344.6c3.5-1.1,2.7,5.8-.8,1.2l.8-1.2Z"/>
  <polygon class="st0" points="686.8 296.2 689 297.4 686.2 299.1 685.5 297.5 686.8 296.2"/>
  <path class="st0" d="M662,421.6c1.5,1.5-4.1,3.1-5,2.5-.3-1.4.4-.8,1.1-1.1s3.6-1.7,3.9-1.4Z"/>
  <path class="st0" d="M677.3,284.8c.1,0,.2.5.3.6.3.2,2.5.5,1.3,1.7s-3.1-1.2-4-1.5l.2-1c.8,0,1.4,0,2.1.2Z"/>
  <path class="st0" d="M1035.2,86.3c1.6.2,1.6,6.4.5,6.3-2.9-2.2-5.6-4.8-.5-6.3Z"/>
  <path class="st0" d="M1019.6,180.5c0,0,.7.1.9.5,1.4,3.1-4.3,4.2-4,.9s3.2-2.1,1-3.5l1-.5,1.3.8c.4.6-.4,1.3-.2,1.9Z"/>
  <path class="st0" d="M1092.5,171.6c0,3.2-3,2.5-5,1.5.5-3.8,2.5-1.7,5-1.5Z"/>
  <path class="st0" d="M990.6,201.3c.2-.2,1.8-1.3,1.8-1.2-.6,1.6-.4,3.3-.6,4.9-.4,3.8-4-.2-1.2-3.8Z"/>
  <path class="st0" d="M1009.4,160.5l-2.4.6c-.2-1.7-1.1-3,.8-4,1.3-.2,2.1,2.3,1.6,3.4Z"/>
  <path class="st0" d="M1098,186.6l-1.3,2.5c-.3.1-2.9-1.9-2-2.5s2.2-.3,3.2,0Z"/>
  <path class="st0" d="M1044.8,91.7c1.1,0,3.1,1.3,1.7,2.2l-3-.5,1.3-1.7Z"/>
  <path class="st0" d="M1002.5,202.1c.9,1.7-.8,3.1-2.5,3v-2.4c0,0,2.5-.6,2.5-.6Z"/>
  <path class="st0" d="M1111.5,220.6c1,1,1.8-1.8,2.5-1,1.2,1.4-2.7,4-4,.7l1.5-1.3v1.5Z"/>
  <path class="st0" d="M706.5,117.6c-3,.7-2.1.1-3.6-1.2s-2.6-.5-1.4-1.8,6.1.7,5,3Z"/>
  <path class="st0" d="M724,143.6c-2.5-1-3.3,1.2-5.5,1.5l.5-3c1.6.7,4.8-1.2,5,1.5Z"/>
  <path class="st0" d="M754.5,224.6c.9.8-1.1,3.7-2.2,4-2.1-1.3.9-5.4,2.2-4Z"/>
  <path class="st0" d="M714.4,136.7c.1.2.5,4.6-.7,3.9l-1.8-3.7c.2-.9,2.2-.4,2.4-.2Z"/>
  <path class="st0" d="M750,189.1v2.9c0,0-2.5.6-2.5.6-.3-.9.8-1.2.8-1.7s-2.2-1.8,1.7-1.8Z"/>
  <path class="st0" d="M703.5,168.1l2.5,1.8c.4,1.8-4.5,2-2.5-1.8Z"/>
  <path class="st0" d="M798,422.1l.8,3-3.9-.5-1.6,2.5c-3.8-.4-3.9-7.5-.5-2.5,1.2-1.3,3-1.6,4.8-1.5l.5-1Z"/>
  <path class="st0" d="M799.4,404.5c-.3.3-2.3.4-2.8.3-3.4-1.2,2.7-6.4,4.9-2.9-1.5.3-1.8,2.4-2.1,2.6Z"/>
  <path class="st0" d="M753.5,292.1c.7-3-1.2-4.8,2.2-6.5,2.3,1-1.2,7.6-2.2,6.5Z"/>
  <path class="st0" d="M770.5,274.1l3.5.8c2.4,1.8-3.9,4.4-3.9,2.1s.7-1.9.4-2.9Z"/>
  <path class="st0" d="M761.3,301.3c.2.2,1.4,2.9,1.6,3.3-1.6.3-1.5-.6-2.3-1.5l-1.7.5v-3c0,0,2.1.4,2.4.7Z"/>
  <path class="st0" d="M833.5,287.6c-2,.3-4.4-1.6-3.5-3.5,1.9.4,4,1.2,3.5,3.5Z"/>
  <path class="st0" d="M851.5,291.1l-3,3.3-1.5-.3c0-2.6,2.2-3.4,4.5-3Z"/>
  <path class="st0" d="M785.5,309.1l2.7-4c2,1.8-.7,4.3-2.7,4Z"/>
  <path class="st0" d="M793.5,330.1h-2c-.3-.9.9-1.3.9-1.8.1-.9-1.9-1.4.8-3.2,1.2,0-.2,4.2.2,5Z"/>
  <path class="st0" d="M787,393.6v3.7c-3.4.8-2.8-3.4,0-3.7Z"/>
  <path class="st0" d="M782,290.1c.8.6-.4,2.8-.8,3.5s.2,1.3-1.2,1l.2-4c.3-.5,1.5-.7,1.8-.5Z"/>
  <path class="st0" d="M784,381.1c1.2-4.8,5.5.7,1.8.5s-1.2-.5-1.8-.5Z"/>
  <path class="st0" d="M847.5,282.1l-2.7-.5c-1.9-1.4,3.5-3.9,2.7.5Z"/>
  <path class="st0" d="M909.5,200.6c.2,2,1.8,5.8-1.5,5.5,0-2.1-1.7-5.1,1.5-5.5Z"/>
  <path class="st0" d="M846,115c0-1.9,1.6-4.8,3.4-2.7-1.6,1,.3,2.7-1.3,3.8l-2.2-1.1Z"/>
  <path class="st0" d="M888,213.1c.4,2.1-1,1.5-1.8,2.2s-.8,2.4-2.4.8l.3-2.5,4-.5Z"/>
  <path class="st0" d="M864,140.1c-.3.3-2.7-1.6-3.3-2s-1.5-.3-1.2-1.5c2.4-.2,4.9.7,4.5,3.5Z"/>
</svg>